#DR_Concrete_Fence_1_208417_34.obj

v -5 -0.3513578 -0.2999996
v -5 1.848637 -0.2999996
v 5 1.848637 -0.2999989
v 5 -0.3513578 -0.2999989
v -5 1.848637 -0.2999996
v -5 1.848637 -0.7000022
v 5 1.848637 -0.7000015
v 5 1.848637 -0.2999989
v -5 1.848637 -0.7000022
v -5 -0.3513578 -0.7000022
v 5 -0.3513578 -0.7000015
v 5 1.848637 -0.7000015
v 5 -0.3513578 -0.2999989
v 5 1.848637 -0.2999989
v 5 1.848637 -0.7000015
v 5 -0.3513578 -0.7000015
v -5 -0.3513578 -0.7000022
v -5 1.848637 -0.7000022
v -5 1.848637 -0.2999996
v -5 -0.3513578 -0.2999996

vn -0.7080078 0.0009775162 0.706543
vn -0.7080078 0.0009775162 0.706543
vn -0.7080078 0.0009775162 0.706543
vn -0.7080078 0.0009775162 0.706543
vn -0.0006914139 1 -0.0006914139
vn -0.0006914139 1 -0.0006914139
vn -0.0006914139 1 -0.0006914139
vn -0.0006914139 1 -0.0006914139
vn 0.706543 0.0009775162 -0.7080078
vn 0.706543 0.0009775162 -0.7080078
vn 0.706543 0.0009775162 -0.7080078
vn 0.706543 0.0009775162 -0.7080078
vn 0.7070313 0.0009775162 0.7070313
vn 0.7070313 0.0009775162 0.7070313
vn 0.7070313 0.0009775162 0.7070313
vn 0.7070313 0.0009775162 0.7070313
vn -0.7070313 0.0009775162 -0.7070313
vn -0.7070313 0.0009775162 -0.7070313
vn -0.7070313 0.0009775162 -0.7070313
vn -0.7070313 0.0009775162 -0.7070313

vt 0.4970703 0.1652832
vt 0.4970703 0.3083496
vt 0.9741211 0.3083496
vt 0.9741211 0.1652832
vt 0.4970703 0.3083496
vt 0.4970703 0.3273926
vt 0.9741211 0.3273926
vt 0.9741211 0.3083496
vt 0.4780273 0.3083496
vt 0.4780273 0.1652832
vt 0.0009832382 0.1654053
vt 0.001012802 0.3085938
vt 0.9741211 0.1652832
vt 0.9741211 0.3083496
vt 0.9931641 0.3083496
vt 0.9931641 0.1652832
vt 0.4780273 0.1652832
vt 0.4780273 0.3083496
vt 0.4970703 0.3083496
vt 0.4970703 0.1652832

g DR_Concrete_Fence_1_208417_34
usemtl DR_Concrete_Fence_1_208417_34
usemap DR_Concrete_Fence_1_208417_34
f 1/1/1 3/3/3 2/2/2
f 1/1/1 4/4/4 3/3/3
f 5/5/5 7/7/7 6/6/6
f 5/5/5 8/8/8 7/7/7
f 9/9/9 11/11/11 10/10/10
f 9/9/9 12/12/12 11/11/11
f 13/13/13 15/15/15 14/14/14
f 13/13/13 16/16/16 15/15/15
f 17/17/17 19/19/19 18/18/18
f 17/17/17 20/20/20 19/19/19
