#DR_Concrete_Fence_0_205491_26.obj

v -5.000002 -0.3513578 -0.3000054
v -5.000002 1.848637 -0.3000054
v 5 1.848637 -0.2999886
v 5 -0.3513578 -0.2999886
v -5.000002 1.848637 -0.3000054
v -5.000004 1.848637 -0.7000117
v 4.999998 1.848637 -0.6999948
v 5 1.848637 -0.2999886
v -5.000004 1.848637 -0.7000117
v -5.000004 -0.3513578 -0.7000117
v 4.999998 -0.3513578 -0.6999948
v 4.999998 1.848637 -0.6999948
v 5 -0.3513578 -0.2999886
v 5 1.848637 -0.2999886
v 4.999998 1.848637 -0.6999948
v 4.999998 -0.3513578 -0.6999948
v -5.000004 -0.3513578 -0.7000117
v -5.000004 1.848637 -0.7000117
v -5.000002 1.848637 -0.3000054
v -5.000002 -0.3513578 -0.3000054

vn 0.01817322 0.0009775162 1
vn 0.01817322 0.0009775162 1
vn 0.01817322 0.0009775162 1
vn 0.01817322 0.0009775162 1
vn -0.0009775162 1 1.871586E-05
vn -0.0009775162 1 1.871586E-05
vn -0.0009775162 1 1.871586E-05
vn -0.0009775162 1 1.871586E-05
vn -0.02012634 0.0009775162 -1
vn -0.02012634 0.0009775162 -1
vn -0.02012634 0.0009775162 -1
vn -0.02012634 0.0009775162 -1
vn 1 0.0009775162 -0.01914978
vn 1 0.0009775162 -0.01914978
vn 1 0.0009775162 -0.01914978
vn 1 0.0009775162 -0.01914978
vn -1 0.0009775162 0.01914978
vn -1 0.0009775162 0.01914978
vn -1 0.0009775162 0.01914978
vn -1 0.0009775162 0.01914978

vt 0.4970703 0.001089096
vt 0.4970703 0.144165
vt 0.9741211 0.144043
vt 0.9741211 0.0009832382
vt 0.4970703 0.144165
vt 0.4970703 0.163208
vt 0.9741211 0.163208
vt 0.9741211 0.144043
vt 0.4780273 0.144165
vt 0.4780273 0.001089096
vt 0.0009832382 0.001194954
vt 0.001012802 0.1442871
vt 0.9741211 0.0009832382
vt 0.9741211 0.144043
vt 0.9931641 0.144043
vt 0.9931641 0.0009832382
vt 0.4780273 0.001089096
vt 0.4780273 0.144165
vt 0.4970703 0.144165
vt 0.4970703 0.001089096

g DR_Concrete_Fence_0_205491_26
usemtl DR_Concrete_Fence_0_205491_26
usemap DR_Concrete_Fence_0_205491_26
f 1/1/1 3/3/3 2/2/2
f 1/1/1 4/4/4 3/3/3
f 5/5/5 7/7/7 6/6/6
f 5/5/5 8/8/8 7/7/7
f 9/9/9 11/11/11 10/10/10
f 9/9/9 12/12/12 11/11/11
f 13/13/13 15/15/15 14/14/14
f 13/13/13 16/16/16 15/15/15
f 17/17/17 19/19/19 18/18/18
f 17/17/17 20/20/20 19/19/19
