#DR_Concrete_Fence_1_208416_10.obj

v -5.000008 -0.3513578 -0.3000147
v -5.000008 1.848638 -0.3000147
v 5.000003 1.848638 -0.3000118
v 5.000003 -0.3513578 -0.3000118
v -5.000008 1.848638 -0.3000147
v -5.000002 1.848638 -0.7000275
v 5.000008 1.848638 -0.7000246
v 5.000003 1.848638 -0.3000118
v -5.000002 1.848638 -0.7000275
v -5.000002 -0.3513578 -0.7000275
v 5.000008 -0.3513578 -0.7000246
v 5.000008 1.848638 -0.7000246
v 5.000003 -0.3513578 -0.3000118
v 5.000003 1.848638 -0.3000118
v 5.000008 1.848638 -0.7000246
v 5.000008 -0.3513578 -0.7000246
v -5.000002 -0.3513578 -0.7000275
v -5.000002 1.848638 -0.7000275
v -5.000008 1.848638 -0.3000147
v -5.000008 -0.3513578 -0.3000147

vn 0.4777832 0.0009775162 0.878418
vn 0.4777832 0.0009775162 0.878418
vn 0.4777832 0.0009775162 0.878418
vn 0.4777832 0.0009775162 0.878418
vn -0.0008583069 1 0.0004680157
vn -0.0008583069 1 0.0004680157
vn -0.0008583069 1 0.0004680157
vn -0.0008583069 1 0.0004680157
vn -0.4794922 0.0009775162 -0.8774414
vn -0.4794922 0.0009775162 -0.8774414
vn -0.4794922 0.0009775162 -0.8774414
vn -0.4794922 0.0009775162 -0.8774414
vn 0.8779297 0.0009775162 -0.4787598
vn 0.8779297 0.0009775162 -0.4787598
vn 0.8779297 0.0009775162 -0.4787598
vn 0.8779297 0.0009775162 -0.4787598
vn -0.8779297 0.0009775162 0.4787598
vn -0.8779297 0.0009775162 0.4787598
vn -0.8779297 0.0009775162 0.4787598
vn -0.8779297 0.0009775162 0.4787598

vt 0.4970703 0.1652832
vt 0.4970703 0.3083496
vt 0.9741211 0.3083496
vt 0.9741211 0.1652832
vt 0.4970703 0.3083496
vt 0.4970703 0.3273926
vt 0.9741211 0.3273926
vt 0.9741211 0.3083496
vt 0.4780273 0.3083496
vt 0.4780273 0.1652832
vt 0.0009832382 0.1654053
vt 0.001012802 0.3085938
vt 0.9741211 0.1652832
vt 0.9741211 0.3083496
vt 0.9931641 0.3083496
vt 0.9931641 0.1652832
vt 0.4780273 0.1652832
vt 0.4780273 0.3083496
vt 0.4970703 0.3083496
vt 0.4970703 0.1652832

g DR_Concrete_Fence_1_208416_10
usemtl DR_Concrete_Fence_1_208416_10
usemap DR_Concrete_Fence_1_208416_10
f 1/1/1 3/3/3 2/2/2
f 1/1/1 4/4/4 3/3/3
f 5/5/5 7/7/7 6/6/6
f 5/5/5 8/8/8 7/7/7
f 9/9/9 11/11/11 10/10/10
f 9/9/9 12/12/12 11/11/11
f 13/13/13 15/15/15 14/14/14
f 13/13/13 16/16/16 15/15/15
f 17/17/17 19/19/19 18/18/18
f 17/17/17 20/20/20 19/19/19
