#FS_Airport_Prop_0_204391_4.obj

v -0.9355469 2.455449 3.280474
v -0.9355469 2.455449 -3.153215
v 3.179077 2.455449 -3.153215
v 3.179077 2.455449 3.280474
v 3.179077 -0.04455074 3.280474
v 3.179077 2.455449 3.280474
v 3.179077 2.455449 -3.153215
v 3.179077 -0.04455074 -3.153215
v -0.9355469 -0.04455074 -3.153215
v -0.9355469 2.455449 -3.153215
v -0.9355469 2.455449 3.280474
v -0.9355469 -0.04455074 3.280474
v -6.36969 10.7827 -6.30422
v -6.36969 12.17118 -6.30422
v -3.462524 12.17118 -6.30422
v -3.462524 10.7827 -6.30422
v -6.36969 -0.1090622 -6.30422
v -3.462524 -0.1090622 -6.30422
v -6.36969 12.17118 -9.211298
v -6.36969 10.7827 -9.211298
v -3.462524 10.7827 -9.211298
v -3.462524 12.17118 -9.211298
v -3.462524 -0.1090622 -9.211298
v -6.36969 -0.1090622 -9.211298
v -3.462524 10.7827 -6.30422
v -3.462524 12.17118 -6.30422
v -3.462524 12.17118 -9.211298
v -3.462524 10.7827 -9.211298
v -6.36969 10.7827 -9.211298
v -6.36969 12.17118 -9.211298
v -6.36969 12.17118 -6.30422
v -6.36969 10.7827 -6.30422
v -6.36969 -0.1090622 -9.211298
v -6.36969 -0.1090622 -6.30422
v -6.36969 12.17118 -9.211298
v -3.462524 12.17118 -9.211298
v -3.462524 12.17118 -6.30422
v -6.36969 12.17118 -6.30422
v 0.7300415 11.94108 -7.34453
v 0.7300415 12.6312 -7.34453
v 1.484802 12.6312 -7.34453
v 1.484802 11.94108 -7.34453
v 0.7300415 12.6312 -7.34453
v 0.7300415 12.6312 -8.09931
v 1.484802 12.6312 -8.09931
v 1.484802 12.6312 -7.34453
v 0.7300415 12.6312 -8.09931
v 0.7300415 11.94108 -8.09931
v 1.484802 11.94108 -8.09931
v 1.484802 12.6312 -8.09931
v 1.484802 11.94108 -7.34453
v 1.484802 12.6312 -7.34453
v 1.484802 12.6312 -8.09931
v 1.484802 11.94108 -8.09931
v 0.7300415 11.94108 -8.09931
v 0.7300415 12.6312 -8.09931
v 0.7300415 12.6312 -7.34453
v 0.7300415 11.94108 -7.34453
v 5.666077 -0.2055092 -10.35381
v 5.666077 10.93365 -10.35381
v 3.74353 10.93365 -12.27634
v 3.74353 -0.2055092 -12.27634
v 1.11731 10.93365 -12.98003
v 1.11731 -0.2055092 -12.98003
v 6.369751 -0.2055092 -7.727579
v 6.369751 10.93365 -7.727579
v 1.11731 -0.2055092 -12.98003
v 1.11731 10.93365 -12.98003
v -1.508911 10.93365 -12.27634
v -1.508911 -0.2055092 -12.27634
v -3.431458 10.93365 -10.35381
v -3.431458 -0.2055092 -10.35381
v -4.135132 10.93365 -7.727579
v -4.135132 -0.2055092 -7.727579
v -4.135132 -0.2055092 -7.727579
v -4.135132 10.93365 -7.727579
v -3.431458 10.93365 -5.101362
v -3.431458 -0.2055092 -5.101362
v -1.508911 10.93365 -3.178829
v -1.508911 -0.2055092 -3.178829
v 1.11731 10.93365 -2.475134
v 1.11731 -0.2055092 -2.475134
v 1.11731 -0.2055092 -2.475134
v 1.11731 10.93365 -2.475134
v 3.74353 10.93365 -3.178829
v 3.74353 -0.2055092 -3.178829
v 5.666077 10.93365 -5.101362
v 5.666077 -0.2055092 -5.101362
v 6.369751 10.93365 -7.727579
v 6.369751 -0.2055092 -7.727579
v 5.666077 10.93365 -10.35381
v 1.11731 12.18938 -7.727579
v 3.74353 10.93365 -12.27634
v 1.11731 10.93365 -12.98003
v -1.508911 10.93365 -12.27634
v -3.431458 10.93365 -10.35381
v -4.135132 10.93365 -7.727579
v -3.431458 10.93365 -5.101362
v -1.508911 10.93365 -3.178829
v 1.11731 10.93365 -2.475134
v 3.74353 10.93365 -3.178829
v 5.666077 10.93365 -5.101362
v 6.369751 10.93365 -7.727579
v -6.36969 10.84514 9.150946
v -6.36969 12.17118 9.150946
v -3.462524 12.17118 9.150946
v -3.462524 10.84514 9.150946
v -6.36969 -0.1090622 9.150946
v -3.462524 -0.1090622 9.150946
v -6.36969 12.17118 6.243862
v -6.369751 10.84514 6.243862
v -3.462524 10.84514 6.243862
v -3.462524 12.17118 6.243862
v -3.462524 -0.1090622 6.243862
v -6.36969 -0.1090622 6.243862
v -3.462524 10.84514 9.150946
v -3.462524 12.17118 9.150946
v -3.462524 12.17118 6.243862
v -3.462524 10.84514 6.243862
v -6.369751 10.84514 6.243862
v -6.36969 12.17118 6.243862
v -6.36969 12.17118 9.150946
v -6.36969 10.84514 9.150946
v -6.36969 -0.1090622 6.243862
v -6.36969 -0.1090622 9.150946
v -6.36969 12.17118 6.243862
v -3.462524 12.17118 6.243862
v -3.462524 12.17118 9.150946
v -6.36969 12.17118 9.150946
v 0.7300415 11.94108 8.110628
v 0.7300415 12.6312 8.110628
v 1.484802 12.6312 8.110628
v 1.484802 11.94108 8.110628
v 0.7300415 12.6312 8.110628
v 0.7300415 12.6312 7.355854
v 1.484802 12.6312 7.355854
v 1.484802 12.6312 8.110628
v 0.7300415 12.6312 7.355854
v 0.7300415 11.94108 7.355854
v 1.484802 11.94108 7.355854
v 1.484802 12.6312 7.355854
v 1.484802 11.94108 8.110628
v 1.484802 12.6312 8.110628
v 1.484802 12.6312 7.355854
v 1.484802 11.94108 7.355854
v 0.7300415 11.94108 7.355854
v 0.7300415 12.6312 7.355854
v 0.7300415 12.6312 8.110628
v 0.7300415 11.94108 8.110628
v 5.666077 -0.2055092 5.101358
v 5.666077 10.93365 5.101358
v 3.74353 10.93365 3.178823
v 3.74353 -0.2055092 3.178823
v 1.11731 10.93365 2.475134
v 1.11731 -0.2055092 2.475134
v 6.369751 -0.2055092 7.727579
v 6.369751 10.93365 7.727579
v 1.11731 -0.2055092 2.475134
v 1.11731 10.93365 2.475134
v -1.508911 10.93365 3.178823
v -1.508911 -0.2055092 3.178823
v -3.431458 10.93365 5.101358
v -3.431458 -0.2055092 5.101358
v -4.135132 10.93365 7.727579
v -4.135132 -0.2055092 7.727579
v -4.135132 -0.2055092 7.727579
v -4.135132 10.93365 7.727579
v -3.431458 10.93365 10.35381
v -3.431458 -0.2055092 10.35381
v -1.508911 10.93365 12.27633
v -1.508911 -0.2055092 12.27633
v 1.11731 10.93365 12.98003
v 1.11731 -0.2055092 12.98003
v 1.11731 -0.2055092 12.98003
v 1.11731 10.93365 12.98003
v 3.74353 10.93365 12.27633
v 3.74353 -0.2055092 12.27633
v 5.666077 10.93365 10.35381
v 5.666077 -0.2055092 10.35381
v 5.666077 -0.2055092 10.35381
v 5.666077 10.93365 10.35381
v 6.369751 10.93365 7.727579
v 6.369751 -0.2055092 7.727579
v 5.666077 10.93365 5.101358
v 1.11731 12.18938 7.727579
v 3.74353 10.93365 3.178823
v 1.11731 10.93365 2.475134
v -1.508911 10.93365 3.178823
v -3.431458 10.93365 5.101358
v -4.135132 10.93365 7.727579
v -3.431458 10.93365 10.35381
v -1.508911 10.93365 12.27633
v 1.11731 10.93365 12.98003
v 3.74353 10.93365 12.27633
v 5.666077 10.93365 10.35381
v 6.369751 10.93365 7.727579

vn 0 1 0
vn 0 1 0
vn 0 1 0
vn 0 1 0
vn 1 0 0
vn 1 0 0
vn 1 0 0
vn 1 0 0
vn -1 0 0
vn -1 0 0
vn -1 0 0
vn -1 0 0
vn 0 0 1
vn 0 0 1
vn 0 0 1
vn 0 0 1
vn 0 0 1
vn 0 0 1
vn 0 0 -1
vn 0 0 -1
vn 0 0 -1
vn 0 0 -1
vn 0 0 -1
vn 0 0 -1
vn 1 0 0
vn 1 0 0
vn 1 0 0
vn 1 0 0
vn -1 0 0
vn -1 0 0
vn -1 0 0
vn -1 0 0
vn -1 0 0
vn -1 0 0
vn 0 1 1.192093E-06
vn 0 1 1.192093E-06
vn 0 1 -1.549721E-06
vn 0 1 -1.549721E-06
vn 0 0 1
vn 0 0 1
vn 0 0 1
vn 0 0 1
vn 0 1 0
vn 0 1 0
vn 0 1 0
vn 0 1 0
vn 0 0 -1
vn 0 0 -1
vn 0 0 -1
vn 0 0 -1
vn 1 0 0
vn 1 0 0
vn 1 0 0
vn 1 0 0
vn -1 0 0
vn -1 0 0
vn -1 0 0
vn -1 0 0
vn 0.8662109 0 -0.5
vn 0.8662109 0 -0.5
vn 0.5 0 -0.8662109
vn 0.5 0 -0.8662109
vn 0 0 -1
vn 0 0 -1
vn 1 0 0
vn 1 0 0
vn 0 0 -1
vn 0 0 -1
vn -0.5 0 -0.8662109
vn -0.5 0 -0.8662109
vn -0.8662109 0 -0.5
vn -0.8662109 0 -0.5
vn -1 0 0
vn -1 0 0
vn -1 0 0
vn -1 0 0
vn -0.8662109 0 0.5
vn -0.8662109 0 0.5
vn -0.5 0 0.8662109
vn -0.5 0 0.8662109
vn 0 0 1
vn 0 0 1
vn 0 0 1
vn 0 0 1
vn 0.5 0 0.8662109
vn 0.5 0 0.8662109
vn 0.8662109 0 0.5
vn 0.8662109 0 0.5
vn 1 0 0
vn 1 0 0
vn 0 1 0
vn 0 1 0
vn 0 1 0
vn 0 1 0
vn 0 1 0
vn 0 1 0
vn 0 1 0
vn 0 1 0
vn 0 1 0
vn 0 1 0
vn 0 1 0
vn 0 1 0
vn 0 1 0
vn 0 0 1
vn 0 0 1
vn 0 0 1
vn 0 0 1
vn 0 0 1
vn 0 0 1
vn 0 0 -1
vn 0 0 -1
vn 0 0 -1
vn 0 0 -1
vn 0 0 -1
vn 0 0 -1
vn 1 0 0
vn 1 0 0
vn 1 0 0
vn 1 0 0
vn -1 0 1.049042E-05
vn -1 2.31266E-05 1.049042E-05
vn -1 2.31266E-05 1.049042E-05
vn -1 0 1.049042E-05
vn -1 -2.801418E-06 1.049042E-05
vn -1 -2.801418E-06 1.049042E-05
vn 0 1 1.192093E-06
vn 0 1 1.192093E-06
vn 0 1 -1.549721E-06
vn 0 1 -1.549721E-06
vn 0 0 1
vn 0 0 1
vn 0 0 1
vn 0 0 1
vn 0 1 0
vn 0 1 0
vn 0 1 0
vn 0 1 0
vn 0 0 -1
vn 0 0 -1
vn 0 0 -1
vn 0 0 -1
vn 1 0 0
vn 1 0 0
vn 1 0 0
vn 1 0 0
vn -1 0 0
vn -1 0 0
vn -1 0 0
vn -1 0 0
vn 0.8662109 0 -0.5
vn 0.8662109 0 -0.5
vn 0.5 0 -0.8662109
vn 0.5 0 -0.8662109
vn 0 0 -1
vn 0 0 -1
vn 1 0 0
vn 1 0 0
vn 0 0 -1
vn 0 0 -1
vn -0.5 0 -0.8662109
vn -0.5 0 -0.8662109
vn -0.8662109 0 -0.5
vn -0.8662109 0 -0.5
vn -1 0 0
vn -1 0 0
vn -1 0 0
vn -1 0 0
vn -0.8662109 0 0.5
vn -0.8662109 0 0.5
vn -0.5 0 0.8662109
vn -0.5 0 0.8662109
vn 0 0 1
vn 0 0 1
vn 0 0 1
vn 0 0 1
vn 0.5 0 0.8662109
vn 0.5 0 0.8662109
vn 0.8662109 0 0.5
vn 0.8662109 0 0.5
vn 0.8662109 0 0.5
vn 0.8662109 0 0.5
vn 1 0 0
vn 1 0 0
vn 0 1 0
vn 0 1 0
vn 0 1 0
vn 0 1 0
vn 0 1 0
vn 0 1 0
vn 0 1 0
vn 0 1 0
vn 0 1 0
vn 0 1 0
vn 0 1 0
vn 0 1 0
vn 0 1 0

vt 0.9458008 0.5712891
vt 0.9838867 0.5712891
vt 0.9838867 0.546875
vt 0.9458008 0.546875
vt 0.9458008 0.5317383
vt 0.9458008 0.546875
vt 0.9838867 0.546875
vt 0.9838867 0.5317383
vt 0.9838867 0.5859375
vt 0.9838867 0.5712891
vt 0.9458008 0.5712891
vt 0.9458008 0.5859375
vt 0.894043 0.7670898
vt 0.9023438 0.7670898
vt 0.9023438 0.75
vt 0.894043 0.75
vt 0.8291016 0.7670898
vt 0.8291016 0.75
vt 0.5830078 0.6679688
vt 0.5913086 0.6679688
vt 0.5913086 0.6503906
vt 0.5830078 0.6503906
vt 0.65625 0.6503906
vt 0.65625 0.6679688
vt 0.3483887 0.8154297
vt 0.3483887 0.8071289
vt 0.3310547 0.8071289
vt 0.3310547 0.8154297
vt 0.5913086 0.6679688
vt 0.5830078 0.6679688
vt 0.5830078 0.6850586
vt 0.5913086 0.6850586
vt 0.65625 0.6679688
vt 0.65625 0.6850586
vt 0.8530273 0.7250977
vt 0.8344727 0.7241211
vt 0.8330078 0.7426758
vt 0.8515625 0.7441406
vt 0.4580078 0.01258087
vt 0.4621582 0.01269531
vt 0.4624023 0.008201599
vt 0.458252 0.008087158
vt 0.4621582 0.01269531
vt 0.4667969 0.01281738
vt 0.4667969 0.008323669
vt 0.4624023 0.008201599
vt 0.4667969 0.01281738
vt 0.4707031 0.01293182
vt 0.4709473 0.00843811
vt 0.4667969 0.008323669
vt 0.4624023 0.004085541
vt 0.4624023 0.008201599
vt 0.4667969 0.008323669
vt 0.467041 0.004211426
vt 0.4665527 0.01693726
vt 0.4667969 0.01281738
vt 0.4621582 0.01269531
vt 0.4621582 0.01681519
vt 0.7397461 0.5327148
vt 0.7397461 0.4663086
vt 0.7236328 0.4663086
vt 0.7236328 0.5327148
vt 0.7075195 0.4663086
vt 0.7075195 0.5327148
vt 0.7563477 0.5327148
vt 0.7563477 0.4663086
vt 0.7075195 0.5327148
vt 0.7075195 0.4663086
vt 0.6914063 0.4663086
vt 0.6914063 0.5327148
vt 0.675293 0.4663086
vt 0.675293 0.5327148
vt 0.6586914 0.4663086
vt 0.6586914 0.5327148
vt 0.6586914 0.5327148
vt 0.6586914 0.4663086
vt 0.6425781 0.4663086
vt 0.6425781 0.5327148
vt 0.6264648 0.4663086
vt 0.6264648 0.5327148
vt 0.6103516 0.4663086
vt 0.6103516 0.5327148
vt 0.6103516 0.5327148
vt 0.6103516 0.4663086
vt 0.5942383 0.4663086
vt 0.5942383 0.5327148
vt 0.5776367 0.4663086
vt 0.5776367 0.5327148
vt 0.5615234 0.4663086
vt 0.5615234 0.5327148
vt 0.5400391 0.4648438
vt 0.5229492 0.4938965
vt 0.5522461 0.4772949
vt 0.5566406 0.4941406
vt 0.5522461 0.5112305
vt 0.5395508 0.5234375
vt 0.5229492 0.5273438
vt 0.5058594 0.5229492
vt 0.4936523 0.5102539
vt 0.4892578 0.4936523
vt 0.4941406 0.4768066
vt 0.5063477 0.4645996
vt 0.5234375 0.4602051
vt 0.9902344 0.7646484
vt 0.9980469 0.7646484
vt 0.9980469 0.7475586
vt 0.9902344 0.7475586
vt 0.9248047 0.7646484
vt 0.9248047 0.7475586
vt 0.000998497 0.6669922
vt 0.008903503 0.6669922
vt 0.008903503 0.6494141
vt 0.000998497 0.6494141
vt 0.07421875 0.6494141
vt 0.07421875 0.6669922
vt 0.5732422 0.8188477
vt 0.5732422 0.8110352
vt 0.5556641 0.8110352
vt 0.5556641 0.8188477
vt 0.008903503 0.6669922
vt 0.000998497 0.6669922
vt 0.000998497 0.684082
vt 0.008903503 0.684082
vt 0.07421875 0.6669922
vt 0.07421875 0.684082
vt 0.6791992 0.7216797
vt 0.6606445 0.7207031
vt 0.659668 0.7392578
vt 0.6782227 0.7407227
vt 0.8544922 0.009712219
vt 0.8588867 0.01019287
vt 0.859375 0.005722046
vt 0.8549805 0.005245209
vt 0.8588867 0.01019287
vt 0.8632813 0.01071167
vt 0.8637695 0.006240845
vt 0.859375 0.005722046
vt 0.8632813 0.01071167
vt 0.8671875 0.01118469
vt 0.8676758 0.006717682
vt 0.8637695 0.006240845
vt 0.8598633 0.001634598
vt 0.859375 0.005722046
vt 0.8637695 0.006240845
vt 0.8642578 0.002155304
vt 0.862793 0.0147934
vt 0.8632813 0.01071167
vt 0.8588867 0.01019287
vt 0.8583984 0.0142746
vt 0.03341675 0.4794922
vt 0.03341675 0.5458984
vt 0.04962158 0.5458984
vt 0.04962158 0.4794922
vt 0.06585693 0.5458984
vt 0.06585693 0.4794922
vt 0.01721191 0.4794922
vt 0.01721191 0.5458984
vt 0.06585693 0.4794922
vt 0.06585693 0.5458984
vt 0.08203125 0.5458984
vt 0.08203125 0.4794922
vt 0.0982666 0.5458984
vt 0.0982666 0.4794922
vt 0.114502 0.5458984
vt 0.114502 0.4794922
vt 0.114502 0.4794922
vt 0.114502 0.5458984
vt 0.1307373 0.5458984
vt 0.1307373 0.4794922
vt 0.1468506 0.5458984
vt 0.1468506 0.4794922
vt 0.1630859 0.5458984
vt 0.1630859 0.4794922
vt 0.1630859 0.4794922
vt 0.1630859 0.5458984
vt 0.1793213 0.5458984
vt 0.1793213 0.4794922
vt 0.1955566 0.5458984
vt 0.1955566 0.4794922
vt 0.000998497 0.4794922
vt 0.000998497 0.5458984
vt 0.01721191 0.5458984
vt 0.01721191 0.4794922
vt 0.9790039 0.4616699
vt 0.9643555 0.4921875
vt 0.9921875 0.4729004
vt 0.9980469 0.489502
vt 0.9951172 0.5068359
vt 0.9833984 0.5200195
vt 0.9672852 0.5258789
vt 0.9501953 0.5224609
vt 0.9365234 0.5112305
vt 0.9306641 0.494873
vt 0.934082 0.4777832
vt 0.9453125 0.4643555
vt 0.9619141 0.4584961

g FS_Airport_Prop_0_204391_4
usemtl FS_Airport_Prop_0_204391_4
usemap FS_Airport_Prop_0_204391_4
f 1/1/1 3/3/3 2/2/2
f 1/1/1 4/4/4 3/3/3
f 5/5/5 7/7/7 6/6/6
f 5/5/5 8/8/8 7/7/7
f 9/9/9 11/11/11 10/10/10
f 9/9/9 12/12/12 11/11/11
f 13/13/13 15/15/15 14/14/14
f 13/13/13 16/16/16 15/15/15
f 17/17/17 16/16/16 13/13/13
f 17/17/17 18/18/18 16/16/16
f 19/19/19 21/21/21 20/20/20
f 19/19/19 22/22/22 21/21/21
f 20/20/20 21/21/21 23/23/23
f 20/20/20 23/23/23 24/24/24
f 25/25/25 27/27/27 26/26/26
f 25/25/25 28/28/28 27/27/27
f 29/29/29 31/31/31 30/30/30
f 29/29/29 32/32/32 31/31/31
f 33/33/33 32/32/32 29/29/29
f 33/33/33 34/34/34 32/32/32
f 35/35/35 37/37/37 36/36/36
f 35/35/35 38/38/38 37/37/37
f 39/39/39 41/41/41 40/40/40
f 39/39/39 42/42/42 41/41/41
f 43/43/43 45/45/45 44/44/44
f 43/43/43 46/46/46 45/45/45
f 47/47/47 49/49/49 48/48/48
f 47/47/47 50/50/50 49/49/49
f 51/51/51 53/53/53 52/52/52
f 51/51/51 54/54/54 53/53/53
f 55/55/55 57/57/57 56/56/56
f 55/55/55 58/58/58 57/57/57
f 59/59/59 61/61/61 60/60/60
f 59/59/59 62/62/62 61/61/61
f 62/62/62 63/63/63 61/61/61
f 62/62/62 64/64/64 63/63/63
f 65/65/65 59/59/59 60/60/60
f 65/65/65 60/60/60 66/66/66
f 67/67/67 69/69/69 68/68/68
f 67/67/67 70/70/70 69/69/69
f 70/70/70 71/71/71 69/69/69
f 70/70/70 72/72/72 71/71/71
f 72/72/72 73/73/73 71/71/71
f 72/72/72 74/74/74 73/73/73
f 75/75/75 77/77/77 76/76/76
f 75/75/75 78/78/78 77/77/77
f 78/78/78 79/79/79 77/77/77
f 78/78/78 80/80/80 79/79/79
f 80/80/80 81/81/81 79/79/79
f 80/80/80 82/82/82 81/81/81
f 83/83/83 85/85/85 84/84/84
f 83/83/83 86/86/86 85/85/85
f 86/86/86 87/87/87 85/85/85
f 86/86/86 88/88/88 87/87/87
f 88/88/88 89/89/89 87/87/87
f 88/88/88 90/90/90 89/89/89
f 91/91/91 93/93/93 92/92/92
f 93/93/93 94/94/94 92/92/92
f 94/94/94 95/95/95 92/92/92
f 95/95/95 96/96/96 92/92/92
f 96/96/96 97/97/97 92/92/92
f 97/97/97 98/98/98 92/92/92
f 98/98/98 99/99/99 92/92/92
f 99/99/99 100/100/100 92/92/92
f 100/100/100 101/101/101 92/92/92
f 101/101/101 102/102/102 92/92/92
f 102/102/102 103/103/103 92/92/92
f 103/103/103 91/91/91 92/92/92
f 104/104/104 106/106/106 105/105/105
f 104/104/104 107/107/107 106/106/106
f 108/108/108 107/107/107 104/104/104
f 108/108/108 109/109/109 107/107/107
f 110/110/110 112/112/112 111/111/111
f 110/110/110 113/113/113 112/112/112
f 111/111/111 112/112/112 114/114/114
f 111/111/111 114/114/114 115/115/115
f 116/116/116 118/118/118 117/117/117
f 116/116/116 119/119/119 118/118/118
f 120/120/120 122/122/122 121/121/121
f 120/120/120 123/123/123 122/122/122
f 124/124/124 123/123/123 120/120/120
f 124/124/124 125/125/125 123/123/123
f 126/126/126 128/128/128 127/127/127
f 126/126/126 129/129/129 128/128/128
f 130/130/130 132/132/132 131/131/131
f 130/130/130 133/133/133 132/132/132
f 134/134/134 136/136/136 135/135/135
f 134/134/134 137/137/137 136/136/136
f 138/138/138 140/140/140 139/139/139
f 138/138/138 141/141/141 140/140/140
f 142/142/142 144/144/144 143/143/143
f 142/142/142 145/145/145 144/144/144
f 146/146/146 148/148/148 147/147/147
f 146/146/146 149/149/149 148/148/148
f 150/150/150 152/152/152 151/151/151
f 150/150/150 153/153/153 152/152/152
f 153/153/153 154/154/154 152/152/152
f 153/153/153 155/155/155 154/154/154
f 156/156/156 150/150/150 151/151/151
f 156/156/156 151/151/151 157/157/157
f 158/158/158 160/160/160 159/159/159
f 158/158/158 161/161/161 160/160/160
f 161/161/161 162/162/162 160/160/160
f 161/161/161 163/163/163 162/162/162
f 163/163/163 164/164/164 162/162/162
f 163/163/163 165/165/165 164/164/164
f 166/166/166 168/168/168 167/167/167
f 166/166/166 169/169/169 168/168/168
f 169/169/169 170/170/170 168/168/168
f 169/169/169 171/171/171 170/170/170
f 171/171/171 172/172/172 170/170/170
f 171/171/171 173/173/173 172/172/172
f 174/174/174 176/176/176 175/175/175
f 174/174/174 177/177/177 176/176/176
f 177/177/177 178/178/178 176/176/176
f 177/177/177 179/179/179 178/178/178
f 180/180/180 182/182/182 181/181/181
f 180/180/180 183/183/183 182/182/182
f 184/184/184 186/186/186 185/185/185
f 186/186/186 187/187/187 185/185/185
f 187/187/187 188/188/188 185/185/185
f 188/188/188 189/189/189 185/185/185
f 189/189/189 190/190/190 185/185/185
f 190/190/190 191/191/191 185/185/185
f 191/191/191 192/192/192 185/185/185
f 192/192/192 193/193/193 185/185/185
f 193/193/193 194/194/194 185/185/185
f 194/194/194 195/195/195 185/185/185
f 195/195/195 196/196/196 185/185/185
f 196/196/196 184/184/184 185/185/185
