#FS_Airport_Prop_3_207184_0.obj

v -8.255499 -0.02344608 8.270949
v -8.255499 3.976552 8.270949
v 8.255487 3.976552 8.270949
v 8.255487 -0.02344608 8.270949
v -8.255499 3.976552 -8.240037
v -8.255499 -0.02344608 -8.240037
v 8.255487 -0.02344608 -8.240037
v 8.255487 3.976552 -8.240037
v 8.255487 -0.02344608 8.270949
v 8.255487 3.976552 8.270949
v 8.255487 3.976552 -8.240037
v 8.255487 -0.02344608 -8.240037
v -8.255499 -0.02344608 -8.240037
v -8.255499 3.976552 -8.240037
v -8.255499 3.976552 8.270949
v -8.255499 -0.02344608 8.270949
v -8.255499 3.976552 -8.240037
v 8.255487 3.976552 -8.240037
v 8.255487 3.976552 8.270949
v -8.255499 3.976552 8.270949
v -7.606695 2.195731 -7.954789
v -7.606695 2.195731 -8.399613
v -6.217108 2.195731 -8.399613
v -6.217108 2.195731 -7.954789
v -7.406683 1.99573 -8.319749
v -7.406683 -0.0042696 -8.319749
v -6.41712 -0.0042696 -8.319749
v -6.41712 1.99573 -8.319749
v -6.217108 -0.0042696 -7.954789
v -6.217108 2.195731 -7.954789
v -6.217108 2.195731 -8.399613
v -6.217108 -0.0042696 -8.399613
v -7.606695 -0.0042696 -8.399613
v -7.606695 2.195731 -8.399613
v -7.606695 2.195731 -7.954789
v -7.606695 -0.0042696 -7.954789
v -6.41712 1.99573 -8.399613
v -6.217108 2.195731 -8.399613
v -7.606695 2.195731 -8.399613
v -7.406683 1.99573 -8.399613
v -6.41712 -0.0042696 -8.399613
v -6.217108 -0.0042696 -8.399613
v -7.606695 -0.0042696 -8.399613
v -7.406683 -0.0042696 -8.399613
v -7.406683 1.99573 -8.399613
v -7.406683 1.99573 -8.319749
v -6.41712 1.99573 -8.319749
v -6.41712 1.99573 -8.399613
v -6.41712 1.99573 -8.399613
v -6.41712 1.99573 -8.319749
v -6.41712 -0.0042696 -8.319749
v -6.41712 -0.0042696 -8.399613
v -7.406683 -0.0042696 -8.399613
v -7.406683 -0.0042696 -8.319749
v -7.406683 1.99573 -8.319749
v -7.406683 1.99573 -8.399613
v 2.577265 2.195731 -7.954789
v 2.577265 2.195731 -8.399613
v 6.549921 2.195731 -8.399613
v 6.549921 2.195731 -7.954789
v 2.777277 1.99573 -8.319749
v 2.777277 -0.0042696 -8.319749
v 6.349909 -0.0042696 -8.319749
v 6.349909 1.99573 -8.319749
v 6.549921 -0.0042696 -7.954789
v 6.549921 2.195731 -7.954789
v 6.549921 2.195731 -8.399613
v 6.549921 -0.0042696 -8.399613
v 2.577265 -0.0042696 -8.399613
v 2.577265 2.195731 -8.399613
v 2.577265 2.195731 -7.954789
v 2.577265 -0.0042696 -7.954789
v 6.349909 1.99573 -8.399613
v 6.549921 2.195731 -8.399613
v 2.577265 2.195731 -8.399613
v 2.777277 1.99573 -8.399613
v 6.349909 -0.0042696 -8.399613
v 6.549921 -0.0042696 -8.399613
v 2.577265 -0.0042696 -8.399613
v 2.777277 -0.0042696 -8.399613
v 2.777277 1.99573 -8.399613
v 2.777277 1.99573 -8.319749
v 6.349909 1.99573 -8.319749
v 6.349909 1.99573 -8.399613
v 6.349909 1.99573 -8.399613
v 6.349909 1.99573 -8.319749
v 6.349909 -0.0042696 -8.319749
v 6.349909 -0.0042696 -8.399613
v 2.777277 -0.0042696 -8.399613
v 2.777277 -0.0042696 -8.319749
v 2.777277 1.99573 -8.319749
v 2.777277 1.99573 -8.399613
v -4.747808 2.195731 7.954788
v -4.747808 2.195731 8.399611
v -6.137396 2.195731 8.399611
v -6.137396 2.195731 7.954788
v -4.947821 1.99573 8.319747
v -4.947821 -0.0042696 8.319747
v -5.937384 -0.0042696 8.319747
v -5.937384 1.99573 8.319747
v -6.137396 -0.0042696 7.954788
v -6.137396 2.195731 7.954788
v -6.137396 2.195731 8.399611
v -6.137396 -0.0042696 8.399611
v -4.747808 -0.0042696 8.399611
v -4.747808 2.195731 8.399611
v -4.747808 2.195731 7.954788
v -4.747808 -0.0042696 7.954788
v -5.937384 1.99573 8.399611
v -6.137396 2.195731 8.399611
v -4.747808 2.195731 8.399611
v -4.947821 1.99573 8.399611
v -5.937384 -0.0042696 8.399611
v -6.137396 -0.0042696 8.399611
v -4.747808 -0.0042696 8.399611
v -4.947821 -0.0042696 8.399611
v -4.947821 1.99573 8.399611
v -4.947821 1.99573 8.319747
v -5.937384 1.99573 8.319747
v -5.937384 1.99573 8.399611
v -5.937384 1.99573 8.399611
v -5.937384 1.99573 8.319747
v -5.937384 -0.0042696 8.319747
v -5.937384 -0.0042696 8.399611
v -4.947821 -0.0042696 8.399611
v -4.947821 -0.0042696 8.319747
v -4.947821 1.99573 8.319747
v -4.947821 1.99573 8.399611

vn 0 0 1
vn 0 0 1
vn 0 0 1
vn 0 0 1
vn 0 0 -1
vn 0 0 -1
vn 0 0 -1
vn 0 0 -1
vn 1 0 0
vn 1 0 0
vn 1 0 0
vn 1 0 0
vn -1 0 0
vn -1 0 0
vn -1 0 0
vn -1 0 0
vn 0 1 0
vn 0 1 0
vn 0 1 0
vn 0 1 0
vn 0 1 0
vn 0 1 0
vn 0 1 0
vn 0 1 0
vn 0 0 -1
vn 0 0 -1
vn 0 0 -1
vn 0 0 -1
vn 1 0 0
vn 1 0 0
vn 1 0 0
vn 1 0 0
vn -1 0 0
vn -1 0 0
vn -1 0 0
vn -1 0 0
vn 0 0 -1
vn 0 0 -1
vn 0 0 -1
vn 0 0 -1
vn 0 0 -1
vn 0 0 -1
vn 0 0 -1
vn 0 0 -1
vn 0 -1 0
vn 0 -1 0
vn 0 -1 0
vn 0 -1 0
vn -1 0 0
vn -1 0 0
vn -1 0 0
vn -1 0 0
vn 1 0 0
vn 1 0 0
vn 1 0 0
vn 1 0 0
vn 0 1 0
vn 0 1 0
vn 0 1 0
vn 0 1 0
vn 0 0 -1
vn 0 0 -1
vn 0 0 -1
vn 0 0 -1
vn 1 0 0
vn 1 0 0
vn 1 0 0
vn 1 0 0
vn -1 0 0
vn -1 0 0
vn -1 0 0
vn -1 0 0
vn 0 0 -1
vn 0 0 -1
vn 0 0 -1
vn 0 0 -1
vn 0 0 -1
vn 0 0 -1
vn 0 0 -1
vn 0 0 -1
vn 0 -1 0
vn 0 -1 0
vn 0 -1 0
vn 0 -1 0
vn -1 0 0
vn -1 0 0
vn -1 0 0
vn -1 0 0
vn 1 0 0
vn 1 0 0
vn 1 0 0
vn 1 0 0
vn 0 1 0
vn 0 1 0
vn 0 1 0
vn 0 1 0
vn 0 0 1
vn 0 0 1
vn 0 0 1
vn 0 0 1
vn -1 0 0
vn -1 0 0
vn -1 0 0
vn -1 0 0
vn 1 0 0
vn 1 0 0
vn 1 0 0
vn 1 0 0
vn 0 0 1
vn 0 0 1
vn 0 0 1
vn 0 0 1
vn 0 0 1
vn 0 0 1
vn 0 0 1
vn 0 0 1
vn 0 -1 0
vn 0 -1 0
vn 0 -1 0
vn 0 -1 0
vn 1 0 0
vn 1 0 0
vn 1 0 0
vn 1 0 0
vn -1 0 0
vn -1 0 0
vn -1 0 0
vn -1 0 0

vt 0.000998497 0.7294922
vt 0.0009994507 0.753418
vt 0.09942627 0.753418
vt 0.09942627 0.7294922
vt 0.2963867 0.753418
vt 0.2963867 0.7294922
vt 0.197876 0.7294922
vt 0.197876 0.753418
vt 0.09942627 0.7294922
vt 0.09942627 0.753418
vt 0.197876 0.753418
vt 0.197876 0.7294922
vt 0.2963867 0.7294922
vt 0.2963867 0.753418
vt 0.3947754 0.753418
vt 0.3947754 0.7294922
vt 0.3847656 0.3491211
vt 0.3896484 0.2486572
vt 0.2893066 0.2436523
vt 0.2841797 0.3439941
vt 0.3798828 0.7709961
vt 0.3825684 0.7709961
vt 0.3825684 0.7626953
vt 0.3798828 0.7626953
vt 0.3842773 0.7700195
vt 0.3962402 0.7700195
vt 0.3962402 0.7641602
vt 0.3842773 0.7641602
vt 0.3962402 0.7597656
vt 0.3830566 0.7597656
vt 0.3830566 0.762207
vt 0.3962402 0.762207
vt 0.3962402 0.7714844
vt 0.3830566 0.7714844
vt 0.3830566 0.7739258
vt 0.3962402 0.7739258
vt 0.3837891 0.7641602
vt 0.3825684 0.7626953
vt 0.3825684 0.7709961
vt 0.3837891 0.7700195
vt 0.3962402 0.7636719
vt 0.3962402 0.762207
vt 0.3962402 0.7714844
vt 0.3962402 0.7705078
vt 0.3837891 0.7700195
vt 0.3842773 0.7700195
vt 0.3842773 0.7641602
vt 0.3837891 0.7641602
vt 0.3842773 0.7636719
vt 0.3842773 0.7641602
vt 0.3962402 0.7641602
vt 0.3962402 0.7636719
vt 0.3962402 0.7705078
vt 0.3962402 0.7700195
vt 0.3842773 0.7700195
vt 0.3842773 0.7705078
vt 0.3049316 0.7563477
vt 0.3049316 0.7592773
vt 0.3286133 0.7592773
vt 0.3286133 0.7563477
vt 0.3061523 0.7607422
vt 0.3061523 0.7729492
vt 0.3273926 0.7729492
vt 0.3273926 0.7607422
vt 0.3317871 0.7729492
vt 0.3317871 0.7597656
vt 0.3291016 0.7597656
vt 0.3291016 0.7729492
vt 0.3044434 0.7729492
vt 0.3044434 0.7597656
vt 0.3017578 0.7597656
vt 0.3017578 0.7729492
vt 0.3273926 0.7602539
vt 0.3286133 0.7592773
vt 0.3049316 0.7592773
vt 0.3061523 0.7602539
vt 0.3278809 0.7729492
vt 0.3291016 0.7729492
vt 0.3044434 0.7729492
vt 0.3056641 0.7729492
vt 0.3061523 0.7602539
vt 0.3061523 0.7607422
vt 0.3273926 0.7607422
vt 0.3273926 0.7602539
vt 0.3278809 0.7607422
vt 0.3273926 0.7607422
vt 0.3273926 0.7729492
vt 0.3278809 0.7729492
vt 0.3056641 0.7729492
vt 0.3061523 0.7729492
vt 0.3061523 0.7607422
vt 0.3056641 0.7607422
vt 0.3798828 0.7709961
vt 0.3825684 0.7709961
vt 0.3825684 0.7626953
vt 0.3798828 0.7626953
vt 0.3842773 0.7700195
vt 0.3962402 0.7700195
vt 0.3962402 0.7641602
vt 0.3842773 0.7641602
vt 0.3962402 0.7597656
vt 0.3830566 0.7597656
vt 0.3830566 0.762207
vt 0.3962402 0.762207
vt 0.3962402 0.7714844
vt 0.3830566 0.7714844
vt 0.3830566 0.7739258
vt 0.3962402 0.7739258
vt 0.3837891 0.7641602
vt 0.3825684 0.7626953
vt 0.3825684 0.7709961
vt 0.3837891 0.7700195
vt 0.3962402 0.7636719
vt 0.3962402 0.762207
vt 0.3962402 0.7714844
vt 0.3962402 0.7705078
vt 0.3837891 0.7700195
vt 0.3842773 0.7700195
vt 0.3842773 0.7641602
vt 0.3837891 0.7641602
vt 0.3842773 0.7636719
vt 0.3842773 0.7641602
vt 0.3962402 0.7641602
vt 0.3962402 0.7636719
vt 0.3962402 0.7705078
vt 0.3962402 0.7700195
vt 0.3842773 0.7700195
vt 0.3842773 0.7705078

g FS_Airport_Prop_3_207184_0
usemtl FS_Airport_Prop_3_207184_0
usemap FS_Airport_Prop_3_207184_0
f 1/1/1 3/3/3 2/2/2
f 1/1/1 4/4/4 3/3/3
f 5/5/5 7/7/7 6/6/6
f 5/5/5 8/8/8 7/7/7
f 9/9/9 11/11/11 10/10/10
f 9/9/9 12/12/12 11/11/11
f 13/13/13 15/15/15 14/14/14
f 13/13/13 16/16/16 15/15/15
f 17/17/17 19/19/19 18/18/18
f 17/17/17 20/20/20 19/19/19
f 21/21/21 23/23/23 22/22/22
f 21/21/21 24/24/24 23/23/23
f 25/25/25 27/27/27 26/26/26
f 25/25/25 28/28/28 27/27/27
f 29/29/29 31/31/31 30/30/30
f 29/29/29 32/32/32 31/31/31
f 33/33/33 35/35/35 34/34/34
f 33/33/33 36/36/36 35/35/35
f 37/37/37 39/39/39 38/38/38
f 37/37/37 40/40/40 39/39/39
f 41/41/41 37/37/37 38/38/38
f 41/41/41 38/38/38 42/42/42
f 40/40/40 43/43/43 39/39/39
f 40/40/40 44/44/44 43/43/43
f 45/45/45 47/47/47 46/46/46
f 45/45/45 48/48/48 47/47/47
f 49/49/49 51/51/51 50/50/50
f 49/49/49 52/52/52 51/51/51
f 53/53/53 55/55/55 54/54/54
f 53/53/53 56/56/56 55/55/55
f 57/57/57 59/59/59 58/58/58
f 57/57/57 60/60/60 59/59/59
f 61/61/61 63/63/63 62/62/62
f 61/61/61 64/64/64 63/63/63
f 65/65/65 67/67/67 66/66/66
f 65/65/65 68/68/68 67/67/67
f 69/69/69 71/71/71 70/70/70
f 69/69/69 72/72/72 71/71/71
f 73/73/73 75/75/75 74/74/74
f 73/73/73 76/76/76 75/75/75
f 77/77/77 73/73/73 74/74/74
f 77/77/77 74/74/74 78/78/78
f 76/76/76 79/79/79 75/75/75
f 76/76/76 80/80/80 79/79/79
f 81/81/81 83/83/83 82/82/82
f 81/81/81 84/84/84 83/83/83
f 85/85/85 87/87/87 86/86/86
f 85/85/85 88/88/88 87/87/87
f 89/89/89 91/91/91 90/90/90
f 89/89/89 92/92/92 91/91/91
f 93/93/93 95/95/95 94/94/94
f 93/93/93 96/96/96 95/95/95
f 97/97/97 99/99/99 98/98/98
f 97/97/97 100/100/100 99/99/99
f 101/101/101 103/103/103 102/102/102
f 101/101/101 104/104/104 103/103/103
f 105/105/105 107/107/107 106/106/106
f 105/105/105 108/108/108 107/107/107
f 109/109/109 111/111/111 110/110/110
f 109/109/109 112/112/112 111/111/111
f 113/113/113 109/109/109 110/110/110
f 113/113/113 110/110/110 114/114/114
f 112/112/112 115/115/115 111/111/111
f 112/112/112 116/116/116 115/115/115
f 117/117/117 119/119/119 118/118/118
f 117/117/117 120/120/120 119/119/119
f 121/121/121 123/123/123 122/122/122
f 121/121/121 124/124/124 123/123/123
f 125/125/125 127/127/127 126/126/126
f 125/125/125 128/128/128 127/127/127
