#LA_River_00_215457_83.obj

v -10.32182 -7.917624 8.183562
v -7.429568 -7.917368 5.626477
v -2.659938E-05 -7.917454 5.62639
v -2.108462E-05 -7.917624 7.428204
v -25.57462 -7.919667 9.932426
v -25.57462 -7.917028 5.626645
v 7.429509 -7.917368 5.626481
v 9.180591 -7.917794 9.147022
v 25.57465 -7.917028 5.626652
v 25.57465 -7.917028 9.932434
v -25.57427 -7.919667 10.78107
v -10.21543 -8.232876 10.24521
v -7.429567 -8.233387 14.23804
v -25.57427 -7.919667 14.23821
v -25.57427 -7.919667 17.57329
v -9.214176 -8.233812 17.3229
v -2.602603E-05 -8.233387 14.23795
v 0.1286672 -8.234068 19.91343
v 7.429596 -8.233387 14.23804
v 9.668281 -8.233896 18.31343
v 25.5743 -7.917028 14.23822
v 25.5743 -7.917028 17.68003
v -0.1196938 -8.23279 8.382128
v 9.496014 -8.232962 10.8278
v 25.57431 -7.917028 10.87725
v -7.493058 -7.9189 18.00107
v -2.018951E-05 -7.919156 20.87264
v -7.429567 -7.919497 22.84952
v -25.57462 -7.919667 18.54399
v -25.57461 -7.917028 22.84968
v -2.545268E-05 -7.919411 22.84952
v 7.429597 -7.919497 22.84952
v 9.635006 -7.919156 20.30154
v 25.57465 -7.917028 18.544
v 25.57465 -7.917028 22.84969
v -7.429571 0.1382466 41.40863
v -7.429567 -7.919497 22.84952
v -2.545268E-05 -7.919411 22.84952
v -2.961183E-05 0.1382466 41.40863
v -25.57461 -7.917028 22.84968
v -25.5746 0.1382466 41.40864
v 7.429598 0.1382466 41.40863
v 7.429597 -7.919497 22.84952
v 25.57465 -7.917028 22.84969
v 25.57465 0.1382466 41.40863
v -7.42956 0.1382466 44.63683
v -7.429571 0.1382466 41.40863
v -2.961183E-05 0.1382466 41.40863
v -1.860731E-05 0.1382466 44.63683
v -25.5746 0.1382466 41.40864
v -25.57461 0.1382466 44.63683
v 7.429593 0.1382466 44.63682
v 7.429598 0.1382466 41.40863
v 25.57465 0.1382466 41.40863
v 25.57465 0.1382466 44.63682
v -7.42956 -2.442243 44.63683
v -7.42956 0.1382466 44.63683
v -1.860731E-05 0.1382466 44.63683
v -1.860731E-05 -2.442243 44.63683
v -25.57461 0.1382466 44.63683
v -25.57461 -2.442243 44.63683
v 7.429593 -2.442243 44.63682
v 7.429593 0.1382466 44.63682
v 25.57465 0.1382466 44.63682
v 25.57465 -2.442243 44.63682
v -25.57461 0.1382466 -12.88395
v -7.429569 0.1382466 -12.88396
v -7.429568 -7.917368 5.626477
v -25.57462 -7.917028 5.626645
v -25.57461 0.1382466 -44.60877
v -7.42948 0.1382466 -44.60009
v -7.429569 0.1382466 -12.88396
v -25.57461 0.1382466 -12.88395
v -25.57461 -2.442243 -44.60877
v -7.42948 -2.442243 -44.60009
v -7.42948 0.1382466 -44.60009
v -25.57461 0.1382466 -44.60877
v -2.994331E-05 -2.442243 -44.59856
v -2.994331E-05 2.583861E-05 -44.59856
v -7.429569 0.1382466 -12.88396
v -7.42948 0.1382466 -44.60009
v -7.429483 -4.975156 -12.88396
v -7.429568 -7.917368 5.626477
v -2.783178E-05 -4.975156 -12.88396
v -7.429483 -4.975156 -12.88396
v -7.42948 0.1382466 -44.60009
v -2.994331E-05 2.583861E-05 -44.59856
v -2.659938E-05 -7.917454 5.62639
v -7.429568 -7.917368 5.626477
v 7.429506 0.1382466 -44.60009
v 7.429427 -4.975156 -12.88396
v 7.429509 -7.917368 5.626481
v 25.57465 0.1382466 -12.88395
v 25.57465 -7.917028 5.626652
v 7.429509 -7.917368 5.626481
v 7.429595 0.1382466 -12.88395
v 25.57465 0.1382466 -44.60877
v 25.57465 0.1382466 -12.88395
v 7.429595 0.1382466 -12.88395
v 7.429506 0.1382466 -44.60009
v 25.57465 -2.442243 -44.60877
v 25.57465 0.1382466 -44.60877
v 7.429506 0.1382466 -44.60009
v 7.429506 -2.442243 -44.60009
v -2.994331E-05 -2.442243 -44.59856
v -2.994331E-05 2.583861E-05 -44.59856
v 7.429595 0.1382466 -12.88395
v 7.429427 -4.975156 -12.88396
v 7.429506 0.1382466 -44.60009
v 7.429509 -7.917368 5.626481
v -25.57461 0.1382466 -12.88395
v -25.57461 -2.442243 -12.88395
v -25.57461 -2.442243 -44.60877
v -25.57461 0.1382466 -44.60877
v 25.57465 0.1382466 -44.60877
v 25.57465 -2.442243 -44.60877
v 25.57465 -2.442243 -12.88395
v 25.57465 0.1382466 -12.88395

vn 0.004837036 1 -0.004837036
vn -0.0006914139 1 0.0006914139
vn 0.0006914139 1 -0.0006914139
vn 0.06036377 0.9960938 0.06451416
vn 0.003456116 1 -0.003456116
vn -0.0006914139 1 0.0006914139
vn -0.0006914139 1 0.0006914139
vn -0.004837036 1 0.004837036
vn -0.0006914139 1 0.0006914139
vn -0.002073288 1 0.002073288
vn 0.01313019 1 -0.01313019
vn 0.01036835 1 -0.01036835
vn 0.004837036 1 -0.004837036
vn 0.01313019 1 -0.01313019
vn 0.01036835 1 -0.01036835
vn 0.008987427 1 -0.008987427
vn 0.0006914139 1 -0.0006914139
vn -0.04058838 0.9980469 -0.04751587
vn -0.006221771 1 0.006221771
vn -0.01036835 1 0.01036835
vn -0.01313019 1 0.01313019
vn -0.01313019 1 0.01313019
vn 0.04208374 0.9980469 0.04623413
vn -0.01036835 1 0.01036835
vn -0.01174927 1 0.01174927
vn -0.03259277 0.9980469 -0.05331421
vn -0.03909302 0.9980469 -0.04876709
vn 0.0006914139 1 -0.0006914139
vn 0.0006914139 1 -0.0006914139
vn 0.0006914139 1 -0.0006914139
vn -0.0006914139 1 0.0006914139
vn -0.0006914139 1 0.0006914139
vn -0.003456116 1 0.003456116
vn -0.003456116 1 0.003456116
vn -0.0006914139 1 0.0006914139
vn -0.2800293 0.9179688 -0.28125
vn -0.2800293 0.9179688 -0.28125
vn -0.28125 0.9179688 -0.2800293
vn -0.28125 0.9179688 -0.2800293
vn -0.2800293 0.9179688 -0.28125
vn -0.2800293 0.9179688 -0.28125
vn -0.28125 0.9179688 -0.2800293
vn -0.28125 0.9179688 -0.2800293
vn -0.28125 0.9179688 -0.2800293
vn -0.28125 0.9179688 -0.2800293
vn -0.0006914139 1 0.0006914139
vn -0.0006914139 1 0.0006914139
vn -0.0006914139 1 0.0006914139
vn -0.0006914139 1 0.0006914139
vn -0.0006914139 1 0.0006914139
vn -0.0006914139 1 0.0006914139
vn -0.0006914139 1 0.0006914139
vn -0.0006914139 1 0.0006914139
vn -0.0006914139 1 0.0006914139
vn -0.0006914139 1 0.0006914139
vn 0.706543 0.0009775162 0.7080078
vn 0.706543 0.0009775162 0.7080078
vn 0.706543 0.0009775162 0.7080078
vn 0.706543 0.0009775162 0.7080078
vn 0.7080078 0.0009775162 0.706543
vn 0.7080078 0.0009775162 0.706543
vn 0.7080078 0.0009775162 0.706543
vn 0.7080078 0.0009775162 0.706543
vn 0.706543 0.0009775162 0.7080078
vn 0.706543 0.0009775162 0.7080078
vn 0.28125 0.9179688 0.2800293
vn 0.28125 0.9179688 0.2800293
vn 0.28125 0.9179688 0.2800293
vn 0.28125 0.9179688 0.2800293
vn -0.0006914139 1 0.0006914139
vn -0.0006914139 1 0.0006914139
vn -0.0006914139 1 0.0006914139
vn -0.0006914139 1 0.0006914139
vn -0.706543 0.0009775162 -0.7080078
vn -0.706543 0.0009775162 -0.7080078
vn -0.706543 0.0009775162 -0.7080078
vn -0.706543 0.0009775162 -0.7080078
vn -0.706543 0.0009775162 -0.7080078
vn -0.706543 0.0009775162 -0.7080078
vn 0.7070313 0.0009775162 -0.7070313
vn 0.7070313 0.0009775162 -0.7070313
vn 0.7070313 0.0009775162 -0.7070313
vn 0.7070313 0.0009775162 -0.7070313
vn 0.1113892 0.9882813 0.1044922
vn 0.1113892 0.9882813 0.1044922
vn 0.1140137 0.9882813 0.1015625
vn 0.1140137 0.9882813 0.1015625
vn 0.1087036 0.9882813 0.1072998
vn 0.1087036 0.9882813 0.1072998
vn 0.1015625 0.9882813 0.1140137
vn 0.1044922 0.9882813 0.1113892
vn 0.1072998 0.9882813 0.1087036
vn 0.2800293 0.9179688 0.28125
vn 0.2800293 0.9179688 0.28125
vn 0.2800293 0.9179688 0.28125
vn 0.2800293 0.9179688 0.28125
vn -0.0006914139 1 0.0006914139
vn -0.0006914139 1 0.0006914139
vn -0.0006914139 1 0.0006914139
vn -0.0006914139 1 0.0006914139
vn -0.7080078 0.0009775162 -0.706543
vn -0.7080078 0.0009775162 -0.706543
vn -0.7080078 0.0009775162 -0.706543
vn -0.7080078 0.0009775162 -0.706543
vn -0.7080078 0.0009775162 -0.706543
vn -0.7080078 0.0009775162 -0.706543
vn -0.7070313 0.0009775162 0.7070313
vn -0.7070313 0.0009775162 0.7070313
vn -0.7070313 0.0009775162 0.7070313
vn -0.7070313 0.0009775162 0.7070313
vn -0.7070313 0.0009775162 0.7070313
vn -0.7070313 0.0009775162 0.7070313
vn -0.7070313 0.0009775162 0.7070313
vn -0.7070313 0.0009775162 0.7070313
vn 0.7070313 0.0009775162 -0.7070313
vn 0.7070313 0.0009775162 -0.7070313
vn 0.7070313 0.0009775162 -0.7070313
vn 0.7070313 0.0009775162 -0.7070313

vt 0.7939453 0.777832
vt 0.8056641 0.7890625
vt 0.8398438 0.7890625
vt 0.8398438 0.78125
vt 0.7285156 0.7705078
vt 0.7285156 0.7890625
vt 0.8740234 0.7890625
vt 0.8808594 0.7739258
vt 0.9511719 0.7890625
vt 0.9511719 0.7705078
vt 0.7285156 0.7666016
vt 0.7944336 0.769043
vt 0.8066406 0.7519531
vt 0.7285156 0.7519531
vt 0.7285156 0.737793
vt 0.7988281 0.7387695
vt 0.8398438 0.7519531
vt 0.840332 0.7275391
vt 0.8730469 0.7519531
vt 0.8828125 0.734375
vt 0.9511719 0.7519531
vt 0.9511719 0.7368164
vt 0.8393555 0.7768555
vt 0.8823242 0.7666016
vt 0.9511719 0.7661133
vt 0.8061523 0.7348633
vt 0.8398438 0.7231445
vt 0.8056641 0.7148438
vt 0.7285156 0.7333984
vt 0.7285156 0.7148438
vt 0.8398438 0.7148438
vt 0.8740234 0.7148438
vt 0.8833008 0.7255859
vt 0.9511719 0.7333984
vt 0.9511719 0.7148438
vt 0.8740234 0.625
vt 0.8740234 0.5385742
vt 0.8398438 0.5385742
vt 0.8398438 0.625
vt 0.9511719 0.5385742
vt 0.9511719 0.625
vt 0.8056641 0.625
vt 0.8056641 0.5385742
vt 0.7285156 0.5385742
vt 0.7285156 0.625
vt 0.8740234 0.6386719
vt 0.8740234 0.625
vt 0.8398438 0.625
vt 0.8398438 0.6386719
vt 0.9511719 0.625
vt 0.9511719 0.6386719
vt 0.8056641 0.6386719
vt 0.8056641 0.625
vt 0.7285156 0.625
vt 0.7285156 0.6386719
vt 0.8740234 0.6489258
vt 0.8740234 0.6386719
vt 0.8398438 0.6386719
vt 0.8398438 0.6489258
vt 0.9511719 0.6386719
vt 0.9511719 0.6489258
vt 0.8056641 0.6489258
vt 0.8056641 0.6386719
vt 0.7285156 0.6386719
vt 0.7285156 0.6489258
vt 0.7285156 0.875
vt 0.8056641 0.875
vt 0.8056641 0.7890625
vt 0.7285156 0.7890625
vt 0.7285156 0.9980469
vt 0.8056641 0.9975586
vt 0.8056641 0.875
vt 0.7285156 0.875
vt 0.1556396 0.9833984
vt 0.04818726 0.9838867
vt 0.04824829 0.9980469
vt 0.1556396 0.9975586
vt 0.004211426 0.9838867
vt 0.004268646 0.9980469
vt 0.4714355 0.6582031
vt 0.2636719 0.6918945
vt 0.4765625 0.6918945
vt 0.6010742 0.6914063
vt 0.2175293 0.4802246
vt 0.2174072 0.4309082
vt 0.004573822 0.4313965
vt 0.004665375 0.4804688
vt 0.342041 0.4799805
vt 0.342041 0.4306641
vt 0.004741669 0.5297852
vt 0.2176514 0.5292969
vt 0.3422852 0.5292969
vt 0.9506836 0.875
vt 0.9511719 0.7890625
vt 0.8740234 0.7890625
vt 0.8745117 0.875
vt 0.9516602 0.9980469
vt 0.9506836 0.875
vt 0.8745117 0.875
vt 0.8740234 0.9980469
vt 0.5361328 0.9814453
vt 0.5366211 0.9956055
vt 0.644043 0.9956055
vt 0.6435547 0.9814453
vt 0.6875 0.9814453
vt 0.6879883 0.9956055
vt 0.2224121 0.6943359
vt 0.2275391 0.6606445
vt 0.01463318 0.6611328
vt 0.3520508 0.6601563
vt 0.3435059 0.9970703
vt 0.3432617 0.9829102
vt 0.1556396 0.9833984
vt 0.1556396 0.9975586
vt 0.5366211 0.9956055
vt 0.5361328 0.9814453
vt 0.3486328 0.9814453
vt 0.3486328 0.9956055

g LA_River_00_215457_83
usemtl LA_River_00_215457_83
usemap LA_River_00_215457_83
f 1/1/1 3/3/3 2/2/2
f 1/1/1 4/4/4 3/3/3
f 5/5/5 1/1/1 2/2/2
f 5/5/5 2/2/2 6/6/6
f 4/4/4 7/7/7 3/3/3
f 4/4/4 8/8/8 7/7/7
f 8/8/8 9/9/9 7/7/7
f 8/8/8 10/10/10 9/9/9
f 1/1/1 5/5/5 11/11/11
f 1/1/1 11/11/11 12/12/12
f 4/4/4 1/1/1 12/12/12
f 13/13/13 12/12/12 11/11/11
f 13/13/13 11/11/11 14/14/14
f 15/15/15 13/13/13 14/14/14
f 15/15/15 16/16/16 13/13/13
f 16/16/16 17/17/17 13/13/13
f 16/16/16 18/18/18 17/17/17
f 18/18/18 19/19/19 17/17/17
f 18/18/18 20/20/20 19/19/19
f 20/20/20 21/21/21 19/19/19
f 20/20/20 22/22/22 21/21/21
f 13/13/13 23/23/23 12/12/12
f 13/13/13 17/17/17 23/23/23
f 19/19/19 23/23/23 17/17/17
f 19/19/19 24/24/24 23/23/23
f 19/19/19 25/25/25 24/24/24
f 19/19/19 21/21/21 25/25/25
f 10/10/10 24/24/24 25/25/25
f 26/26/26 18/18/18 16/16/16
f 26/26/26 27/27/27 18/18/18
f 27/27/27 20/20/20 18/18/18
f 28/28/28 27/27/27 26/26/26
f 28/28/28 26/26/26 29/29/29
f 29/29/29 16/16/16 15/15/15
f 29/29/29 26/26/26 16/16/16
f 28/28/28 29/29/29 30/30/30
f 28/28/28 31/31/31 27/27/27
f 32/32/32 27/27/27 31/31/31
f 32/32/32 33/33/33 27/27/27
f 27/27/27 33/33/33 20/20/20
f 33/33/33 22/22/22 20/20/20
f 32/32/32 34/34/34 33/33/33
f 33/33/33 34/34/34 22/22/22
f 32/32/32 35/35/35 34/34/34
f 8/8/8 23/23/23 24/24/24
f 8/8/8 4/4/4 23/23/23
f 4/4/4 12/12/12 23/23/23
f 10/10/10 8/8/8 24/24/24
f 36/36/36 38/38/38 37/37/37
f 36/36/36 39/39/39 38/38/38
f 40/40/40 36/36/36 37/37/37
f 40/40/40 41/41/41 36/36/36
f 42/42/42 38/38/38 39/39/39
f 42/42/42 43/43/43 38/38/38
f 44/44/44 43/43/43 42/42/42
f 44/44/44 42/42/42 45/45/45
f 46/46/46 48/48/48 47/47/47
f 46/46/46 49/49/49 48/48/48
f 46/46/46 47/47/47 50/50/50
f 46/46/46 50/50/50 51/51/51
f 52/52/52 48/48/48 49/49/49
f 52/52/52 53/53/53 48/48/48
f 52/52/52 54/54/54 53/53/53
f 52/52/52 55/55/55 54/54/54
f 56/56/56 58/58/58 57/57/57
f 56/56/56 59/59/59 58/58/58
f 56/56/56 57/57/57 60/60/60
f 56/56/56 60/60/60 61/61/61
f 62/62/62 58/58/58 59/59/59
f 62/62/62 63/63/63 58/58/58
f 62/62/62 64/64/64 63/63/63
f 62/62/62 65/65/65 64/64/64
f 66/66/66 68/68/68 67/67/67
f 66/66/66 69/69/69 68/68/68
f 70/70/70 72/72/72 71/71/71
f 70/70/70 73/73/73 72/72/72
f 74/74/74 76/76/76 75/75/75
f 74/74/74 77/77/77 76/76/76
f 76/76/76 78/78/78 75/75/75
f 76/76/76 79/79/79 78/78/78
f 80/80/80 82/82/82 81/81/81
f 80/80/80 83/83/83 82/82/82
f 84/84/84 86/86/86 85/85/85
f 84/84/84 87/87/87 86/86/86
f 88/88/88 84/84/84 85/85/85
f 88/88/88 85/85/85 89/89/89
f 84/84/84 90/90/90 87/87/87
f 84/84/84 91/91/91 90/90/90
f 88/88/88 91/91/91 84/84/84
f 88/88/88 92/92/92 91/91/91
f 93/93/93 95/95/95 94/94/94
f 93/93/93 96/96/96 95/95/95
f 97/97/97 99/99/99 98/98/98
f 97/97/97 100/100/100 99/99/99
f 101/101/101 103/103/103 102/102/102
f 101/101/101 104/104/104 103/103/103
f 103/103/103 104/104/104 105/105/105
f 103/103/103 105/105/105 106/106/106
f 107/107/107 109/109/109 108/108/108
f 107/107/107 108/108/108 110/110/110
f 111/111/111 113/113/113 112/112/112
f 111/111/111 114/114/114 113/113/113
f 115/115/115 117/117/117 116/116/116
f 115/115/115 118/118/118 117/117/117
