#TS_2Lane_57_216843_12.obj

v -2.441668 0.5069727 9.498184
v -2.441668 0.5069727 9.298187
v 4.074974 0.5069727 9.298187
v 4.074974 0.5069727 9.498184
v -2.441668 0.5069727 13.06961
v -2.441668 0.5069727 12.86961
v 4.074974 0.5069727 12.86961
v 4.074974 0.5069727 13.06961
v -2.441668 0.5069727 16.64104
v -2.441668 0.5069727 16.44104
v 4.074974 0.5069727 16.44104
v 4.074974 0.5069727 16.64104
v -2.441668 0.5069727 20.21247
v -2.441668 0.5069727 20.01247
v 4.074974 0.5069727 20.01247
v 4.074974 0.5069727 20.21247
v -2.441668 0.5069727 23.78391
v -2.441668 0.5069727 23.58391
v 4.074974 0.5069727 23.58391
v 4.074974 0.5069727 23.78391
v -2.441668 0.5069727 27.35533
v -2.441668 0.5069727 27.15533
v 4.074974 0.5069727 27.15533
v 4.074974 0.5069727 27.35533
v -2.441668 0.5069727 30.92676
v -2.441668 0.5069727 30.72676
v 4.074974 0.5069727 30.72676
v 4.074974 0.5069727 30.92676
v 4.074974 0.5069727 9.298187
v 4.647472 0.5069727 9.298187
v 4.647472 0.5069727 30.92676
v 4.074974 0.5069727 30.92676
v -2.441668 0.5069727 -27.03177
v -2.441668 0.5069727 -27.23177
v 4.074974 0.5069727 -27.23177
v 4.074974 0.5069727 -27.03177
v -2.441668 0.5069727 -23.46034
v -2.441668 0.5069727 -23.66034
v 4.074974 0.5069727 -23.66034
v 4.074974 0.5069727 -23.46034
v -2.441668 0.5069727 -19.8889
v -2.441668 0.5069727 -20.08891
v 4.074974 0.5069727 -20.08891
v 4.074974 0.5069727 -19.8889
v -2.441668 0.5069727 -16.31747
v -2.441668 0.5069727 -16.51749
v 4.074974 0.5069727 -16.51749
v 4.074974 0.5069727 -16.31747
v -2.441668 0.5069727 -12.74605
v -2.441668 0.5069727 -12.94604
v 4.074974 0.5069727 -12.94604
v 4.074974 0.5069727 -12.74605
v -2.441668 0.5069727 -9.174622
v -2.441668 0.5069727 -9.374619
v 4.074974 0.5069727 -9.374619
v 4.074974 0.5069727 -9.174622
v -2.441668 0.5069727 -30.6032
v -2.441668 0.5069727 -30.80319
v 4.074974 0.5069727 -30.80319
v 4.074974 0.5069727 -30.6032
v 4.074974 0.5069727 -30.80319
v 4.647472 0.5069727 -30.80319
v 4.647472 0.5069727 -9.174622
v 4.074974 0.5069727 -9.174622

vn 0 1 0
vn 0 1 0
vn 0 1 0
vn 0 1 0
vn 0 1 0
vn 0 1 0
vn 0 1 0
vn 0 1 0
vn 0 1 0
vn 0 1 0
vn 0 1 0
vn 0 1 0
vn 0 1 0
vn 0 1 0
vn 0 1 0
vn 0 1 0
vn 0 1 0
vn 0 1 0
vn 0 1 0
vn 0 1 0
vn 0 1 0
vn 0 1 0
vn 0 1 0
vn 0 1 0
vn 0 1 0
vn 0 1 0
vn 0 1 0
vn 0 1 0
vn 0 1 0
vn 0 1 0
vn 0 1 0
vn 0 1 0
vn 0 1 0
vn 0 1 0
vn 0 1 0
vn 0 1 0
vn 0 1 0
vn 0 1 0
vn 0 1 0
vn 0 1 0
vn 0 1 0
vn 0 1 0
vn 0 1 0
vn 0 1 0
vn 0 1 0
vn 0 1 0
vn 0 1 0
vn 0 1 0
vn 0 1 0
vn 0 1 0
vn 0 1 0
vn 0 1 0
vn 0 1 0
vn 0 1 0
vn 0 1 0
vn 0 1 0
vn 0 1 0
vn 0 1 0
vn 0 1 0
vn 0 1 0
vn 0 1 0
vn 0 1 0
vn 0 1 0
vn 0 1 0

vt 1.663086 -1.100586
vt 1.670898 -1.100586
vt 1.670898 -1.358398
vt 1.663086 -1.358398
vt 1.676758 -1.100586
vt 1.68457 -1.100586
vt 1.68457 -1.358398
vt 1.676758 -1.358398
vt 1.691406 -1.100586
vt 1.699219 -1.100586
vt 1.699219 -1.358398
vt 1.691406 -1.358398
vt 1.706055 -1.100586
vt 1.713867 -1.100586
vt 1.713867 -1.358398
vt 1.706055 -1.358398
vt 1.719727 -1.100586
vt 1.727539 -1.100586
vt 1.727539 -1.358398
vt 1.719727 -1.358398
vt 1.734375 -1.100586
vt 1.742188 -1.100586
vt 1.742188 -1.358398
vt 1.734375 -1.358398
vt 1.748047 -1.100586
vt 1.755859 -1.100586
vt 1.755859 -1.358398
vt 1.748047 -1.358398
vt 1.633789 -0.3625488
vt 1.657227 -0.3625488
vt 1.657227 -1.358398
vt 1.633789 -1.358398
vt 1.663086 -1.100586
vt 1.670898 -1.100586
vt 1.670898 -1.358398
vt 1.663086 -1.358398
vt 1.676758 -1.100586
vt 1.68457 -1.100586
vt 1.68457 -1.358398
vt 1.676758 -1.358398
vt 1.691406 -1.100586
vt 1.699219 -1.100586
vt 1.699219 -1.358398
vt 1.691406 -1.358398
vt 1.706055 -1.100586
vt 1.713867 -1.100586
vt 1.713867 -1.358398
vt 1.706055 -1.358398
vt 1.719727 -1.100586
vt 1.727539 -1.100586
vt 1.727539 -1.358398
vt 1.719727 -1.358398
vt 1.734375 -1.100586
vt 1.742188 -1.100586
vt 1.742188 -1.358398
vt 1.734375 -1.358398
vt 1.762695 -1.100586
vt 1.770508 -1.100586
vt 1.770508 -1.358398
vt 1.762695 -1.358398
vt 1.633789 -0.3625488
vt 1.657227 -0.3625488
vt 1.657227 -1.358398
vt 1.633789 -1.358398

g TS_2Lane_57_216843_12
usemtl TS_2Lane_57_216843_12
usemap TS_2Lane_57_216843_12
f 1/1/1 3/3/3 2/2/2
f 1/1/1 4/4/4 3/3/3
f 5/5/5 7/7/7 6/6/6
f 5/5/5 8/8/8 7/7/7
f 9/9/9 11/11/11 10/10/10
f 9/9/9 12/12/12 11/11/11
f 13/13/13 15/15/15 14/14/14
f 13/13/13 16/16/16 15/15/15
f 17/17/17 19/19/19 18/18/18
f 17/17/17 20/20/20 19/19/19
f 21/21/21 23/23/23 22/22/22
f 21/21/21 24/24/24 23/23/23
f 25/25/25 27/27/27 26/26/26
f 25/25/25 28/28/28 27/27/27
f 29/29/29 31/31/31 30/30/30
f 29/29/29 32/32/32 31/31/31
f 33/33/33 35/35/35 34/34/34
f 33/33/33 36/36/36 35/35/35
f 37/37/37 39/39/39 38/38/38
f 37/37/37 40/40/40 39/39/39
f 41/41/41 43/43/43 42/42/42
f 41/41/41 44/44/44 43/43/43
f 45/45/45 47/47/47 46/46/46
f 45/45/45 48/48/48 47/47/47
f 49/49/49 51/51/51 50/50/50
f 49/49/49 52/52/52 51/51/51
f 53/53/53 55/55/55 54/54/54
f 53/53/53 56/56/56 55/55/55
f 57/57/57 59/59/59 58/58/58
f 57/57/57 60/60/60 59/59/59
f 61/61/61 63/63/63 62/62/62
f 61/61/61 64/64/64 63/63/63
