#TS_2Lane_Park_210671_6.obj

v 2.175731 0.6400679 12.10173
v 5.6016 0.6400679 15.5307
v -9.584165 0.6400679 15.5307
v -9.581828 0.6400679 12.10172
v -10.46218 0.6400679 12.10172
v -13.89115 0.6400679 15.5307
v -13.89116 0.6400679 11.23565
v -10.46218 0.6400679 11.23564
v -10.46217 0.6400679 -12.10172
v -13.89115 0.6400679 -15.53071
v -9.562864 0.6400679 -15.53071
v -9.565228 0.6400679 -12.10172
v 2.175728 0.6400679 -12.10172
v 5.601596 0.6400679 -15.5307
v 5.615083 0.6400679 -11.91774
v 2.186064 0.6400679 -11.91774
v 2.685881 0.6400679 -9.558743
v 5.921529 0.6400679 -10.70641
v 6.327444 0.6400679 -9.719626
v 3.285567 0.6400679 -8.100875
v 6.824801 0.6400679 -8.973375
v 4.159782 0.6400679 -6.78899
v 7.458873 0.6400679 -8.339303
v 5.274477 0.6400679 -5.674317
v 8.205028 0.6400679 -7.842043
v 6.586276 0.6400679 -4.800101
v 9.191909 0.6400679 -7.436117
v 8.04423 0.6400679 -4.200394
v 10.14065 0.6400679 -7.429546
v 10.14066 0.6400679 -4.000473
v 10.14065 0.6400679 3.996094
v 10.14056 0.6400679 7.427357
v 9.191811 0.6400679 7.428889
v 8.04424 0.6400679 4.011102
v 8.205032 0.6400679 7.834842
v 6.586275 0.6400679 4.61082
v 7.458872 0.6400679 8.332021
v 5.274476 0.6400679 5.485036
v 6.8248 0.6400679 8.96618
v 4.159787 0.6400679 6.59979
v 6.327443 0.6400679 9.712431
v 3.285565 0.6400679 7.911593
v 5.921522 0.6400679 10.69931
v 2.68588 0.6400679 9.369548
v 5.633327 0.6400679 11.65993
v 2.207922 0.6400679 10.96268
v 2.175731 0.6400679 12.10173
v 5.6016 0.6400679 15.5307
v 2.175731 0.5029158 12.10173
v 2.175731 0.6400679 12.10173
v -9.581828 0.6400679 12.10172
v -9.581828 0.5029158 12.10172
v -13.89115 -0.6400679 15.5307
v -13.89115 0.6400679 15.5307
v -9.584165 0.6400679 15.5307
v -9.584165 -0.6400679 15.5307
v -10.46218 0.5029158 12.10172
v -10.46218 0.6400679 12.10172
v -10.46218 0.6400679 11.23564
v -10.46218 0.5029158 11.23564
v -13.89115 -0.6400679 -15.53071
v -13.89115 0.6400679 -15.53071
v -13.89116 0.6400679 -11.33744
v -13.89116 -0.6400679 -11.33744
v 5.633327 0.6400679 11.65993
v 5.633327 -0.6400679 11.65993
v 5.6016 -0.6400679 15.5307
v 5.6016 0.6400679 15.5307
v 5.921522 0.6400679 10.69931
v 5.921522 -0.6400679 10.69931
v 6.327443 0.6400679 9.712431
v 6.327443 -0.6400679 9.712431
v 6.8248 0.6400679 8.96618
v 6.8248 -0.6400679 8.96618
v 7.458872 0.6400679 8.332021
v 7.458872 -0.6400679 8.332021
v 8.205032 0.6400679 7.834842
v 8.205032 -0.6400679 7.834842
v -10.46217 0.5029158 -12.10172
v -10.46217 0.6400679 -12.10172
v -9.565228 0.6400679 -12.10172
v -9.565228 0.5029158 -12.10172
v 2.175728 0.5029158 -12.10172
v 2.175728 0.6400679 -12.10172
v 2.186064 0.6400679 -11.91774
v 2.186064 0.5029158 -11.91774
v 2.685881 0.5029158 -9.558743
v 2.685881 0.6400679 -9.558743
v 3.285567 0.6400679 -8.100875
v 3.285567 0.5029158 -8.100875
v 4.159782 0.6400679 -6.78899
v 4.159782 0.5029158 -6.78899
v 5.274477 0.6400679 -5.674317
v 5.274477 0.5029158 -5.674317
v 6.586276 0.6400679 -4.800101
v 6.586276 0.5029158 -4.800101
v 8.04423 0.6400679 -4.200394
v 8.04423 0.5029158 -4.200394
v 10.14066 0.6400679 -4.000473
v 10.14066 0.5029158 -4.000473
v 5.921529 -0.6400679 -10.70641
v 5.921529 0.6400679 -10.70641
v 5.615083 0.6400679 -11.91774
v 5.615083 -0.6400679 -11.91774
v 6.327444 -0.6400679 -9.719626
v 6.327444 0.6400679 -9.719626
v 6.824801 -0.6400679 -8.973375
v 6.824801 0.6400679 -8.973375
v 7.458873 -0.6400679 -8.339303
v 7.458873 0.6400679 -8.339303
v 8.205028 -0.6400679 -7.842043
v 8.205028 0.6400679 -7.842043
v 9.191909 -0.6400679 -7.436117
v 9.191909 0.6400679 -7.436117
v 10.14065 -0.6400679 -7.429546
v 10.14065 0.6400679 -7.429546
v 5.601596 -0.6400679 -15.5307
v 5.601596 0.6400679 -15.5307
v 10.14065 0.5029158 4.004855
v 10.14065 0.6400679 3.996094
v 8.04424 0.6400679 4.011102
v 8.04424 0.5029158 4.011102
v 6.586275 0.6400679 4.61082
v 6.586275 0.5029158 4.61082
v 5.274476 0.6400679 5.485036
v 5.274476 0.5029158 5.485036
v 4.159787 0.6400679 6.59979
v 4.159787 0.5029158 6.59979
v 3.285565 0.6400679 7.911593
v 3.285565 0.5029158 7.911593
v 2.68588 0.6400679 9.369548
v 2.68588 0.5029158 9.369548
v 2.207922 0.6400679 10.96268
v 2.240782 0.5049598 10.95545
v 2.175731 0.5029158 12.10173
v 2.175731 0.6400679 12.10173
v 9.191811 -0.6400679 7.428889
v 9.191811 0.6400679 7.428889
v 10.14056 0.6400679 7.427357
v 10.14056 -0.6400679 7.427357
v 8.205032 -0.6400679 7.834842
v 8.205032 0.6400679 7.834842
v -13.89116 0.6400679 11.23565
v -13.89116 0.6400679 -11.33744
v -10.46217 0.6400679 -11.33743
v -10.46218 0.6400679 11.23564
v -10.46218 0.6400679 11.23564
v -10.46217 0.6400679 -11.33743
v -10.46217 0.5029158 -11.33743
v -10.46218 0.5029158 11.23564
v -9.584165 0.6400679 15.5307
v -13.89115 0.6400679 15.5307
v -10.46218 0.6400679 12.10172
v -9.581828 0.6400679 12.10172
v -9.581828 0.6400679 12.10172
v -10.46218 0.6400679 12.10172
v -10.46218 0.5029158 12.10172
v -9.581828 0.5029158 12.10172
v -9.562864 0.6400679 -15.53071
v -13.89115 0.6400679 -15.53071
v -13.89115 -0.6400679 -15.53071
v -9.564666 -0.6400679 -15.5307
v 5.601596 -0.6400679 -15.5307
v 5.601596 0.6400679 -15.5307
v -13.89116 0.6400679 11.23565
v -13.89115 0.6400679 15.5307
v -13.89115 -0.6400679 15.5307
v -13.89116 -0.6400679 11.23565
v -13.89116 0.6400679 -11.33744
v -13.89115 0.6400679 -15.53071
v -10.46217 0.6400679 -12.10172
v -10.46217 0.6400679 -11.33743
v -10.46217 0.6400679 -11.33743
v -10.46217 0.6400679 -12.10172
v -10.46217 0.5029158 -12.10172
v -10.46217 0.5029158 -11.33743
v -13.89116 0.6400679 11.23565
v -13.89116 -0.6400679 11.23565
v -13.89116 -0.6400679 -11.33744
v -13.89116 0.6400679 -11.33744
v -9.562864 0.6400679 -15.53071
v 5.601596 0.6400679 -15.5307
v 2.175728 0.6400679 -12.10172
v -9.565228 0.6400679 -12.10172
v -9.584165 0.6400679 15.5307
v 5.6016 0.6400679 15.5307
v 5.6016 -0.6400679 15.5307
v -9.584165 -0.6400679 15.5307
v -9.565228 0.6400679 -12.10172
v 2.175728 0.6400679 -12.10172
v 2.175728 0.5029158 -12.10172
v -9.565228 0.5029158 -12.10172

vn -0.0006957054 1 -0.0006957054
vn -0.3022461 0.8066406 0.5083008
vn -0.2861328 0.9140625 0.2875977
vn 0.0006866455 1 0.0006866455
vn 0.003452301 1 0.003452301
vn -0.659668 0.7519531 7.307529E-05
vn -0.2617188 0.9287109 -0.2617188
vn 0.02693176 0.9995117 0.02693176
vn 0.003452301 1 0.003452301
vn 0.01050568 0.75 -0.6616211
vn 0.2875977 0.9140625 -0.2861328
vn 0.0006866455 1 0.0006866455
vn -0.0006957054 1 -0.0006957054
vn 0.5073242 0.8066406 -0.3039551
vn 0.3088379 0.8994141 0.3088379
vn -0.02003479 0.9995117 -0.02003479
vn -0.06225586 0.9980469 -0.005489349
vn 0.2429199 0.9628906 0.1178589
vn 0.2418213 0.9667969 0.08306885
vn -0.06243896 0.9980469 -0.002532959
vn 0.2471924 0.96875 0.02241516
vn -0.06243896 0.9980469 0.002977371
vn 0.2467041 0.96875 -0.02690125
vn -0.06118774 0.9980469 0.01278687
vn 0.2445068 0.9667969 -0.07452393
vn -0.05795288 0.9980469 0.02339172
vn 0.2249756 0.96875 -0.1047363
vn -0.05435181 0.9980469 0.03085327
vn 0.232666 0.9492188 -0.2119141
vn -0.04623413 0.9980469 0.04205322
vn 0.04205322 0.9980469 -0.04623413
vn -0.2133789 0.9492188 0.2313232
vn -0.1047363 0.96875 0.2249756
vn 0.03085327 0.9980469 -0.05435181
vn -0.07452393 0.9667969 0.2445068
vn 0.02339172 0.9980469 -0.05795288
vn -0.02690125 0.96875 0.2467041
vn 0.01278687 0.9980469 -0.06118774
vn 0.02241516 0.96875 0.2471924
vn 0.002977371 0.9980469 -0.06243896
vn 0.08306885 0.9667969 0.2418213
vn -0.002532959 0.9980469 -0.06243896
vn 0.1178589 0.9628906 0.2429199
vn -0.005489349 0.9980469 -0.06225586
vn 0.1417236 0.9707031 0.1940918
vn -0.01192474 0.9980469 -0.06134033
vn -0.0006957054 1 -0.0006957054
vn -0.3022461 0.8066406 0.5083008
vn -0.0006957054 1 -0.0006957054
vn -0.0006957054 1 -0.0006957054
vn 0.0006866455 1 0.0006866455
vn 0.0006866455 1 0.0006866455
vn -1 -0.0009713173 0.0005087852
vn -0.659668 0.7519531 7.307529E-05
vn -0.2861328 0.9140625 0.2875977
vn -0.706543 -0.0009713173 0.7080078
vn 0.0158844 0.9995117 0.0158844
vn 0.003452301 1 0.003452301
vn 0.02693176 0.9995117 0.02693176
vn 0.02555847 0.9995117 0.02555847
vn 0.01695251 -0.0009713173 -1
vn 0.01050568 0.75 -0.6616211
vn -0.2617188 0.9287109 -0.2617188
vn -0.7070313 -0.0009713173 -0.7070313
vn 0.1417236 0.9707031 0.1940918
vn 0.5541992 -0.0009713173 0.8325195
vn -0.512207 -0.0009713173 0.8588867
vn -0.3022461 0.8066406 0.5083008
vn 0.1178589 0.9628906 0.2429199
vn 0.427002 -0.0009713173 0.9042969
vn 0.08306885 0.9667969 0.2418213
vn 0.2998047 -0.0009713173 0.9541016
vn 0.02241516 0.96875 0.2471924
vn 0.09832764 -0.0009713173 0.9951172
vn -0.02690125 0.96875 0.2467041
vn -0.09802246 -0.0009713173 0.9951172
vn -0.07452393 0.9667969 0.2445068
vn -0.3000488 -0.0009713173 0.9541016
vn 0.01451111 1 0.01451111
vn 0.003452301 1 0.003452301
vn 0.0006866455 1 0.0006866455
vn 0.0006866455 1 0.0006866455
vn -0.0006957054 1 -0.0006957054
vn -0.0006957054 1 -0.0006957054
vn -0.02003479 0.9995117 -0.02003479
vn -0.2479248 0.9365234 -0.2479248
vn -0.05105591 0.9980469 -0.03604126
vn -0.06225586 0.9980469 -0.005489349
vn -0.06243896 0.9980469 -0.002532959
vn -0.06225586 0.9980469 -0.005489349
vn -0.06243896 0.9980469 0.002977371
vn -0.06161499 0.9980469 0.0104599
vn -0.06118774 0.9980469 0.01278687
vn -0.05944824 0.9980469 0.01933289
vn -0.05795288 0.9980469 0.02339172
vn -0.05795288 0.9980469 0.02339172
vn -0.05435181 0.9980469 0.03085327
vn -0.05532837 0.9980469 0.02905273
vn -0.04623413 0.9980469 0.04205322
vn -0.0006957054 1 -0.0006957054
vn 0.9042969 -0.0009713173 0.427002
vn 0.2429199 0.9628906 0.1178589
vn 0.3088379 0.8994141 0.3088379
vn 0.7104492 -0.0009713173 0.7036133
vn 0.9541016 -0.0009713173 0.2998047
vn 0.2418213 0.9667969 0.08306885
vn 0.9951172 -0.0009713173 0.09832764
vn 0.2471924 0.96875 0.02241516
vn 0.9951172 -0.0009713173 -0.09802246
vn 0.2467041 0.96875 -0.02690125
vn 0.9541016 -0.0009713173 -0.3000488
vn 0.2445068 0.9667969 -0.07452393
vn 0.9033203 -0.0009713173 -0.4291992
vn 0.2249756 0.96875 -0.1047363
vn 0.7373047 -0.0009713173 -0.675293
vn 0.232666 0.9492188 -0.2119141
vn 0.8569336 -0.0009713173 -0.515625
vn 0.5073242 0.8066406 -0.3039551
vn -0.0006957054 1 -0.0006957054
vn 0.04205322 0.9980469 -0.04623413
vn 0.03085327 0.9980469 -0.05435181
vn 0.03259277 0.9980469 -0.05334473
vn 0.02339172 0.9980469 -0.05795288
vn 0.02532959 0.9980469 -0.05712891
vn 0.01278687 0.9980469 -0.06118774
vn -0.0186615 0.9995117 -0.0186615
vn 0.002977371 0.9980469 -0.06243896
vn -0.02418518 0.9995117 -0.02418518
vn -0.002532959 0.9980469 -0.06243896
vn 0.0002820492 0.9980469 -0.0625
vn -0.005489349 0.9980469 -0.06225586
vn -0.02377319 0.9980469 -0.05780029
vn -0.01192474 0.9980469 -0.06134033
vn -0.09881592 0.9902344 -0.09881592
vn -0.0006957054 1 -0.0006957054
vn -0.0006957054 1 -0.0006957054
vn -0.4291992 -0.0009713173 0.9033203
vn -0.1047363 0.96875 0.2249756
vn -0.2133789 0.9492188 0.2313232
vn -0.675293 -0.0009713173 0.7373047
vn -0.3000488 -0.0009713173 0.9541016
vn -0.07452393 0.9667969 0.2445068
vn -0.2617188 0.9287109 -0.2617188
vn -0.2617188 0.9287109 -0.2617188
vn 0.02693176 0.9995117 0.02693176
vn 0.02693176 0.9995117 0.02693176
vn 0.02693176 0.9995117 0.02693176
vn 0.02693176 0.9995117 0.02693176
vn 0.02693176 0.9995117 0.02693176
vn 0.02555847 0.9995117 0.02555847
vn -0.2861328 0.9140625 0.2875977
vn -0.659668 0.7519531 7.307529E-05
vn 0.003452301 1 0.003452301
vn 0.0006866455 1 0.0006866455
vn 0.0006866455 1 0.0006866455
vn 0.003452301 1 0.003452301
vn 0.0158844 0.9995117 0.0158844
vn 0.0006866455 1 0.0006866455
vn 0.2875977 0.9140625 -0.2861328
vn 0.01050568 0.75 -0.6616211
vn 0.01695251 -0.0009713173 -1
vn 0.7080078 -0.0009713173 -0.706543
vn 0.8569336 -0.0009713173 -0.515625
vn 0.5073242 0.8066406 -0.3039551
vn -0.2617188 0.9287109 -0.2617188
vn -0.659668 0.7519531 7.307529E-05
vn -1 -0.0009713173 0.0005087852
vn -0.7070313 -0.0009713173 -0.7070313
vn -0.2617188 0.9287109 -0.2617188
vn 0.01050568 0.75 -0.6616211
vn 0.003452301 1 0.003452301
vn 0.02693176 0.9995117 0.02693176
vn 0.02693176 0.9995117 0.02693176
vn 0.003452301 1 0.003452301
vn 0.01451111 1 0.01451111
vn 0.02693176 0.9995117 0.02693176
vn -0.2617188 0.9287109 -0.2617188
vn -0.7070313 -0.0009713173 -0.7070313
vn -0.7070313 -0.0009713173 -0.7070313
vn -0.2617188 0.9287109 -0.2617188
vn 0.2875977 0.9140625 -0.2861328
vn 0.5073242 0.8066406 -0.3039551
vn -0.0006957054 1 -0.0006957054
vn 0.0006866455 1 0.0006866455
vn -0.2861328 0.9140625 0.2875977
vn -0.3022461 0.8066406 0.5083008
vn -0.512207 -0.0009713173 0.8588867
vn -0.706543 -0.0009713173 0.7080078
vn 0.0006866455 1 0.0006866455
vn -0.0006957054 1 -0.0006957054
vn -0.0006957054 1 -0.0006957054
vn 0.0006866455 1 0.0006866455

vt 1.967773 0.6347656
vt 2.0625 0.5395508
vt 1.625977 0.5395508
vt 1.62207 0.6347656
vt 1.981445 0.6347656
vt 2.076172 0.5395508
vt 1.951172 0.5395508
vt 1.956055 0.6347656
vt 2.003906 0.6347656
vt 2.097656 0.5395508
vt 1.985352 0.5395508
vt 1.979492 0.6347656
vt 2.609375 0.6347656
vt 2.716797 0.5390625
vt 2.585938 0.5395508
vt 2.585938 0.6347656
vt 2.492188 0.6347656
vt 2.492188 0.5395508
vt 2.462891 0.5395508
vt 2.462891 0.6347656
vt 2.435547 0.5395508
vt 2.435547 0.6347656
vt 2.40625 0.5395508
vt 2.40625 0.6347656
vt 2.378906 0.5395508
vt 2.376953 0.6347656
vt 2.347656 0.5395508
vt 2.347656 0.6347656
vt 2.294922 0.5395508
vt 2.296875 0.6347656
vt 4.144531 0.6347656
vt 4.144531 0.5395508
vt 4.117188 0.5395508
vt 4.121094 0.6347656
vt 4.085938 0.5395508
vt 4.085938 0.6347656
vt 4.058594 0.5395508
vt 4.058594 0.6347656
vt 4.03125 0.5395508
vt 4.03125 0.6347656
vt 4.003906 0.5395508
vt 4.003906 0.6347656
vt 3.974609 0.5395508
vt 3.972656 0.6347656
vt 3.943359 0.5395508
vt 3.943359 0.6347656
vt 3.898438 0.6347656
vt 3.808594 0.5395508
vt 1.967773 0.6386719
vt 1.967773 0.6347656
vt 1.62207 0.6347656
vt 1.62207 0.6386719
vt 0.1801758 0.503418
vt 0.1801758 0.5395508
vt 0.2905273 0.5395508
vt 0.2905273 0.503418
vt 1.981445 0.6386719
vt 1.981445 0.6347656
vt 1.956055 0.6347656
vt 1.956055 0.6386719
vt 0.19104 0.503418
vt 0.19104 0.5395508
vt 0.314209 0.5395508
vt 0.314209 0.503418
vt 3.943359 0.5395508
vt 3.943359 0.503418
vt 3.808594 0.503418
vt 3.808594 0.5395508
vt 3.974609 0.5395508
vt 3.974609 0.503418
vt 4.003906 0.5395508
vt 4.003906 0.503418
vt 4.03125 0.5395508
vt 4.03125 0.503418
vt 4.058594 0.5395508
vt 4.058594 0.503418
vt 4.085938 0.5395508
vt 4.085938 0.503418
vt 2.003906 0.6386719
vt 2.003906 0.6347656
vt 1.979492 0.6347656
vt 1.979492 0.6386719
vt 2.611328 0.6386719
vt 2.609375 0.6347656
vt 2.585938 0.6347656
vt 2.585938 0.6386719
vt 2.492188 0.6386719
vt 2.492188 0.6347656
vt 2.462891 0.6347656
vt 2.462891 0.6386719
vt 2.435547 0.6347656
vt 2.435547 0.6386719
vt 2.40625 0.6347656
vt 2.40625 0.6386719
vt 2.376953 0.6347656
vt 2.376953 0.6386719
vt 2.347656 0.6347656
vt 2.347656 0.6386719
vt 2.296875 0.6347656
vt 2.296875 0.6386719
vt 2.492188 0.503418
vt 2.492188 0.5395508
vt 2.585938 0.5395508
vt 2.585938 0.503418
vt 2.462891 0.503418
vt 2.462891 0.5395508
vt 2.435547 0.503418
vt 2.435547 0.5395508
vt 2.40625 0.503418
vt 2.40625 0.5395508
vt 2.378906 0.503418
vt 2.378906 0.5395508
vt 2.347656 0.503418
vt 2.347656 0.5395508
vt 2.294922 0.503418
vt 2.294922 0.5395508
vt 2.716797 0.5029297
vt 2.716797 0.5390625
vt 4.144531 0.6386719
vt 4.144531 0.6347656
vt 4.121094 0.6347656
vt 4.121094 0.6386719
vt 4.085938 0.6347656
vt 4.085938 0.6386719
vt 4.058594 0.6347656
vt 4.058594 0.6386719
vt 4.03125 0.6347656
vt 4.03125 0.6386719
vt 4.003906 0.6347656
vt 4.003906 0.6386719
vt 3.972656 0.6347656
vt 3.972656 0.6386719
vt 3.943359 0.6347656
vt 3.943359 0.6386719
vt 3.898438 0.6386719
vt 3.898438 0.6347656
vt 4.117188 0.503418
vt 4.117188 0.5395508
vt 4.144531 0.5395508
vt 4.144531 0.503418
vt 4.085938 0.503418
vt 4.085938 0.5395508
vt 1.592773 0.5395508
vt 0.8017578 0.5395508
vt 0.7993164 0.6347656
vt 1.595703 0.6347656
vt 1.595703 0.6347656
vt 0.7993164 0.6347656
vt 0.7993164 0.6386719
vt 1.595703 0.6386719
vt 0.2905273 0.5395508
vt 0.1801758 0.5395508
vt 0.2749023 0.6347656
vt 0.2963867 0.6347656
vt 0.2963867 0.6347656
vt 0.2749023 0.6347656
vt 0.2749023 0.6386719
vt 0.2963867 0.6386719
vt 1.985352 0.5395508
vt 2.097656 0.5395508
vt 2.097656 0.503418
vt 1.985352 0.503418
vt 1.508789 0.503418
vt 1.508789 0.5395508
vt 1.951172 0.5395508
vt 2.076172 0.5395508
vt 2.076172 0.503418
vt 1.951172 0.503418
vt 0.314209 0.5395508
vt 0.19104 0.5395508
vt 0.2858887 0.6347656
vt 0.3085938 0.6347656
vt 0.3085938 0.6347656
vt 0.2858887 0.6347656
vt 0.2858887 0.6386719
vt 0.3085938 0.6386719
vt 1.592773 0.5395508
vt 1.592773 0.503418
vt 0.8017578 0.503418
vt 0.8017578 0.5395508
vt 0.6542969 0.5395508
vt 0.2199707 0.5395508
vt 0.3144531 0.6347656
vt 0.6582031 0.6347656
vt 1.625977 0.5395508
vt 2.0625 0.5395508
vt 2.0625 0.503418
vt 1.625977 0.503418
vt 0.6582031 0.6347656
vt 0.3144531 0.6347656
vt 0.3144531 0.6386719
vt 0.6582031 0.6386719

g TS_2Lane_Park_210671_6
usemtl TS_2Lane_Park_210671_6
usemap TS_2Lane_Park_210671_6
f 1/1/1 3/3/3 2/2/2
f 1/1/1 4/4/4 3/3/3
f 5/5/5 7/7/7 6/6/6
f 5/5/5 8/8/8 7/7/7
f 9/9/9 11/11/11 10/10/10
f 9/9/9 12/12/12 11/11/11
f 13/13/13 15/15/15 14/14/14
f 13/13/13 16/16/16 15/15/15
f 17/17/17 15/15/15 16/16/16
f 17/17/17 18/18/18 15/15/15
f 17/17/17 19/19/19 18/18/18
f 17/17/17 20/20/20 19/19/19
f 20/20/20 21/21/21 19/19/19
f 20/20/20 22/22/22 21/21/21
f 22/22/22 23/23/23 21/21/21
f 22/22/22 24/24/24 23/23/23
f 24/24/24 25/25/25 23/23/23
f 24/24/24 26/26/26 25/25/25
f 26/26/26 27/27/27 25/25/25
f 26/26/26 28/28/28 27/27/27
f 28/28/28 29/29/29 27/27/27
f 28/28/28 30/30/30 29/29/29
f 31/31/31 33/33/33 32/32/32
f 31/31/31 34/34/34 33/33/33
f 34/34/34 35/35/35 33/33/33
f 34/34/34 36/36/36 35/35/35
f 36/36/36 37/37/37 35/35/35
f 36/36/36 38/38/38 37/37/37
f 38/38/38 39/39/39 37/37/37
f 38/38/38 40/40/40 39/39/39
f 40/40/40 41/41/41 39/39/39
f 40/40/40 42/42/42 41/41/41
f 42/42/42 43/43/43 41/41/41
f 42/42/42 44/44/44 43/43/43
f 44/44/44 45/45/45 43/43/43
f 44/44/44 46/46/46 45/45/45
f 45/45/45 46/46/46 47/47/47
f 45/45/45 47/47/47 48/48/48
f 49/49/49 51/51/51 50/50/50
f 49/49/49 52/52/52 51/51/51
f 53/53/53 55/55/55 54/54/54
f 53/53/53 56/56/56 55/55/55
f 57/57/57 59/59/59 58/58/58
f 57/57/57 60/60/60 59/59/59
f 61/61/61 63/63/63 62/62/62
f 61/61/61 64/64/64 63/63/63
f 65/65/65 67/67/67 66/66/66
f 65/65/65 68/68/68 67/67/67
f 66/66/66 69/69/69 65/65/65
f 66/66/66 70/70/70 69/69/69
f 70/70/70 71/71/71 69/69/69
f 70/70/70 72/72/72 71/71/71
f 72/72/72 73/73/73 71/71/71
f 72/72/72 74/74/74 73/73/73
f 74/74/74 75/75/75 73/73/73
f 74/74/74 76/76/76 75/75/75
f 76/76/76 77/77/77 75/75/75
f 76/76/76 78/78/78 77/77/77
f 79/79/79 81/81/81 80/80/80
f 79/79/79 82/82/82 81/81/81
f 83/83/83 85/85/85 84/84/84
f 83/83/83 86/86/86 85/85/85
f 87/87/87 85/85/85 86/86/86
f 87/87/87 88/88/88 85/85/85
f 87/87/87 89/89/89 88/88/88
f 87/87/87 90/90/90 89/89/89
f 90/90/90 91/91/91 89/89/89
f 90/90/90 92/92/92 91/91/91
f 92/92/92 93/93/93 91/91/91
f 92/92/92 94/94/94 93/93/93
f 94/94/94 95/95/95 93/93/93
f 94/94/94 96/96/96 95/95/95
f 96/96/96 97/97/97 95/95/95
f 96/96/96 98/98/98 97/97/97
f 98/98/98 99/99/99 97/97/97
f 98/98/98 100/100/100 99/99/99
f 101/101/101 103/103/103 102/102/102
f 101/101/101 104/104/104 103/103/103
f 105/105/105 101/101/101 102/102/102
f 105/105/105 102/102/102 106/106/106
f 107/107/107 105/105/105 106/106/106
f 107/107/107 106/106/106 108/108/108
f 109/109/109 107/107/107 108/108/108
f 109/109/109 108/108/108 110/110/110
f 111/111/111 109/109/109 110/110/110
f 111/111/111 110/110/110 112/112/112
f 113/113/113 111/111/111 112/112/112
f 113/113/113 112/112/112 114/114/114
f 115/115/115 113/113/113 114/114/114
f 115/115/115 114/114/114 116/116/116
f 103/103/103 104/104/104 117/117/117
f 103/103/103 117/117/117 118/118/118
f 119/119/119 121/121/121 120/120/120
f 119/119/119 122/122/122 121/121/121
f 122/122/122 123/123/123 121/121/121
f 122/122/122 124/124/124 123/123/123
f 124/124/124 125/125/125 123/123/123
f 124/124/124 126/126/126 125/125/125
f 126/126/126 127/127/127 125/125/125
f 126/126/126 128/128/128 127/127/127
f 128/128/128 129/129/129 127/127/127
f 128/128/128 130/130/130 129/129/129
f 130/130/130 131/131/131 129/129/129
f 130/130/130 132/132/132 131/131/131
f 132/132/132 133/133/133 131/131/131
f 132/132/132 134/134/134 133/133/133
f 133/133/133 134/134/134 135/135/135
f 133/133/133 135/135/135 136/136/136
f 137/137/137 139/139/139 138/138/138
f 137/137/137 140/140/140 139/139/139
f 141/141/141 137/137/137 138/138/138
f 141/141/141 138/138/138 142/142/142
f 143/143/143 145/145/145 144/144/144
f 143/143/143 146/146/146 145/145/145
f 147/147/147 149/149/149 148/148/148
f 147/147/147 150/150/150 149/149/149
f 151/151/151 153/153/153 152/152/152
f 151/151/151 154/154/154 153/153/153
f 155/155/155 157/157/157 156/156/156
f 155/155/155 158/158/158 157/157/157
f 159/159/159 161/161/161 160/160/160
f 159/159/159 162/162/162 161/161/161
f 159/159/159 163/163/163 162/162/162
f 159/159/159 164/164/164 163/163/163
f 165/165/165 167/167/167 166/166/166
f 165/165/165 168/168/168 167/167/167
f 169/169/169 171/171/171 170/170/170
f 169/169/169 172/172/172 171/171/171
f 173/173/173 175/175/175 174/174/174
f 173/173/173 176/176/176 175/175/175
f 177/177/177 179/179/179 178/178/178
f 177/177/177 180/180/180 179/179/179
f 181/181/181 183/183/183 182/182/182
f 181/181/181 184/184/184 183/183/183
f 185/185/185 187/187/187 186/186/186
f 185/185/185 188/188/188 187/187/187
f 189/189/189 191/191/191 190/190/190
f 189/189/189 192/192/192 191/191/191
