#TS_2Lane_Park_210677_21.obj

v -9.581828 0.5029159 12.10172
v 0.8557874 0.5030046 1.263461
v 2.175721 0.5029159 12.10172
v 2.240783 0.5049596 10.95545
v 2.685875 0.5029159 9.369554
v 3.285561 0.5029159 7.911577
v 4.159777 0.5029159 6.599778
v 5.274471 0.5029159 5.485041
v 6.58627 0.5029159 4.610825
v 8.044246 0.5029159 4.011096
v 10.14064 0.5029159 4.004859
v 10.14066 0.5029159 -4.000479
v 8.044246 0.5029159 -4.200388
v 6.586291 0.5029159 -4.800096
v 5.274471 0.5029159 -5.674334
v 4.159777 0.5029159 -6.788985
v 3.285561 0.5029159 -8.10087
v 2.685897 0.5029159 -9.558738
v 2.18608 0.5029159 -11.91773
v 2.175721 0.5029159 -12.10172
v -9.565233 0.5029159 -12.10174
v -10.46217 0.5029159 -12.10172
v -10.46217 0.5029159 -11.33742
v -10.46217 0.5029159 11.23566
v -10.46217 0.5029159 12.10172

vn -0.0006866455 1 0.0006866455
vn -0.0006866455 1 0.0006866455
vn 0.0006957054 1 -0.0006957054
vn 0.09881592 0.9902344 -0.09881592
vn 0.05780029 0.9980469 -0.02377319
vn 0.0625 0.9980469 0.0002820492
vn 0.02418518 0.9995117 -0.02418518
vn 0.0186615 0.9995117 -0.0186615
vn 0.05712891 0.9980469 0.02532959
vn 0.05334473 0.9980469 0.03259277
vn 0.0006957054 1 -0.0006957054
vn 0.0006957054 1 -0.0006957054
vn -0.02905273 0.9980469 -0.05532837
vn -0.02339172 0.9980469 -0.05795288
vn -0.01933289 0.9980469 -0.05944824
vn -0.0104599 0.9980469 -0.06161499
vn 0.005489349 0.9980469 -0.06225586
vn 0.03604126 0.9980469 -0.05105591
vn 0.2479248 0.9365234 -0.2479248
vn 0.0006957054 1 -0.0006957054
vn -0.0006866455 1 0.0006866455
vn -0.01451111 1 0.01451111
vn -0.02693176 0.9995117 0.02693176
vn -0.02555847 0.9995117 0.02555847
vn -0.0158844 0.9995117 0.0158844

vt 0.2125244 -0.4133301
vt 0.5439453 -0.7612305
vt 0.2105713 -0.7973633
vt 0.267334 -0.7993164
vt 0.3125 -0.8125
vt 0.3540039 -0.8295898
vt 0.3911133 -0.8549805
vt 0.4228516 -0.8867188
vt 0.4475098 -0.9243164
vt 0.4643555 -0.9658203
vt 0.4775391 -1.025391
vt 0.5913086 -1.026367
vt 0.6054688 -0.9667969
vt 0.6225586 -0.925293
vt 0.6479492 -0.8876953
vt 0.6796875 -0.8564453
vt 0.7172852 -0.831543
vt 0.7587891 -0.8144531
vt 0.878418 -0.8012695
vt 0.9003906 -0.8007813
vt 0.9023438 -0.4174805
vt 0.9023438 -0.3918457
vt 0.8808594 -0.3918457
vt 0.2373047 -0.3884277
vt 0.2126465 -0.3884277

g TS_2Lane_Park_210677_21
usemtl TS_2Lane_Park_210677_21
usemap TS_2Lane_Park_210677_21
f 1/1/1 3/3/3 2/2/2
f 2/2/2 3/3/3 4/4/4
f 4/4/4 5/5/5 2/2/2
f 5/5/5 6/6/6 2/2/2
f 6/6/6 7/7/7 2/2/2
f 7/7/7 8/8/8 2/2/2
f 8/8/8 9/9/9 2/2/2
f 9/9/9 10/10/10 2/2/2
f 10/10/10 11/11/11 2/2/2
f 11/11/11 12/12/12 2/2/2
f 12/12/12 13/13/13 2/2/2
f 13/13/13 14/14/14 2/2/2
f 14/14/14 15/15/15 2/2/2
f 15/15/15 16/16/16 2/2/2
f 16/16/16 17/17/17 2/2/2
f 17/17/17 18/18/18 2/2/2
f 2/2/2 18/18/18 19/19/19
f 19/19/19 20/20/20 2/2/2
f 20/20/20 21/21/21 2/2/2
f 21/21/21 22/22/22 2/2/2
f 22/22/22 23/23/23 2/2/2
f 23/23/23 24/24/24 2/2/2
f 24/24/24 25/25/25 2/2/2
f 25/25/25 1/1/1 2/2/2
