#TS_2Lane_Park_210674_45.obj

v -9.581809 0.5029154 12.1017
v 0.855759 0.503005 1.263489
v 2.175749 0.5029154 12.10171
v 2.240781 0.5049601 10.95545
v 2.685895 0.5029154 9.369554
v 3.285576 0.5029154 7.911594
v 4.159805 0.5029154 6.59978
v 5.274496 0.5029154 5.485031
v 6.586268 0.5029154 4.61082
v 8.04426 0.5029154 4.011091
v 10.14067 0.5029154 4.004839
v 10.14065 0.5029154 -4.000449
v 8.044252 0.5029154 -4.200423
v 6.586293 0.5029154 -4.800103
v 5.274478 0.5029154 -5.674333
v 4.159794 0.5029154 -6.789001
v 3.285564 0.5029154 -8.100881
v 2.685875 0.5029154 -9.558743
v 2.186061 0.5029154 -11.91771
v 2.175709 0.5029154 -12.10171
v -9.565229 0.5029154 -12.10171
v -10.46218 0.5029154 -12.10171
v -10.46216 0.5029154 -11.33743
v -10.46216 0.5029154 11.23563
v -10.4622 0.5029154 12.10173

vn -0.0006995201 1 -0.0006737709
vn -0.0006995201 1 -0.0006737709
vn 0.00070858 1 0.000682354
vn 0.100708 0.9902344 0.09698486
vn 0.02485657 0.9980469 0.05734253
vn 0.0008935928 0.9980469 0.0625
vn 0.02462769 0.9995117 0.02372742
vn 0.01901245 0.9995117 0.01831055
vn -0.02424622 0.9980469 0.05761719
vn -0.03158569 0.9980469 0.05392456
vn 0.00070858 1 0.000682354
vn 0.00070858 1 0.000682354
vn 0.05477905 0.9980469 -0.03009033
vn 0.05749512 0.9980469 -0.0244751
vn 0.05905151 0.9980469 -0.02044678
vn 0.06140137 0.9980469 -0.01161957
vn 0.06234741 0.9980469 0.004318237
vn 0.05172729 0.9980469 0.0350647
vn 0.2524414 0.9365234 0.2431641
vn 0.00070858 1 0.000682354
vn -0.0006995201 1 -0.0006737709
vn -0.01477814 1 -0.01422882
vn -0.0274353 0.9995117 -0.02642822
vn -0.02603149 0.9995117 -0.02507019
vn -0.01618958 0.9995117 -0.01558685

vt 0.2125244 -0.4133301
vt 0.5439453 -0.7612305
vt 0.2105713 -0.7973633
vt 0.267334 -0.7993164
vt 0.3125 -0.8125
vt 0.3540039 -0.8295898
vt 0.3911133 -0.8549805
vt 0.4228516 -0.8867188
vt 0.4475098 -0.9243164
vt 0.4643555 -0.9658203
vt 0.4775391 -1.025391
vt 0.5913086 -1.026367
vt 0.6054688 -0.9667969
vt 0.6225586 -0.925293
vt 0.6479492 -0.8876953
vt 0.6796875 -0.8564453
vt 0.7172852 -0.831543
vt 0.7587891 -0.8144531
vt 0.878418 -0.8012695
vt 0.9003906 -0.8007813
vt 0.9023438 -0.4174805
vt 0.9023438 -0.3918457
vt 0.8808594 -0.3918457
vt 0.2373047 -0.3884277
vt 0.2126465 -0.3884277

g TS_2Lane_Park_210674_45
usemtl TS_2Lane_Park_210674_45
usemap TS_2Lane_Park_210674_45
f 1/1/1 3/3/3 2/2/2
f 2/2/2 3/3/3 4/4/4
f 4/4/4 5/5/5 2/2/2
f 5/5/5 6/6/6 2/2/2
f 6/6/6 7/7/7 2/2/2
f 7/7/7 8/8/8 2/2/2
f 8/8/8 9/9/9 2/2/2
f 9/9/9 10/10/10 2/2/2
f 10/10/10 11/11/11 2/2/2
f 11/11/11 12/12/12 2/2/2
f 12/12/12 13/13/13 2/2/2
f 13/13/13 14/14/14 2/2/2
f 14/14/14 15/15/15 2/2/2
f 15/15/15 16/16/16 2/2/2
f 16/16/16 17/17/17 2/2/2
f 17/17/17 18/18/18 2/2/2
f 2/2/2 18/18/18 19/19/19
f 19/19/19 20/20/20 2/2/2
f 20/20/20 21/21/21 2/2/2
f 21/21/21 22/22/22 2/2/2
f 22/22/22 23/23/23 2/2/2
f 23/23/23 24/24/24 2/2/2
f 24/24/24 25/25/25 2/2/2
f 25/25/25 1/1/1 2/2/2
