#TS_2Lane_57_216844_41.obj

v 23.46074 0.50292 4.000546
v 12.53401 0.50292 4.000566
v 12.53403 0.50292 -4.000457
v 23.46076 0.50292 -4.000477
v 4.569067 0.6400802 31.40546
v 7.994957 0.6400802 34.83446
v -15.60465 0.6400802 34.83446
v -15.59942 0.6400802 31.40548
v -20.03172 0.6400802 31.40546
v -23.46076 0.6400802 34.83446
v -23.46074 0.6400802 -34.83444
v -20.03176 0.6400802 -31.40546
v 4.585145 0.6400802 13.70814
v 8.01412 0.6400802 13.72182
v 7.994957 0.6400802 34.83446
v 4.569067 0.6400802 31.40546
v 4.601243 0.6400802 11.43002
v 8.026701 0.6400802 11.94514
v 5.0792 0.6400802 9.836894
v 8.31487 0.6400802 10.98456
v 5.678907 0.6400802 8.378897
v 8.72084 0.6400802 9.997638
v 6.553102 0.6400802 7.067119
v 9.21811 0.6400802 9.25143
v 7.667797 0.6400802 5.952339
v 9.852215 0.64008 8.617282
v 8.979639 0.6400802 5.078123
v 10.59834 0.64008 8.120097
v 10.43757 0.6400802 4.478437
v 11.5852 0.64008 7.71415
v 12.53401 0.6400802 4.000566
v 12.53395 0.64008 7.429521
v -20.03176 0.6400802 -31.40546
v -23.46074 0.6400802 -34.83444
v -15.49897 0.6400802 -34.83444
v -15.5041 0.6400802 -31.40546
v 4.569071 0.6400802 -31.40551
v 7.994983 0.6400801 -34.83444
v 8.014144 0.6400802 -13.72179
v 4.585168 0.6400802 -13.70811
v 8.02666 0.6400802 -11.94514
v 4.601266 0.6400802 -11.43
v 8.314871 0.6400802 -10.98443
v 5.079245 0.6400802 -9.836807
v 8.720819 0.6400802 -9.997658
v 5.678909 0.6400802 -8.378896
v 9.218133 0.6400802 -9.251407
v 6.553146 0.6400802 -7.067032
v 9.852194 0.64008 -8.617346
v 7.667819 0.6400802 -5.952359
v 10.59838 0.64008 -8.120096
v 8.979661 0.6400802 -5.078143
v 11.58526 0.6400799 -7.714127
v 10.43759 0.6400802 -4.478457
v 12.53403 0.6400799 -7.429476
v 12.53403 0.6400802 -4.000457
v 23.46074 0.6400802 4.000546
v 23.46072 0.6400802 7.429543
v 12.53395 0.64008 7.429521
v 12.53401 0.6400802 4.000566
v 12.53403 0.6400802 -4.000457
v 12.53403 0.6400799 -7.429476
v 23.46074 0.6400802 -7.429432
v 23.46076 0.6400802 -4.000477
v 4.569067 0.50292 31.40546
v 4.569067 0.6400802 31.40546
v -15.59942 0.6400802 31.40548
v -15.59942 0.50292 31.40548
v -23.46076 -0.6400799 34.83446
v -23.46076 0.6400802 34.83446
v -15.60465 0.6400802 34.83446
v -15.60465 -0.6400799 34.83446
v -20.03172 0.50292 31.40546
v -20.03172 0.6400802 31.40546
v -20.03176 0.6400802 -31.40546
v -20.03176 0.50292 -31.40546
v -23.46074 -0.6400799 -34.83444
v -23.46074 0.6400802 -34.83444
v -23.46076 0.6400802 34.83446
v -23.46076 -0.6400799 34.83446
v 4.585145 0.50292 13.70814
v 4.585145 0.6400802 13.70814
v 4.569067 0.6400802 31.40546
v 4.569067 0.50292 31.40546
v 4.601243 0.50292 11.43002
v 4.601243 0.6400802 11.43002
v 5.0792 0.50292 9.836894
v 5.0792 0.6400802 9.836894
v 5.678907 0.50292 8.378897
v 5.678907 0.6400802 8.378897
v 6.553102 0.50292 7.067119
v 6.553102 0.6400802 7.067119
v 7.667797 0.50292 5.952339
v 7.667797 0.6400802 5.952339
v 7.994957 -0.6400799 34.83446
v 7.994957 0.6400802 34.83446
v 8.01412 0.6400802 13.72182
v 8.01412 -0.6400799 13.72182
v 8.026701 0.6400802 11.94514
v 8.026701 -0.6400799 11.94514
v 8.31487 0.6400802 10.98456
v 8.31487 -0.6400799 10.98456
v 8.72084 0.6400802 9.997638
v 8.72084 -0.6400799 9.997638
v 9.21811 0.6400802 9.25143
v 9.21811 -0.6400799 9.25143
v -20.03176 0.50292 -31.40546
v -20.03176 0.6400802 -31.40546
v -15.5041 0.6400802 -31.40546
v -15.5041 0.50292 -31.40546
v 7.994983 -0.6400799 -34.83444
v 7.994983 0.6400801 -34.83444
v -15.49897 0.6400802 -34.83444
v -15.49897 -0.6400799 -34.83444
v 4.569071 0.50292 -31.40551
v 4.569071 0.6400802 -31.40551
v 4.585168 0.6400802 -13.70811
v 4.585168 0.50292 -13.70811
v 4.601266 0.6400802 -11.43
v 4.601266 0.50292 -11.43
v 5.079245 0.6400802 -9.836807
v 5.079245 0.50292 -9.836807
v 5.678909 0.6400802 -8.378896
v 5.678909 0.50292 -8.378896
v 6.553146 0.6400802 -7.067032
v 6.553146 0.50292 -7.067032
v 7.667819 0.6400802 -5.952359
v 7.667819 0.50292 -5.952359
v 8.014144 -0.6400799 -13.72179
v 8.014144 0.6400802 -13.72179
v 7.994983 0.6400801 -34.83444
v 7.994983 -0.6400799 -34.83444
v 8.02666 -0.6400799 -11.94514
v 8.02666 0.6400802 -11.94514
v 8.314871 -0.6400799 -10.98443
v 8.314871 0.6400802 -10.98443
v 8.720819 -0.6400799 -9.997658
v 8.720819 0.6400802 -9.997658
v 9.218133 -0.6400799 -9.251407
v 9.218133 0.6400802 -9.251407
v 9.852194 -0.6400799 -8.617346
v 9.852194 0.64008 -8.617346
v 12.53401 0.50292 4.000566
v 12.53401 0.6400802 4.000566
v 10.43757 0.6400802 4.478437
v 10.43757 0.50292 4.478437
v 8.979639 0.6400802 5.078123
v 8.979639 0.50292 5.078123
v 7.667797 0.6400802 5.952339
v 7.667797 0.50292 5.952339
v 11.5852 -0.64008 7.71415
v 11.5852 0.64008 7.71415
v 12.53395 0.64008 7.429521
v 12.53395 -0.64008 7.429521
v 10.59834 -0.6400799 8.120097
v 10.59834 0.64008 8.120097
v 9.852215 -0.6400799 8.617282
v 9.852215 0.64008 8.617282
v 9.21811 -0.6400799 9.25143
v 9.21811 0.6400802 9.25143
v 23.46074 0.50292 4.000546
v 23.46074 0.6400802 4.000546
v 12.53401 0.6400802 4.000566
v 12.53401 0.50292 4.000566
v 12.53395 -0.64008 7.429521
v 12.53395 0.64008 7.429521
v 23.46072 0.6400802 7.429543
v 23.46072 -0.6400799 7.429543
v 10.43759 0.50292 -4.478457
v 10.43759 0.6400802 -4.478457
v 12.53403 0.6400802 -4.000457
v 12.53403 0.50292 -4.000457
v 8.979661 0.50292 -5.078143
v 8.979661 0.6400802 -5.078143
v 7.667819 0.50292 -5.952359
v 7.667819 0.6400802 -5.952359
v 12.53403 -0.6400801 -7.429476
v 12.53403 0.6400799 -7.429476
v 11.58526 0.6400799 -7.714127
v 11.58526 -0.6400801 -7.714127
v 10.59838 0.64008 -8.120096
v 10.59838 -0.6400799 -8.120096
v 9.852194 0.64008 -8.617346
v 9.852194 -0.6400799 -8.617346
v 12.53403 0.50292 -4.000457
v 12.53403 0.6400802 -4.000457
v 23.46076 0.6400802 -4.000477
v 23.46076 0.50292 -4.000477
v 23.46074 -0.6400799 -7.429432
v 23.46074 0.6400802 -7.429432
v 12.53403 0.6400799 -7.429476
v 12.53403 -0.6400801 -7.429476
v -15.49897 0.6400802 -34.83444
v 7.994983 0.6400801 -34.83444
v 4.569071 0.6400802 -31.40551
v -15.5041 0.6400802 -31.40546
v -15.60465 0.6400802 34.83446
v 7.994957 0.6400802 34.83446
v 7.994957 -0.6400799 34.83446
v -15.60465 -0.6400799 34.83446
v -15.5041 0.6400802 -31.40546
v 4.569071 0.6400802 -31.40551
v 4.569071 0.50292 -31.40551
v -15.5041 0.50292 -31.40546
v -15.60465 0.6400802 34.83446
v -23.46076 0.6400802 34.83446
v -20.03172 0.6400802 31.40546
v -15.59942 0.6400802 31.40548
v -15.59942 0.6400802 31.40548
v -20.03172 0.6400802 31.40546
v -20.03172 0.50292 31.40546
v -15.59942 0.50292 31.40548
v -15.49897 0.6400802 -34.83444
v -23.46074 0.6400802 -34.83444
v -23.46074 -0.6400799 -34.83444
v -15.49897 -0.6400799 -34.83444

vn 0.01212311 1 -0.01212311
vn 0.006900787 1 -0.007427216
vn -0.007427216 1 0.006900787
vn -0.01212311 1 0.01212311
vn 0.01041412 1 -0.01779175
vn -0.2624512 0.8427734 0.4699707
vn -0.2734375 0.9223633 0.2734375
vn 0.02479553 0.9995117 -0.02479553
vn 0.01791382 1 -0.0006637573
vn -0.4848633 0.8745117 0.01625061
vn 0.01625061 0.8745117 -0.4848633
vn -0.0006637573 1 0.01791382
vn -0.02635193 0.9995117 -0.02644348
vn 0.2609863 0.9291992 0.2617188
vn -0.2624512 0.8427734 0.4699707
vn 0.01041412 1 -0.01779175
vn -0.03121948 0.9985352 -0.04034424
vn 0.1689453 0.9628906 0.2106934
vn -0.02168274 0.9985352 -0.04534912
vn 0.116272 0.9624023 0.2451172
vn -0.01526642 0.9985352 -0.04998779
vn 0.07781982 0.9658203 0.2471924
vn -0.005332947 0.9985352 -0.05380249
vn 0.02423096 0.9692383 0.2445068
vn 0.005332947 0.9985352 -0.05380249
vn -0.02423096 0.9692383 0.2445068
vn 0.01526642 0.9985352 -0.04998779
vn -0.07781982 0.9658203 0.2471924
vn 0.02581787 0.9985352 -0.04827881
vn -0.107666 0.9677734 0.2270508
vn 0.02894592 0.9990234 -0.03114319
vn -0.2265625 0.9443359 0.2376709
vn -0.0006637573 1 0.01791382
vn 0.01625061 0.8745117 -0.4848633
vn 0.2731934 0.9223633 -0.2731934
vn -0.02482605 0.9995117 0.02482605
vn -0.01779175 1 0.01041412
vn 0.4699707 0.8427734 -0.2624512
vn 0.2617188 0.9291992 0.2609863
vn -0.02644348 0.9995117 -0.02635193
vn 0.2106934 0.9628906 0.1689453
vn -0.04034424 0.9985352 -0.03121948
vn 0.2451172 0.9624023 0.116272
vn -0.04534912 0.9985352 -0.02168274
vn 0.2471924 0.9658203 0.07781982
vn -0.04998779 0.9985352 -0.01526642
vn 0.2445068 0.9692383 0.02423096
vn -0.05380249 0.9985352 -0.005332947
vn 0.2445068 0.9692383 -0.02423096
vn -0.05380249 0.9985352 0.005332947
vn 0.2471924 0.9658203 -0.07781982
vn -0.04998779 0.9985352 0.01526642
vn 0.2270508 0.9677734 -0.107666
vn -0.04827881 0.9985352 0.02581787
vn 0.2376709 0.9443359 -0.2265625
vn -0.03114319 0.9990234 0.02894592
vn 0.02825928 0.9990234 -0.02825928
vn -0.2473145 0.9370117 0.2473145
vn -0.2265625 0.9443359 0.2376709
vn 0.02894592 0.9990234 -0.03114319
vn -0.03114319 0.9990234 0.02894592
vn 0.2376709 0.9443359 -0.2265625
vn 0.2473145 0.9370117 -0.2473145
vn -0.02825928 0.9990234 0.02825928
vn 0.00617981 1 -0.01055908
vn 0.01041412 1 -0.01779175
vn 0.02479553 0.9995117 -0.02479553
vn 0.006233215 1 -0.006233215
vn -0.9995117 0 0.0335083
vn -0.4848633 0.8745117 0.01625061
vn -0.2734375 0.9223633 0.2734375
vn -0.7070313 0 0.7070313
vn 0.008888245 1 -0.0003294945
vn 0.01791382 1 -0.0006637573
vn -0.0006637573 1 0.01791382
vn -0.0003294945 1 0.008888245
vn 0.0335083 0 -0.9995117
vn 0.01625061 0.8745117 -0.4848633
vn -0.4848633 0.8745117 0.01625061
vn -0.9995117 0 0.0335083
vn -0.008888245 1 -0.008911133
vn -0.02635193 0.9995117 -0.02644348
vn 0.01041412 1 -0.01779175
vn 0.00617981 1 -0.01055908
vn -0.008590698 1 -0.01110077
vn -0.03121948 0.9985352 -0.04034424
vn -0.006023407 1 -0.01260376
vn -0.02168274 0.9985352 -0.04534912
vn -0.003929138 1 -0.01286316
vn -0.01526642 0.9985352 -0.04998779
vn -0.001382828 1 -0.01395416
vn -0.005332947 0.9985352 -0.05380249
vn 0.001548767 1 -0.015625
vn 0.005332947 0.9985352 -0.05380249
vn -0.4875488 0 0.8730469
vn -0.2624512 0.8427734 0.4699707
vn 0.2609863 0.9291992 0.2617188
vn 0.7060547 0 0.7080078
vn 0.1689453 0.9628906 0.2106934
vn 0.6254883 0 0.7802734
vn 0.116272 0.9624023 0.2451172
vn 0.4287109 0 0.9033203
vn 0.07781982 0.9658203 0.2471924
vn 0.300293 0 0.9541016
vn 0.02423096 0.9692383 0.2445068
vn 0.09863281 0 0.9951172
vn -0.0003294945 1 0.008888245
vn -0.0006637573 1 0.01791382
vn -0.02482605 0.9995117 0.02482605
vn -0.006229401 1 0.006229401
vn 0.8730469 0 -0.4875488
vn 0.4699707 0.8427734 -0.2624512
vn 0.2731934 0.9223633 -0.2731934
vn 0.7070313 0 -0.7070313
vn -0.01055908 1 0.00617981
vn -0.01779175 1 0.01041412
vn -0.02644348 0.9995117 -0.02635193
vn -0.008911133 1 -0.008888245
vn -0.04034424 0.9985352 -0.03121948
vn -0.01110077 1 -0.008590698
vn -0.04534912 0.9985352 -0.02168274
vn -0.01260376 1 -0.006023407
vn -0.04998779 0.9985352 -0.01526642
vn -0.01286316 1 -0.003929138
vn -0.05380249 0.9985352 -0.005332947
vn -0.01395416 1 -0.001382828
vn -0.05380249 0.9985352 0.005332947
vn -0.015625 1 0.001548767
vn 0.7080078 0 0.7060547
vn 0.2617188 0.9291992 0.2609863
vn 0.4699707 0.8427734 -0.2624512
vn 0.8730469 0 -0.4875488
vn 0.7802734 0 0.6254883
vn 0.2106934 0.9628906 0.1689453
vn 0.9033203 0 0.4287109
vn 0.2451172 0.9624023 0.116272
vn 0.9541016 0 0.300293
vn 0.2471924 0.9658203 0.07781982
vn 0.9951172 0 0.09863281
vn 0.2445068 0.9692383 0.02423096
vn 0.9951172 0 -0.09863281
vn 0.2445068 0.9692383 -0.02423096
vn 0.006900787 1 -0.007427216
vn 0.02894592 0.9990234 -0.03114319
vn 0.02581787 0.9985352 -0.04827881
vn 0.01146698 0.9995117 -0.02145386
vn 0.01526642 0.9985352 -0.04998779
vn 0.005638123 1 -0.01846313
vn 0.005332947 0.9985352 -0.05380249
vn 0.001548767 1 -0.015625
vn -0.4284668 0 0.9038086
vn -0.107666 0.9677734 0.2270508
vn -0.2265625 0.9443359 0.2376709
vn -0.6899414 0 0.7236328
vn -0.300293 0 0.9536133
vn -0.07781982 0.9658203 0.2471924
vn -0.09863281 0 0.9951172
vn -0.02423096 0.9692383 0.2445068
vn 0.09863281 0 0.9951172
vn 0.02423096 0.9692383 0.2445068
vn 0.01212311 1 -0.01212311
vn 0.02825928 0.9990234 -0.02825928
vn 0.02894592 0.9990234 -0.03114319
vn 0.006900787 1 -0.007427216
vn -0.6899414 0 0.7236328
vn -0.2265625 0.9443359 0.2376709
vn -0.2473145 0.9370117 0.2473145
vn -0.7070313 0 0.7070313
vn -0.02145386 0.9995117 0.01146698
vn -0.04827881 0.9985352 0.02581787
vn -0.03114319 0.9990234 0.02894592
vn -0.007427216 1 0.006900787
vn -0.01846313 1 0.005638123
vn -0.04998779 0.9985352 0.01526642
vn -0.015625 1 0.001548767
vn -0.05380249 0.9985352 0.005332947
vn 0.7236328 0 -0.6899414
vn 0.2376709 0.9443359 -0.2265625
vn 0.2270508 0.9677734 -0.107666
vn 0.9038086 0 -0.4284668
vn 0.2471924 0.9658203 -0.07781982
vn 0.9536133 0 -0.300293
vn 0.2445068 0.9692383 -0.02423096
vn 0.9951172 0 -0.09863281
vn -0.007427216 1 0.006900787
vn -0.03114319 0.9990234 0.02894592
vn -0.02825928 0.9990234 0.02825928
vn -0.01212311 1 0.01212311
vn 0.7070313 0 -0.7070313
vn 0.2473145 0.9370117 -0.2473145
vn 0.2376709 0.9443359 -0.2265625
vn 0.7236328 0 -0.6899414
vn 0.2731934 0.9223633 -0.2731934
vn 0.4699707 0.8427734 -0.2624512
vn -0.01779175 1 0.01041412
vn -0.02482605 0.9995117 0.02482605
vn -0.2734375 0.9223633 0.2734375
vn -0.2624512 0.8427734 0.4699707
vn -0.4875488 0 0.8730469
vn -0.7070313 0 0.7070313
vn -0.02482605 0.9995117 0.02482605
vn -0.01779175 1 0.01041412
vn -0.01055908 1 0.00617981
vn -0.006229401 1 0.006229401
vn -0.2734375 0.9223633 0.2734375
vn -0.4848633 0.8745117 0.01625061
vn 0.01791382 1 -0.0006637573
vn 0.02479553 0.9995117 -0.02479553
vn 0.02479553 0.9995117 -0.02479553
vn 0.01791382 1 -0.0006637573
vn 0.008888245 1 -0.0003294945
vn 0.006233215 1 -0.006233215
vn 0.2731934 0.9223633 -0.2731934
vn 0.01625061 0.8745117 -0.4848633
vn 0.0335083 0 -0.9995117
vn 0.7070313 0 -0.7070313

vt 0.3830566 0.6386719
vt 0.08294678 0.6386719
vt 0.08294678 0.8618164
vt 0.3830566 0.8618164
vt 2.009766 0.6352539
vt 2.103516 0.5395508
vt 1.494141 0.5395508
vt 1.492188 0.6352539
vt 2.023438 0.6352539
vt 2.119141 0.5395508
vt 0.19104 0.5395508
vt 0.2858887 0.6352539
vt 3.890625 0.6352539
vt 3.890625 0.5395508
vt 3.333984 0.5395508
vt 3.423828 0.6352539
vt 3.943359 0.6352539
vt 3.943359 0.5395508
vt 3.972656 0.6352539
vt 3.974609 0.5395508
vt 4.003906 0.6352539
vt 4.003906 0.5395508
vt 4.03125 0.6352539
vt 4.03125 0.5395508
vt 4.058594 0.6352539
vt 4.058594 0.5395508
vt 4.085938 0.6352539
vt 4.085938 0.5395508
vt 4.121094 0.6352539
vt 4.117188 0.5395508
vt 4.144531 0.6352539
vt 4.144531 0.5395508
vt 2.044922 0.6352539
vt 2.138672 0.5395508
vt 1.93457 0.5395508
vt 1.929688 0.6352539
vt 3.123047 0.6352539
vt 3.230469 0.5395508
vt 2.576172 0.5395508
vt 2.576172 0.6352539
vt 2.523438 0.5395508
vt 2.523438 0.6352539
vt 2.492188 0.5395508
vt 2.492188 0.6352539
vt 2.462891 0.5395508
vt 2.462891 0.6352539
vt 2.435547 0.5395508
vt 2.435547 0.6352539
vt 2.40625 0.5395508
vt 2.40625 0.6352539
vt 2.378906 0.5395508
vt 2.376953 0.6352539
vt 2.347656 0.5395508
vt 2.347656 0.6352539
vt 2.294922 0.5395508
vt 2.296875 0.6352539
vt 0.3830566 0.6352539
vt 0.3830566 0.5390625
vt 0.08294678 0.5390625
vt 0.08294678 0.6352539
vt 0.08294678 0.8657227
vt 0.08294678 0.9609375
vt 0.3830566 0.9609375
vt 0.3830566 0.8657227
vt 2.009766 0.6386719
vt 2.009766 0.6352539
vt 1.492188 0.6352539
vt 1.492188 0.6386719
vt 0.1801758 0.503418
vt 0.1801758 0.5395508
vt 0.3830566 0.5395508
vt 0.3830566 0.503418
vt 2.023438 0.6386719
vt 2.023438 0.6352539
vt 0.2858887 0.6352539
vt 0.2858887 0.6386719
vt 0.19104 0.503418
vt 0.19104 0.5395508
vt 2.119141 0.5395508
vt 2.119141 0.503418
vt 3.890625 0.6386719
vt 3.890625 0.6352539
vt 3.423828 0.6352539
vt 3.423828 0.6386719
vt 3.943359 0.6386719
vt 3.943359 0.6352539
vt 3.972656 0.6386719
vt 3.972656 0.6352539
vt 4.003906 0.6386719
vt 4.003906 0.6352539
vt 4.03125 0.6386719
vt 4.03125 0.6352539
vt 4.058594 0.6386719
vt 4.058594 0.6352539
vt 3.333984 0.503418
vt 3.333984 0.5395508
vt 3.890625 0.5395508
vt 3.890625 0.503418
vt 3.943359 0.5395508
vt 3.943359 0.503418
vt 3.974609 0.5395508
vt 3.974609 0.503418
vt 4.003906 0.5395508
vt 4.003906 0.503418
vt 4.03125 0.5395508
vt 4.03125 0.503418
vt 2.044922 0.6386719
vt 2.044922 0.6352539
vt 1.929688 0.6352539
vt 1.929688 0.6386719
vt 0.2199707 0.503418
vt 0.2199707 0.5395508
vt 0.8251953 0.5395508
vt 0.8251953 0.503418
vt 3.123047 0.6386719
vt 3.123047 0.6352539
vt 2.576172 0.6352539
vt 2.576172 0.6386719
vt 2.523438 0.6352539
vt 2.523438 0.6386719
vt 2.492188 0.6352539
vt 2.492188 0.6386719
vt 2.462891 0.6352539
vt 2.462891 0.6386719
vt 2.435547 0.6352539
vt 2.435547 0.6386719
vt 2.40625 0.6352539
vt 2.40625 0.6386719
vt 2.576172 0.503418
vt 2.576172 0.5395508
vt 3.230469 0.5395508
vt 3.230469 0.503418
vt 2.523438 0.503418
vt 2.523438 0.5395508
vt 2.492188 0.503418
vt 2.492188 0.5395508
vt 2.462891 0.503418
vt 2.462891 0.5395508
vt 2.435547 0.503418
vt 2.435547 0.5395508
vt 2.40625 0.503418
vt 2.40625 0.5395508
vt 4.144531 0.6386719
vt 4.144531 0.6352539
vt 4.121094 0.6352539
vt 4.121094 0.6386719
vt 4.085938 0.6352539
vt 4.085938 0.6386719
vt 4.058594 0.6352539
vt 4.058594 0.6386719
vt 4.117188 0.503418
vt 4.117188 0.5395508
vt 4.144531 0.5395508
vt 4.144531 0.503418
vt 4.085938 0.503418
vt 4.085938 0.5395508
vt 4.058594 0.503418
vt 4.058594 0.5395508
vt 4.03125 0.503418
vt 4.03125 0.5395508
vt 0.3830566 0.6386719
vt 0.3830566 0.6352539
vt 0.08294678 0.6352539
vt 0.08294678 0.6386719
vt 0.08294678 0.5039063
vt 0.08294678 0.5390625
vt 0.3830566 0.5390625
vt 0.3830566 0.5039063
vt 2.347656 0.6386719
vt 2.347656 0.6352539
vt 2.296875 0.6352539
vt 2.296875 0.6386719
vt 2.376953 0.6386719
vt 2.376953 0.6352539
vt 2.40625 0.6386719
vt 2.40625 0.6352539
vt 2.294922 0.503418
vt 2.294922 0.5395508
vt 2.347656 0.5395508
vt 2.347656 0.503418
vt 2.378906 0.5395508
vt 2.378906 0.503418
vt 2.40625 0.5395508
vt 2.40625 0.503418
vt 0.08294678 0.8618164
vt 0.08294678 0.8657227
vt 0.3830566 0.8657227
vt 0.3830566 0.8618164
vt 0.3830566 0.9970703
vt 0.3830566 0.9609375
vt 0.08294678 0.9609375
vt 0.08294678 0.9970703
vt 0.8251953 0.5395508
vt 0.2199707 0.5395508
vt 0.3144531 0.6352539
vt 0.8276367 0.6352539
vt 1.494141 0.5395508
vt 2.103516 0.5395508
vt 2.103516 0.503418
vt 1.494141 0.503418
vt 0.8276367 0.6352539
vt 0.3144531 0.6352539
vt 0.3144531 0.6386719
vt 0.8276367 0.6386719
vt 0.3830566 0.5395508
vt 0.1801758 0.5395508
vt 0.2749023 0.6352539
vt 0.3884277 0.6352539
vt 0.3884277 0.6352539
vt 0.2749023 0.6352539
vt 0.2749023 0.6386719
vt 0.3884277 0.6386719
vt 1.93457 0.5395508
vt 2.138672 0.5395508
vt 2.138672 0.503418
vt 1.93457 0.503418

g TS_2Lane_57_216844_41
usemtl TS_2Lane_57_216844_41
usemap TS_2Lane_57_216844_41
f 1/1/1 3/3/3 2/2/2
f 1/1/1 4/4/4 3/3/3
f 5/5/5 7/7/7 6/6/6
f 5/5/5 8/8/8 7/7/7
f 9/9/9 11/11/11 10/10/10
f 9/9/9 12/12/12 11/11/11
f 13/13/13 15/15/15 14/14/14
f 13/13/13 16/16/16 15/15/15
f 17/17/17 13/13/13 14/14/14
f 17/17/17 14/14/14 18/18/18
f 19/19/19 17/17/17 18/18/18
f 19/19/19 18/18/18 20/20/20
f 21/21/21 19/19/19 20/20/20
f 21/21/21 20/20/20 22/22/22
f 23/23/23 21/21/21 22/22/22
f 23/23/23 22/22/22 24/24/24
f 25/25/25 23/23/23 24/24/24
f 25/25/25 24/24/24 26/26/26
f 27/27/27 25/25/25 26/26/26
f 27/27/27 26/26/26 28/28/28
f 29/29/29 27/27/27 28/28/28
f 29/29/29 28/28/28 30/30/30
f 31/31/31 29/29/29 30/30/30
f 31/31/31 30/30/30 32/32/32
f 33/33/33 35/35/35 34/34/34
f 33/33/33 36/36/36 35/35/35
f 37/37/37 39/39/39 38/38/38
f 37/37/37 40/40/40 39/39/39
f 40/40/40 41/41/41 39/39/39
f 40/40/40 42/42/42 41/41/41
f 42/42/42 43/43/43 41/41/41
f 42/42/42 44/44/44 43/43/43
f 44/44/44 45/45/45 43/43/43
f 44/44/44 46/46/46 45/45/45
f 46/46/46 47/47/47 45/45/45
f 46/46/46 48/48/48 47/47/47
f 48/48/48 49/49/49 47/47/47
f 48/48/48 50/50/50 49/49/49
f 50/50/50 51/51/51 49/49/49
f 50/50/50 52/52/52 51/51/51
f 52/52/52 53/53/53 51/51/51
f 52/52/52 54/54/54 53/53/53
f 54/54/54 55/55/55 53/53/53
f 54/54/54 56/56/56 55/55/55
f 57/57/57 59/59/59 58/58/58
f 57/57/57 60/60/60 59/59/59
f 61/61/61 63/63/63 62/62/62
f 61/61/61 64/64/64 63/63/63
f 65/65/65 67/67/67 66/66/66
f 65/65/65 68/68/68 67/67/67
f 69/69/69 71/71/71 70/70/70
f 69/69/69 72/72/72 71/71/71
f 73/73/73 75/75/75 74/74/74
f 73/73/73 76/76/76 75/75/75
f 77/77/77 79/79/79 78/78/78
f 77/77/77 80/80/80 79/79/79
f 81/81/81 83/83/83 82/82/82
f 81/81/81 84/84/84 83/83/83
f 85/85/85 81/81/81 82/82/82
f 85/85/85 82/82/82 86/86/86
f 87/87/87 85/85/85 86/86/86
f 87/87/87 86/86/86 88/88/88
f 89/89/89 87/87/87 88/88/88
f 89/89/89 88/88/88 90/90/90
f 91/91/91 89/89/89 90/90/90
f 91/91/91 90/90/90 92/92/92
f 93/93/93 91/91/91 92/92/92
f 93/93/93 92/92/92 94/94/94
f 95/95/95 97/97/97 96/96/96
f 95/95/95 98/98/98 97/97/97
f 98/98/98 99/99/99 97/97/97
f 98/98/98 100/100/100 99/99/99
f 100/100/100 101/101/101 99/99/99
f 100/100/100 102/102/102 101/101/101
f 102/102/102 103/103/103 101/101/101
f 102/102/102 104/104/104 103/103/103
f 104/104/104 105/105/105 103/103/103
f 104/104/104 106/106/106 105/105/105
f 107/107/107 109/109/109 108/108/108
f 107/107/107 110/110/110 109/109/109
f 111/111/111 113/113/113 112/112/112
f 111/111/111 114/114/114 113/113/113
f 115/115/115 117/117/117 116/116/116
f 115/115/115 118/118/118 117/117/117
f 118/118/118 119/119/119 117/117/117
f 118/118/118 120/120/120 119/119/119
f 120/120/120 121/121/121 119/119/119
f 120/120/120 122/122/122 121/121/121
f 122/122/122 123/123/123 121/121/121
f 122/122/122 124/124/124 123/123/123
f 124/124/124 125/125/125 123/123/123
f 124/124/124 126/126/126 125/125/125
f 126/126/126 127/127/127 125/125/125
f 126/126/126 128/128/128 127/127/127
f 129/129/129 131/131/131 130/130/130
f 129/129/129 132/132/132 131/131/131
f 133/133/133 129/129/129 130/130/130
f 133/133/133 130/130/130 134/134/134
f 135/135/135 133/133/133 134/134/134
f 135/135/135 134/134/134 136/136/136
f 137/137/137 135/135/135 136/136/136
f 137/137/137 136/136/136 138/138/138
f 139/139/139 137/137/137 138/138/138
f 139/139/139 138/138/138 140/140/140
f 141/141/141 139/139/139 140/140/140
f 141/141/141 140/140/140 142/142/142
f 143/143/143 145/145/145 144/144/144
f 143/143/143 146/146/146 145/145/145
f 146/146/146 147/147/147 145/145/145
f 146/146/146 148/148/148 147/147/147
f 148/148/148 149/149/149 147/147/147
f 148/148/148 150/150/150 149/149/149
f 151/151/151 153/153/153 152/152/152
f 151/151/151 154/154/154 153/153/153
f 155/155/155 151/151/151 152/152/152
f 155/155/155 152/152/152 156/156/156
f 157/157/157 155/155/155 156/156/156
f 157/157/157 156/156/156 158/158/158
f 159/159/159 157/157/157 158/158/158
f 159/159/159 158/158/158 160/160/160
f 161/161/161 163/163/163 162/162/162
f 161/161/161 164/164/164 163/163/163
f 165/165/165 167/167/167 166/166/166
f 165/165/165 168/168/168 167/167/167
f 169/169/169 171/171/171 170/170/170
f 169/169/169 172/172/172 171/171/171
f 173/173/173 169/169/169 170/170/170
f 173/173/173 170/170/170 174/174/174
f 175/175/175 173/173/173 174/174/174
f 175/175/175 174/174/174 176/176/176
f 177/177/177 179/179/179 178/178/178
f 177/177/177 180/180/180 179/179/179
f 180/180/180 181/181/181 179/179/179
f 180/180/180 182/182/182 181/181/181
f 182/182/182 183/183/183 181/181/181
f 182/182/182 184/184/184 183/183/183
f 185/185/185 187/187/187 186/186/186
f 185/185/185 188/188/188 187/187/187
f 189/189/189 191/191/191 190/190/190
f 189/189/189 192/192/192 191/191/191
f 193/193/193 195/195/195 194/194/194
f 193/193/193 196/196/196 195/195/195
f 197/197/197 199/199/199 198/198/198
f 197/197/197 200/200/200 199/199/199
f 201/201/201 203/203/203 202/202/202
f 201/201/201 204/204/204 203/203/203
f 205/205/205 207/207/207 206/206/206
f 205/205/205 208/208/208 207/207/207
f 209/209/209 211/211/211 210/210/210
f 209/209/209 212/212/212 211/211/211
f 213/213/213 215/215/215 214/214/214
f 213/213/213 216/216/216 215/215/215
