#TS_2Lane_57_216844_40.obj

v -20.03172 0.50292 31.40546
v -15.57355 0.50292 15.55615
v -15.59942 0.50292 31.40548
v -20.03176 0.50292 -31.40546
v -15.53009 0.50292 -15.52966
v 4.569067 0.50292 31.40546
v -11.5959 0.50292 -2.235123E-05
v 4.569071 0.50292 -31.40551
v 4.585168 0.50292 -13.70811
v -15.5041 0.50292 -31.40546
v 4.585145 0.50292 13.70814
v 4.601243 0.50292 11.43002
v 4.601266 0.50292 -11.43
v 5.079245 0.50292 -9.836807
v 5.0792 0.50292 9.836894
v 5.678909 0.50292 -8.378896
v 6.553146 0.50292 -7.067032
v 7.667819 0.50292 -5.952359
v 8.979661 0.50292 -5.078143
v 10.43759 0.50292 -4.478457
v 12.53403 0.50292 -4.000457
v 12.53401 0.50292 4.000566
v 10.43757 0.50292 4.478437
v 8.979639 0.50292 5.078123
v 7.667797 0.50292 5.952339
v 6.553102 0.50292 7.067119
v 5.678907 0.50292 8.378897

vn 0.008888245 1 -0.0003294945
vn 0 1 0
vn 0.006233215 1 -0.006233215
vn -0.0003294945 1 0.008888245
vn 0 1 0
vn 0.00617981 1 -0.01055908
vn 0 1 0
vn -0.01055908 1 0.00617981
vn -0.008911133 1 -0.008888245
vn -0.006229401 1 0.006229401
vn -0.008888245 1 -0.008911133
vn -0.008590698 1 -0.01110077
vn -0.01110077 1 -0.008590698
vn -0.01260376 1 -0.006023407
vn -0.006023407 1 -0.01260376
vn -0.01286316 1 -0.003929138
vn -0.01395416 1 -0.001382828
vn -0.015625 1 0.001548767
vn -0.01846313 1 0.005638123
vn -0.02145386 0.9995117 0.01146698
vn -0.007427216 1 0.006900787
vn 0.006900787 1 -0.007427216
vn 0.01146698 0.9995117 -0.02145386
vn 0.005638123 1 -0.01846313
vn 0.001548767 1 -0.015625
vn -0.001382828 1 -0.01395416
vn -0.003929138 1 -0.01286316

vt 0.04818726 -3.449219
vt -0.1297607 -3.398438
vt 0.04824829 -3.398438
vt -0.6572266 -3.447266
vt -0.4787598 -3.398438
vt 0.0486145 -3.171875
vt -0.3044434 -3.353516
vt -0.6567383 -3.171875
vt -0.4580078 -3.171875
vt -0.6572266 -3.396484
vt -0.1501465 -3.171875
vt -0.1756592 -3.171875
vt -0.432373 -3.171875
vt -0.4145508 -3.166016
vt -0.1936035 -3.166016
vt -0.3981934 -3.160156
vt -0.3833008 -3.150391
vt -0.3708496 -3.136719
vt -0.361084 -3.123047
vt -0.354248 -3.105469
vt -0.348877 -3.082031
vt -0.2590332 -3.082031
vt -0.2536621 -3.107422
vt -0.2469482 -3.123047
vt -0.2371826 -3.136719
vt -0.2247314 -3.150391
vt -0.2099609 -3.160156

g TS_2Lane_57_216844_40
usemtl TS_2Lane_57_216844_40
usemap TS_2Lane_57_216844_40
f 1/1/1 3/3/3 2/2/2
f 4/4/4 1/1/1 2/2/2
f 4/4/4 2/2/2 5/5/5
f 2/2/2 3/3/3 6/6/6
f 2/2/2 6/6/6 7/7/7
f 5/5/5 2/2/2 7/7/7
f 8/8/8 5/5/5 7/7/7
f 9/9/9 8/8/8 7/7/7
f 8/8/8 10/10/10 5/5/5
f 5/5/5 10/10/10 4/4/4
f 6/6/6 11/11/11 7/7/7
f 7/7/7 11/11/11 12/12/12
f 7/7/7 13/13/13 9/9/9
f 14/14/14 13/13/13 7/7/7
f 12/12/12 15/15/15 7/7/7
f 16/16/16 14/14/14 7/7/7
f 17/17/17 16/16/16 7/7/7
f 18/18/18 17/17/17 7/7/7
f 19/19/19 18/18/18 7/7/7
f 20/20/20 19/19/19 7/7/7
f 21/21/21 20/20/20 7/7/7
f 7/7/7 22/22/22 21/21/21
f 23/23/23 22/22/22 7/7/7
f 24/24/24 23/23/23 7/7/7
f 25/25/25 24/24/24 7/7/7
f 26/26/26 25/25/25 7/7/7
f 27/27/27 26/26/26 7/7/7
f 15/15/15 27/27/27 7/7/7
