#TS_2Lane_58_206932_46.obj

v -15.47274 0.50292 20.94805
v -13.97243 0.50292 20.85966
v -11.0317 0.50292 20.85966
v -11.04042 0.50292 20.94805
v -11.01452 0.50292 15.58946
v 6.382681 0.50292 20.85964
v -7.036897 0.50292 0.03330747
v -10.97108 0.50292 -15.49633
v -15.47274 0.50292 20.85966
v -13.90335 0.50292 -20.6254
v -10.95419 0.50292 -20.62538
v -15.47274 0.50292 -20.62538
v -15.47274 0.50292 -20.94803
v 6.279252 0.50292 -20.62538
v 9.144148 0.50292 -13.67481
v 9.1331 0.50292 -20.62538
v 9.128072 0.50292 -20.94801
v -10.94513 0.50292 -20.94803
v 9.160246 0.50292 -11.39669
v 9.638204 0.50292 -9.803478
v 10.23791 0.50292 -8.34561
v 11.11213 0.50292 -7.033725
v 12.22682 0.50292 -5.919031
v 13.53866 0.50292 -5.044815
v 14.99657 0.50292 -4.445107
v 17.09301 0.50292 -3.96715
v 17.09301 0.50292 4.033851
v 14.99657 0.50292 4.511765
v 13.53864 0.50292 5.111451
v 12.22682 0.50292 5.985645
v 11.11213 0.50292 7.100426
v 10.23791 0.50292 8.412225
v 9.638204 0.50292 9.870179
v 9.160246 0.50292 11.46331
v 9.14417 0.50292 13.74144
v 9.132905 0.50292 20.85964
v 9.12805 0.50292 20.94805

vn 0.0003294945 1 0.008888245
vn 0 1 0
vn 0 1 0
vn 0.6157227 0.4912109 0.6157227
vn 0 1 0
vn 0 1 0
vn 0 1 0
vn 0 1 0
vn -0.02362061 0.9995117 0.02362061
vn 0 1 0
vn 0 1 0
vn -0.02372742 0.9995117 0.02372742
vn -0.008888245 1 -0.0003294945
vn 0 1 0
vn 0.008888245 1 -0.008911133
vn 0.008155823 1 -0.00818634
vn -0.00617981 1 -0.01055908
vn -0.2963867 0.9077148 -0.2963867
vn 0.008590698 1 -0.01110077
vn 0.006023407 1 -0.01260376
vn 0.003929138 1 -0.01286316
vn 0.001382828 1 -0.01395416
vn -0.001548767 1 -0.015625
vn -0.005638123 1 -0.01846313
vn -0.01146698 0.9995117 -0.02145386
vn -0.006900787 1 -0.007427216
vn 0.007427216 1 0.006900787
vn 0.02145386 0.9995117 0.01146698
vn 0.01846313 1 0.005638123
vn 0.015625 1 0.001548767
vn 0.01395416 1 -0.001382828
vn 0.01286316 1 -0.003929138
vn 0.01260376 1 -0.006023407
vn 0.01110077 1 -0.008590698
vn 0.008911133 1 -0.008888245
vn 0.008094788 1 -0.00806427
vn 0.01055908 1 0.00617981

vt -0.06903076 -3.451172
vt -0.07006836 -3.433594
vt -0.07006836 -3.400391
vt -0.06903076 -3.402344
vt -0.1295166 -3.400391
vt -0.07006836 -3.205078
vt -0.3049316 -3.355469
vt -0.4802246 -3.400391
vt -0.07006836 -3.451172
vt -0.5380859 -3.433594
vt -0.5380859 -3.400391
vt -0.5380859 -3.451172
vt -0.5415039 -3.451172
vt -0.5380859 -3.207031
vt -0.4597168 -3.173828
vt -0.5380859 -3.173828
vt -0.5415039 -3.173828
vt -0.5415039 -3.400391
vt -0.434082 -3.173828
vt -0.4160156 -3.167969
vt -0.3996582 -3.162109
vt -0.3847656 -3.152344
vt -0.3720703 -3.138672
vt -0.3623047 -3.125
vt -0.3554688 -3.107422
vt -0.3500977 -3.083984
vt -0.2600098 -3.083984
vt -0.2543945 -3.107422
vt -0.2478027 -3.125
vt -0.237915 -3.138672
vt -0.2253418 -3.152344
vt -0.2104492 -3.162109
vt -0.1940918 -3.167969
vt -0.1760254 -3.173828
vt -0.1503906 -3.173828
vt -0.07006836 -3.173828
vt -0.0690918 -3.173828

g TS_2Lane_58_206932_46
usemtl TS_2Lane_58_206932_46
usemap TS_2Lane_58_206932_46
f 1/1/1 3/3/3 2/2/2
f 1/1/1 4/4/4 3/3/3
f 2/2/2 3/3/3 5/5/5
f 5/5/5 3/3/3 6/6/6
f 6/6/6 3/3/3 4/4/4
f 5/5/5 6/6/6 7/7/7
f 8/8/8 5/5/5 7/7/7
f 8/8/8 9/9/9 5/5/5
f 5/5/5 9/9/9 2/2/2
f 2/2/2 9/9/9 1/1/1
f 10/10/10 9/9/9 8/8/8
f 8/8/8 11/11/11 10/10/10
f 9/9/9 10/10/10 12/12/12
f 13/13/13 12/12/12 10/10/10
f 14/14/14 8/8/8 7/7/7
f 14/14/14 11/11/11 8/8/8
f 15/15/15 14/14/14 7/7/7
f 15/15/15 16/16/16 14/14/14
f 17/17/17 11/11/11 14/14/14
f 14/14/14 16/16/16 17/17/17
f 17/17/17 18/18/18 11/11/11
f 10/10/10 18/18/18 13/13/13
f 10/10/10 11/11/11 18/18/18
f 7/7/7 19/19/19 15/15/15
f 20/20/20 19/19/19 7/7/7
f 21/21/21 20/20/20 7/7/7
f 22/22/22 21/21/21 7/7/7
f 23/23/23 22/22/22 7/7/7
f 24/24/24 23/23/23 7/7/7
f 25/25/25 24/24/24 7/7/7
f 26/26/26 25/25/25 7/7/7
f 7/7/7 27/27/27 26/26/26
f 28/28/28 27/27/27 7/7/7
f 29/29/29 28/28/28 7/7/7
f 30/30/30 29/29/29 7/7/7
f 31/31/31 30/30/30 7/7/7
f 32/32/32 31/31/31 7/7/7
f 33/33/33 32/32/32 7/7/7
f 34/34/34 33/33/33 7/7/7
f 7/7/7 35/35/35 34/34/34
f 6/6/6 35/35/35 7/7/7
f 6/6/6 36/36/36 35/35/35
f 37/37/37 36/36/36 6/6/6
f 6/6/6 4/4/4 37/37/37
