#TS_2Lane_32_216737_226.obj

v 0 0.50292 0
v 4.000488 0.50292 11.93328
v -4.000488 0.50292 11.93328
v -4.478455 0.50292 9.836838
v 4.478455 0.50292 9.836838
v 5.078156 0.50292 8.378906
v 5.952362 0.50292 7.067108
v 7.067078 0.50292 5.952377
v 8.378906 0.50292 5.078171
v 9.836823 0.50292 4.47847
v 11.93329 0.50292 4.000504
v 11.93329 0.50292 -4.000473
v 9.836823 0.50292 -4.478439
v 8.378906 0.50292 -5.078125
v 7.067078 0.50292 -5.952347
v 5.952362 0.50292 -7.067078
v 5.078156 0.50292 -8.378906
v 4.478455 0.50292 -9.836792
v 4.000488 0.50292 -11.93324
v -4.000488 0.50292 -11.93324
v -4.478455 0.50292 -9.836792
v -5.078156 0.50292 -8.378906
v -5.952362 0.50292 -7.067078
v -7.067078 0.50292 -5.952347
v -8.378906 0.50292 -5.078125
v -9.836823 0.50292 -4.478439
v -11.93329 0.50292 -4.000473
v -11.93329 0.50292 4.000504
v -9.836823 0.50292 4.47847
v -8.378906 0.50292 5.078171
v -7.067078 0.50292 5.952377
v -5.952362 0.50292 7.067108
v -5.078156 0.50292 8.378906

vn 0 1 0
vn -0.0146637 1 -0.0004014969
vn 0.0146637 1 -0.0004014969
vn 0.03381348 0.9995117 -0.01025391
vn -0.03381348 0.9995117 -0.01025391
vn -0.02757263 0.9995117 -0.01467133
vn -0.02200317 0.9995117 -0.01803589
vn -0.01803589 0.9995117 -0.02200317
vn -0.01467133 0.9995117 -0.02757263
vn -0.01025391 0.9995117 -0.03381348
vn -0.0003755093 1 -0.01482391
vn -0.0003755093 1 0.01482391
vn -0.01025391 0.9995117 0.03381348
vn -0.01467133 0.9995117 0.02757263
vn -0.01803589 0.9995117 0.02200317
vn -0.02200317 0.9995117 0.01803589
vn -0.02757263 0.9995117 0.01467133
vn -0.03381348 0.9995117 0.01025391
vn -0.01480865 1 0.000377655
vn 0.01480865 1 0.000377655
vn 0.03381348 0.9995117 0.01025391
vn 0.02757263 0.9995117 0.01467133
vn 0.02200317 0.9995117 0.01803589
vn 0.01803589 0.9995117 0.02200317
vn 0.01467133 0.9995117 0.02757263
vn 0.01025391 0.9995117 0.03381348
vn 0.0004248619 1 0.01451874
vn 0.0004248619 1 -0.01451874
vn 0.01025391 0.9995117 -0.03381348
vn 0.01467133 0.9995117 -0.02757263
vn 0.01803589 0.9995117 -0.02200317
vn 0.02200317 0.9995117 -0.01803589
vn 0.02757263 0.9995117 -0.01467133

vt 0.4848633 -5.820313
vt 0.03762817 -5.972656
vt 0.03543091 -5.671875
vt 0.1140747 -5.65625
vt 0.1165161 -5.992188
vt 0.1715088 -6.011719
vt 0.2209473 -6.046875
vt 0.2631836 -6.085938
vt 0.2963867 -6.136719
vt 0.3193359 -6.191406
vt 0.3378906 -6.269531
vt 0.6386719 -6.265625
vt 0.6557617 -6.1875
vt 0.6777344 -6.132813
vt 0.7104492 -6.085938
vt 0.7519531 -6.042969
vt 0.8012695 -6.007813
vt 0.8554688 -5.984375
vt 0.9345703 -5.96875
vt 0.9321289 -5.667969
vt 0.8530273 -5.648438
vt 0.7983398 -5.628906
vt 0.7490234 -5.59375
vt 0.706543 -5.554688
vt 0.6733398 -5.503906
vt 0.6503906 -5.449219
vt 0.6318359 -5.371094
vt 0.3312988 -5.371094
vt 0.3139648 -5.453125
vt 0.291748 -5.507813
vt 0.2592773 -5.554688
vt 0.2177734 -5.597656
vt 0.1687012 -5.632813

g TS_2Lane_32_216737_226
usemtl TS_2Lane_32_216737_226
usemap TS_2Lane_32_216737_226
f 1/1/1 3/3/3 2/2/2
f 4/4/4 3/3/3 1/1/1
f 2/2/2 5/5/5 1/1/1
f 5/5/5 6/6/6 1/1/1
f 6/6/6 7/7/7 1/1/1
f 7/7/7 8/8/8 1/1/1
f 8/8/8 9/9/9 1/1/1
f 9/9/9 10/10/10 1/1/1
f 10/10/10 11/11/11 1/1/1
f 1/1/1 11/11/11 12/12/12
f 12/12/12 13/13/13 1/1/1
f 13/13/13 14/14/14 1/1/1
f 14/14/14 15/15/15 1/1/1
f 15/15/15 16/16/16 1/1/1
f 16/16/16 17/17/17 1/1/1
f 17/17/17 18/18/18 1/1/1
f 18/18/18 19/19/19 1/1/1
f 1/1/1 19/19/19 20/20/20
f 20/20/20 21/21/21 1/1/1
f 21/21/21 22/22/22 1/1/1
f 22/22/22 23/23/23 1/1/1
f 23/23/23 24/24/24 1/1/1
f 24/24/24 25/25/25 1/1/1
f 25/25/25 26/26/26 1/1/1
f 26/26/26 27/27/27 1/1/1
f 1/1/1 27/27/27 28/28/28
f 28/28/28 29/29/29 1/1/1
f 29/29/29 30/30/30 1/1/1
f 30/30/30 31/31/31 1/1/1
f 31/31/31 32/32/32 1/1/1
f 32/32/32 33/33/33 1/1/1
f 33/33/33 4/4/4 1/1/1
