#TS_2Lane_Park_210669_31.obj

v -9.581848 0.5029158 12.10172
v 0.8557739 0.5030047 1.263474
v 2.17572 0.5029158 12.10172
v 2.240784 0.5049598 10.95544
v 2.685913 0.5029158 9.369553
v 3.285583 0.5029158 7.911591
v 4.15979 0.5029158 6.599792
v 5.274475 0.5029158 5.485031
v 6.586304 0.5029158 4.610809
v 8.04425 0.5029158 4.011108
v 10.14063 0.5029158 4.004852
v 10.14063 0.5029158 -4.000473
v 8.04425 0.5029158 -4.200394
v 6.586304 0.5029158 -4.80011
v 5.274475 0.5029158 -5.674316
v 4.15979 0.5029158 -6.788986
v 3.285583 0.5029158 -8.100876
v 2.685913 0.5029158 -9.558746
v 2.186035 0.5029158 -11.91774
v 2.17572 0.5029158 -12.10172
v -9.565247 0.5029158 -12.10172
v -10.46216 0.5029158 -12.10172
v -10.46216 0.5029158 -11.33743
v -10.46216 0.5029158 11.23566
v -10.46216 0.5029158 12.10172

vn 0 1 -0.0009713173
vn 0 1 -0.0009713173
vn 0 1 0.0009841919
vn 0 0.9902344 0.1397705
vn -0.02406311 0.9980469 0.05767822
vn -0.04440308 0.9980469 0.04400635
vn 0 0.9995117 0.03421021
vn 0 0.9995117 0.02638245
vn -0.05831909 0.9980469 0.02249146
vn -0.0607605 0.9980469 0.01467133
vn 0 1 0.0009841919
vn 0 1 0.0009841919
vn 0.05966187 0.9980469 0.01858521
vn 0.05752563 0.9980469 0.02444458
vn 0.05569458 0.9980469 0.02835083
vn 0.05096436 0.9980469 0.03616333
vn 0.04013062 0.9980469 0.0479126
vn 0.01062775 0.9980469 0.06158447
vn 5.960464E-08 0.9365234 0.3505859
vn 0 1 0.0009841919
vn 0 1 -0.0009713173
vn 0 1 -0.02052307
vn 0 0.9995117 -0.03808594
vn 0 0.9995117 -0.03613281
vn 0 0.9995117 -0.0224762

vt 0.2125244 -0.4133301
vt 0.5439453 -0.7612305
vt 0.2105713 -0.7973633
vt 0.267334 -0.7993164
vt 0.3125 -0.8125
vt 0.3540039 -0.8295898
vt 0.3911133 -0.8549805
vt 0.4228516 -0.8867188
vt 0.4475098 -0.9243164
vt 0.4643555 -0.9658203
vt 0.4775391 -1.025391
vt 0.5913086 -1.026367
vt 0.6054688 -0.9667969
vt 0.6225586 -0.925293
vt 0.6479492 -0.8876953
vt 0.6796875 -0.8564453
vt 0.7172852 -0.831543
vt 0.7587891 -0.8144531
vt 0.878418 -0.8012695
vt 0.9003906 -0.8007813
vt 0.9023438 -0.4174805
vt 0.9023438 -0.3918457
vt 0.8808594 -0.3918457
vt 0.2373047 -0.3884277
vt 0.2126465 -0.3884277

g TS_2Lane_Park_210669_31
usemtl TS_2Lane_Park_210669_31
usemap TS_2Lane_Park_210669_31
f 1/1/1 3/3/3 2/2/2
f 2/2/2 3/3/3 4/4/4
f 4/4/4 5/5/5 2/2/2
f 5/5/5 6/6/6 2/2/2
f 6/6/6 7/7/7 2/2/2
f 7/7/7 8/8/8 2/2/2
f 8/8/8 9/9/9 2/2/2
f 9/9/9 10/10/10 2/2/2
f 10/10/10 11/11/11 2/2/2
f 11/11/11 12/12/12 2/2/2
f 12/12/12 13/13/13 2/2/2
f 13/13/13 14/14/14 2/2/2
f 14/14/14 15/15/15 2/2/2
f 15/15/15 16/16/16 2/2/2
f 16/16/16 17/17/17 2/2/2
f 17/17/17 18/18/18 2/2/2
f 2/2/2 18/18/18 19/19/19
f 19/19/19 20/20/20 2/2/2
f 20/20/20 21/21/21 2/2/2
f 21/21/21 22/22/22 2/2/2
f 22/22/22 23/23/23 2/2/2
f 23/23/23 24/24/24 2/2/2
f 24/24/24 25/25/25 2/2/2
f 25/25/25 1/1/1 2/2/2
