#TS_2Lane_57_216845_31.obj

v -20.03172 0.50292 31.40547
v -15.5735 0.50292 15.55617
v -15.59941 0.50292 31.40547
v -20.03172 0.50292 -31.40544
v -15.53004 0.50292 -15.52965
v 4.569077 0.50292 31.40547
v -11.59587 0.50292 1.525879E-05
v 4.569077 0.50292 -31.40544
v 4.585159 0.50292 -13.70811
v -15.50414 0.50292 -31.40544
v 4.585159 0.50292 13.70815
v 4.601273 0.50292 11.43001
v 4.601273 0.50292 -11.42998
v 5.079239 0.50292 -9.836777
v 5.079239 0.50292 9.836868
v 5.678909 0.50292 -8.378891
v 6.553146 0.50292 -7.067001
v 7.667831 0.50292 -5.952316
v 8.97966 0.50292 -5.07811
v 10.43761 0.50292 -4.478439
v 12.53404 0.50292 -4.000473
v 12.53404 0.50292 4.000565
v 10.43761 0.50292 4.47847
v 8.97966 0.50292 5.07814
v 7.667831 0.50292 5.952347
v 6.553146 0.50292 7.067154
v 5.678909 0.50292 8.378922

vn -0.006053925 1 0.006519318
vn 0 1 0
vn 0 1 0.008811951
vn -0.006053925 1 -0.006519318
vn 0 1 0
vn 0.003095627 1 0.01183319
vn 0 1 0
vn 0.003095627 1 -0.01183319
vn 0.0125885 1 -2.026558E-05
vn 0 1 -0.008811951
vn 0.0125885 1 2.026558E-05
vn 0.01392365 1 0.001776695
vn 0.01392365 1 -0.001776695
vn 0.01316833 1 -0.004653931
vn 0.01316833 1 0.004653931
vn 0.01187134 1 -0.006320953
vn 0.01084137 1 -0.008888245
vn 0.00995636 1 -0.012146
vn 0.00907135 1 -0.01704407
vn 0.00705719 0.9995117 -0.02326965
vn 0.0003716946 1 -0.01013184
vn 0.0003716946 1 0.01013184
vn 0.00705719 0.9995117 0.02326965
vn 0.00907135 1 0.01704407
vn 0.00995636 1 0.012146
vn 0.010849 1 0.008888245
vn 0.01187134 1 0.006320953

vt 0.04818726 -3.449219
vt -0.1297607 -3.398438
vt 0.04824829 -3.398438
vt -0.6572266 -3.447266
vt -0.4787598 -3.398438
vt 0.0486145 -3.171875
vt -0.3044434 -3.353516
vt -0.6567383 -3.171875
vt -0.4580078 -3.171875
vt -0.6572266 -3.396484
vt -0.1501465 -3.171875
vt -0.1756592 -3.171875
vt -0.432373 -3.171875
vt -0.4145508 -3.166016
vt -0.1936035 -3.166016
vt -0.3981934 -3.160156
vt -0.3833008 -3.150391
vt -0.3708496 -3.136719
vt -0.361084 -3.123047
vt -0.354248 -3.105469
vt -0.348877 -3.082031
vt -0.2590332 -3.082031
vt -0.2536621 -3.107422
vt -0.2469482 -3.123047
vt -0.2371826 -3.136719
vt -0.2247314 -3.150391
vt -0.2099609 -3.160156

g TS_2Lane_57_216845_31
usemtl TS_2Lane_57_216845_31
usemap TS_2Lane_57_216845_31
f 1/1/1 3/3/3 2/2/2
f 4/4/4 1/1/1 2/2/2
f 4/4/4 2/2/2 5/5/5
f 2/2/2 3/3/3 6/6/6
f 2/2/2 6/6/6 7/7/7
f 5/5/5 2/2/2 7/7/7
f 8/8/8 5/5/5 7/7/7
f 9/9/9 8/8/8 7/7/7
f 8/8/8 10/10/10 5/5/5
f 5/5/5 10/10/10 4/4/4
f 6/6/6 11/11/11 7/7/7
f 7/7/7 11/11/11 12/12/12
f 7/7/7 13/13/13 9/9/9
f 14/14/14 13/13/13 7/7/7
f 12/12/12 15/15/15 7/7/7
f 16/16/16 14/14/14 7/7/7
f 17/17/17 16/16/16 7/7/7
f 18/18/18 17/17/17 7/7/7
f 19/19/19 18/18/18 7/7/7
f 20/20/20 19/19/19 7/7/7
f 21/21/21 20/20/20 7/7/7
f 7/7/7 22/22/22 21/21/21
f 23/23/23 22/22/22 7/7/7
f 24/24/24 23/23/23 7/7/7
f 25/25/25 24/24/24 7/7/7
f 26/26/26 25/25/25 7/7/7
f 27/27/27 26/26/26 7/7/7
f 15/15/15 27/27/27 7/7/7
