#TS_2Lane_58_206922_34.obj

v -15.47275 0.50292 20.94804
v -13.97244 0.50292 20.85965
v -11.03171 0.50292 20.85965
v -11.04043 0.50292 20.94804
v -11.01453 0.50292 15.58945
v 6.38267 0.50292 20.85963
v -7.036908 0.50292 0.03329669
v -10.9711 0.50292 -15.49634
v -15.47275 0.50292 20.85965
v -13.90336 0.50292 -20.62541
v -10.9542 0.50292 -20.62539
v -15.47275 0.50292 -20.62539
v -15.47275 0.50292 -20.94804
v 6.279241 0.50292 -20.62539
v 9.144137 0.50292 -13.67482
v 9.133088 0.50292 -20.62539
v 9.12806 0.50292 -20.94802
v -10.94514 0.50292 -20.94804
v 9.160235 0.50292 -11.3967
v 9.638214 0.50292 -9.803511
v 10.2379 0.50292 -8.345621
v 11.11212 0.50292 -7.033736
v 12.22681 0.50292 -5.919041
v 13.53865 0.50292 -5.044826
v 14.99658 0.50292 -4.44514
v 17.093 0.50292 -3.967161
v 17.093 0.50292 4.033841
v 14.99656 0.50292 4.511755
v 13.53863 0.50292 5.11144
v 12.22679 0.50292 5.985656
v 11.11212 0.50292 7.100416
v 10.2379 0.50292 8.412214
v 9.638214 0.50292 9.870191
v 9.160235 0.50292 11.46329
v 9.144158 0.50292 13.74143
v 9.132895 0.50292 20.85963
v 9.128039 0.50292 20.94804

vn 0.0003294945 1 0.008888245
vn 0 1 0
vn 0 1 0
vn 0.6157227 0.4912109 0.6157227
vn 0 1 0
vn 0 1 0
vn 0 1 0
vn 0 1 0
vn -0.02362061 0.9995117 0.02362061
vn 0 1 0
vn 0 1 0
vn -0.02372742 0.9995117 0.02372742
vn -0.008888245 1 -0.0003294945
vn 0 1 0
vn 0.008888245 1 -0.008911133
vn 0.008155823 1 -0.00818634
vn -0.00617981 1 -0.01055908
vn -0.2963867 0.9077148 -0.2963867
vn 0.008590698 1 -0.01110077
vn 0.006023407 1 -0.01260376
vn 0.003929138 1 -0.01286316
vn 0.001382828 1 -0.01395416
vn -0.001548767 1 -0.015625
vn -0.005638123 1 -0.01846313
vn -0.01146698 0.9995117 -0.02145386
vn -0.006900787 1 -0.007427216
vn 0.007427216 1 0.006900787
vn 0.02145386 0.9995117 0.01146698
vn 0.01846313 1 0.005638123
vn 0.015625 1 0.001548767
vn 0.01395416 1 -0.001382828
vn 0.01286316 1 -0.003929138
vn 0.01260376 1 -0.006023407
vn 0.01110077 1 -0.008590698
vn 0.008911133 1 -0.008888245
vn 0.008094788 1 -0.00806427
vn 0.01055908 1 0.00617981

vt -0.06903076 -3.451172
vt -0.07006836 -3.433594
vt -0.07006836 -3.400391
vt -0.06903076 -3.402344
vt -0.1295166 -3.400391
vt -0.07006836 -3.205078
vt -0.3049316 -3.355469
vt -0.4802246 -3.400391
vt -0.07006836 -3.451172
vt -0.5380859 -3.433594
vt -0.5380859 -3.400391
vt -0.5380859 -3.451172
vt -0.5415039 -3.451172
vt -0.5380859 -3.207031
vt -0.4597168 -3.173828
vt -0.5380859 -3.173828
vt -0.5415039 -3.173828
vt -0.5415039 -3.400391
vt -0.434082 -3.173828
vt -0.4160156 -3.167969
vt -0.3996582 -3.162109
vt -0.3847656 -3.152344
vt -0.3720703 -3.138672
vt -0.3623047 -3.125
vt -0.3554688 -3.107422
vt -0.3500977 -3.083984
vt -0.2600098 -3.083984
vt -0.2543945 -3.107422
vt -0.2478027 -3.125
vt -0.237915 -3.138672
vt -0.2253418 -3.152344
vt -0.2104492 -3.162109
vt -0.1940918 -3.167969
vt -0.1760254 -3.173828
vt -0.1503906 -3.173828
vt -0.07006836 -3.173828
vt -0.0690918 -3.173828

g TS_2Lane_58_206922_34
usemtl TS_2Lane_58_206922_34
usemap TS_2Lane_58_206922_34
f 1/1/1 3/3/3 2/2/2
f 1/1/1 4/4/4 3/3/3
f 2/2/2 3/3/3 5/5/5
f 5/5/5 3/3/3 6/6/6
f 6/6/6 3/3/3 4/4/4
f 5/5/5 6/6/6 7/7/7
f 8/8/8 5/5/5 7/7/7
f 8/8/8 9/9/9 5/5/5
f 5/5/5 9/9/9 2/2/2
f 2/2/2 9/9/9 1/1/1
f 10/10/10 9/9/9 8/8/8
f 8/8/8 11/11/11 10/10/10
f 9/9/9 10/10/10 12/12/12
f 13/13/13 12/12/12 10/10/10
f 14/14/14 8/8/8 7/7/7
f 14/14/14 11/11/11 8/8/8
f 15/15/15 14/14/14 7/7/7
f 15/15/15 16/16/16 14/14/14
f 17/17/17 11/11/11 14/14/14
f 14/14/14 16/16/16 17/17/17
f 17/17/17 18/18/18 11/11/11
f 10/10/10 18/18/18 13/13/13
f 10/10/10 11/11/11 18/18/18
f 7/7/7 19/19/19 15/15/15
f 20/20/20 19/19/19 7/7/7
f 21/21/21 20/20/20 7/7/7
f 22/22/22 21/21/21 7/7/7
f 23/23/23 22/22/22 7/7/7
f 24/24/24 23/23/23 7/7/7
f 25/25/25 24/24/24 7/7/7
f 26/26/26 25/25/25 7/7/7
f 7/7/7 27/27/27 26/26/26
f 28/28/28 27/27/27 7/7/7
f 29/29/29 28/28/28 7/7/7
f 30/30/30 29/29/29 7/7/7
f 31/31/31 30/30/30 7/7/7
f 32/32/32 31/31/31 7/7/7
f 33/33/33 32/32/32 7/7/7
f 34/34/34 33/33/33 7/7/7
f 7/7/7 35/35/35 34/34/34
f 6/6/6 35/35/35 7/7/7
f 6/6/6 36/36/36 35/35/35
f 37/37/37 36/36/36 6/6/6
f 6/6/6 4/4/4 37/37/37
