#TS_2Lane_58_206927_43.obj

v -15.47275 0.50292 20.94798
v -13.97243 0.50292 20.8596
v -11.03171 0.50292 20.8596
v -11.04044 0.50292 20.94798
v -11.01453 0.50292 15.5894
v 6.382675 0.50292 20.8596
v -7.036911 0.50292 0.03330994
v -10.97108 0.50292 -15.49635
v -15.47275 0.50292 20.8596
v -13.90335 0.50292 -20.62541
v -10.95419 0.50292 -20.62541
v -15.47275 0.50292 -20.62541
v -15.47275 0.50292 -20.94804
v 6.279236 0.50292 -20.62541
v 9.14415 0.50292 -13.67485
v 9.133087 0.50292 -20.62541
v 9.128052 0.50292 -20.94804
v -10.94514 0.50292 -20.94804
v 9.160233 0.50292 -11.39671
v 9.638199 0.50292 -9.803513
v 10.2379 0.50292 -8.345627
v 11.11211 0.50292 -7.033737
v 12.22681 0.50292 -5.919052
v 13.53864 0.50292 -5.044846
v 14.99657 0.50292 -4.445145
v 17.09302 0.50292 -3.967178
v 17.09302 0.50292 4.033859
v 14.99657 0.50292 4.511703
v 13.53864 0.50292 5.111435
v 12.22681 0.50292 5.985641
v 11.11211 0.50292 7.100388
v 10.2379 0.50292 8.412216
v 9.638199 0.50292 9.870163
v 9.160233 0.50292 11.4633
v 9.14415 0.50292 13.74144
v 9.132904 0.50292 20.8596
v 9.128052 0.50292 20.94798

vn 0.006053925 1 -0.006519318
vn 0 1 0
vn 0 1 0
vn 0 0.4912109 -0.8710938
vn 0 1 0
vn 0 1 0
vn 0 1 0
vn 0 1 0
vn 0.03341675 0.9995117 0
vn 0 1 0
vn 0 1 0
vn 0.03356934 0.9995117 0
vn 0.006053925 1 0.006519318
vn 0 1 0
vn -0.0125885 1 2.026558E-05
vn -0.01155853 1 2.557039E-05
vn -0.003095627 1 0.01183319
vn 0 0.9077148 0.4191895
vn -0.01392365 1 0.001776695
vn -0.01316833 1 0.004653931
vn -0.01187134 1 0.006320953
vn -0.01084137 1 0.008888245
vn -0.00995636 1 0.012146
vn -0.00907135 1 0.01704407
vn -0.00705719 0.9995117 0.02326965
vn -0.0003716946 1 0.01013184
vn -0.0003716946 1 -0.01013184
vn -0.00705719 0.9995117 -0.02326965
vn -0.00907135 1 -0.01704407
vn -0.00995636 1 -0.012146
vn -0.010849 1 -0.008888245
vn -0.01187134 1 -0.006320953
vn -0.01316833 1 -0.004653931
vn -0.01392365 1 -0.001776695
vn -0.0125885 1 -2.026558E-05
vn -0.01142883 1 -2.551079E-05
vn -0.003095627 1 -0.01183319

vt -0.06903076 -3.451172
vt -0.07006836 -3.433594
vt -0.07006836 -3.400391
vt -0.06903076 -3.402344
vt -0.1295166 -3.400391
vt -0.07006836 -3.205078
vt -0.3049316 -3.355469
vt -0.4802246 -3.400391
vt -0.07006836 -3.451172
vt -0.5380859 -3.433594
vt -0.5380859 -3.400391
vt -0.5380859 -3.451172
vt -0.5415039 -3.451172
vt -0.5380859 -3.207031
vt -0.4597168 -3.173828
vt -0.5380859 -3.173828
vt -0.5415039 -3.173828
vt -0.5415039 -3.400391
vt -0.434082 -3.173828
vt -0.4160156 -3.167969
vt -0.3996582 -3.162109
vt -0.3847656 -3.152344
vt -0.3720703 -3.138672
vt -0.3623047 -3.125
vt -0.3554688 -3.107422
vt -0.3500977 -3.083984
vt -0.2600098 -3.083984
vt -0.2543945 -3.107422
vt -0.2478027 -3.125
vt -0.237915 -3.138672
vt -0.2253418 -3.152344
vt -0.2104492 -3.162109
vt -0.1940918 -3.167969
vt -0.1760254 -3.173828
vt -0.1503906 -3.173828
vt -0.07006836 -3.173828
vt -0.0690918 -3.173828

g TS_2Lane_58_206927_43
usemtl TS_2Lane_58_206927_43
usemap TS_2Lane_58_206927_43
f 1/1/1 3/3/3 2/2/2
f 1/1/1 4/4/4 3/3/3
f 2/2/2 3/3/3 5/5/5
f 5/5/5 3/3/3 6/6/6
f 6/6/6 3/3/3 4/4/4
f 5/5/5 6/6/6 7/7/7
f 8/8/8 5/5/5 7/7/7
f 8/8/8 9/9/9 5/5/5
f 5/5/5 9/9/9 2/2/2
f 2/2/2 9/9/9 1/1/1
f 10/10/10 9/9/9 8/8/8
f 8/8/8 11/11/11 10/10/10
f 9/9/9 10/10/10 12/12/12
f 13/13/13 12/12/12 10/10/10
f 14/14/14 8/8/8 7/7/7
f 14/14/14 11/11/11 8/8/8
f 15/15/15 14/14/14 7/7/7
f 15/15/15 16/16/16 14/14/14
f 17/17/17 11/11/11 14/14/14
f 14/14/14 16/16/16 17/17/17
f 17/17/17 18/18/18 11/11/11
f 10/10/10 18/18/18 13/13/13
f 10/10/10 11/11/11 18/18/18
f 7/7/7 19/19/19 15/15/15
f 20/20/20 19/19/19 7/7/7
f 21/21/21 20/20/20 7/7/7
f 22/22/22 21/21/21 7/7/7
f 23/23/23 22/22/22 7/7/7
f 24/24/24 23/23/23 7/7/7
f 25/25/25 24/24/24 7/7/7
f 26/26/26 25/25/25 7/7/7
f 7/7/7 27/27/27 26/26/26
f 28/28/28 27/27/27 7/7/7
f 29/29/29 28/28/28 7/7/7
f 30/30/30 29/29/29 7/7/7
f 31/31/31 30/30/30 7/7/7
f 32/32/32 31/31/31 7/7/7
f 33/33/33 32/32/32 7/7/7
f 34/34/34 33/33/33 7/7/7
f 7/7/7 35/35/35 34/34/34
f 6/6/6 35/35/35 7/7/7
f 6/6/6 36/36/36 35/35/35
f 37/37/37 36/36/36 6/6/6
f 6/6/6 4/4/4 37/37/37
