#Ts_4Lane_22_217940_68.obj

v 0 0.5029205 0
v 8.252937 0.50292 11.17567
v 8.000504 0.50292 12.52035
v -2.241278E-05 0.5029202 12.52035
v -8.000505 0.5029201 12.52039
v -8.252982 0.50292 11.17558
v 8.626603 0.50292 10.26727
v 9.0611 0.50292 9.615254
v 9.615189 0.50292 9.061166
v 10.26718 0.5029199 8.626604
v 11.17562 0.5029199 8.252982
v 12.52039 0.5029199 8.000549
v 12.52037 0.5029205 -4.232478E-05
v -8.626604 0.50292 10.26723
v -9.061123 0.5029201 9.615274
v -9.615211 0.50292 9.061143
v -10.26718 0.50292 8.626646
v -11.1756 0.5029199 8.253002
v -12.5204 0.5029199 8.000504
v -12.5204 0.5029203 -2.241278E-05
v 12.5204 0.5029199 -8.000504
v 11.1756 0.5029199 -8.253002
v -12.52039 0.5029199 -8.000549
v -11.17562 0.5029199 -8.252982
v 10.26718 0.5029199 -8.626646
v 9.615211 0.50292 -9.061143
v 9.061101 0.50292 -9.615253
v 8.626604 0.50292 -10.26723
v 8.252939 0.50292 -11.17562
v -10.26718 0.50292 -8.626604
v -9.615189 0.50292 -9.061166
v -9.061121 0.5029201 -9.615232
v -8.626603 0.50292 -10.26727
v -8.25298 0.50292 -11.17562
v -8.000504 0.5029201 -12.52035
v 2.241278E-05 0.5029202 -12.52035
v 8.000505 0.50292 -12.52039

vn 0 1 0
vn -0.001791954 1 -0.003170013
vn -0.008651733 1 -0.008903503
vn 0 1 0
vn 0.008903503 1 0.008651733
vn 0.003170013 1 0.001791954
vn -0.006202698 1 -0.01953125
vn -0.001943588 1 -0.0196228
vn 0.001943588 1 -0.0196228
vn 0.006202698 1 -0.01953125
vn 0.001791954 1 -0.003171921
vn 0.008651733 1 -0.008903503
vn 0 1 0
vn 0.01953125 1 0.006202698
vn 0.0196228 1 0.001944542
vn 0.0196228 1 -0.001943588
vn 0.01953125 1 -0.006202698
vn 0.003171921 1 -0.001791954
vn 0.008903503 1 -0.008651733
vn 0 1 0
vn -0.008903503 1 0.008651733
vn -0.003171921 1 0.001791954
vn -0.008651733 1 0.008903503
vn -0.001791954 1 0.003171921
vn -0.01953125 1 0.006202698
vn -0.0196228 1 0.001943588
vn -0.0196228 1 -0.001943588
vn -0.01953125 1 -0.006202698
vn -0.003170013 1 -0.001791954
vn -0.006202698 1 0.01953125
vn -0.001943588 1 0.0196228
vn 0.001944542 1 0.0196228
vn 0.006202698 1 0.01953125
vn 0.001791954 1 0.003170013
vn 0.008651733 1 0.008903503
vn 0 1 0
vn -0.008903503 1 -0.008651733

vt 0.4794922 -5.785156
vt 0.8735352 -5.492188
vt 0.9208984 -5.503906
vt 0.9208984 -5.785156
vt 0.9213867 -6.066406
vt 0.8740234 -6.074219
vt 0.8413086 -5.480469
vt 0.8183594 -5.464844
vt 0.7988281 -5.445313
vt 0.7832031 -5.421875
vt 0.7700195 -5.390625
vt 0.7612305 -5.34375
vt 0.4790039 -5.34375
vt 0.8417969 -6.089844
vt 0.8188477 -6.105469
vt 0.7993164 -6.125
vt 0.7841797 -6.148438
vt 0.7709961 -6.179688
vt 0.762207 -6.226563
vt 0.4799805 -6.226563
vt 0.1968994 -5.34375
vt 0.1879883 -5.390625
vt 0.1977539 -6.226563
vt 0.1888428 -6.179688
vt 0.1749268 -5.421875
vt 0.1595459 -5.445313
vt 0.1400146 -5.464844
vt 0.1170654 -5.480469
vt 0.08502197 -5.496094
vt 0.1755371 -6.148438
vt 0.1602783 -6.125
vt 0.140625 -6.105469
vt 0.1176758 -6.089844
vt 0.08563232 -6.078125
vt 0.03817749 -6.066406
vt 0.03790283 -5.785156
vt 0.03762817 -5.503906

g Ts_4Lane_22_217940_68
usemtl Ts_4Lane_22_217940_68
usemap Ts_4Lane_22_217940_68
f 1/1/1 3/3/3 2/2/2
f 1/1/1 4/4/4 3/3/3
f 1/1/1 5/5/5 4/4/4
f 1/1/1 6/6/6 5/5/5
f 1/1/1 2/2/2 7/7/7
f 1/1/1 7/7/7 8/8/8
f 1/1/1 8/8/8 9/9/9
f 1/1/1 9/9/9 10/10/10
f 1/1/1 10/10/10 11/11/11
f 1/1/1 11/11/11 12/12/12
f 1/1/1 12/12/12 13/13/13
f 1/1/1 14/14/14 6/6/6
f 1/1/1 15/15/15 14/14/14
f 1/1/1 16/16/16 15/15/15
f 1/1/1 17/17/17 16/16/16
f 1/1/1 18/18/18 17/17/17
f 1/1/1 19/19/19 18/18/18
f 1/1/1 20/20/20 19/19/19
f 1/1/1 13/13/13 21/21/21
f 1/1/1 21/21/21 22/22/22
f 1/1/1 23/23/23 20/20/20
f 1/1/1 24/24/24 23/23/23
f 1/1/1 22/22/22 25/25/25
f 1/1/1 25/25/25 26/26/26
f 1/1/1 26/26/26 27/27/27
f 1/1/1 27/27/27 28/28/28
f 1/1/1 28/28/28 29/29/29
f 1/1/1 30/30/30 24/24/24
f 1/1/1 31/31/31 30/30/30
f 1/1/1 32/32/32 31/31/31
f 1/1/1 33/33/33 32/32/32
f 1/1/1 34/34/34 33/33/33
f 1/1/1 35/35/35 34/34/34
f 1/1/1 36/36/36 35/35/35
f 1/1/1 37/37/37 36/36/36
f 1/1/1 29/29/29 37/37/37
