#TS_6Lane_41_214720_195.obj

v 4.533705 0.5029186 0.00224459
v -4.533705 0.5029186 0.002243881
v -4.533723 0.5029186 -11.99714
v 4.533706 0.5029186 -11.99755
v -4.533724 0.5029186 12.00362
v -4.533705 0.5029186 0.002243881
v 4.533705 0.5029186 0.00224459
v 4.533705 0.5029186 12.00325
v -4.533725 0.6400657 15.42927
v -4.533724 0.6400952 12.00362
v 4.533705 0.6400952 12.00325
v 4.533723 0.6400657 15.43026
v -4.533723 0.6400952 -11.99714
v -4.533723 0.6400657 -15.43005
v 4.533706 0.6400657 -15.4289
v 4.533706 0.6400952 -11.99755
v -4.533723 0.5029186 -11.99714
v -4.533723 0.6400952 -11.99714
v 4.533706 0.6400952 -11.99755
v 4.533706 0.5029186 -11.99755
v -4.533723 0.6400657 -15.43005
v -4.533723 -0.6400818 -15.43005
v 4.533706 -0.6400818 -15.4289
v 4.533706 0.6400657 -15.4289
v -4.533724 0.6400952 12.00362
v -4.533724 0.5029186 12.00362
v 4.533705 0.5029186 12.00325
v 4.533705 0.6400952 12.00325
v -4.533725 -0.6400818 15.42927
v -4.533725 0.6400657 15.42927
v 4.533723 0.6400657 15.43026
v 4.533723 -0.6400818 15.43026

vn 7.587671E-05 1 7.587671E-05
vn 7.587671E-05 1 7.587671E-05
vn 7.587671E-05 1 7.587671E-05
vn 7.587671E-05 1 7.587671E-05
vn 7.587671E-05 1 7.587671E-05
vn 7.587671E-05 1 7.587671E-05
vn 7.587671E-05 1 7.587671E-05
vn 7.587671E-05 1 7.587671E-05
vn -0.2479248 0.9365234 0.2481689
vn 0.03134155 0.9990234 -0.03118896
vn 0.03134155 0.9990234 -0.03118896
vn -0.2479248 0.9365234 0.2481689
vn -0.03118896 0.9990234 0.03134155
vn 0.2481689 0.9365234 -0.2479248
vn 0.2462158 0.9375 -0.2460938
vn -0.03118896 0.9990234 0.03134155
vn 7.587671E-05 1 7.587671E-05
vn -0.03118896 0.9990234 0.03134155
vn -0.03118896 0.9990234 0.03134155
vn 7.587671E-05 1 7.587671E-05
vn 0.2481689 0.9365234 -0.2479248
vn 0.7070313 -0.0001260042 -0.7070313
vn 0.7070313 -0.0001260042 -0.7070313
vn 0.2462158 0.9375 -0.2460938
vn 0.03134155 0.9990234 -0.03118896
vn 7.587671E-05 1 7.587671E-05
vn 7.587671E-05 1 7.587671E-05
vn 0.03134155 0.9990234 -0.03118896
vn -0.7070313 -0.0001260042 0.7070313
vn -0.2479248 0.9365234 0.2481689
vn -0.2479248 0.9365234 0.2481689
vn -0.7070313 -0.0001260042 0.7070313

vt -2.607422 0.9658203
vt -2.376953 0.9658203
vt -2.375 0.6386719
vt -2.605469 0.6386719
vt 10.39844 0.6386719
vt 10.39844 0.9658203
vt 10.625 0.9658203
vt 10.625 0.6386719
vt -6.195313 0.5395508
vt -6.195313 0.6347656
vt -5.964844 0.6347656
vt -5.964844 0.5395508
vt -18.8125 0.6347656
vt -18.8125 0.5395508
vt -19.03125 0.5395508
vt -19.03125 0.6347656
vt -18.8125 0.6386719
vt -18.8125 0.6347656
vt -19.03125 0.6347656
vt -19.03125 0.6386719
vt -18.8125 0.5395508
vt -18.8125 0.5039063
vt -19.03125 0.5039063
vt -19.03125 0.5395508
vt -6.195313 0.6347656
vt -6.195313 0.6386719
vt -5.964844 0.6386719
vt -5.964844 0.6347656
vt -6.195313 0.5039063
vt -6.195313 0.5395508
vt -5.964844 0.5395508
vt -5.964844 0.5039063

g TS_6Lane_41_214720_195
usemtl TS_6Lane_41_214720_195
usemap TS_6Lane_41_214720_195
f 1/1/1 3/3/3 2/2/2
f 1/1/1 4/4/4 3/3/3
f 5/5/5 7/7/7 6/6/6
f 5/5/5 8/8/8 7/7/7
f 9/9/9 11/11/11 10/10/10
f 9/9/9 12/12/12 11/11/11
f 13/13/13 15/15/15 14/14/14
f 13/13/13 16/16/16 15/15/15
f 17/17/17 19/19/19 18/18/18
f 17/17/17 20/20/20 19/19/19
f 21/21/21 23/23/23 22/22/22
f 21/21/21 24/24/24 23/23/23
f 25/25/25 27/27/27 26/26/26
f 25/25/25 28/28/28 27/27/27
f 29/29/29 31/31/31 30/30/30
f 29/29/29 32/32/32 31/31/31
