#TS_6Lane_19_203170_11.obj

v -2.954681 0.5029431 -17.83681
v -11.4303 0.5029431 -3.051758E-05
v -3.431244 0.5029431 -19.93322
v -2.355011 0.5029431 -16.37888
v -1.480774 0.5029431 -15.06706
v -0.3660278 0.5029431 -13.95233
v 0.9458008 0.5029431 -13.07814
v 2.403656 0.5029431 -12.47846
v 4.500122 0.5029431 -12.00049
v 5.799469 0.5029431 -3.051758E-05
v 5.835938 0.5029431 -12.00049
v -11.4303 0.5029431 -19.93322
v -11.4303 0.5029431 -3.051758E-05
v 5.799469 0.5029431 -3.051758E-05
v 5.763 0.5029431 12.00049
v 4.500702 0.5029431 12.00049
v 2.404205 0.5029431 12.47846
v 0.9463501 0.5029431 13.07814
v -0.3655396 0.5029431 13.95239
v -1.480255 0.5029431 15.06706
v -2.354462 0.5029431 16.37888
v -2.954132 0.5029431 17.83681
v -3.430939 0.5029431 19.93322
v -11.43024 0.5029431 19.93322
v -11.4303 0.5029431 -19.93322
v -11.4303 0.5029431 -3.051758E-05
v -19.42944 0.5029431 -3.051758E-05
v -19.42963 0.5029431 -19.93322
v -19.42932 0.5029431 19.93322
v -11.43024 0.5029431 19.93322

vn -0.0009775162 1 0
vn -0.0009775162 1 0
vn -0.0009775162 1 0
vn -0.0009775162 1 0
vn -0.0009775162 1 0
vn -0.0009775162 1 0
vn -0.0009775162 1 0
vn -0.0009775162 1 0
vn -0.0009775162 1 0
vn -0.0009775162 1 0
vn -0.0009775162 1 0
vn -0.0009775162 1 0
vn -0.0009775162 1 0
vn -0.0009775162 1 0
vn -0.0009775162 1 0
vn -0.0009775162 1 0
vn -0.0009775162 1 0
vn -0.0009775162 1 0
vn -0.0009775162 1 0
vn -0.0009775162 1 0
vn -0.0009775162 1 0
vn -0.0009775162 1 0
vn -0.0009775162 1 0
vn -0.0009775162 1 0
vn -0.0009775162 1 0
vn -0.0009775162 1 0
vn -0.0009775162 1 0
vn 0.01661682 1 0
vn 0.01661682 1 0
vn -0.0009775162 1 0

vt 0.7285156 0.8710938
vt 0.5 0.3901367
vt 0.7158203 0.9272461
vt 0.7446289 0.831543
vt 0.7685547 0.7963867
vt 0.7983398 0.7661133
vt 0.8339844 0.7426758
vt 0.8730469 0.7265625
vt 0.9296875 0.7133789
vt 0.9658203 0.3901367
vt 0.9658203 0.7133789
vt 0.5 0.9272461
vt 0.5 0.3901367
vt 0.03671265 0.3901367
vt 0.03671265 0.7133789
vt 0.07073975 0.7133789
vt 0.1273193 0.7265625
vt 0.166626 0.7426758
vt 0.2019043 0.7661133
vt 0.2319336 0.7963867
vt 0.2556152 0.831543
vt 0.2717285 0.8710938
vt 0.284668 0.9272461
vt 0.5 0.9272461
vt 0.06719971 0.135498
vt -0.4880371 0.135498
vt -0.487793 0.3583984
vt 0.06750488 0.3583984
vt -1.042969 0.3583984
vt -1.042969 0.135498

g TS_6Lane_19_203170_11
usemtl TS_6Lane_19_203170_11
usemap TS_6Lane_19_203170_11
f 1/1/1 3/3/3 2/2/2
f 4/4/4 1/1/1 2/2/2
f 5/5/5 4/4/4 2/2/2
f 6/6/6 5/5/5 2/2/2
f 7/7/7 6/6/6 2/2/2
f 8/8/8 7/7/7 2/2/2
f 9/9/9 8/8/8 2/2/2
f 10/10/10 9/9/9 2/2/2
f 10/10/10 11/11/11 9/9/9
f 2/2/2 3/3/3 12/12/12
f 13/13/13 15/15/15 14/14/14
f 13/13/13 16/16/16 15/15/15
f 17/17/17 16/16/16 13/13/13
f 18/18/18 17/17/17 13/13/13
f 19/19/19 18/18/18 13/13/13
f 20/20/20 19/19/19 13/13/13
f 21/21/21 20/20/20 13/13/13
f 22/22/22 21/21/21 13/13/13
f 23/23/23 22/22/22 13/13/13
f 13/13/13 24/24/24 23/23/23
f 25/25/25 27/27/27 26/26/26
f 25/25/25 28/28/28 27/27/27
f 26/26/26 27/27/27 29/29/29
f 26/26/26 29/29/29 30/30/30
