#TS_6Lane_39_205145_210.obj

v -64.8436 0.5029786 -11.99798
v -64.85188 0.5029786 9.063452E-05
v -83.51715 0.5029786 9.187723E-05
v -83.51715 0.5029786 -12.00053
v -21.73594 0.5029786 -11.99526
v -21.73592 0.5029786 6.618472E-05
v -36.07404 0.5029786 6.713934E-05
v -36.22809 0.5029786 -11.99574
v -10.86793 0.5029786 -11.99462
v -10.86793 0.5029786 8.704032E-05
v -8.711524E-05 0.5029786 -11.99319
v -8.631674E-05 0.5029786 8.631675E-05
v -43.93246 0.5029786 8.924172E-05
v -43.91971 0.5029786 -11.99684
v -64.85188 0.5029786 9.063452E-05
v -64.8436 0.5029786 -11.99798
v -7.484138 0.6401328 -15.44578
v -14.96838 0.6401328 -15.4152
v -14.96838 -0.6401329 -15.4152
v -7.484138 -0.6401329 -15.44578
v -8.734537E-05 0.6401328 -15.44962
v -8.734537E-05 -0.6401329 -15.44962
v -10.86793 0.6401328 -11.99462
v -21.73594 0.6401328 -11.99526
v -14.96838 0.6401328 -15.4152
v -7.484138 0.6401328 -15.44578
v -8.711524E-05 0.6401328 -11.99319
v -8.734537E-05 0.6401328 -15.44962
v -10.86793 0.5029786 -11.99462
v -21.73594 0.5029786 -11.99526
v -21.73594 0.6401328 -11.99526
v -10.86793 0.6401328 -11.99462
v -8.711524E-05 0.5029786 -11.99319
v -8.711524E-05 0.6401328 -11.99319
v -64.84362 0.5029786 11.99814
v -83.51715 0.5029786 12.00054
v -83.51715 0.5029786 9.187723E-05
v -64.85188 0.5029786 9.063452E-05
v -21.73594 0.5029786 11.99527
v -36.22809 0.5029786 11.99574
v -36.07404 0.5029786 6.713934E-05
v -21.73592 0.5029786 6.618472E-05
v -10.86792 0.5029786 11.99462
v -10.86793 0.5029786 8.704032E-05
v -8.551825E-05 0.5029786 11.99319
v -8.631674E-05 0.5029786 8.631675E-05
v -43.93246 0.5029786 8.924172E-05
v -43.91971 0.5029786 11.99684
v -64.85188 0.5029786 9.063452E-05
v -64.84362 0.5029786 11.99814
v -7.484136 0.6401328 15.44578
v -7.484136 -0.6401329 15.44578
v -14.96838 -0.6401329 15.41537
v -14.96838 0.6401328 15.41537
v -8.528813E-05 0.6401328 15.44962
v -8.528813E-05 -0.6401329 15.44962
v -10.86792 0.6401328 11.99462
v -7.484136 0.6401328 15.44578
v -14.96838 0.6401328 15.41537
v -21.73594 0.6401328 11.99527
v -8.551825E-05 0.6401328 11.99319
v -8.528813E-05 0.6401328 15.44962
v -10.86792 0.5029786 11.99462
v -10.86792 0.6401328 11.99462
v -21.73594 0.6401328 11.99527
v -21.73594 0.5029786 11.99527
v -8.551825E-05 0.5029786 11.99319
v -8.551825E-05 0.6401328 11.99319
v 64.84362 0.5029786 11.99813
v 64.85188 0.5029786 8.199897E-05
v 83.51715 0.5029786 8.075625E-05
v 83.51715 0.5029786 12.00053
v 21.73594 0.5029786 11.99526
v 21.73592 0.5029786 6.32904E-05
v 36.07388 0.5029786 8.391498E-05
v 36.22809 0.5029786 11.99574
v 10.86793 0.5029786 11.99462
v 10.86793 0.5029786 8.559317E-05
v -8.551825E-05 0.5029786 11.99319
v -8.631674E-05 0.5029786 8.631675E-05
v 43.93246 0.5029786 8.339177E-05
v 43.91971 0.5029786 11.99684
v 64.85188 0.5029786 8.199897E-05
v 64.84362 0.5029786 11.99813
v 7.484138 0.6401328 15.44578
v 14.96836 0.6401328 15.41535
v 14.96836 -0.6401329 15.41535
v 7.484138 -0.6401329 15.44578
v -8.528813E-05 0.6401328 15.44962
v -8.528813E-05 -0.6401329 15.44962
v 10.86793 0.6401328 11.99462
v 21.73594 0.6401328 11.99526
v 14.96836 0.6401328 15.41535
v 7.484138 0.6401328 15.44578
v -8.551825E-05 0.6401328 11.99319
v -8.528813E-05 0.6401328 15.44962
v 10.86793 0.5029786 11.99462
v 21.73594 0.5029786 11.99526
v 21.73594 0.6401328 11.99526
v 10.86793 0.6401328 11.99462
v -8.551825E-05 0.5029786 11.99319
v -8.551825E-05 0.6401328 11.99319
v 64.84362 0.5029786 -11.99797
v 83.51715 0.5029786 -12.00054
v 83.51715 0.5029786 8.075625E-05
v 64.85188 0.5029786 8.199897E-05
v 21.73594 0.5029786 -11.99527
v 36.22809 0.5029786 -11.99574
v 36.07388 0.5029786 8.391498E-05
v 21.73592 0.5029786 6.32904E-05
v 10.86792 0.5029786 -11.99462
v 10.86793 0.5029786 8.559317E-05
v -8.711524E-05 0.5029786 -11.99319
v -8.631674E-05 0.5029786 8.631675E-05
v 43.93246 0.5029786 8.339177E-05
v 43.91971 0.5029786 -11.99684
v 64.85188 0.5029786 8.199897E-05
v 64.84362 0.5029786 -11.99797
v 7.484136 0.6401328 -15.44578
v 7.484136 -0.6401329 -15.44578
v 14.96838 -0.6401329 -15.4152
v 14.96838 0.6401328 -15.4152
v -8.734537E-05 0.6401328 -15.44962
v -8.734537E-05 -0.6401329 -15.44962
v 10.86792 0.6401328 -11.99462
v 7.484136 0.6401328 -15.44578
v 14.96838 0.6401328 -15.4152
v 21.73594 0.6401328 -11.99527
v -8.711524E-05 0.6401328 -11.99319
v -8.734537E-05 0.6401328 -15.44962
v 10.86792 0.5029786 -11.99462
v 10.86792 0.6401328 -11.99462
v 21.73594 0.6401328 -11.99527
v 21.73594 0.5029786 -11.99527
v -8.711524E-05 0.5029786 -11.99319
v -8.711524E-05 0.6401328 -11.99319

vn 0.0006709099 1 -0.0006709099
vn 0.0006709099 1 -0.0006709099
vn 0.0006709099 1 -0.0006709099
vn 0.0006709099 1 -0.0006709099
vn 0.0006709099 1 -0.0006709099
vn 0.0006709099 1 -0.0006709099
vn 0.0006709099 1 -0.0006709099
vn 0.0006709099 1 -0.0006709099
vn 0.0006709099 1 -0.0006709099
vn 0.0006709099 1 -0.0006709099
vn 0.0006709099 1 -0.0006709099
vn 0.0006709099 1 -0.0006709099
vn 0.0006709099 1 -0.0006709099
vn 0.0006709099 1 -0.0006709099
vn 0.0006709099 1 -0.0006709099
vn 0.0006709099 1 -0.0006709099
vn -0.2058105 0.9570313 -0.2044678
vn -0.1252441 0.984375 -0.1238403
vn -0.7104492 -0.0009489059 -0.7036133
vn -0.7089844 -0.0009489059 -0.7050781
vn -0.2058105 0.9570313 -0.2044678
vn -0.7080078 -0.0009489059 -0.706543
vn 0.04486084 0.9980469 0.04351807
vn 0.1086426 0.9882813 0.1072998
vn -0.1252441 0.984375 -0.1238403
vn -0.2058105 0.9570313 -0.2044678
vn 0.04486084 0.9980469 0.04351807
vn -0.2058105 0.9570313 -0.2044678
vn 0.0006709099 1 -0.0006709099
vn 0.0006709099 1 -0.0006709099
vn 0.1086426 0.9882813 0.1072998
vn 0.04486084 0.9980469 0.04351807
vn 0.0006709099 1 -0.0006709099
vn 0.04486084 0.9980469 0.04351807
vn 0.0006709099 1 -0.0006709099
vn 0.0006709099 1 -0.0006709099
vn 0.0006709099 1 -0.0006709099
vn 0.0006709099 1 -0.0006709099
vn 0.0006709099 1 -0.0006709099
vn 0.0006709099 1 -0.0006709099
vn 0.0006709099 1 -0.0006709099
vn 0.0006709099 1 -0.0006709099
vn 0.0006709099 1 -0.0006709099
vn 0.0006709099 1 -0.0006709099
vn 0.0006709099 1 -0.0006709099
vn 0.0006709099 1 -0.0006709099
vn 0.0006709099 1 -0.0006709099
vn 0.0006709099 1 -0.0006709099
vn 0.0006709099 1 -0.0006709099
vn 0.0006709099 1 -0.0006709099
vn 0.2044678 0.9570313 0.2058105
vn 0.7050781 -0.0009489059 0.7089844
vn 0.7036133 -0.0009489059 0.7104492
vn 0.1238403 0.984375 0.1252441
vn 0.2044678 0.9570313 0.2058105
vn 0.706543 -0.0009489059 0.7080078
vn -0.04351807 0.9980469 -0.04486084
vn 0.2044678 0.9570313 0.2058105
vn 0.1238403 0.984375 0.1252441
vn -0.1072998 0.9882813 -0.1086426
vn -0.04351807 0.9980469 -0.04486084
vn 0.2044678 0.9570313 0.2058105
vn 0.0006709099 1 -0.0006709099
vn -0.04351807 0.9980469 -0.04486084
vn -0.1072998 0.9882813 -0.1086426
vn 0.0006709099 1 -0.0006709099
vn 0.0006709099 1 -0.0006709099
vn -0.04351807 0.9980469 -0.04486084
vn 0.0006709099 1 -0.0006709099
vn 0.0006709099 1 -0.0006709099
vn 0.0006709099 1 -0.0006709099
vn 0.0006709099 1 -0.0006709099
vn 0.0006709099 1 -0.0006709099
vn 0.0006709099 1 -0.0006709099
vn 0.0006709099 1 -0.0006709099
vn 0.0006709099 1 -0.0006709099
vn 0.0006709099 1 -0.0006709099
vn 0.0006709099 1 -0.0006709099
vn 0.0006709099 1 -0.0006709099
vn 0.0006709099 1 -0.0006709099
vn 0.0006709099 1 -0.0006709099
vn 0.0006709099 1 -0.0006709099
vn 0.0006709099 1 -0.0006709099
vn 0.0006709099 1 -0.0006709099
vn 0.2058105 0.9570313 0.2044678
vn 0.1252441 0.984375 0.1239014
vn 0.7104492 -0.0009489059 0.7036133
vn 0.7089844 -0.0009489059 0.7050781
vn 0.2058105 0.9570313 0.2044678
vn 0.7080078 -0.0009489059 0.706543
vn -0.04351807 0.9980469 -0.04486084
vn -0.1072998 0.9882813 -0.1086426
vn 0.1252441 0.984375 0.1239014
vn 0.2058105 0.9570313 0.2044678
vn -0.04351807 0.9980469 -0.04486084
vn 0.2058105 0.9570313 0.2044678
vn 0.0006709099 1 -0.0006709099
vn 0.0006709099 1 -0.0006709099
vn -0.1072998 0.9882813 -0.1086426
vn -0.04351807 0.9980469 -0.04486084
vn 0.0006709099 1 -0.0006709099
vn -0.04351807 0.9980469 -0.04486084
vn 0.0006709099 1 -0.0006709099
vn 0.0006709099 1 -0.0006709099
vn 0.0006709099 1 -0.0006709099
vn 0.0006709099 1 -0.0006709099
vn 0.0006709099 1 -0.0006709099
vn 0.0006709099 1 -0.0006709099
vn 0.0006709099 1 -0.0006709099
vn 0.0006709099 1 -0.0006709099
vn 0.0006709099 1 -0.0006709099
vn 0.0006709099 1 -0.0006709099
vn 0.0006709099 1 -0.0006709099
vn 0.0006709099 1 -0.0006709099
vn 0.0006709099 1 -0.0006709099
vn 0.0006709099 1 -0.0006709099
vn 0.0006709099 1 -0.0006709099
vn 0.0006709099 1 -0.0006709099
vn -0.2044678 0.9570313 -0.2058105
vn -0.7050781 -0.0009489059 -0.7089844
vn -0.7036133 -0.0009489059 -0.7104492
vn -0.1239014 0.984375 -0.1252441
vn -0.2044678 0.9570313 -0.2058105
vn -0.706543 -0.0009489059 -0.7080078
vn 0.04486084 0.9980469 0.04351807
vn -0.2044678 0.9570313 -0.2058105
vn -0.1239014 0.984375 -0.1252441
vn 0.1086426 0.9882813 0.1072998
vn 0.04486084 0.9980469 0.04351807
vn -0.2044678 0.9570313 -0.2058105
vn 0.0006709099 1 -0.0006709099
vn 0.04486084 0.9980469 0.04351807
vn 0.1086426 0.9882813 0.1072998
vn 0.0006709099 1 -0.0006709099
vn 0.0006709099 1 -0.0006709099
vn 0.04486084 0.9980469 0.04351807

vt -4.578125 0.6386719
vt -4.578125 0.9658203
vt -5.164063 0.9658203
vt -5.164063 0.6386719
vt -3.96875 0.6386719
vt -3.96875 0.9658203
vt -4.363281 0.9658203
vt -4.367188 0.6386719
vt -3.451172 0.6386719
vt -3.451172 0.9658203
vt -2.931641 0.6386719
vt -2.931641 0.9658203
vt -4.578125 0.9658203
vt -4.578125 0.6386719
vt -5.164063 0.9658203
vt -5.164063 0.6386719
vt 1.427734 0.5395508
vt 1.15918 0.5395508
vt 1.15918 0.5039063
vt 1.427734 0.5039063
vt 1.698242 0.5395508
vt 1.698242 0.5039063
vt 1.30957 0.6347656
vt 0.921875 0.6347656
vt 1.15918 0.5395508
vt 1.427734 0.5395508
vt 1.698242 0.6347656
vt 1.698242 0.5395508
vt 1.30957 0.6386719
vt 0.921875 0.6386719
vt 0.921875 0.6347656
vt 1.30957 0.6347656
vt 1.698242 0.6386719
vt 1.698242 0.6347656
vt -4.578125 0.6386719
vt -5.164063 0.6386719
vt -5.164063 0.9658203
vt -4.578125 0.9658203
vt -3.96875 0.6386719
vt -4.367188 0.6386719
vt -4.363281 0.9658203
vt -3.96875 0.9658203
vt -3.451172 0.6386719
vt -3.451172 0.9658203
vt -2.931641 0.6386719
vt -2.931641 0.9658203
vt -4.578125 0.9658203
vt -4.578125 0.6386719
vt -5.164063 0.9658203
vt -5.164063 0.6386719
vt 1.427734 0.5395508
vt 1.427734 0.5039063
vt 1.15918 0.5039063
vt 1.15918 0.5395508
vt 1.698242 0.5395508
vt 1.698242 0.5039063
vt 1.30957 0.6347656
vt 1.427734 0.5395508
vt 1.15918 0.5395508
vt 0.921875 0.6347656
vt 1.698242 0.6347656
vt 1.698242 0.5395508
vt 1.30957 0.6386719
vt 1.30957 0.6347656
vt 0.921875 0.6347656
vt 0.921875 0.6386719
vt 1.698242 0.6386719
vt 1.698242 0.6347656
vt -4.578125 0.6386719
vt -4.578125 0.9658203
vt -5.164063 0.9658203
vt -5.164063 0.6386719
vt -3.96875 0.6386719
vt -3.96875 0.9658203
vt -4.363281 0.9658203
vt -4.367188 0.6386719
vt -3.451172 0.6386719
vt -3.451172 0.9658203
vt -2.931641 0.6386719
vt -2.931641 0.9658203
vt -4.578125 0.9658203
vt -4.578125 0.6386719
vt -5.164063 0.9658203
vt -5.164063 0.6386719
vt 1.427734 0.5395508
vt 1.15918 0.5395508
vt 1.15918 0.5039063
vt 1.427734 0.5039063
vt 1.698242 0.5395508
vt 1.698242 0.5039063
vt 1.30957 0.6347656
vt 0.921875 0.6347656
vt 1.15918 0.5395508
vt 1.427734 0.5395508
vt 1.698242 0.6347656
vt 1.698242 0.5395508
vt 1.30957 0.6386719
vt 0.921875 0.6386719
vt 0.921875 0.6347656
vt 1.30957 0.6347656
vt 1.698242 0.6386719
vt 1.698242 0.6347656
vt -4.578125 0.6386719
vt -5.164063 0.6386719
vt -5.164063 0.9658203
vt -4.578125 0.9658203
vt -3.96875 0.6386719
vt -4.367188 0.6386719
vt -4.363281 0.9658203
vt -3.96875 0.9658203
vt -3.451172 0.6386719
vt -3.451172 0.9658203
vt -2.931641 0.6386719
vt -2.931641 0.9658203
vt -4.578125 0.9658203
vt -4.578125 0.6386719
vt -5.164063 0.9658203
vt -5.164063 0.6386719
vt 1.427734 0.5395508
vt 1.427734 0.5039063
vt 1.15918 0.5039063
vt 1.15918 0.5395508
vt 1.698242 0.5395508
vt 1.698242 0.5039063
vt 1.30957 0.6347656
vt 1.427734 0.5395508
vt 1.15918 0.5395508
vt 0.921875 0.6347656
vt 1.698242 0.6347656
vt 1.698242 0.5395508
vt 1.30957 0.6386719
vt 1.30957 0.6347656
vt 0.921875 0.6347656
vt 0.921875 0.6386719
vt 1.698242 0.6386719
vt 1.698242 0.6347656

g TS_6Lane_39_205145_210
usemtl TS_6Lane_39_205145_210
usemap TS_6Lane_39_205145_210
f 1/1/1 3/3/3 2/2/2
f 1/1/1 4/4/4 3/3/3
f 5/5/5 7/7/7 6/6/6
f 5/5/5 8/8/8 7/7/7
f 6/6/6 9/9/9 5/5/5
f 6/6/6 10/10/10 9/9/9
f 10/10/10 11/11/11 9/9/9
f 10/10/10 12/12/12 11/11/11
f 8/8/8 13/13/13 7/7/7
f 8/8/8 14/14/14 13/13/13
f 14/14/14 15/15/15 13/13/13
f 14/14/14 16/16/16 15/15/15
f 17/17/17 19/19/19 18/18/18
f 17/17/17 20/20/20 19/19/19
f 21/21/21 20/20/20 17/17/17
f 21/21/21 22/22/22 20/20/20
f 23/23/23 25/25/25 24/24/24
f 23/23/23 26/26/26 25/25/25
f 27/27/27 26/26/26 23/23/23
f 27/27/27 28/28/28 26/26/26
f 29/29/29 31/31/31 30/30/30
f 29/29/29 32/32/32 31/31/31
f 33/33/33 32/32/32 29/29/29
f 33/33/33 34/34/34 32/32/32
f 35/35/35 37/37/37 36/36/36
f 35/35/35 38/38/38 37/37/37
f 39/39/39 41/41/41 40/40/40
f 39/39/39 42/42/42 41/41/41
f 42/42/42 39/39/39 43/43/43
f 42/42/42 43/43/43 44/44/44
f 44/44/44 43/43/43 45/45/45
f 44/44/44 45/45/45 46/46/46
f 40/40/40 41/41/41 47/47/47
f 40/40/40 47/47/47 48/48/48
f 48/48/48 47/47/47 49/49/49
f 48/48/48 49/49/49 50/50/50
f 51/51/51 53/53/53 52/52/52
f 51/51/51 54/54/54 53/53/53
f 55/55/55 51/51/51 52/52/52
f 55/55/55 52/52/52 56/56/56
f 57/57/57 59/59/59 58/58/58
f 57/57/57 60/60/60 59/59/59
f 61/61/61 57/57/57 58/58/58
f 61/61/61 58/58/58 62/62/62
f 63/63/63 65/65/65 64/64/64
f 63/63/63 66/66/66 65/65/65
f 67/67/67 63/63/63 64/64/64
f 67/67/67 64/64/64 68/68/68
f 69/69/69 71/71/71 70/70/70
f 69/69/69 72/72/72 71/71/71
f 73/73/73 75/75/75 74/74/74
f 73/73/73 76/76/76 75/75/75
f 74/74/74 77/77/77 73/73/73
f 74/74/74 78/78/78 77/77/77
f 78/78/78 79/79/79 77/77/77
f 78/78/78 80/80/80 79/79/79
f 76/76/76 81/81/81 75/75/75
f 76/76/76 82/82/82 81/81/81
f 82/82/82 83/83/83 81/81/81
f 82/82/82 84/84/84 83/83/83
f 85/85/85 87/87/87 86/86/86
f 85/85/85 88/88/88 87/87/87
f 89/89/89 88/88/88 85/85/85
f 89/89/89 90/90/90 88/88/88
f 91/91/91 93/93/93 92/92/92
f 91/91/91 94/94/94 93/93/93
f 95/95/95 94/94/94 91/91/91
f 95/95/95 96/96/96 94/94/94
f 97/97/97 99/99/99 98/98/98
f 97/97/97 100/100/100 99/99/99
f 101/101/101 100/100/100 97/97/97
f 101/101/101 102/102/102 100/100/100
f 103/103/103 105/105/105 104/104/104
f 103/103/103 106/106/106 105/105/105
f 107/107/107 109/109/109 108/108/108
f 107/107/107 110/110/110 109/109/109
f 110/110/110 107/107/107 111/111/111
f 110/110/110 111/111/111 112/112/112
f 112/112/112 111/111/111 113/113/113
f 112/112/112 113/113/113 114/114/114
f 108/108/108 109/109/109 115/115/115
f 108/108/108 115/115/115 116/116/116
f 116/116/116 115/115/115 117/117/117
f 116/116/116 117/117/117 118/118/118
f 119/119/119 121/121/121 120/120/120
f 119/119/119 122/122/122 121/121/121
f 123/123/123 119/119/119 120/120/120
f 123/123/123 120/120/120 124/124/124
f 125/125/125 127/127/127 126/126/126
f 125/125/125 128/128/128 127/127/127
f 129/129/129 125/125/125 126/126/126
f 129/129/129 126/126/126 130/130/130
f 131/131/131 133/133/133 132/132/132
f 131/131/131 134/134/134 133/133/133
f 135/135/135 131/131/131 132/132/132
f 135/135/135 132/132/132 136/136/136
