#TS_Concrete_Fence_Asembly_04_202051_94.obj

v -20 -1.099988 0.199999
v -20.00002 1.099988 0.199984
v -10.00002 1.099988 0.1999711
v -10 -1.099988 0.1999862
v -20.00002 1.099988 0.199984
v -20.00003 1.099988 -0.1999973
v -9.999987 1.099988 -0.199967
v -10.00002 1.099988 0.1999711
v -20.00003 1.099988 -0.1999973
v -20.00001 -1.099988 -0.1999823
v -10.00001 -1.099988 -0.1999951
v -9.999987 1.099988 -0.199967
v -2.816192E-05 -1.099988 -0.1999972
v -5.656259E-08 1.099988 -0.1999691
v 9.99999 -1.099988 -0.1999885
v 9.999997 1.099988 -0.199982
v 20.00001 -1.099988 -0.1999798
v 19.99999 1.099988 -0.1999949
v -20.00001 -1.099988 -0.1999823
v -20.00003 1.099988 -0.1999973
v -20.00002 1.099988 0.199984
v -20 -1.099988 0.199999
v -10 -1.099988 0.1999862
v -10.00002 1.099988 0.1999711
v -3.213013E-05 1.099988 0.1999691
v -1.707719E-05 -1.099988 0.1999841
v -10.00002 1.099988 0.1999711
v -9.999987 1.099988 -0.199967
v -5.656259E-08 1.099988 -0.1999691
v -3.213013E-05 1.099988 0.1999691
v -1.707719E-05 -1.099988 0.1999841
v -3.213013E-05 1.099988 0.1999691
v 9.999987 1.099988 0.1999778
v 10 -1.099988 0.1999928
v -3.213013E-05 1.099988 0.1999691
v -5.656259E-08 1.099988 -0.1999691
v 9.999997 1.099988 -0.199982
v 9.999987 1.099988 0.1999778
v 10 -1.099988 0.1999928
v 9.999987 1.099988 0.1999778
v 20.00001 1.099988 0.1999865
v 20 -1.099988 0.1999799
v 9.999987 1.099988 0.1999778
v 9.999997 1.099988 -0.199982
v 19.99999 1.099988 -0.1999949
v 20.00001 1.099988 0.1999865
v 20 -1.099988 0.1999799
v 20.00001 1.099988 0.1999865
v 19.99999 1.099988 -0.1999949
v 20.00001 -1.099988 -0.1999798

vn 0.706543 0.002244949 0.7080078
vn 0.706543 0.002244949 0.7080078
vn 0.706543 0.002244949 0.7080078
vn 0.706543 0.002244949 0.7080078
vn -0.002485275 1 0.0006914139
vn -0.002485275 1 0.0006914139
vn -0.002485275 1 0.0006914139
vn -0.002485275 1 0.0006914139
vn -0.7080078 -0.0002920628 -0.706543
vn -0.7080078 -0.0002920628 -0.706543
vn -0.7080078 -0.0002920628 -0.706543
vn -0.7080078 -0.0002920628 -0.706543
vn -0.7080078 -0.0002920628 -0.706543
vn -0.7080078 -0.0002920628 -0.706543
vn -0.7080078 -0.0002920628 -0.706543
vn -0.7080078 -0.0002920628 -0.706543
vn -0.7080078 -0.0002920628 -0.706543
vn -0.7080078 -0.0002920628 -0.706543
vn -0.7070313 -0.0002908707 0.7070313
vn -0.7070313 -0.0002908707 0.7070313
vn -0.7070313 -0.0002908707 0.7070313
vn -0.7070313 -0.0002908707 0.7070313
vn 0.706543 0.002244949 0.7080078
vn 0.706543 0.002244949 0.7080078
vn 0.706543 0.002244949 0.7080078
vn 0.706543 0.002244949 0.7080078
vn -0.002485275 1 0.0006914139
vn -0.002485275 1 0.0006914139
vn -0.002485275 1 0.0006914139
vn -0.002485275 1 0.0006914139
vn 0.706543 0.002244949 0.7080078
vn 0.706543 0.002244949 0.7080078
vn 0.706543 0.002244949 0.7080078
vn 0.706543 0.002244949 0.7080078
vn -0.002485275 1 0.0006914139
vn -0.002485275 1 0.0006914139
vn -0.002485275 1 0.0006914139
vn -0.002485275 1 0.0006914139
vn 0.706543 0.002244949 0.7080078
vn 0.706543 0.002244949 0.7080078
vn 0.706543 0.002244949 0.7080078
vn 0.706543 0.002244949 0.7080078
vn -0.002485275 1 0.0006914139
vn -0.002485275 1 0.0006914139
vn -0.002485275 1 0.0006914139
vn -0.002485275 1 0.0006914139
vn 0.7070313 0.002244949 -0.7070313
vn 0.7070313 0.002244949 -0.7070313
vn 0.7070313 0.002244949 -0.7070313
vn 0.7070313 0.002244949 -0.7070313

vt 0.4970703 0.001093864
vt 0.4970703 0.144165
vt 0.9741211 0.144043
vt 0.9741211 0.0009822845
vt 0.4970703 0.144165
vt 0.4970703 0.163208
vt 0.9741211 0.163208
vt 0.9741211 0.144043
vt 0.4780273 0.144165
vt 0.4780273 0.001093864
vt 0.0009822845 0.001194
vt 0.001015663 0.1442871
vt -0.4760742 0.001294136
vt -0.4760742 0.1444092
vt -0.953125 0.001405716
vt -0.953125 0.1445313
vt -1.429688 0.001505852
vt -1.429688 0.1446533
vt 0.4780273 0.001093864
vt 0.4780273 0.144165
vt 0.4970703 0.144165
vt 0.4970703 0.001093864
vt 0.4970703 0.001093864
vt 0.4970703 0.144165
vt 0.9741211 0.144043
vt 0.9741211 0.0009822845
vt 0.4970703 0.144165
vt 0.4970703 0.163208
vt 0.9741211 0.163208
vt 0.9741211 0.144043
vt 0.4970703 0.001093864
vt 0.4970703 0.144165
vt 0.9741211 0.144043
vt 0.9741211 0.0009822845
vt 0.4970703 0.144165
vt 0.4970703 0.163208
vt 0.9741211 0.163208
vt 0.9741211 0.144043
vt -1.925781 0.001617432
vt -1.925781 0.1446533
vt -1.449219 0.1446533
vt -1.449219 0.001505852
vt -1.925781 0.1446533
vt -1.925781 0.1638184
vt -1.449219 0.1636963
vt -1.449219 0.1446533
vt -1.449219 0.001505852
vt -1.449219 0.1446533
vt -1.429688 0.1446533
vt -1.429688 0.001505852

g TS_Concrete_Fence_Asembly_04_202051_94
usemtl TS_Concrete_Fence_Asembly_04_202051_94
usemap TS_Concrete_Fence_Asembly_04_202051_94
f 1/1/1 3/3/3 2/2/2
f 1/1/1 4/4/4 3/3/3
f 5/5/5 7/7/7 6/6/6
f 5/5/5 8/8/8 7/7/7
f 9/9/9 11/11/11 10/10/10
f 9/9/9 12/12/12 11/11/11
f 12/12/12 13/13/13 11/11/11
f 12/12/12 14/14/14 13/13/13
f 14/14/14 15/15/15 13/13/13
f 14/14/14 16/16/16 15/15/15
f 16/16/16 17/17/17 15/15/15
f 16/16/16 18/18/18 17/17/17
f 19/19/19 21/21/21 20/20/20
f 19/19/19 22/22/22 21/21/21
f 23/23/23 25/25/25 24/24/24
f 23/23/23 26/26/26 25/25/25
f 27/27/27 29/29/29 28/28/28
f 27/27/27 30/30/30 29/29/29
f 31/31/31 33/33/33 32/32/32
f 31/31/31 34/34/34 33/33/33
f 35/35/35 37/37/37 36/36/36
f 35/35/35 38/38/38 37/37/37
f 39/39/39 41/41/41 40/40/40
f 39/39/39 42/42/42 41/41/41
f 43/43/43 45/45/45 44/44/44
f 43/43/43 46/46/46 45/45/45
f 47/47/47 49/49/49 48/48/48
f 47/47/47 50/50/50 49/49/49
