#TS_Concrete_Fence_Asembly_01_213363_73.obj

v -2.116974E-05 -1.099989 10.74056
v -2.116974E-05 1.1 10.74056
v 9.99999 1.1 10.74056
v 9.99999 -1.099989 10.74056
v -10.00002 -1.099989 10.74057
v -10.00002 1.1 10.74057
v -2.116974E-05 1.1 10.74056
v -2.119637E-05 1.1 10.34057
v 9.999979 1.1 10.34056
v 9.99999 1.1 10.74056
v -10.00002 1.1 10.74057
v -10.00001 1.1 10.34055
v -2.119637E-05 1.1 10.34057
v -2.119637E-05 -1.099989 10.34057
v 9.999979 -1.099989 10.34056
v 9.999979 1.1 10.34056
v -10.00001 1.1 10.34055
v -10.00001 -1.099989 10.34055
v 9.99999 -1.099989 10.74056
v 9.99999 1.1 10.74056
v 9.999979 1.1 10.34056
v 9.999979 -1.099989 10.34056
v -10.00001 -1.099989 10.34055
v -10.00001 1.1 10.34055
v -10.00002 1.1 10.74057
v -10.00002 -1.099989 10.74057
v -10.00001 -1.099989 -1.795415
v -10.00001 1.1 -1.795415
v -10.00002 1.1 7.333909
v -10.00002 -1.099989 7.333909
v -10.00002 -1.099989 -11.79539
v -10.00002 1.1 -11.79539
v -10.00001 1.1 -1.795415
v -9.600019 1.1 -1.795415
v -9.600008 1.1 7.333887
v -10.00002 1.1 7.333909
v -10.00002 1.1 -11.79539
v -9.600009 1.1 -11.79541
v -9.600019 1.1 -1.795415
v -9.600019 -1.099989 -1.795415
v -9.600008 -1.099989 7.333887
v -9.600008 1.1 7.333887
v -9.600009 1.1 -11.79541
v -9.600009 -1.099989 -11.79541
v -10.00002 -1.099989 7.333909
v -10.00002 1.1 7.333909
v -9.600008 1.1 7.333887
v -9.600008 -1.099989 7.333887
v -9.600009 -1.099989 -11.79541
v -9.600009 1.1 -11.79541
v -10.00002 1.1 -11.79539
v -10.00002 -1.099989 -11.79539
v 9.999977 -1.099989 -12.19541
v 9.999977 1.1 -12.19541
v -2.26968E-05 1.1 -12.1954
v -2.26968E-05 -1.099989 -12.1954
v -10.00001 1.1 -12.19542
v -10.00001 -1.099989 -12.19542
v 9.999977 1.1 -12.19541
v 9.999989 1.1 -11.79541
v -2.267016E-05 1.1 -11.7954
v -2.26968E-05 1.1 -12.1954
v -10.00002 1.1 -11.79539
v -10.00001 1.1 -12.19542
v 9.999989 1.1 -11.79541
v 9.999989 -1.099989 -11.79541
v -2.267016E-05 -1.099989 -11.7954
v -2.267016E-05 1.1 -11.7954
v -10.00002 -1.099989 -11.79539
v -10.00002 1.1 -11.79539
v 9.999989 -1.099989 -11.79541
v 9.999989 1.1 -11.79541
v 9.999977 1.1 -12.19541
v 9.999977 -1.099989 -12.19541
v -10.00001 -1.099989 -12.19542
v -10.00001 1.1 -12.19542
v -10.00002 1.1 -11.79539
v -10.00002 -1.099989 -11.79539

vn 0.706543 0.0009775162 0.7080078
vn 0.706543 0.0009775162 0.7080078
vn 0.706543 0.0009775162 0.7080078
vn 0.706543 0.0009775162 0.7080078
vn 0.706543 0.0009775162 0.7080078
vn 0.706543 0.0009775162 0.7080078
vn -0.0006914139 1 0.0006914139
vn -0.0006914139 1 0.0006914139
vn -0.0006914139 1 0.0006914139
vn -0.0006914139 1 0.0006914139
vn -0.0006914139 1 0.0006914139
vn -0.0006914139 1 0.0006914139
vn -0.7080078 0.0009775162 -0.706543
vn -0.7080078 0.0009775162 -0.706543
vn -0.7080078 0.0009775162 -0.706543
vn -0.7080078 0.0009775162 -0.706543
vn -0.7080078 0.0009775162 -0.706543
vn -0.7080078 0.0009775162 -0.706543
vn 0.7070313 0.0009775162 -0.7070313
vn 0.7070313 0.0009775162 -0.7070313
vn 0.7070313 0.0009775162 -0.7070313
vn 0.7070313 0.0009775162 -0.7070313
vn -0.7070313 0.0009775162 0.7070313
vn -0.7070313 0.0009775162 0.7070313
vn -0.7070313 0.0009775162 0.7070313
vn -0.7070313 0.0009775162 0.7070313
vn -0.7070313 0.0009775162 0.7070313
vn -0.7070313 0.0009775162 0.7070313
vn -0.7070313 0.0009775162 0.7070313
vn -0.7070313 0.0009775162 0.7070313
vn -0.7070313 0.0009775162 0.7070313
vn -0.7070313 0.0009775162 0.7070313
vn -0.0006914139 1 0.0006914139
vn -0.0006914139 1 0.0006914139
vn -0.0006914139 1 0.0006914139
vn -0.0006914139 1 0.0006914139
vn -0.0006914139 1 0.0006914139
vn -0.0006914139 1 0.0006914139
vn 0.7070313 0.0009775162 -0.7070313
vn 0.7070313 0.0009775162 -0.7070313
vn 0.7070313 0.0009775162 -0.7070313
vn 0.7070313 0.0009775162 -0.7070313
vn 0.7070313 0.0009775162 -0.7070313
vn 0.7070313 0.0009775162 -0.7070313
vn 0.706543 0.0009775162 0.7080078
vn 0.706543 0.0009775162 0.7080078
vn 0.706543 0.0009775162 0.7080078
vn 0.706543 0.0009775162 0.7080078
vn -0.7080078 0.0009775162 -0.706543
vn -0.7080078 0.0009775162 -0.706543
vn -0.7080078 0.0009775162 -0.706543
vn -0.7080078 0.0009775162 -0.706543
vn -0.7080078 0.0009775162 -0.706543
vn -0.7080078 0.0009775162 -0.706543
vn -0.7080078 0.0009775162 -0.706543
vn -0.7080078 0.0009775162 -0.706543
vn -0.7080078 0.0009775162 -0.706543
vn -0.7080078 0.0009775162 -0.706543
vn -0.0006914139 1 0.0006914139
vn -0.0006914139 1 0.0006914139
vn -0.0006914139 1 0.0006914139
vn -0.0006914139 1 0.0006914139
vn -0.0006914139 1 0.0006914139
vn -0.0006914139 1 0.0006914139
vn 0.706543 0.0009775162 0.7080078
vn 0.706543 0.0009775162 0.7080078
vn 0.706543 0.0009775162 0.7080078
vn 0.706543 0.0009775162 0.7080078
vn 0.706543 0.0009775162 0.7080078
vn 0.706543 0.0009775162 0.7080078
vn 0.7070313 0.0009775162 -0.7070313
vn 0.7070313 0.0009775162 -0.7070313
vn 0.7070313 0.0009775162 -0.7070313
vn 0.7070313 0.0009775162 -0.7070313
vn -0.7070313 0.0009775162 0.7070313
vn -0.7070313 0.0009775162 0.7070313
vn -0.7070313 0.0009775162 0.7070313
vn -0.7070313 0.0009775162 0.7070313

vt 0.9741211 0.3295898
vt 0.9741211 0.4726563
vt 1.451172 0.4724121
vt 1.451172 0.3293457
vt 0.4970703 0.3295898
vt 0.4970703 0.4726563
vt 0.9741211 0.4726563
vt 0.9741211 0.4916992
vt 1.451172 0.4914551
vt 1.451172 0.4724121
vt 0.4970703 0.4726563
vt 0.4970703 0.4916992
vt 0.001016617 0.4729004
vt 0.0009870529 0.3295898
vt -0.4760742 0.329834
vt -0.4760742 0.4729004
vt 0.4780273 0.4726563
vt 0.4780273 0.3295898
vt 1.451172 0.3293457
vt 1.451172 0.4724121
vt 1.469727 0.4724121
vt 1.469727 0.3293457
vt 0.4780273 0.3295898
vt 0.4780273 0.4726563
vt 0.4970703 0.4726563
vt 0.4970703 0.3295898
vt 0.9741211 0.3295898
vt 0.9741211 0.4726563
vt 1.451172 0.4724121
vt 1.451172 0.3293457
vt 0.4970703 0.3295898
vt 0.4970703 0.4726563
vt 0.9741211 0.4726563
vt 0.9741211 0.4916992
vt 1.451172 0.4914551
vt 1.451172 0.4724121
vt 0.4970703 0.4726563
vt 0.4970703 0.4916992
vt 0.001016617 0.4729004
vt 0.0009870529 0.3295898
vt -0.4760742 0.329834
vt -0.4760742 0.4729004
vt 0.4780273 0.4726563
vt 0.4780273 0.3295898
vt 1.451172 0.3293457
vt 1.451172 0.4724121
vt 1.469727 0.4724121
vt 1.469727 0.3293457
vt 0.4780273 0.3295898
vt 0.4780273 0.4726563
vt 0.4970703 0.4726563
vt 0.4970703 0.3295898
vt 0.4970703 0.3295898
vt 0.4970703 0.4726563
vt 0.9741211 0.4726563
vt 0.9741211 0.3295898
vt 1.451172 0.4724121
vt 1.451172 0.3293457
vt 0.4970703 0.4726563
vt 0.4970703 0.4916992
vt 0.9741211 0.4916992
vt 0.9741211 0.4726563
vt 1.451172 0.4914551
vt 1.451172 0.4724121
vt 0.4780273 0.4726563
vt 0.4780273 0.3295898
vt 0.0009870529 0.3295898
vt 0.001016617 0.4729004
vt -0.4760742 0.329834
vt -0.4760742 0.4729004
vt 0.4780273 0.3295898
vt 0.4780273 0.4726563
vt 0.4970703 0.4726563
vt 0.4970703 0.3295898
vt 1.451172 0.3293457
vt 1.451172 0.4724121
vt 1.469727 0.4724121
vt 1.469727 0.3293457

g TS_Concrete_Fence_Asembly_01_213363_73
usemtl TS_Concrete_Fence_Asembly_01_213363_73
usemap TS_Concrete_Fence_Asembly_01_213363_73
f 1/1/1 3/3/3 2/2/2
f 1/1/1 4/4/4 3/3/3
f 5/5/5 1/1/1 2/2/2
f 5/5/5 2/2/2 6/6/6
f 7/7/7 9/9/9 8/8/8
f 7/7/7 10/10/10 9/9/9
f 11/11/11 7/7/7 8/8/8
f 11/11/11 8/8/8 12/12/12
f 13/13/13 15/15/15 14/14/14
f 13/13/13 16/16/16 15/15/15
f 17/17/17 13/13/13 14/14/14
f 17/17/17 14/14/14 18/18/18
f 19/19/19 21/21/21 20/20/20
f 19/19/19 22/22/22 21/21/21
f 23/23/23 25/25/25 24/24/24
f 23/23/23 26/26/26 25/25/25
f 27/27/27 29/29/29 28/28/28
f 27/27/27 30/30/30 29/29/29
f 31/31/31 27/27/27 28/28/28
f 31/31/31 28/28/28 32/32/32
f 33/33/33 35/35/35 34/34/34
f 33/33/33 36/36/36 35/35/35
f 37/37/37 33/33/33 34/34/34
f 37/37/37 34/34/34 38/38/38
f 39/39/39 41/41/41 40/40/40
f 39/39/39 42/42/42 41/41/41
f 43/43/43 39/39/39 40/40/40
f 43/43/43 40/40/40 44/44/44
f 45/45/45 47/47/47 46/46/46
f 45/45/45 48/48/48 47/47/47
f 49/49/49 51/51/51 50/50/50
f 49/49/49 52/52/52 51/51/51
f 53/53/53 55/55/55 54/54/54
f 53/53/53 56/56/56 55/55/55
f 56/56/56 57/57/57 55/55/55
f 56/56/56 58/58/58 57/57/57
f 59/59/59 61/61/61 60/60/60
f 59/59/59 62/62/62 61/61/61
f 62/62/62 63/63/63 61/61/61
f 62/62/62 64/64/64 63/63/63
f 65/65/65 67/67/67 66/66/66
f 65/65/65 68/68/68 67/67/67
f 68/68/68 69/69/69 67/67/67
f 68/68/68 70/70/70 69/69/69
f 71/71/71 73/73/73 72/72/72
f 71/71/71 74/74/74 73/73/73
f 75/75/75 77/77/77 76/76/76
f 75/75/75 78/78/78 77/77/77
