#TS_Concrete_Fence_08_212415_151.obj

v 60.00002 -0.05624776 -0.300013
v 59.99999 2.143766 -0.300026
v 59.99998 2.143766 -0.6999691
v 60 -0.05624777 -0.6999561
v -4.861816E-05 2.143767 -0.3000182
v 59.99999 2.143766 -0.300026
v 60.00002 -0.05624776 -0.300013
v -5.340445E-05 -0.05624776 -0.3000211
v -60 2.143767 -0.3000304
v -59.99998 -0.05624777 -0.3000174
v -5.894266E-05 2.143767 -0.6999612
v 59.99998 2.143766 -0.6999691
v 59.99999 2.143766 -0.300026
v -4.861816E-05 2.143767 -0.3000182
v -60.00002 2.143767 -0.6999735
v -60 2.143767 -0.3000304
v 60 -0.05624777 -0.6999561
v 59.99998 2.143766 -0.6999691
v -5.894266E-05 2.143767 -0.6999612
v -6.372897E-05 -0.05624776 -0.6999642
v -60.00002 2.143767 -0.6999735
v -60 -0.05624777 -0.6999605
v -60 -0.05624777 -0.6999605
v -60.00002 2.143767 -0.6999735
v -60 2.143767 -0.3000304
v -59.99998 -0.05624777 -0.3000174

vn 0.8525391 0.001263618 -0.5229492
vn 0.8525391 0.001263618 -0.5229492
vn 0.8525391 0.001263618 -0.5229492
vn 0.8525391 0.001263618 -0.5229492
vn 0.5219727 0.001152992 0.8530273
vn 0.5219727 0.001152992 0.8530273
vn 0.5219727 0.001152992 0.8530273
vn 0.5219727 0.001152992 0.8530273
vn 0.5219727 0.001152992 0.8530273
vn 0.5219727 0.001152992 0.8530273
vn -0.001169205 1 0.0005111694
vn -0.001169205 1 0.0005111694
vn -0.001169205 1 0.0005111694
vn -0.001169205 1 0.0005111694
vn -0.001169205 1 0.0005111694
vn -0.001169205 1 0.0005111694
vn -0.5234375 0.0008020401 -0.8520508
vn -0.5234375 0.0008020401 -0.8520508
vn -0.5234375 0.0008020401 -0.8520508
vn -0.5234375 0.0008020401 -0.8520508
vn -0.5234375 0.0008020401 -0.8520508
vn -0.5234375 0.0008020401 -0.8520508
vn -0.8525391 0.0006914139 0.5229492
vn -0.8525391 0.0006914139 0.5229492
vn -0.8525391 0.0006914139 0.5229492
vn -0.8525391 0.0006914139 0.5229492

vt 4.042969 0.3508301
vt 3.900391 0.3508301
vt 3.900391 0.3764648
vt 4.042969 0.3764648
vt 0.4987793 0.4711914
vt 4.339844 0.4711914
vt 4.339844 0.3303223
vt 0.4987793 0.3303223
vt -3.34375 0.4711914
vt -3.34375 0.3303223
vt 0.4987793 0.4699707
vt 4.339844 0.4699707
vt 4.339844 0.4445801
vt 0.4987793 0.4445801
vt -3.34375 0.4699707
vt -3.34375 0.4445801
vt 4.339844 0.4726563
vt 4.339844 0.3317871
vt 0.4987793 0.3317871
vt 0.4987793 0.4726563
vt -3.34375 0.3317871
vt -3.34375 0.4726563
vt 4.042969 0.4226074
vt 3.900391 0.4226074
vt 3.900391 0.447998
vt 4.042969 0.447998

g TS_Concrete_Fence_08_212415_151
usemtl TS_Concrete_Fence_08_212415_151
usemap TS_Concrete_Fence_08_212415_151
f 1/1/1 3/3/3 2/2/2
f 1/1/1 4/4/4 3/3/3
f 5/5/5 7/7/7 6/6/6
f 5/5/5 8/8/8 7/7/7
f 9/9/9 8/8/8 5/5/5
f 9/9/9 10/10/10 8/8/8
f 11/11/11 13/13/13 12/12/12
f 11/11/11 14/14/14 13/13/13
f 15/15/15 14/14/14 11/11/11
f 15/15/15 16/16/16 14/14/14
f 17/17/17 19/19/19 18/18/18
f 17/17/17 20/20/20 19/19/19
f 20/20/20 21/21/21 19/19/19
f 20/20/20 22/22/22 21/21/21
f 23/23/23 25/25/25 24/24/24
f 23/23/23 26/26/26 25/25/25
