#TS_Concrete_Fence_Asembly_04_202076_72.obj

v -19.99998 -1.099988 0.1999729
v -19.99998 1.099988 0.1999729
v -9.999973 1.099988 0.1999736
v -9.999973 -1.099988 0.1999736
v -19.99998 1.099988 0.1999729
v -19.99998 1.099988 -0.1999757
v -9.999973 1.099988 -0.1999751
v -9.999973 1.099988 0.1999736
v -19.99998 1.099988 -0.1999757
v -19.99998 -1.099988 -0.1999757
v -9.999973 -1.099988 -0.1999751
v -9.999973 1.099988 -0.1999751
v -5.346916E-06 -1.099988 -0.1999744
v -5.346916E-06 1.099988 -0.1999744
v 10.00001 -1.099988 -0.1999737
v 10.00001 1.099988 -0.1999737
v 20.00002 -1.099988 -0.1999731
v 20.00002 1.099988 -0.1999731
v -19.99998 -1.099988 -0.1999757
v -19.99998 1.099988 -0.1999757
v -19.99998 1.099988 0.1999729
v -19.99998 -1.099988 0.1999729
v -9.999973 -1.099988 0.1999736
v -9.999973 1.099988 0.1999736
v -5.373544E-06 1.099988 0.1999742
v -5.373544E-06 -1.099988 0.1999742
v -9.999973 1.099988 0.1999736
v -9.999973 1.099988 -0.1999751
v -5.346916E-06 1.099988 -0.1999744
v -5.373544E-06 1.099988 0.1999742
v -5.373544E-06 -1.099988 0.1999742
v -5.373544E-06 1.099988 0.1999742
v 10.00001 1.099988 0.1999749
v 10.00001 -1.099988 0.1999749
v -5.373544E-06 1.099988 0.1999742
v -5.346916E-06 1.099988 -0.1999744
v 10.00001 1.099988 -0.1999737
v 10.00001 1.099988 0.1999749
v 10.00001 -1.099988 0.1999749
v 10.00001 1.099988 0.1999749
v 20.00002 1.099988 0.1999756
v 20.00002 -1.099988 0.1999756
v 10.00001 1.099988 0.1999749
v 10.00001 1.099988 -0.1999737
v 20.00002 1.099988 -0.1999731
v 20.00002 1.099988 0.1999756
v 20.00002 -1.099988 0.1999756
v 20.00002 1.099988 0.1999756
v 20.00002 1.099988 -0.1999731
v 20.00002 -1.099988 -0.1999731

vn -0.7080078 0.0009775162 0.706543
vn -0.7080078 0.0009775162 0.706543
vn -0.7080078 0.0009775162 0.706543
vn -0.7080078 0.0009775162 0.706543
vn -0.0006914139 1 -0.0006914139
vn -0.0006914139 1 -0.0006914139
vn -0.0006914139 1 -0.0006914139
vn -0.0006914139 1 -0.0006914139
vn 0.706543 0.0009775162 -0.7080078
vn 0.706543 0.0009775162 -0.7080078
vn 0.706543 0.0009775162 -0.7080078
vn 0.706543 0.0009775162 -0.7080078
vn 0.706543 0.0009775162 -0.7080078
vn 0.706543 0.0009775162 -0.7080078
vn 0.706543 0.0009775162 -0.7080078
vn 0.706543 0.0009775162 -0.7080078
vn 0.706543 0.0009775162 -0.7080078
vn 0.706543 0.0009775162 -0.7080078
vn -0.7070313 0.0009775162 -0.7070313
vn -0.7070313 0.0009775162 -0.7070313
vn -0.7070313 0.0009775162 -0.7070313
vn -0.7070313 0.0009775162 -0.7070313
vn -0.7080078 0.0009775162 0.706543
vn -0.7080078 0.0009775162 0.706543
vn -0.7080078 0.0009775162 0.706543
vn -0.7080078 0.0009775162 0.706543
vn -0.0006914139 1 -0.0006914139
vn -0.0006914139 1 -0.0006914139
vn -0.0006914139 1 -0.0006914139
vn -0.0006914139 1 -0.0006914139
vn -0.7080078 0.0009775162 0.706543
vn -0.7080078 0.0009775162 0.706543
vn -0.7080078 0.0009775162 0.706543
vn -0.7080078 0.0009775162 0.706543
vn -0.0006914139 1 -0.0006914139
vn -0.0006914139 1 -0.0006914139
vn -0.0006914139 1 -0.0006914139
vn -0.0006914139 1 -0.0006914139
vn -0.7080078 0.0009775162 0.706543
vn -0.7080078 0.0009775162 0.706543
vn -0.7080078 0.0009775162 0.706543
vn -0.7080078 0.0009775162 0.706543
vn -0.0006914139 1 -0.0006914139
vn -0.0006914139 1 -0.0006914139
vn -0.0006914139 1 -0.0006914139
vn -0.0006914139 1 -0.0006914139
vn 0.7070313 0.0009775162 0.7070313
vn 0.7070313 0.0009775162 0.7070313
vn 0.7070313 0.0009775162 0.7070313
vn 0.7070313 0.0009775162 0.7070313

vt 0.4970703 0.001093864
vt 0.4970703 0.144165
vt 0.9741211 0.144043
vt 0.9741211 0.0009822845
vt 0.4970703 0.144165
vt 0.4970703 0.163208
vt 0.9741211 0.163208
vt 0.9741211 0.144043
vt 0.4780273 0.144165
vt 0.4780273 0.001093864
vt 0.0009822845 0.001194
vt 0.001015663 0.1442871
vt -0.4760742 0.001294136
vt -0.4760742 0.1444092
vt -0.953125 0.001405716
vt -0.953125 0.1445313
vt -1.429688 0.001505852
vt -1.429688 0.1446533
vt 0.4780273 0.001093864
vt 0.4780273 0.144165
vt 0.4970703 0.144165
vt 0.4970703 0.001093864
vt 0.4970703 0.001093864
vt 0.4970703 0.144165
vt 0.9741211 0.144043
vt 0.9741211 0.0009822845
vt 0.4970703 0.144165
vt 0.4970703 0.163208
vt 0.9741211 0.163208
vt 0.9741211 0.144043
vt 0.4970703 0.001093864
vt 0.4970703 0.144165
vt 0.9741211 0.144043
vt 0.9741211 0.0009822845
vt 0.4970703 0.144165
vt 0.4970703 0.163208
vt 0.9741211 0.163208
vt 0.9741211 0.144043
vt -1.925781 0.001617432
vt -1.925781 0.1446533
vt -1.449219 0.1446533
vt -1.449219 0.001505852
vt -1.925781 0.1446533
vt -1.925781 0.1638184
vt -1.449219 0.1636963
vt -1.449219 0.1446533
vt -1.449219 0.001505852
vt -1.449219 0.1446533
vt -1.429688 0.1446533
vt -1.429688 0.001505852

g TS_Concrete_Fence_Asembly_04_202076_72
usemtl TS_Concrete_Fence_Asembly_04_202076_72
usemap TS_Concrete_Fence_Asembly_04_202076_72
f 1/1/1 3/3/3 2/2/2
f 1/1/1 4/4/4 3/3/3
f 5/5/5 7/7/7 6/6/6
f 5/5/5 8/8/8 7/7/7
f 9/9/9 11/11/11 10/10/10
f 9/9/9 12/12/12 11/11/11
f 12/12/12 13/13/13 11/11/11
f 12/12/12 14/14/14 13/13/13
f 14/14/14 15/15/15 13/13/13
f 14/14/14 16/16/16 15/15/15
f 16/16/16 17/17/17 15/15/15
f 16/16/16 18/18/18 17/17/17
f 19/19/19 21/21/21 20/20/20
f 19/19/19 22/22/22 21/21/21
f 23/23/23 25/25/25 24/24/24
f 23/23/23 26/26/26 25/25/25
f 27/27/27 29/29/29 28/28/28
f 27/27/27 30/30/30 29/29/29
f 31/31/31 33/33/33 32/32/32
f 31/31/31 34/34/34 33/33/33
f 35/35/35 37/37/37 36/36/36
f 35/35/35 38/38/38 37/37/37
f 39/39/39 41/41/41 40/40/40
f 39/39/39 42/42/42 41/41/41
f 43/43/43 45/45/45 44/44/44
f 43/43/43 46/46/46 45/45/45
f 47/47/47 49/49/49 48/48/48
f 47/47/47 50/50/50 49/49/49
