#TS_Concrete_Fence_Asembly_04_202074_100.obj

v -20.00001 -1.099988 0.1999907
v -20.00003 1.099988 0.2000163
v -9.99999 1.099988 0.1999845
v -10.00001 -1.099988 0.200008
v -20.00003 1.099988 0.2000163
v -20.00002 1.099988 -0.1999672
v -10.00002 1.099988 -0.1999498
v -9.99999 1.099988 0.1999845
v -20.00002 1.099988 -0.1999672
v -20 -1.099988 -0.199997
v -10 -1.099988 -0.1999775
v -10.00002 1.099988 -0.1999498
v -2.395752E-05 -1.099988 -0.1999746
v -4.321654E-05 1.099988 -0.1999489
v 9.999971 -1.099988 -0.1999593
v 9.999992 1.099988 -0.1999808
v 20.00001 -1.099988 -0.1999912
v 19.99999 1.099988 -0.1999655
v -20 -1.099988 -0.199997
v -20.00002 1.099988 -0.1999672
v -20.00003 1.099988 0.2000163
v -20.00001 -1.099988 0.1999907
v -10.00001 -1.099988 0.200008
v -9.99999 1.099988 0.1999845
v -2.037989E-05 1.099988 0.1999833
v -3.414951E-05 -1.099988 0.2000089
v -9.99999 1.099988 0.1999845
v -10.00002 1.099988 -0.1999498
v -4.321654E-05 1.099988 -0.1999489
v -2.037989E-05 1.099988 0.1999833
v -3.414951E-05 -1.099988 0.2000089
v -2.037989E-05 1.099988 0.1999833
v 9.999982 1.099988 0.2000027
v 10 -1.099988 0.199977
v -2.037989E-05 1.099988 0.1999833
v -4.321654E-05 1.099988 -0.1999489
v 9.999992 1.099988 -0.1999808
v 9.999982 1.099988 0.2000027
v 10 -1.099988 0.199977
v 9.999982 1.099988 0.2000027
v 19.99998 1.099988 0.2000221
v 20 -1.099988 0.1999923
v 9.999982 1.099988 0.2000027
v 9.999992 1.099988 -0.1999808
v 19.99999 1.099988 -0.1999655
v 19.99998 1.099988 0.2000221
v 20 -1.099988 0.1999923
v 19.99998 1.099988 0.2000221
v 19.99999 1.099988 -0.1999655
v 20.00001 -1.099988 -0.1999912

vn -0.8413086 0.0005059242 0.5405273
vn -0.8413086 0.0005059242 0.5405273
vn -0.8413086 0.0005059242 0.5405273
vn -0.8413086 0.0005059242 0.5405273
vn -0.001180649 1 -0.0009632111
vn -0.001180649 1 -0.0009632111
vn -0.001180649 1 -0.0009632111
vn -0.001180649 1 -0.0009632111
vn 0.840332 0.001448631 -0.5419922
vn 0.840332 0.001448631 -0.5419922
vn 0.840332 0.001448631 -0.5419922
vn 0.840332 0.001448631 -0.5419922
vn 0.840332 0.001448631 -0.5419922
vn 0.840332 0.001448631 -0.5419922
vn 0.840332 0.001448631 -0.5419922
vn 0.840332 0.001448631 -0.5419922
vn 0.840332 0.001448631 -0.5419922
vn 0.840332 0.001448631 -0.5419922
vn -0.5410156 0.0005064011 -0.8408203
vn -0.5410156 0.0005064011 -0.8408203
vn -0.5410156 0.0005064011 -0.8408203
vn -0.5410156 0.0005064011 -0.8408203
vn -0.8413086 0.0005059242 0.5405273
vn -0.8413086 0.0005059242 0.5405273
vn -0.8413086 0.0005059242 0.5405273
vn -0.8413086 0.0005059242 0.5405273
vn -0.001180649 1 -0.0009632111
vn -0.001180649 1 -0.0009632111
vn -0.001180649 1 -0.0009632111
vn -0.001180649 1 -0.0009632111
vn -0.8413086 0.0005059242 0.5405273
vn -0.8413086 0.0005059242 0.5405273
vn -0.8413086 0.0005059242 0.5405273
vn -0.8413086 0.0005059242 0.5405273
vn -0.001180649 1 -0.0009632111
vn -0.001180649 1 -0.0009632111
vn -0.001180649 1 -0.0009632111
vn -0.001180649 1 -0.0009632111
vn -0.8413086 0.0005059242 0.5405273
vn -0.8413086 0.0005059242 0.5405273
vn -0.8413086 0.0005059242 0.5405273
vn -0.8413086 0.0005059242 0.5405273
vn -0.001180649 1 -0.0009632111
vn -0.001180649 1 -0.0009632111
vn -0.001180649 1 -0.0009632111
vn -0.001180649 1 -0.0009632111
vn 0.5410156 0.001448631 0.8408203
vn 0.5410156 0.001448631 0.8408203
vn 0.5410156 0.001448631 0.8408203
vn 0.5410156 0.001448631 0.8408203

vt 0.4970703 0.001093864
vt 0.4970703 0.144165
vt 0.9741211 0.144043
vt 0.9741211 0.0009822845
vt 0.4970703 0.144165
vt 0.4970703 0.163208
vt 0.9741211 0.163208
vt 0.9741211 0.144043
vt 0.4780273 0.144165
vt 0.4780273 0.001093864
vt 0.0009822845 0.001194
vt 0.001015663 0.1442871
vt -0.4760742 0.001294136
vt -0.4760742 0.1444092
vt -0.953125 0.001405716
vt -0.953125 0.1445313
vt -1.429688 0.001505852
vt -1.429688 0.1446533
vt 0.4780273 0.001093864
vt 0.4780273 0.144165
vt 0.4970703 0.144165
vt 0.4970703 0.001093864
vt 0.4970703 0.001093864
vt 0.4970703 0.144165
vt 0.9741211 0.144043
vt 0.9741211 0.0009822845
vt 0.4970703 0.144165
vt 0.4970703 0.163208
vt 0.9741211 0.163208
vt 0.9741211 0.144043
vt 0.4970703 0.001093864
vt 0.4970703 0.144165
vt 0.9741211 0.144043
vt 0.9741211 0.0009822845
vt 0.4970703 0.144165
vt 0.4970703 0.163208
vt 0.9741211 0.163208
vt 0.9741211 0.144043
vt -1.925781 0.001617432
vt -1.925781 0.1446533
vt -1.449219 0.1446533
vt -1.449219 0.001505852
vt -1.925781 0.1446533
vt -1.925781 0.1638184
vt -1.449219 0.1636963
vt -1.449219 0.1446533
vt -1.449219 0.001505852
vt -1.449219 0.1446533
vt -1.429688 0.1446533
vt -1.429688 0.001505852

g TS_Concrete_Fence_Asembly_04_202074_100
usemtl TS_Concrete_Fence_Asembly_04_202074_100
usemap TS_Concrete_Fence_Asembly_04_202074_100
f 1/1/1 3/3/3 2/2/2
f 1/1/1 4/4/4 3/3/3
f 5/5/5 7/7/7 6/6/6
f 5/5/5 8/8/8 7/7/7
f 9/9/9 11/11/11 10/10/10
f 9/9/9 12/12/12 11/11/11
f 12/12/12 13/13/13 11/11/11
f 12/12/12 14/14/14 13/13/13
f 14/14/14 15/15/15 13/13/13
f 14/14/14 16/16/16 15/15/15
f 16/16/16 17/17/17 15/15/15
f 16/16/16 18/18/18 17/17/17
f 19/19/19 21/21/21 20/20/20
f 19/19/19 22/22/22 21/21/21
f 23/23/23 25/25/25 24/24/24
f 23/23/23 26/26/26 25/25/25
f 27/27/27 29/29/29 28/28/28
f 27/27/27 30/30/30 29/29/29
f 31/31/31 33/33/33 32/32/32
f 31/31/31 34/34/34 33/33/33
f 35/35/35 37/37/37 36/36/36
f 35/35/35 38/38/38 37/37/37
f 39/39/39 41/41/41 40/40/40
f 39/39/39 42/42/42 41/41/41
f 43/43/43 45/45/45 44/44/44
f 43/43/43 46/46/46 45/45/45
f 47/47/47 49/49/49 48/48/48
f 47/47/47 50/50/50 49/49/49
