#TS_GasSTation_215136_3.obj

v -1.858399 2.492139 -7.710071
v -1.858421 2.951243 -7.699087
v -1.009107 2.951847 -7.699087
v -1.009129 2.492748 -7.725263
v -4.064785 0.1336537 -7.696692
v -4.064785 2.317502 -7.696994
v -1.980537 2.317501 -7.711926
v -1.980559 0.1336542 -7.719889
v -0.01545018 2.491046 -7.710675
v -0.01542861 2.950064 -7.697663
v 2.108417 2.94913 -7.69695
v 2.108417 2.490134 -7.695397
v 2.180275 2.489594 -7.695742
v 2.180275 2.948581 -7.696346
v 4.197411 2.948291 -7.696044
v 4.197411 2.489303 -7.696087
v -0.9358672 0.1339551 -7.744317
v -0.9358672 2.317802 -7.728737
v -0.1359268 2.317805 -7.714926
v -0.1359268 0.1339521 -7.722263
v -1.009646 0.1339551 -7.744339
v -1.809695 0.1339521 -7.722263
v -1.809716 2.317805 -7.714904
v -1.009646 2.317802 -7.728715
v -8.516787 2.489351 -10.01015
v -8.516787 2.948339 -10.01015
v -8.516765 2.948339 -8.004087
v -8.516765 2.489351 -8.004087
v 0.03493722 0.1336553 -7.719846
v 0.03493722 2.317502 -7.711905
v 2.108826 2.317468 -7.696497
v 2.108826 0.1336216 -7.696281
v 2.180448 0.1335487 -7.696001
v 2.180426 2.317395 -7.696109
v 4.197433 2.31735 -7.696065
v 4.197433 0.1335026 -7.696065
v -4.064332 2.49037 -7.695289
v -4.064332 2.949379 -7.697447
v -1.930215 2.950021 -7.697641
v -1.930193 2.491 -7.710697
v -0.9364067 2.492748 -7.725263
v -0.9364067 2.951848 -7.699065
v -0.08720098 2.951265 -7.699087
v -0.08724414 2.492164 -7.710092
v -8.516787 0.1335039 -10.01015
v -8.516787 2.317351 -10.01015
v -8.516765 2.31735 -8.004087
v -8.516765 0.1335039 -8.004087

vn -0.7001953 -0.04043579 0.7128906
vn -0.7001953 -0.04043579 0.7128906
vn -0.7001953 -0.04043579 0.7128906
vn -0.7001953 -0.04043579 0.7128906
vn -0.7006836 -0.0017519 0.7133789
vn -0.7006836 -0.0017519 0.7133789
vn -0.7006836 -0.0017519 0.7133789
vn -0.7006836 -0.0017519 0.7133789
vn -0.7094727 -0.01246643 0.7045898
vn -0.7094727 -0.01246643 0.7045898
vn -0.7094727 -0.01246643 0.7045898
vn -0.7094727 -0.01246643 0.7045898
vn -0.7070313 0.0006170273 0.7070313
vn -0.7070313 0.0006170273 0.7070313
vn -0.7070313 0.0006170273 0.7070313
vn -0.7070313 0.0006170273 0.7070313
vn -0.7226563 -0.005252838 0.690918
vn -0.7226563 -0.005252838 0.690918
vn -0.7226563 -0.005252838 0.690918
vn -0.7226563 -0.005252838 0.690918
vn -0.690918 -0.005252838 0.7226563
vn -0.690918 -0.005252838 0.7226563
vn -0.690918 -0.005252838 0.7226563
vn -0.690918 -0.005252838 0.7226563
vn -0.7070313 -2.861023E-06 -0.7070313
vn -0.7070313 -2.861023E-06 -0.7070313
vn -0.7070313 -2.861023E-06 -0.7070313
vn -0.7070313 -2.861023E-06 -0.7070313
vn -0.7138672 -0.001770973 0.7001953
vn -0.7138672 -0.001770973 0.7001953
vn -0.7138672 -0.001770973 0.7001953
vn -0.7138672 -0.001770973 0.7001953
vn -0.7070313 1.955032E-05 0.7070313
vn -0.7070313 1.955032E-05 0.7070313
vn -0.7070313 1.955032E-05 0.7070313
vn -0.7070313 1.955032E-05 0.7070313
vn -0.7045898 -0.01184845 0.7094727
vn -0.7045898 -0.01184845 0.7094727
vn -0.7045898 -0.01184845 0.7094727
vn -0.7045898 -0.01184845 0.7094727
vn -0.7128906 -0.04043579 0.7001953
vn -0.7128906 -0.04043579 0.7001953
vn -0.7128906 -0.04043579 0.7001953
vn -0.7128906 -0.04043579 0.7001953
vn -0.7070313 -1.192093E-07 -0.7070313
vn -0.7070313 -1.192093E-07 -0.7070313
vn -0.7070313 -1.192093E-07 -0.7070313
vn -0.7070313 -1.192093E-07 -0.7070313

vt 0.01387787 0.0112381
vt 0.01387787 0.1068726
vt 0.3037109 0.1068726
vt 0.3037109 0.0112381
vt 0.6474609 0.1395264
vt 0.6474609 0.3498535
vt 0.9370117 0.3498535
vt 0.9370117 0.1395264
vt 0.328125 0.0112381
vt 0.328125 0.1068726
vt 0.6176758 0.1068726
vt 0.6176758 0.0112381
vt 0.328125 0.0112381
vt 0.328125 0.1068726
vt 0.6176758 0.1068726
vt 0.6176758 0.0112381
vt 0.3322754 0.1395264
vt 0.3322754 0.3498535
vt 0.6220703 0.3498535
vt 0.6220703 0.1395264
vt 0.3322754 0.1395264
vt 0.3322754 0.3498535
vt 0.6220703 0.3498535
vt 0.6220703 0.1395264
vt 0.328125 0.0112381
vt 0.328125 0.1068726
vt 0.6176758 0.1068726
vt 0.6176758 0.0112381
vt 0.3322754 0.1395264
vt 0.3322754 0.3498535
vt 0.6220703 0.3498535
vt 0.6220703 0.1395264
vt 0.3322754 0.1395264
vt 0.3322754 0.3498535
vt 0.6220703 0.3498535
vt 0.6220703 0.1395264
vt 0.328125 0.0112381
vt 0.328125 0.1068726
vt 0.6176758 0.1068726
vt 0.6176758 0.0112381
vt 0.328125 0.0112381
vt 0.328125 0.1068726
vt 0.6176758 0.1068726
vt 0.6176758 0.0112381
vt 0.3322754 0.1395264
vt 0.3322754 0.3498535
vt 0.6220703 0.3498535
vt 0.6220703 0.1395264

g TS_GasSTation_215136_3
usemtl TS_GasSTation_215136_3
usemap TS_GasSTation_215136_3
f 1/1/1 3/3/3 2/2/2
f 1/1/1 4/4/4 3/3/3
f 5/5/5 7/7/7 6/6/6
f 5/5/5 8/8/8 7/7/7
f 9/9/9 11/11/11 10/10/10
f 9/9/9 12/12/12 11/11/11
f 13/13/13 15/15/15 14/14/14
f 13/13/13 16/16/16 15/15/15
f 17/17/17 19/19/19 18/18/18
f 17/17/17 20/20/20 19/19/19
f 21/21/21 23/23/23 22/22/22
f 21/21/21 24/24/24 23/23/23
f 25/25/25 27/27/27 26/26/26
f 25/25/25 28/28/28 27/27/27
f 29/29/29 31/31/31 30/30/30
f 29/29/29 32/32/32 31/31/31
f 33/33/33 35/35/35 34/34/34
f 33/33/33 36/36/36 35/35/35
f 37/37/37 39/39/39 38/38/38
f 37/37/37 40/40/40 39/39/39
f 41/41/41 43/43/43 42/42/42
f 41/41/41 44/44/44 43/43/43
f 45/45/45 47/47/47 46/46/46
f 45/45/45 48/48/48 47/47/47
