#TS_Highway_Walls_212170_3.obj

v 80.00994 2.259889 -19.24443
v 80.00993 2.259889 -15.37523
v 40.00493 2.259889 -15.37523
v 40.00493 2.259889 -19.24442
v 6.345628E-05 2.259889 -19.24443
v 6.371389E-05 2.259889 -15.37523
v -40.00494 2.259889 -19.24442
v -40.00496 2.259889 -15.37522
v -80.00996 2.259889 -19.24441
v -80.00996 2.259889 -15.37522
v 40.00493 -9.513742 -15.37523
v 40.00493 2.259889 -15.37523
v 80.00993 2.259889 -15.37523
v 80.00993 -9.513742 -15.37523
v 6.371389E-05 -9.513742 -15.37523
v 6.371389E-05 2.259889 -15.37523
v -40.00496 -9.513742 -15.37522
v -40.00496 2.259889 -15.37522
v -80.00996 -9.513742 -15.37522
v -80.00996 2.259889 -15.37522
v 80.00993 -9.513742 -15.37523
v 80.00993 2.259889 -15.37523
v 80.00994 2.259889 -19.24443
v 80.00994 -9.513742 -19.24443
v 40.00493 -9.513742 -19.24442
v 80.00994 -9.513742 -19.24443
v 80.00994 2.259889 -19.24443
v 40.00493 2.259889 -19.24442
v 6.345628E-05 -9.513742 -19.24443
v 6.345628E-05 2.259889 -19.24443
v -40.00494 -9.513742 -19.24442
v -40.00494 2.259889 -19.24442
v -80.00996 -9.513742 -19.24441
v -80.00996 2.259889 -19.24441
v -80.00996 -9.513742 -15.37522
v -80.00996 -9.513742 -19.24441
v -80.00996 2.259889 -19.24441
v -80.00996 2.259889 -15.37522
v -80.00996 2.259889 19.24444
v -80.00996 2.259889 15.37525
v -40.00495 2.259889 15.37525
v -40.00495 2.259889 19.24444
v -7.424588E-05 2.259889 19.24444
v -7.450348E-05 2.259889 15.37525
v 40.00493 2.259889 19.24443
v 40.00493 2.259889 15.37524
v 80.00994 2.259889 19.24443
v 80.00994 2.259889 15.37524
v -40.00495 -9.513742 15.37525
v -40.00495 2.259889 15.37525
v -80.00996 2.259889 15.37525
v -80.00996 -9.513742 15.37525
v -7.450348E-05 -9.513742 15.37525
v -7.450348E-05 2.259889 15.37525
v 40.00493 -9.513742 15.37524
v 40.00493 2.259889 15.37524
v 80.00994 -9.513742 15.37524
v 80.00994 2.259889 15.37524
v -80.00996 -9.513742 15.37525
v -80.00996 2.259889 15.37525
v -80.00996 2.259889 19.24444
v -80.00996 -9.513742 19.24444
v -40.00495 -9.513742 19.24444
v -80.00996 -9.513742 19.24444
v -80.00996 2.259889 19.24444
v -40.00495 2.259889 19.24444
v -7.424588E-05 -9.513742 19.24444
v -7.424588E-05 2.259889 19.24444
v 40.00493 -9.513742 19.24443
v 40.00493 2.259889 19.24443
v 80.00994 -9.513742 19.24443
v 80.00994 2.259889 19.24443
v 80.00994 -9.513742 15.37524
v 80.00994 -9.513742 19.24443
v 80.00994 2.259889 19.24443
v 80.00994 2.259889 15.37524

vn -0.0006914139 1 0.0006914139
vn -0.0006914139 1 0.0006914139
vn -0.0006914139 1 0.0006914139
vn -0.0006914139 1 0.0006914139
vn -0.0006914139 1 0.0006914139
vn -0.0006914139 1 0.0006914139
vn -0.0006914139 1 0.0006914139
vn -0.0006914139 1 0.0006914139
vn -0.0006914139 1 0.0006914139
vn -0.0006914139 1 0.0006914139
vn 0.706543 0.0009775162 0.7080078
vn 0.706543 0.0009775162 0.7080078
vn 0.706543 0.0009775162 0.7080078
vn 0.706543 0.0009775162 0.7080078
vn 0.706543 0.0009775162 0.7080078
vn 0.706543 0.0009775162 0.7080078
vn 0.706543 0.0009775162 0.7080078
vn 0.706543 0.0009775162 0.7080078
vn 0.706543 0.0009775162 0.7080078
vn 0.706543 0.0009775162 0.7080078
vn 0.7070313 0.0009775162 -0.7070313
vn 0.7070313 0.0009775162 -0.7070313
vn 0.7070313 0.0009775162 -0.7070313
vn 0.7070313 0.0009775162 -0.7070313
vn -0.7080078 0.0009775162 -0.706543
vn -0.7080078 0.0009775162 -0.706543
vn -0.7080078 0.0009775162 -0.706543
vn -0.7080078 0.0009775162 -0.706543
vn -0.7080078 0.0009775162 -0.706543
vn -0.7080078 0.0009775162 -0.706543
vn -0.7080078 0.0009775162 -0.706543
vn -0.7080078 0.0009775162 -0.706543
vn -0.7080078 0.0009775162 -0.706543
vn -0.7080078 0.0009775162 -0.706543
vn -0.7070313 0.0009775162 0.7070313
vn -0.7070313 0.0009775162 0.7070313
vn -0.7070313 0.0009775162 0.7070313
vn -0.7070313 0.0009775162 0.7070313
vn -0.0006914139 1 0.0006914139
vn -0.0006914139 1 0.0006914139
vn -0.0006914139 1 0.0006914139
vn -0.0006914139 1 0.0006914139
vn -0.0006914139 1 0.0006914139
vn -0.0006914139 1 0.0006914139
vn -0.0006914139 1 0.0006914139
vn -0.0006914139 1 0.0006914139
vn -0.0006914139 1 0.0006914139
vn -0.0006914139 1 0.0006914139
vn -0.7080078 0.0009775162 -0.706543
vn -0.7080078 0.0009775162 -0.706543
vn -0.7080078 0.0009775162 -0.706543
vn -0.7080078 0.0009775162 -0.706543
vn -0.7080078 0.0009775162 -0.706543
vn -0.7080078 0.0009775162 -0.706543
vn -0.7080078 0.0009775162 -0.706543
vn -0.7080078 0.0009775162 -0.706543
vn -0.7080078 0.0009775162 -0.706543
vn -0.7080078 0.0009775162 -0.706543
vn -0.7070313 0.0009775162 0.7070313
vn -0.7070313 0.0009775162 0.7070313
vn -0.7070313 0.0009775162 0.7070313
vn -0.7070313 0.0009775162 0.7070313
vn 0.706543 0.0009775162 0.7080078
vn 0.706543 0.0009775162 0.7080078
vn 0.706543 0.0009775162 0.7080078
vn 0.706543 0.0009775162 0.7080078
vn 0.706543 0.0009775162 0.7080078
vn 0.706543 0.0009775162 0.7080078
vn 0.706543 0.0009775162 0.7080078
vn 0.706543 0.0009775162 0.7080078
vn 0.706543 0.0009775162 0.7080078
vn 0.706543 0.0009775162 0.7080078
vn 0.7070313 0.0009775162 -0.7070313
vn 0.7070313 0.0009775162 -0.7070313
vn 0.7070313 0.0009775162 -0.7070313
vn 0.7070313 0.0009775162 -0.7070313

vt 0.8945313 0.007904053
vt 0.8686523 0.007949829
vt 0.8686523 0.2144775
vt 0.8945313 0.2144775
vt 0.8950195 0.4211426
vt 0.8691406 0.4211426
vt 0.8950195 0.6279297
vt 0.8691406 0.6279297
vt 0.8950195 0.8344727
vt 0.8691406 0.8344727
vt 0.8081055 0.2145996
vt 0.8686523 0.2144775
vt 0.8686523 0.007949829
vt 0.8076172 0.008041382
vt 0.8081055 0.4213867
vt 0.8691406 0.4211426
vt 0.8085938 0.6279297
vt 0.8691406 0.6279297
vt 0.8085938 0.8344727
vt 0.8691406 0.8344727
vt 0.496582 0.7900391
vt 0.496582 0.6953125
vt 0.456543 0.6953125
vt 0.456543 0.7900391
vt 0.4399414 0.9453125
vt 0.5839844 0.9453125
vt 0.5839844 0.902832
vt 0.4399414 0.902832
vt 0.2958984 0.9458008
vt 0.2956543 0.9033203
vt 0.1514893 0.9458008
vt 0.1513672 0.9033203
vt 0.007164001 0.9458008
vt 0.007133484 0.9033203
vt 0.4013672 0.6953125
vt 0.3613281 0.6953125
vt 0.3613281 0.7900391
vt 0.4013672 0.7900391
vt 0.9931641 0.007904053
vt 0.9672852 0.007949829
vt 0.9677734 0.2144775
vt 0.9936523 0.2144775
vt 0.9936523 0.4211426
vt 0.9682617 0.4211426
vt 0.9941406 0.6279297
vt 0.9682617 0.6279297
vt 0.9941406 0.8344727
vt 0.9682617 0.8344727
vt 0.9067383 0.2145996
vt 0.9677734 0.2144775
vt 0.9672852 0.007949829
vt 0.9067383 0.008041382
vt 0.9072266 0.4213867
vt 0.9682617 0.4211426
vt 0.9072266 0.6279297
vt 0.9682617 0.6279297
vt 0.9072266 0.8344727
vt 0.9682617 0.8344727
vt 0.4489746 0.7900391
vt 0.4489746 0.6953125
vt 0.4089355 0.6953125
vt 0.4089355 0.7900391
vt 0.4399414 0.9960938
vt 0.5839844 0.9960938
vt 0.5839844 0.9536133
vt 0.4399414 0.9536133
vt 0.2958984 0.9960938
vt 0.2956543 0.9536133
vt 0.1514893 0.996582
vt 0.1513672 0.9541016
vt 0.007164001 0.996582
vt 0.007133484 0.9541016
vt 0.3540039 0.6953125
vt 0.3139648 0.6953125
vt 0.3139648 0.7900391
vt 0.3540039 0.7900391

g TS_Highway_Walls_212170_3
usemtl TS_Highway_Walls_212170_3
usemap TS_Highway_Walls_212170_3
f 1/1/1 3/3/3 2/2/2
f 1/1/1 4/4/4 3/3/3
f 3/3/3 4/4/4 5/5/5
f 3/3/3 5/5/5 6/6/6
f 6/6/6 5/5/5 7/7/7
f 6/6/6 7/7/7 8/8/8
f 8/8/8 7/7/7 9/9/9
f 8/8/8 9/9/9 10/10/10
f 11/11/11 13/13/13 12/12/12
f 11/11/11 14/14/14 13/13/13
f 15/15/15 11/11/11 12/12/12
f 15/15/15 12/12/12 16/16/16
f 17/17/17 15/15/15 16/16/16
f 17/17/17 16/16/16 18/18/18
f 19/19/19 17/17/17 18/18/18
f 19/19/19 18/18/18 20/20/20
f 21/21/21 23/23/23 22/22/22
f 21/21/21 24/24/24 23/23/23
f 25/25/25 27/27/27 26/26/26
f 25/25/25 28/28/28 27/27/27
f 29/29/29 28/28/28 25/25/25
f 29/29/29 30/30/30 28/28/28
f 31/31/31 30/30/30 29/29/29
f 31/31/31 32/32/32 30/30/30
f 33/33/33 32/32/32 31/31/31
f 33/33/33 34/34/34 32/32/32
f 35/35/35 37/37/37 36/36/36
f 35/35/35 38/38/38 37/37/37
f 39/39/39 41/41/41 40/40/40
f 39/39/39 42/42/42 41/41/41
f 41/41/41 42/42/42 43/43/43
f 41/41/41 43/43/43 44/44/44
f 44/44/44 43/43/43 45/45/45
f 44/44/44 45/45/45 46/46/46
f 46/46/46 45/45/45 47/47/47
f 46/46/46 47/47/47 48/48/48
f 49/49/49 51/51/51 50/50/50
f 49/49/49 52/52/52 51/51/51
f 53/53/53 49/49/49 50/50/50
f 53/53/53 50/50/50 54/54/54
f 55/55/55 53/53/53 54/54/54
f 55/55/55 54/54/54 56/56/56
f 57/57/57 55/55/55 56/56/56
f 57/57/57 56/56/56 58/58/58
f 59/59/59 61/61/61 60/60/60
f 59/59/59 62/62/62 61/61/61
f 63/63/63 65/65/65 64/64/64
f 63/63/63 66/66/66 65/65/65
f 67/67/67 66/66/66 63/63/63
f 67/67/67 68/68/68 66/66/66
f 69/69/69 68/68/68 67/67/67
f 69/69/69 70/70/70 68/68/68
f 71/71/71 70/70/70 69/69/69
f 71/71/71 72/72/72 70/70/70
f 73/73/73 75/75/75 74/74/74
f 73/73/73 76/76/76 75/75/75
