#TS_LA_Fence_Metal_215767_132.obj

v -4.000005 3.814701E-06 0.03421249
v -4.000005 1.999998 0.03421249
v 4.000003 1.999998 0.03421402
v 4.000003 3.814701E-06 0.03421402
v -4.000003 3.814701E-06 -0.03421402
v 4.000005 3.814701E-06 -0.03421249
v 4.000005 1.999998 -0.03421249
v -4.000003 1.999998 -0.03421402
v -4.000003 3.814701E-06 -0.03421402
v -4.000003 1.999998 -0.03421402
v -4.000005 1.999998 0.03421249
v -4.000005 3.814701E-06 0.03421249
v -4.000003 1.999998 -0.03421402
v 4.000005 1.999998 -0.03421249
v 4.000003 1.999998 0.03421402
v -4.000005 1.999998 0.03421249
v 4.000005 1.999998 -0.03421249
v 4.000005 3.814701E-06 -0.03421249
v 4.000003 3.814701E-06 0.03421402
v 4.000003 1.999998 0.03421402

vn 0.9765625 0.0009775162 0.2154541
vn 0.9765625 0.0009775162 0.2154541
vn 0.9765625 0.0009775162 0.2154541
vn 0.9765625 0.0009775162 0.2154541
vn -0.9770508 0.0009775162 -0.213501
vn -0.9770508 0.0009775162 -0.213501
vn -0.9770508 0.0009775162 -0.213501
vn -0.9770508 0.0009775162 -0.213501
vn -0.2144775 0.0009775162 0.9765625
vn -0.2144775 0.0009775162 0.9765625
vn -0.2144775 0.0009775162 0.9765625
vn -0.2144775 0.0009775162 0.9765625
vn -0.0002096891 1 0.000954628
vn -0.0002096891 1 0.000954628
vn -0.0002096891 1 0.000954628
vn -0.0002096891 1 0.000954628
vn 0.2144775 0.0009775162 -0.9765625
vn 0.2144775 0.0009775162 -0.9765625
vn 0.2144775 0.0009775162 -0.9765625
vn 0.2144775 0.0009775162 -0.9765625

vt -1.609325E-06 0.3291016
vt -1.609325E-06 0.4916992
vt 1 0.4916992
vt 1 0.3291016
vt -1.609325E-06 0.3291016
vt 1 0.3291016
vt 1 0.4916992
vt -1.609325E-06 0.4916992
vt 0.9267578 0.4885254
vt 0.7597656 0.4885254
vt 0.7597656 0.4909668
vt 0.9267578 0.4909668
vt 0.7597656 0.4885254
vt 0.09350586 0.4885254
vt 0.09350586 0.4909668
vt 0.7597656 0.4909668
vt 0.09350586 0.4885254
vt -0.07324219 0.4887695
vt -0.07324219 0.4912109
vt 0.09350586 0.4909668

g TS_LA_Fence_Metal_215767_132
usemtl TS_LA_Fence_Metal_215767_132
usemap TS_LA_Fence_Metal_215767_132
f 1/1/1 3/3/3 2/2/2
f 1/1/1 4/4/4 3/3/3
f 5/5/5 7/7/7 6/6/6
f 5/5/5 8/8/8 7/7/7
f 9/9/9 11/11/11 10/10/10
f 9/9/9 12/12/12 11/11/11
f 13/13/13 15/15/15 14/14/14
f 13/13/13 16/16/16 15/15/15
f 17/17/17 19/19/19 18/18/18
f 17/17/17 20/20/20 19/19/19
