#TS_LA_Fence_Metal8_209510_98.obj

v 24 1.999994 -0.03422137
v 24 2.288818E-05 -0.03422137
v 24 2.288818E-05 0.03420048
v 24 1.999994 0.03420048
v -24 2.288818E-05 0.03422149
v -24 1.999994 0.03422149
v 24 1.999994 0.03420048
v 24 2.288818E-05 0.03420048
v -24 2.288818E-05 -0.03420035
v 24 2.288818E-05 -0.03422137
v 24 1.999994 -0.03422137
v -24 1.999994 -0.03420035
v -24 2.288818E-05 -0.03420035
v -24 1.999994 -0.03420035
v -24 1.999994 0.03422149
v -24 2.288818E-05 0.03422149
v -24 1.999994 -0.03420035
v 24 1.999994 -0.03422137
v 24 1.999994 0.03420048
v -24 1.999994 0.03422149

vn 0.1760254 0.0009775162 -0.984375
vn 0.1760254 0.0009775162 -0.984375
vn 0.1760254 0.0009775162 -0.984375
vn 0.1760254 0.0009775162 -0.984375
vn 0.984375 0.0009775162 0.177002
vn 0.984375 0.0009775162 0.177002
vn 0.984375 0.0009775162 0.177002
vn 0.984375 0.0009775162 0.177002
vn -0.984375 0.0009775162 -0.1751709
vn -0.984375 0.0009775162 -0.1751709
vn -0.984375 0.0009775162 -0.1751709
vn -0.984375 0.0009775162 -0.1751709
vn -0.1760254 0.0009775162 0.984375
vn -0.1760254 0.0009775162 0.984375
vn -0.1760254 0.0009775162 0.984375
vn -0.1760254 0.0009775162 0.984375
vn -0.0001721382 1 0.0009622574
vn -0.0001721382 1 0.0009622574
vn -0.0001721382 1 0.0009622574
vn -0.0001721382 1 0.0009622574

vt 0.09350586 0.4885254
vt -0.07324219 0.4887695
vt -0.07324219 0.4912109
vt 0.09350586 0.4909668
vt -3.607422 0.3291016
vt -3.607422 0.4916992
vt 1 0.4916992
vt 1 0.3291016
vt -3.607422 0.3291016
vt 1 0.3291016
vt 1 0.4916992
vt -3.607422 0.4916992
vt 0.9267578 0.4885254
vt 0.7597656 0.4885254
vt 0.7597656 0.4909668
vt 0.9267578 0.4909668
vt 0.7597656 0.4885254
vt 0.09350586 0.4885254
vt 0.09350586 0.4909668
vt 0.7597656 0.4909668

g TS_LA_Fence_Metal8_209510_98
usemtl TS_LA_Fence_Metal8_209510_98
usemap TS_LA_Fence_Metal8_209510_98
f 1/1/1 3/3/3 2/2/2
f 1/1/1 4/4/4 3/3/3
f 5/5/5 7/7/7 6/6/6
f 5/5/5 8/8/8 7/7/7
f 9/9/9 11/11/11 10/10/10
f 9/9/9 12/12/12 11/11/11
f 13/13/13 15/15/15 14/14/14
f 13/13/13 16/16/16 15/15/15
f 17/17/17 19/19/19 18/18/18
f 17/17/17 20/20/20 19/19/19
