#TS_LA_Fence_Metal5_205100_116.obj

v 12 2.000006 -0.03421549
v 12 1.14441E-05 -0.03421549
v 12 1.14441E-05 0.03419226
v 12 2.000006 0.03419226
v -12 1.14441E-05 0.03421549
v -12 2.000006 0.03421549
v 12 2.000006 0.03419226
v 12 1.14441E-05 0.03419226
v -12 1.14441E-05 -0.03419226
v 12 1.14441E-05 -0.03421549
v 12 2.000006 -0.03421549
v -12 2.000006 -0.03419226
v -12 1.14441E-05 -0.03419226
v -12 2.000006 -0.03419226
v -12 2.000006 0.03421549
v -12 1.14441E-05 0.03421549
v -12 2.000006 -0.03419226
v 12 2.000006 -0.03421549
v 12 2.000006 0.03419226
v -12 2.000006 0.03421549

vn 0.08752441 0.0009775162 -0.9960938
vn 0.08752441 0.0009775162 -0.9960938
vn 0.08752441 0.0009775162 -0.9960938
vn 0.08752441 0.0009775162 -0.9960938
vn 0.9960938 0.0009775162 0.08850098
vn 0.9960938 0.0009775162 0.08850098
vn 0.9960938 0.0009775162 0.08850098
vn 0.9960938 0.0009775162 0.08850098
vn -0.9960938 0.0009775162 -0.08660889
vn -0.9960938 0.0009775162 -0.08660889
vn -0.9960938 0.0009775162 -0.08660889
vn -0.9960938 0.0009775162 -0.08660889
vn -0.08752441 0.0009775162 0.9960938
vn -0.08752441 0.0009775162 0.9960938
vn -0.08752441 0.0009775162 0.9960938
vn -0.08752441 0.0009775162 0.9960938
vn -8.559227E-05 1 0.0009737015
vn -8.559227E-05 1 0.0009737015
vn -8.559227E-05 1 0.0009737015
vn -8.559227E-05 1 0.0009737015

vt 0.09350586 0.4885254
vt -0.07324219 0.4887695
vt -0.07324219 0.4912109
vt 0.09350586 0.4909668
vt -1.473633 0.3291016
vt -1.473633 0.4916992
vt 1 0.4916992
vt 1 0.3291016
vt -1.473633 0.3291016
vt 1 0.3291016
vt 1 0.4916992
vt -1.473633 0.4916992
vt 0.9267578 0.4885254
vt 0.7597656 0.4885254
vt 0.7597656 0.4909668
vt 0.9267578 0.4909668
vt 0.7597656 0.4885254
vt 0.09350586 0.4885254
vt 0.09350586 0.4909668
vt 0.7597656 0.4909668

g TS_LA_Fence_Metal5_205100_116
usemtl TS_LA_Fence_Metal5_205100_116
usemap TS_LA_Fence_Metal5_205100_116
f 1/1/1 3/3/3 2/2/2
f 1/1/1 4/4/4 3/3/3
f 5/5/5 7/7/7 6/6/6
f 5/5/5 8/8/8 7/7/7
f 9/9/9 11/11/11 10/10/10
f 9/9/9 12/12/12 11/11/11
f 13/13/13 15/15/15 14/14/14
f 13/13/13 16/16/16 15/15/15
f 17/17/17 19/19/19 18/18/18
f 17/17/17 20/20/20 19/19/19
