#TS_LA_Fence_Metal1_216727_105.obj

v -4.000005 3.814697E-06 0.03421827
v -4.000005 1.999998 0.03421827
v 4 1.999998 0.03421843
v 4 3.814697E-06 0.03421843
v -4 3.814697E-06 -0.03421843
v 4.000005 3.814697E-06 -0.03421827
v 4.000005 1.999998 -0.03421827
v -4 1.999998 -0.03421843
v -4 3.814697E-06 -0.03421843
v -4 1.999998 -0.03421843
v -4.000005 1.999998 0.03421827
v -4.000005 3.814697E-06 0.03421827
v -4 1.999998 -0.03421843
v 4.000005 1.999998 -0.03421827
v 4 1.999998 0.03421843
v -4.000005 1.999998 0.03421827
v 4.000005 1.999998 -0.03421827
v 4.000005 3.814697E-06 -0.03421827
v 4 3.814697E-06 0.03421843
v 4 1.999998 0.03421843

vn -0.9863281 0.0009775162 0.1662598
vn -0.9863281 0.0009775162 0.1662598
vn -0.9863281 0.0009775162 0.1662598
vn -0.9863281 0.0009775162 0.1662598
vn 0.9858398 0.0009775162 -0.1680908
vn 0.9858398 0.0009775162 -0.1680908
vn 0.9858398 0.0009775162 -0.1680908
vn 0.9858398 0.0009775162 -0.1680908
vn -0.1671143 0.0009775162 -0.9858398
vn -0.1671143 0.0009775162 -0.9858398
vn -0.1671143 0.0009775162 -0.9858398
vn -0.1671143 0.0009775162 -0.9858398
vn -0.0001634359 1 -0.0009636879
vn -0.0001634359 1 -0.0009636879
vn -0.0001634359 1 -0.0009636879
vn -0.0001634359 1 -0.0009636879
vn 0.1671143 0.0009775162 0.9858398
vn 0.1671143 0.0009775162 0.9858398
vn 0.1671143 0.0009775162 0.9858398
vn 0.1671143 0.0009775162 0.9858398

vt 3.635883E-06 0.166626
vt 3.635883E-06 0.3293457
vt 1 0.3293457
vt 1 0.166626
vt 3.635883E-06 0.166626
vt 1 0.166626
vt 1 0.3293457
vt 3.635883E-06 0.3293457
vt 0.8017578 0.1672363
vt 0.6352539 0.1672363
vt 0.6352539 0.1748047
vt 0.8017578 0.1748047
vt 0.6352539 0.1672363
vt -0.03149414 0.1674805
vt -0.03149414 0.1749268
vt 0.6352539 0.1748047
vt -0.03149414 0.1674805
vt -0.1982422 0.1677246
vt -0.1982422 0.175293
vt -0.03149414 0.1749268

g TS_LA_Fence_Metal1_216727_105
usemtl TS_LA_Fence_Metal1_216727_105
usemap TS_LA_Fence_Metal1_216727_105
f 1/1/1 3/3/3 2/2/2
f 1/1/1 4/4/4 3/3/3
f 5/5/5 7/7/7 6/6/6
f 5/5/5 8/8/8 7/7/7
f 9/9/9 11/11/11 10/10/10
f 9/9/9 12/12/12 11/11/11
f 13/13/13 15/15/15 14/14/14
f 13/13/13 16/16/16 15/15/15
f 17/17/17 19/19/19 18/18/18
f 17/17/17 20/20/20 19/19/19
