#TS_LA_Fence_Metal5_205107_142.obj

v 12 2.000006 -0.03422286
v 12 1.14441E-05 -0.03422286
v 12.00001 1.14441E-05 0.03421262
v 12.00001 2.000006 0.03421262
v -12 1.14441E-05 0.03422286
v -12 2.000006 0.03422286
v 12.00001 2.000006 0.03421262
v 12.00001 1.14441E-05 0.03421262
v -12.00001 1.14441E-05 -0.03421262
v 12 1.14441E-05 -0.03422286
v 12 2.000006 -0.03422286
v -12.00001 2.000006 -0.03421262
v -12.00001 1.14441E-05 -0.03421262
v -12.00001 2.000006 -0.03421262
v -12 2.000006 0.03422286
v -12 1.14441E-05 0.03422286
v -12.00001 2.000006 -0.03421262
v 12 2.000006 -0.03422286
v 12.00001 2.000006 0.03421262
v -12 2.000006 0.03422286

vn 0.5634766 0.0009775162 -0.8261719
vn 0.5634766 0.0009775162 -0.8261719
vn 0.5634766 0.0009775162 -0.8261719
vn 0.5634766 0.0009775162 -0.8261719
vn 0.8256836 0.0009775162 0.5639648
vn 0.8256836 0.0009775162 0.5639648
vn 0.8256836 0.0009775162 0.5639648
vn 0.8256836 0.0009775162 0.5639648
vn -0.8266602 0.0009775162 -0.5625
vn -0.8266602 0.0009775162 -0.5625
vn -0.8266602 0.0009775162 -0.5625
vn -0.8266602 0.0009775162 -0.5625
vn -0.5634766 0.0009775162 0.8261719
vn -0.5634766 0.0009775162 0.8261719
vn -0.5634766 0.0009775162 0.8261719
vn -0.5634766 0.0009775162 0.8261719
vn -0.0005507469 1 0.0008077621
vn -0.0005507469 1 0.0008077621
vn -0.0005507469 1 0.0008077621
vn -0.0005507469 1 0.0008077621

vt 0.09350586 0.4885254
vt -0.07324219 0.4887695
vt -0.07324219 0.4912109
vt 0.09350586 0.4909668
vt -1.473633 0.3291016
vt -1.473633 0.4916992
vt 1 0.4916992
vt 1 0.3291016
vt -1.473633 0.3291016
vt 1 0.3291016
vt 1 0.4916992
vt -1.473633 0.4916992
vt 0.9267578 0.4885254
vt 0.7597656 0.4885254
vt 0.7597656 0.4909668
vt 0.9267578 0.4909668
vt 0.7597656 0.4885254
vt 0.09350586 0.4885254
vt 0.09350586 0.4909668
vt 0.7597656 0.4909668

g TS_LA_Fence_Metal5_205107_142
usemtl TS_LA_Fence_Metal5_205107_142
usemap TS_LA_Fence_Metal5_205107_142
f 1/1/1 3/3/3 2/2/2
f 1/1/1 4/4/4 3/3/3
f 5/5/5 7/7/7 6/6/6
f 5/5/5 8/8/8 7/7/7
f 9/9/9 11/11/11 10/10/10
f 9/9/9 12/12/12 11/11/11
f 13/13/13 15/15/15 14/14/14
f 13/13/13 16/16/16 15/15/15
f 17/17/17 19/19/19 18/18/18
f 17/17/17 20/20/20 19/19/19
