#TS_LA_Fence_Metal_215776_124.obj

v -4.00001 3.814701E-06 0.0342074
v -4.00001 1.999998 0.0342074
v 3.999994 1.999998 0.0342136
v 3.999994 3.814701E-06 0.0342136
v -3.999994 3.814701E-06 -0.0342136
v 4.00001 3.814701E-06 -0.0342074
v 4.00001 1.999998 -0.0342074
v -3.999994 1.999998 -0.0342136
v -3.999994 3.814701E-06 -0.0342136
v -3.999994 1.999998 -0.0342136
v -4.00001 1.999998 0.0342074
v -4.00001 3.814701E-06 0.0342074
v -3.999994 1.999998 -0.0342136
v 4.00001 1.999998 -0.0342074
v 3.999994 1.999998 0.0342136
v -4.00001 1.999998 0.0342074
v 4.00001 1.999998 -0.0342074
v 4.00001 3.814701E-06 -0.0342074
v 3.999994 3.814701E-06 0.0342136
v 3.999994 1.999998 0.0342136

vn 0.4030762 0.0009775162 0.9150391
vn 0.4030762 0.0009775162 0.9150391
vn 0.4030762 0.0009775162 0.9150391
vn 0.4030762 0.0009775162 0.9150391
vn -0.4047852 0.0009775162 -0.9145508
vn -0.4047852 0.0009775162 -0.9145508
vn -0.4047852 0.0009775162 -0.9145508
vn -0.4047852 0.0009775162 -0.9145508
vn -0.9150391 0.0009775162 0.4038086
vn -0.9150391 0.0009775162 0.4038086
vn -0.9150391 0.0009775162 0.4038086
vn -0.9150391 0.0009775162 0.4038086
vn -0.0008940697 1 0.0003948212
vn -0.0008940697 1 0.0003948212
vn -0.0008940697 1 0.0003948212
vn -0.0008940697 1 0.0003948212
vn 0.9150391 0.0009775162 -0.4038086
vn 0.9150391 0.0009775162 -0.4038086
vn 0.9150391 0.0009775162 -0.4038086
vn 0.9150391 0.0009775162 -0.4038086

vt -1.609325E-06 0.3291016
vt -1.609325E-06 0.4916992
vt 1 0.4916992
vt 1 0.3291016
vt -1.609325E-06 0.3291016
vt 1 0.3291016
vt 1 0.4916992
vt -1.609325E-06 0.4916992
vt 0.9267578 0.4885254
vt 0.7597656 0.4885254
vt 0.7597656 0.4909668
vt 0.9267578 0.4909668
vt 0.7597656 0.4885254
vt 0.09350586 0.4885254
vt 0.09350586 0.4909668
vt 0.7597656 0.4909668
vt 0.09350586 0.4885254
vt -0.07324219 0.4887695
vt -0.07324219 0.4912109
vt 0.09350586 0.4909668

g TS_LA_Fence_Metal_215776_124
usemtl TS_LA_Fence_Metal_215776_124
usemap TS_LA_Fence_Metal_215776_124
f 1/1/1 3/3/3 2/2/2
f 1/1/1 4/4/4 3/3/3
f 5/5/5 7/7/7 6/6/6
f 5/5/5 8/8/8 7/7/7
f 9/9/9 11/11/11 10/10/10
f 9/9/9 12/12/12 11/11/11
f 13/13/13 15/15/15 14/14/14
f 13/13/13 16/16/16 15/15/15
f 17/17/17 19/19/19 18/18/18
f 17/17/17 20/20/20 19/19/19
