#TS_MB_06_204155_23.obj

v -7.612193 5.787757 -0.0302815
v -7.612204 5.787757 1.269724
v -7.612204 4.487757 1.269724
v -7.612193 4.487757 -0.0302815
v -7.612193 5.787757 -4.019302
v -7.612198 5.787757 -2.719291
v -7.612198 4.487757 -2.719291
v -7.612193 4.487757 -4.019302
v 3.536915 5.787757 4.317132
v 4.836915 5.787757 4.317138
v 4.836915 4.487757 4.317138
v 3.536915 4.487757 4.317132
v 2.105935 4.487757 -6.382864
v 2.105935 5.787757 -6.382864
v 0.8059399 5.787757 -6.382864
v 0.8059399 4.487757 -6.382864
v 7.887802 4.487757 0.8741572
v 7.887802 5.787757 0.8741572
v 7.887797 5.787757 -0.4258431
v 7.887797 4.487757 -0.4258431

vn -0.7070313 0 -0.7070313
vn -0.7070313 0 -0.7070313
vn -0.7070313 0 -0.7070313
vn -0.7070313 0 -0.7070313
vn -0.7070313 0 -0.7070313
vn -0.7070313 0 -0.7070313
vn -0.7070313 0 -0.7070313
vn -0.7070313 0 -0.7070313
vn -0.7070313 0 0.7070313
vn -0.7070313 0 0.7070313
vn -0.7070313 0 0.7070313
vn -0.7070313 0 0.7070313
vn 0.7070313 0 -0.7070313
vn 0.7070313 0 -0.7070313
vn 0.7070313 0 -0.7070313
vn 0.7070313 0 -0.7070313
vn 0.7070313 0 0.7070313
vn 0.7070313 0 0.7070313
vn 0.7070313 0 0.7070313
vn 0.7070313 0 0.7070313

vt 0.8432617 0.5922852
vt 0.9902344 0.5922852
vt 0.9902344 0.4208984
vt 0.8432617 0.4208984
vt 0.009994507 0.5839844
vt 0.1567383 0.5839844
vt 0.1567383 0.4216309
vt 0.009994507 0.4216309
vt 0.5058594 0.5830078
vt 0.6503906 0.5830078
vt 0.6503906 0.4162598
vt 0.5058594 0.4162598
vt 0.6748047 0.4216309
vt 0.6748047 0.5922852
vt 0.8198242 0.5922852
vt 0.8198242 0.4216309
vt 0.177124 0.4196777
vt 0.177124 0.5795898
vt 0.3222656 0.5795898
vt 0.3222656 0.4196777

g TS_MB_06_204155_23
usemtl TS_MB_06_204155_23
usemap TS_MB_06_204155_23
f 1/1/1 3/3/3 2/2/2
f 1/1/1 4/4/4 3/3/3
f 5/5/5 7/7/7 6/6/6
f 5/5/5 8/8/8 7/7/7
f 9/9/9 11/11/11 10/10/10
f 9/9/9 12/12/12 11/11/11
f 13/13/13 15/15/15 14/14/14
f 13/13/13 16/16/16 15/15/15
f 17/17/17 19/19/19 18/18/18
f 17/17/17 20/20/20 19/19/19
