#TS_MB_09_Grafitti_217420_17.obj

v -4.47602 -0.02282013 -10.743
v -1.476006 -0.02282013 -10.74299
v -1.476006 2.464936 -10.74299
v -4.47602 2.464936 -10.743
v -10.75048 1.081951 4.718883
v -10.75048 1.081951 3.718861
v -10.75048 2.538106 3.718861
v -10.75048 2.538106 4.718883
v -10.75047 1.081951 1.916988
v -10.75048 1.081951 0.9169759
v -10.75048 2.538105 0.9169759
v -10.75047 2.538105 1.916988
v -10.66 -0.02282013 6.7445
v -10.65999 -0.02282013 5.644512
v -10.65999 2.2 5.644512
v -10.66 2.2 6.7445
v -9.753457 2.293916 10.66
v -9.753457 2.700477 10.66
v -6.031188 2.700477 10.66001
v -6.031188 2.293916 10.66001
v -5.033517 2.293916 10.65999
v -5.033517 2.700477 10.65999
v -1.311248 2.700477 10.66
v -1.311248 2.293916 10.66
v 4.437642 -0.02282013 10.74301
v 1.437639 -0.02282013 10.74299
v 1.437639 2.464936 10.74299
v 4.437642 2.464936 10.74301

vn -0.7070313 0 -0.7070313
vn -0.7070313 0 -0.7070313
vn -0.7070313 0 -0.7070313
vn -0.7070313 0 -0.7070313
vn -0.7070313 0 0.7070313
vn -0.7070313 0 0.7070313
vn -0.7070313 0 0.7070313
vn -0.7070313 0 0.7070313
vn -0.7070313 0 0.7070313
vn -0.7070313 0 0.7070313
vn -0.7070313 0 0.7070313
vn -0.7070313 0 0.7070313
vn -0.7070313 0 0.7070313
vn -0.7070313 0 0.7070313
vn -0.7070313 0 0.7070313
vn -0.7070313 0 0.7070313
vn 0.7070313 0 0.7070313
vn 0.7070313 0 0.7070313
vn 0.7070313 0 0.7070313
vn 0.7070313 0 0.7070313
vn 0.7070313 0 0.7070313
vn 0.7070313 0 0.7070313
vn 0.7070313 0 0.7070313
vn 0.7070313 0 0.7070313
vn 0.7070313 0 0.7070313
vn 0.7070313 0 0.7070313
vn 0.7070313 0 0.7070313
vn 0.7070313 0 0.7070313

vt 0.734375 0.2161865
vt 0.5043945 0.2161865
vt 0.5043945 0.3793945
vt 0.734375 0.3793945
vt 0.1224365 0.2504883
vt 0.07220459 0.2504883
vt 0.07220459 0.3261719
vt 0.1224365 0.3261719
vt 0.1224365 0.2504883
vt 0.07220459 0.2504883
vt 0.07220459 0.3261719
vt 0.1224365 0.3261719
vt 0.1922607 0.005466461
vt 0.1242676 0.005466461
vt 0.1242676 0.1712646
vt 0.1922607 0.1712646
vt 0.1820068 0.6240234
vt 0.1820068 0.6542969
vt 0.3151855 0.6542969
vt 0.3151855 0.6240234
vt 0.1820068 0.6240234
vt 0.1820068 0.6542969
vt 0.3151855 0.6542969
vt 0.3151855 0.6240234
vt 0.734375 0.2161865
vt 0.5043945 0.2161865
vt 0.5043945 0.3793945
vt 0.734375 0.3793945

g TS_MB_09_Grafitti_217420_17
usemtl TS_MB_09_Grafitti_217420_17
usemap TS_MB_09_Grafitti_217420_17
f 1/1/1 3/3/3 2/2/2
f 1/1/1 4/4/4 3/3/3
f 5/5/5 7/7/7 6/6/6
f 5/5/5 8/8/8 7/7/7
f 9/9/9 11/11/11 10/10/10
f 9/9/9 12/12/12 11/11/11
f 13/13/13 15/15/15 14/14/14
f 13/13/13 16/16/16 15/15/15
f 17/17/17 19/19/19 18/18/18
f 17/17/17 20/20/20 19/19/19
f 21/21/21 23/23/23 22/22/22
f 21/21/21 24/24/24 23/23/23
f 25/25/25 27/27/27 26/26/26
f 25/25/25 28/28/28 27/27/27
