#TS_MB_03_212354_41.obj

v -0.2678172 1.21279 -5.844299
v -0.2678172 1.762114 -5.844299
v -1.734307 1.762114 -5.844298
v -1.734307 1.21279 -5.844298
v -0.2678172 1.862114 -5.844299
v -0.2678172 2.411439 -5.844299
v -1.734307 2.411439 -5.844298
v -1.734307 1.862114 -5.844298
v 4.069117 1.762114 -5.844298
v 3.616117 1.762114 -5.8443
v 3.616117 1.21279 -5.8443
v 4.069117 1.21279 -5.844298
v 4.069117 2.411439 -5.844298
v 3.616117 2.411439 -5.8443
v 3.616117 1.862114 -5.8443
v 4.069117 1.862114 -5.844298
v 3.838431 2.213973 1.900955
v 4.2914 2.213973 1.900957
v 4.2914 1.664648 1.900957
v 3.838431 1.664648 1.900955
v 3.838431 2.863298 1.900955
v 4.2914 2.863298 1.900957
v 4.2914 2.313973 1.900957
v 3.838431 2.313973 1.900955
v 0.8072768 2.213973 5.755701
v 1.260246 2.213973 5.755703
v 1.260246 1.664648 5.755703
v 0.8072768 1.664648 5.755701
v 0.8072768 2.863298 5.755701
v 1.260246 2.863298 5.755703
v 1.260246 2.313973 5.755703
v 0.8072768 2.313973 5.755701
v 4.798961 1.862114 -2.995604
v 4.798961 2.411439 -2.995604
v 4.798937 2.411439 -4.462093
v 4.798937 1.862114 -4.462093
v 4.798961 1.21279 -2.995604
v 4.798961 1.762114 -2.995604
v 4.798937 1.762114 -4.462093
v 4.798937 1.21279 -4.462093
v 4.798938 1.862114 0.6189209
v 4.798938 2.411439 0.6189209
v 4.798945 2.411439 -0.8475689
v 4.798945 1.862114 -0.8475689
v 4.798938 1.21279 0.6189209
v 4.798938 1.762114 0.6189209
v 4.798945 1.762114 -0.8475689
v 4.798945 1.21279 -0.8475689
v -4.801045 1.862114 3.318042
v -4.801045 2.411439 3.318042
v -4.801052 2.411439 4.784523
v -4.801052 1.862114 4.784523
v -4.801045 1.21279 3.318042
v -4.801045 1.762114 3.318042
v -4.801052 1.762114 4.784523
v -4.801052 1.21279 4.784523
v -3.401052 2.313973 -0.01619865
v -3.401052 2.863298 -0.01619865
v -3.401058 2.863298 1.450291
v -3.401058 2.313973 1.450291
v -3.401052 1.664648 -0.01619865
v -3.401052 2.213973 -0.01619865
v -3.401058 2.213973 1.450291
v -3.401058 1.664648 1.450291
v -4.801063 2.313973 -4.828459
v -4.801063 2.863298 -4.828459
v -4.801039 2.863298 -3.36197
v -4.801039 2.313973 -3.36197
v -4.801063 1.664648 -4.828459
v -4.801063 2.213973 -4.828459
v -4.801039 2.213973 -3.36197
v -4.801039 1.664648 -3.36197

vn 0.01104736 0 -1
vn 0.01104736 0 -1
vn 0.01104736 0 -1
vn 0.01104736 0 -1
vn 0.01104736 0 -1
vn 0.01104736 0 -1
vn 0.01104736 0 -1
vn 0.01104736 0 -1
vn 0.01104736 0 -1
vn 0.01104736 0 -1
vn 0.01104736 0 -1
vn 0.01104736 0 -1
vn 0.01104736 0 -1
vn 0.01104736 0 -1
vn 0.01104736 0 -1
vn 0.01104736 0 -1
vn -0.01104736 0 1
vn -0.01104736 0 1
vn -0.01104736 0 1
vn -0.01104736 0 1
vn -0.01104736 0 1
vn -0.01104736 0 1
vn -0.01104736 0 1
vn -0.01104736 0 1
vn -0.01104736 0 1
vn -0.01104736 0 1
vn -0.01104736 0 1
vn -0.01104736 0 1
vn -0.01104736 0 1
vn -0.01104736 0 1
vn -0.01104736 0 1
vn -0.01104736 0 1
vn 1 0 0.01104736
vn 1 0 0.01104736
vn 1 0 0.01104736
vn 1 0 0.01104736
vn 1 0 0.01104736
vn 1 0 0.01104736
vn 1 0 0.01104736
vn 1 0 0.01104736
vn 1 0 0.01104736
vn 1 0 0.01104736
vn 1 0 0.01104736
vn 1 0 0.01104736
vn 1 0 0.01104736
vn 1 0 0.01104736
vn 1 0 0.01104736
vn 1 0 0.01104736
vn -1 0 -0.01104736
vn -1 0 -0.01104736
vn -1 0 -0.01104736
vn -1 0 -0.01104736
vn -1 0 -0.01104736
vn -1 0 -0.01104736
vn -1 0 -0.01104736
vn -1 0 -0.01104736
vn -1 0 -0.01104736
vn -1 0 -0.01104736
vn -1 0 -0.01104736
vn -1 0 -0.01104736
vn -1 0 -0.01104736
vn -1 0 -0.01104736
vn -1 0 -0.01104736
vn -1 0 -0.01104736
vn -1 0 -0.01104736
vn -1 0 -0.01104736
vn -1 0 -0.01104736
vn -1 0 -0.01104736
vn -1 0 -0.01104736
vn -1 0 -0.01104736
vn -1 0 -0.01104736
vn -1 0 -0.01104736

vt 0.5961914 0.9780273
vt 0.6904297 0.9780273
vt 0.6904297 0.8300781
vt 0.5961914 0.8300781
vt 0.7392578 0.9780273
vt 0.8334961 0.9780273
vt 0.8334961 0.8300781
vt 0.7392578 0.8300781
vt 0.5844727 0.987793
vt 0.7026367 0.987793
vt 0.7026367 0.8212891
vt 0.5844727 0.8212891
vt 0.5844727 0.987793
vt 0.7026367 0.987793
vt 0.7026367 0.8212891
vt 0.5844727 0.8212891
vt 0.5844727 0.987793
vt 0.7026367 0.987793
vt 0.7026367 0.8212891
vt 0.5844727 0.8212891
vt 0.5844727 0.987793
vt 0.7026367 0.987793
vt 0.7026367 0.8212891
vt 0.5844727 0.8212891
vt 0.5844727 0.987793
vt 0.7026367 0.987793
vt 0.7026367 0.8212891
vt 0.5844727 0.8212891
vt 0.5844727 0.987793
vt 0.7026367 0.987793
vt 0.7026367 0.8212891
vt 0.5844727 0.8212891
vt 0.5961914 0.9780273
vt 0.6904297 0.9780273
vt 0.6904297 0.8300781
vt 0.5961914 0.8300781
vt 0.8813477 0.9780273
vt 0.9755859 0.9780273
vt 0.9755859 0.8300781
vt 0.8813477 0.8300781
vt 0.4489746 0.9780273
vt 0.543457 0.9780273
vt 0.543457 0.8300781
vt 0.4489746 0.8300781
vt 0.7392578 0.9780273
vt 0.8334961 0.9780273
vt 0.8334961 0.8300781
vt 0.7392578 0.8300781
vt 0.7392578 0.9780273
vt 0.8334961 0.9780273
vt 0.8334961 0.8300781
vt 0.7392578 0.8300781
vt 0.1660156 0.9780273
vt 0.2602539 0.9780273
vt 0.2602539 0.8300781
vt 0.1660156 0.8300781
vt 0.3046875 0.9780273
vt 0.3991699 0.9780273
vt 0.3991699 0.8300781
vt 0.3046875 0.8300781
vt 0.5961914 0.9780273
vt 0.6904297 0.9780273
vt 0.6904297 0.8300781
vt 0.5961914 0.8300781
vt 0.8813477 0.9780273
vt 0.9755859 0.9780273
vt 0.9755859 0.8300781
vt 0.8813477 0.8300781
vt 0.7392578 0.9780273
vt 0.8334961 0.9780273
vt 0.8334961 0.8300781
vt 0.7392578 0.8300781

g TS_MB_03_212354_41
usemtl TS_MB_03_212354_41
usemap TS_MB_03_212354_41
f 1/1/1 3/3/3 2/2/2
f 1/1/1 4/4/4 3/3/3
f 5/5/5 7/7/7 6/6/6
f 5/5/5 8/8/8 7/7/7
f 9/9/9 11/11/11 10/10/10
f 9/9/9 12/12/12 11/11/11
f 13/13/13 15/15/15 14/14/14
f 13/13/13 16/16/16 15/15/15
f 17/17/17 19/19/19 18/18/18
f 17/17/17 20/20/20 19/19/19
f 21/21/21 23/23/23 22/22/22
f 21/21/21 24/24/24 23/23/23
f 25/25/25 27/27/27 26/26/26
f 25/25/25 28/28/28 27/27/27
f 29/29/29 31/31/31 30/30/30
f 29/29/29 32/32/32 31/31/31
f 33/33/33 35/35/35 34/34/34
f 33/33/33 36/36/36 35/35/35
f 37/37/37 39/39/39 38/38/38
f 37/37/37 40/40/40 39/39/39
f 41/41/41 43/43/43 42/42/42
f 41/41/41 44/44/44 43/43/43
f 45/45/45 47/47/47 46/46/46
f 45/45/45 48/48/48 47/47/47
f 49/49/49 51/51/51 50/50/50
f 49/49/49 52/52/52 51/51/51
f 53/53/53 55/55/55 54/54/54
f 53/53/53 56/56/56 55/55/55
f 57/57/57 59/59/59 58/58/58
f 57/57/57 60/60/60 59/59/59
f 61/61/61 63/63/63 62/62/62
f 61/61/61 64/64/64 63/63/63
f 65/65/65 67/67/67 66/66/66
f 65/65/65 68/68/68 67/67/67
f 69/69/69 71/71/71 70/70/70
f 69/69/69 72/72/72 71/71/71
