#TS_MB_04_212210_48.obj

v -7.009518 4.040216 -4.859187
v -7.009518 5.640216 -4.859187
v -7.009517 5.640216 -3.659198
v -7.009517 4.040216 -3.659198
v -7.009518 4.040216 -1.953775
v -7.009518 5.640216 -1.953775
v -7.009517 5.640216 -0.7537863
v -7.009517 4.040216 -0.7537863
v -7.009517 4.040216 0.9516369
v -7.009517 5.640216 0.9516369
v -7.009496 5.640216 2.151648
v -7.009496 4.040216 2.151648
v -7.009517 4.040216 3.857049
v -7.009517 5.640216 3.857049
v -7.009496 5.640216 5.05706
v -7.009496 4.040216 5.05706
v 7.690513 2.5 3.275583
v 7.690492 2.5 0.7176957
v 7.690492 0.7 0.7176957
v 7.690513 0.7 3.275583
v 7.690508 2.5 6.102699
v 7.690487 2.5 3.544811
v 7.690487 0.7 3.544811
v 7.690508 0.7 6.102699
v 2.100167 2.5 6.415813
v 7.485191 2.5 6.415821
v 7.485191 0.7000011 6.415821
v 2.100167 0.7000011 6.415813
v 8.590484 4.040216 5.035844
v 8.590506 4.040216 6.235855
v 8.590506 5.640216 6.235855
v 8.590484 5.640216 5.035844
v 7.203002 4.040216 7.315805
v 6.002992 4.040216 7.315827
v 6.002992 5.640216 7.315827
v 7.203002 5.640216 7.315805
v 8.590499 4.040216 -1.734032
v 8.590478 4.040216 -0.534023
v 8.590478 5.640216 -0.534023
v 8.590499 5.640216 -1.734032
v 8.590494 5.640216 -3.793957
v 8.590493 5.640216 -4.993946
v 8.590493 4.040216 -4.993946
v 8.590494 4.040216 -3.793957
v 8.590512 5.640216 2.750018
v 8.59049 5.640216 1.550007
v 8.59049 4.040216 1.550007
v 8.590512 4.040216 2.750018
v -4.672 4.040216 7.315833
v -5.872009 4.040216 7.315811
v -5.872009 5.640216 7.315811
v -4.672 5.640216 7.315833
v 7.514557 1.907032 -0.5912971
v 7.514587 1.907032 -1.431296
v 7.514587 0.07999999 -1.431296
v 7.514557 0.07999999 -0.5912971
v 7.514565 2.464692 0.4087081
v 7.514577 2.464692 -0.5113157
v 7.514577 2.022341 -0.5113157
v 7.514565 2.022341 0.4087081
v 7.514577 2.464692 -0.5113157
v 7.514587 2.464692 -1.431296
v 7.514587 2.022341 -1.431296
v 7.514577 2.022341 -0.5113157
v 7.514565 1.907032 0.4087081
v 7.514574 1.907032 -0.4313137
v 7.514574 0.07999999 -0.4313137
v 7.514565 0.07999999 0.4087081

vn -0.6762695 0 0.7368164
vn -0.6762695 0 0.7368164
vn -0.6762695 0 0.7368164
vn -0.6762695 0 0.7368164
vn -0.6762695 0 0.7368164
vn -0.6762695 0 0.7368164
vn -0.6762695 0 0.7368164
vn -0.6762695 0 0.7368164
vn -0.6762695 0 0.7368164
vn -0.6762695 0 0.7368164
vn -0.6762695 0 0.7368164
vn -0.6762695 0 0.7368164
vn -0.6762695 0 0.7368164
vn -0.6762695 0 0.7368164
vn -0.6762695 0 0.7368164
vn -0.6762695 0 0.7368164
vn 0.6762695 0 -0.7368164
vn 0.6762695 0 -0.7368164
vn 0.6762695 0 -0.7368164
vn 0.6762695 0 -0.7368164
vn 0.6762695 0 -0.7368164
vn 0.6762695 0 -0.7368164
vn 0.6762695 0 -0.7368164
vn 0.6762695 0 -0.7368164
vn 0.7368164 0 0.6762695
vn 0.7368164 0 0.6762695
vn 0.7368164 0 0.6762695
vn 0.7368164 0 0.6762695
vn 0.6762695 0 -0.7368164
vn 0.6762695 0 -0.7368164
vn 0.6762695 0 -0.7368164
vn 0.6762695 0 -0.7368164
vn 0.7368164 0 0.6762695
vn 0.7368164 0 0.6762695
vn 0.7368164 0 0.6762695
vn 0.7368164 0 0.6762695
vn 0.6762695 0 -0.7368164
vn 0.6762695 0 -0.7368164
vn 0.6762695 0 -0.7368164
vn 0.6762695 0 -0.7368164
vn 0.6762695 0 -0.7368164
vn 0.6762695 0 -0.7368164
vn 0.6762695 0 -0.7368164
vn 0.6762695 0 -0.7368164
vn 0.6762695 0 -0.7368164
vn 0.6762695 0 -0.7368164
vn 0.6762695 0 -0.7368164
vn 0.6762695 0 -0.7368164
vn 0.7368164 0 0.6762695
vn 0.7368164 0 0.6762695
vn 0.7368164 0 0.6762695
vn 0.7368164 0 0.6762695
vn 0.6762695 0 -0.7368164
vn 0.6762695 0 -0.7368164
vn 0.6762695 0 -0.7368164
vn 0.6762695 0 -0.7368164
vn 0.6762695 0 -0.7368164
vn 0.6762695 0 -0.7368164
vn 0.6762695 0 -0.7368164
vn 0.6762695 0 -0.7368164
vn 0.6762695 0 -0.7368164
vn 0.6762695 0 -0.7368164
vn 0.6762695 0 -0.7368164
vn 0.6762695 0 -0.7368164
vn 0.6762695 0 -0.7368164
vn 0.6762695 0 -0.7368164
vn 0.6762695 0 -0.7368164
vn 0.6762695 0 -0.7368164

vt 0.8369141 0.416748
vt 0.8369141 0.5966797
vt 0.9956055 0.5966797
vt 0.9956055 0.416748
vt 0.8369141 0.416748
vt 0.8369141 0.5966797
vt 0.9956055 0.5966797
vt 0.9956055 0.416748
vt 0.8369141 0.416748
vt 0.8369141 0.5966797
vt 0.9956055 0.5966797
vt 0.9956055 0.416748
vt 0.8369141 0.416748
vt 0.8369141 0.5966797
vt 0.9956055 0.5966797
vt 0.9956055 0.416748
vt 0.5703125 0.04507446
vt 0.5136719 0.04507446
vt 0.5136719 0.1429443
vt 0.5703125 0.1429443
vt 0.1124878 0.01190186
vt 0.001922607 0.01190186
vt 0.001922607 0.2027588
vt 0.1124878 0.2027588
vt 0.005760193 0.06231689
vt 0.1068726 0.06231689
vt 0.1068726 0.007564545
vt 0.005760193 0.007564545
vt 0.9956055 0.4169922
vt 0.8369141 0.4169922
vt 0.8369141 0.5961914
vt 0.9956055 0.5961914
vt 0.9956055 0.4169922
vt 0.8369141 0.4169922
vt 0.8369141 0.5961914
vt 0.9956055 0.5961914
vt 0.9956055 0.4169922
vt 0.8369141 0.4169922
vt 0.8369141 0.5961914
vt 0.9956055 0.5961914
vt 0.9956055 0.4169922
vt 0.8369141 0.4169922
vt 0.8369141 0.5961914
vt 0.9956055 0.5961914
vt 0.9956055 0.4169922
vt 0.8369141 0.4169922
vt 0.8369141 0.5961914
vt 0.9956055 0.5961914
vt 0.9956055 0.4169922
vt 0.8369141 0.4169922
vt 0.8369141 0.5961914
vt 0.9956055 0.5961914
vt 0.3081055 0.4121094
vt 0.3740234 0.4121094
vt 0.3740234 0.2078857
vt 0.3081055 0.2078857
vt 0.05252075 0.4060059
vt 0.1705322 0.4060059
vt 0.1705322 0.3774414
vt 0.05252075 0.3774414
vt 0.05252075 0.4060059
vt 0.1705322 0.4060059
vt 0.1705322 0.3774414
vt 0.05252075 0.3774414
vt 0.2462158 0.4106445
vt 0.307373 0.4106445
vt 0.307373 0.2125244
vt 0.2462158 0.2125244

g TS_MB_04_212210_48
usemtl TS_MB_04_212210_48
usemap TS_MB_04_212210_48
f 1/1/1 3/3/3 2/2/2
f 1/1/1 4/4/4 3/3/3
f 5/5/5 7/7/7 6/6/6
f 5/5/5 8/8/8 7/7/7
f 9/9/9 11/11/11 10/10/10
f 9/9/9 12/12/12 11/11/11
f 13/13/13 15/15/15 14/14/14
f 13/13/13 16/16/16 15/15/15
f 17/17/17 19/19/19 18/18/18
f 17/17/17 20/20/20 19/19/19
f 21/21/21 23/23/23 22/22/22
f 21/21/21 24/24/24 23/23/23
f 25/25/25 27/27/27 26/26/26
f 25/25/25 28/28/28 27/27/27
f 29/29/29 31/31/31 30/30/30
f 29/29/29 32/32/32 31/31/31
f 33/33/33 35/35/35 34/34/34
f 33/33/33 36/36/36 35/35/35
f 37/37/37 39/39/39 38/38/38
f 37/37/37 40/40/40 39/39/39
f 41/41/41 43/43/43 42/42/42
f 41/41/41 44/44/44 43/43/43
f 45/45/45 47/47/47 46/46/46
f 45/45/45 48/48/48 47/47/47
f 49/49/49 51/51/51 50/50/50
f 49/49/49 52/52/52 51/51/51
f 53/53/53 55/55/55 54/54/54
f 53/53/53 56/56/56 55/55/55
f 57/57/57 59/59/59 58/58/58
f 57/57/57 60/60/60 59/59/59
f 61/61/61 63/63/63 62/62/62
f 61/61/61 64/64/64 63/63/63
f 65/65/65 67/67/67 66/66/66
f 65/65/65 68/68/68 67/67/67
