#TS_MB_13_A_208497_12.obj

v -11.88001 6.598055 10.18656
v -11.88001 7.290174 10.18656
v -11.88 7.290174 10.87655
v -11.88 6.598055 10.87655
v -11.88 6.598055 7.936556
v -11.88 7.290174 7.936556
v -11.88001 7.290174 8.626561
v -11.88001 6.598055 8.626561
v -11.88001 6.598055 -1.063443
v -11.88001 7.290174 -1.063443
v -11.87999 7.290174 -0.3734486
v -11.87999 6.598055 -0.3734486
v -11.88 6.356679 -2.889247
v -11.88 7.290174 -2.889247
v -11.88 7.290174 -2.340186
v -11.88 6.356679 -2.340186
v -11.75 5.980426 -6.891873
v -11.75001 5.980426 -9.045012
v -11.75001 7.316756 -9.045012
v -11.75 7.316756 -6.891873
v -11.75 6.286756 -12.47803
v -11.74999 6.286756 -13.95887
v -11.74999 7.316756 -13.95887
v -11.75 7.316756 -12.47803
v -7.307825 7.316756 -15.72345
v -7.307825 6.804539 -15.72345
v -6.492002 6.804539 -15.72345
v -6.492002 7.316756 -15.72345
v 6.491989 7.316756 -15.72344
v 6.491989 6.804539 -15.72344
v 7.307812 6.804539 -15.72344
v 7.307812 7.316756 -15.72344
v -5.507991 7.316756 -15.72345
v -5.507991 6.804539 -15.72345
v -4.692179 6.804539 -15.72346
v -4.692179 7.316756 -15.72346
v 4.692188 7.316756 -15.72345
v 4.692188 6.804539 -15.72345
v 5.508011 6.804539 -15.72345
v 5.508011 7.316756 -15.72345
v -11.75 7.316756 5.512145
v -11.75 6.286756 5.512145
v -11.75 6.286756 4.314112
v -11.75 7.316756 4.314112
v -11.75 7.316756 0.9711505
v -11.75001 7.316756 2.169173
v -11.75001 6.286756 2.169173
v -11.75 6.286756 0.9711505
v -11.74998 7.316756 13.28891
v -11.75 7.316756 14.48693
v -11.75 6.286756 14.48693
v -11.74998 6.286756 13.28891
v -11.41728 7.316756 15.90655
v -9.936427 7.316756 15.90655
v -9.936427 6.286756 15.90655
v -11.41728 6.286756 15.90655
v -3.845442 7.316756 15.90655
v -2.364625 7.316756 15.90656
v -2.364625 6.286756 15.90656
v -3.845442 6.286756 15.90655
v -0.2499942 6.286756 9.656405
v -0.2499942 7.316756 9.656405
v -0.2499943 7.316756 8.175555
v -0.2499943 6.286756 8.175555
v -0.2499946 6.286756 4.671052
v -0.2499946 7.316756 4.671052
v -0.2499947 7.316756 3.190202
v -0.2499947 6.286756 3.190202
v -0.2499947 6.286756 2.031573
v -0.2499947 7.316756 2.031573
v -0.2499948 7.316756 0.5507224
v -0.2499948 6.286756 0.5507224
v 0.7508153 7.316756 -2.093451
v 2.231633 7.316756 -2.09344
v 2.231633 6.286756 -2.09344
v 0.7508153 6.286756 -2.093451
v 6.129989 7.316756 -2.093451
v 7.610828 7.316756 -2.093462
v 7.610828 6.286756 -2.093462
v 6.129989 6.286756 -2.093451
v 11.75001 6.286756 -5.597156
v 11.75001 7.316756 -5.597156
v 11.75001 7.316756 -7.078006
v 11.75001 6.286756 -7.078006
v -9.936429 6.286756 -15.59345
v -9.936429 7.316756 -15.59345
v -11.41727 7.316756 -15.59344
v -11.41727 6.286756 -15.59344
v 11.2498 6.286756 -15.59346
v 11.2498 7.316756 -15.59346
v 9.76895 7.316756 -15.59346
v 9.76895 6.286756 -15.59346
v -0.7283202 6.286756 -15.59344
v -0.7283202 7.316756 -15.59344
v -2.20917 7.316756 -15.59344
v -2.20917 6.286756 -15.59344
v 2.340844 6.286756 -15.59344
v 2.340844 7.316756 -15.59344
v 0.8599943 7.316756 -15.59344
v 0.8599943 6.286756 -15.59344
v -7.307825 2.316756 -15.72345
v -7.307825 1.804539 -15.72345
v -6.492002 1.804539 -15.72345
v -6.492002 2.316756 -15.72345
v 6.491989 2.316756 -15.72344
v 6.491989 1.804539 -15.72344
v 7.307812 1.804539 -15.72344
v 7.307812 2.316756 -15.72344
v -5.507991 2.316756 -15.72345
v -5.507991 1.804539 -15.72345
v -4.692179 1.804539 -15.72346
v -4.692179 2.316756 -15.72346
v 4.692188 2.316756 -15.72345
v 4.692188 1.804539 -15.72345
v 5.508011 1.804539 -15.72345
v 5.508011 2.316756 -15.72345
v -9.936429 1.286756 -15.59345
v -9.936429 2.316756 -15.59345
v -11.41727 2.316756 -15.59344
v -11.41727 1.286756 -15.59344
v 11.2498 1.286756 -15.59346
v 11.2498 2.316756 -15.59346
v 9.76895 2.316756 -15.59346
v 9.76895 1.286756 -15.59346
v -0.7283202 1.286756 -15.59344
v -0.7283202 2.316756 -15.59344
v -2.20917 2.316756 -15.59344
v -2.20917 1.286756 -15.59344
v 2.340844 1.286756 -15.59344
v 2.340844 2.316756 -15.59344
v 0.8599943 2.316756 -15.59344
v 0.8599943 1.286756 -15.59344
v -11.88001 4.098055 10.18656
v -11.88001 4.790175 10.18656
v -11.88 4.790175 10.87655
v -11.88 4.098055 10.87655
v -11.88 4.098055 7.936556
v -11.88 4.790175 7.936556
v -11.88001 4.790175 8.626561
v -11.88001 4.098055 8.626561
v -11.88001 4.098055 -1.063443
v -11.88001 4.790175 -1.063443
v -11.87999 4.790175 -0.3734486
v -11.87999 4.098055 -0.3734486
v -11.88 3.85668 -2.889247
v -11.88 4.790175 -2.889247
v -11.88 4.790175 -2.340186
v -11.88 3.85668 -2.340186
v -11.75 0.9804268 -6.891873
v -11.75001 0.9804268 -9.045012
v -11.75001 2.316756 -9.045012
v -11.75 2.316756 -6.891873
v -11.75 3.480427 -6.891873
v -11.75001 3.480427 -9.045012
v -11.75001 4.816756 -9.045012
v -11.75 4.816756 -6.891873
v -11.75 1.286756 -12.47803
v -11.74999 1.286756 -13.95887
v -11.74999 2.316756 -13.95887
v -11.75 2.316756 -12.47803
v -11.75 3.786756 -12.47803
v -11.74999 3.786756 -13.95887
v -11.74999 4.816756 -13.95887
v -11.75 4.816756 -12.47803
v -7.307825 4.816756 -15.72345
v -7.307825 4.304539 -15.72345
v -6.492002 4.304539 -15.72345
v -6.492002 4.816756 -15.72345
v 6.491989 4.816756 -15.72344
v 6.491989 4.304539 -15.72344
v 7.307812 4.304539 -15.72344
v 7.307812 4.816756 -15.72344
v -5.507991 4.816756 -15.72345
v -5.507991 4.304539 -15.72345
v -4.692179 4.304539 -15.72346
v -4.692179 4.816756 -15.72346
v 4.692188 4.816756 -15.72345
v 4.692188 4.304539 -15.72345
v 5.508011 4.304539 -15.72345
v 5.508011 4.816756 -15.72345
v -11.75 4.816756 5.512145
v -11.75 3.786756 5.512145
v -11.75 3.786756 4.314112
v -11.75 4.816756 4.314112
v -11.75 4.816756 0.9711505
v -11.75001 4.816756 2.169173
v -11.75001 3.786756 2.169173
v -11.75 3.786756 0.9711505
v -11.74998 4.816756 13.28891
v -11.75 4.816756 14.48693
v -11.75 3.786756 14.48693
v -11.74998 3.786756 13.28891
v -11.41728 4.816756 15.90655
v -9.936427 4.816756 15.90655
v -9.936427 3.786756 15.90655
v -11.41728 3.786756 15.90655
v -3.845442 4.816756 15.90655
v -2.364625 4.816756 15.90656
v -2.364625 3.786756 15.90656
v -3.845442 3.786756 15.90655
v -0.2499942 3.786756 9.656405
v -0.2499942 4.816756 9.656405
v -0.2499943 4.816756 8.175555
v -0.2499943 3.786756 8.175555
v -0.2499946 3.786756 4.671052
v -0.2499946 4.816756 4.671052
v -0.2499947 4.816756 3.190202
v -0.2499947 3.786756 3.190202
v -0.2499947 3.786756 2.031573
v -0.2499947 4.816756 2.031573
v -0.2499948 4.816756 0.5507224
v -0.2499948 3.786756 0.5507224
v 0.7508153 4.816756 -2.093451
v 2.231633 4.816756 -2.09344
v 2.231633 3.786756 -2.09344
v 0.7508153 3.786756 -2.093451
v 6.129989 4.816756 -2.093451
v 7.610828 4.816756 -2.093462
v 7.610828 3.786756 -2.093462
v 6.129989 3.786756 -2.093451
v 11.75001 3.786756 -5.597156
v 11.75001 4.816756 -5.597156
v 11.75001 4.816756 -7.078006
v 11.75001 3.786756 -7.078006
v -9.936429 3.786756 -15.59345
v -9.936429 4.816756 -15.59345
v -11.41727 4.816756 -15.59344
v -11.41727 3.786756 -15.59344
v 11.2498 3.786756 -15.59346
v 11.2498 4.816756 -15.59346
v 9.76895 4.816756 -15.59346
v 9.76895 3.786756 -15.59346
v -0.7283202 3.786756 -15.59344
v -0.7283202 4.816756 -15.59344
v -2.20917 4.816756 -15.59344
v -2.20917 3.786756 -15.59344
v 2.340844 3.786756 -15.59344
v 2.340844 4.816756 -15.59344
v 0.8599943 4.816756 -15.59344
v 0.8599943 3.786756 -15.59344
v 0.7508153 2.316756 -2.093451
v 2.231633 2.316756 -2.09344
v 2.231633 1.286756 -2.09344
v 0.7508153 1.286756 -2.093451
v 6.129989 2.316756 -2.093451
v 7.610828 2.316756 -2.093462
v 7.610828 1.286756 -2.093462
v 6.129989 1.286756 -2.093451

vn -0.7070313 0 0.7070313
vn -0.7070313 0 0.7070313
vn -0.7070313 0 0.7070313
vn -0.7070313 0 0.7070313
vn -0.7070313 0 0.7070313
vn -0.7070313 0 0.7070313
vn -0.7070313 0 0.7070313
vn -0.7070313 0 0.7070313
vn -0.7070313 0 0.7070313
vn -0.7070313 0 0.7070313
vn -0.7070313 0 0.7070313
vn -0.7070313 0 0.7070313
vn -0.7070313 0 0.7070313
vn -0.7070313 0 0.7070313
vn -0.7070313 0 0.7070313
vn -0.7070313 0 0.7070313
vn -0.7070313 0 0.7070313
vn -0.7070313 0 0.7070313
vn -0.7070313 0 0.7070313
vn -0.7070313 0 0.7070313
vn -0.7070313 0 0.7070313
vn -0.7070313 0 0.7070313
vn -0.7070313 0 0.7070313
vn -0.7070313 0 0.7070313
vn -0.7070313 0 -0.7070313
vn -0.7070313 0 -0.7070313
vn -0.7070313 0 -0.7070313
vn -0.7070313 0 -0.7070313
vn -0.7070313 0 -0.7070313
vn -0.7070313 0 -0.7070313
vn -0.7070313 0 -0.7070313
vn -0.7070313 0 -0.7070313
vn -0.7070313 0 -0.7070313
vn -0.7070313 0 -0.7070313
vn -0.7070313 0 -0.7070313
vn -0.7070313 0 -0.7070313
vn -0.7070313 0 -0.7070313
vn -0.7070313 0 -0.7070313
vn -0.7070313 0 -0.7070313
vn -0.7070313 0 -0.7070313
vn -0.7070313 0 0.7070313
vn -0.7070313 0 0.7070313
vn -0.7070313 0 0.7070313
vn -0.7070313 0 0.7070313
vn -0.7070313 0 0.7070313
vn -0.7070313 0 0.7070313
vn -0.7070313 0 0.7070313
vn -0.7070313 0 0.7070313
vn -0.7070313 0 0.7070313
vn -0.7070313 0 0.7070313
vn -0.7070313 0 0.7070313
vn -0.7070313 0 0.7070313
vn 0.7070313 0 0.7070313
vn 0.7070313 0 0.7070313
vn 0.7070313 0 0.7070313
vn 0.7070313 0 0.7070313
vn 0.7070313 0 0.7070313
vn 0.7070313 0 0.7070313
vn 0.7070313 0 0.7070313
vn 0.7070313 0 0.7070313
vn 0.7070313 0 -0.7070313
vn 0.7070313 0 -0.7070313
vn 0.7070313 0 -0.7070313
vn 0.7070313 0 -0.7070313
vn 0.7070313 0 -0.7070313
vn 0.7070313 0 -0.7070313
vn 0.7070313 0 -0.7070313
vn 0.7070313 0 -0.7070313
vn 0.7070313 0 -0.7070313
vn 0.7070313 0 -0.7070313
vn 0.7070313 0 -0.7070313
vn 0.7070313 0 -0.7070313
vn 0.7070313 0 0.7070313
vn 0.7070313 0 0.7070313
vn 0.7070313 0 0.7070313
vn 0.7070313 0 0.7070313
vn 0.7070313 0 0.7070313
vn 0.7070313 0 0.7070313
vn 0.7070313 0 0.7070313
vn 0.7070313 0 0.7070313
vn 0.7070313 0 -0.7070313
vn 0.7070313 0 -0.7070313
vn 0.7070313 0 -0.7070313
vn 0.7070313 0 -0.7070313
vn -0.7070313 0 -0.7070313
vn -0.7070313 0 -0.7070313
vn -0.7070313 0 -0.7070313
vn -0.7070313 0 -0.7070313
vn -0.7070313 0 -0.7070313
vn -0.7070313 0 -0.7070313
vn -0.7070313 0 -0.7070313
vn -0.7070313 0 -0.7070313
vn -0.7070313 0 -0.7070313
vn -0.7070313 0 -0.7070313
vn -0.7070313 0 -0.7070313
vn -0.7070313 0 -0.7070313
vn -0.7070313 0 -0.7070313
vn -0.7070313 0 -0.7070313
vn -0.7070313 0 -0.7070313
vn -0.7070313 0 -0.7070313
vn -0.7070313 0 -0.7070313
vn -0.7070313 0 -0.7070313
vn -0.7070313 0 -0.7070313
vn -0.7070313 0 -0.7070313
vn -0.7070313 0 -0.7070313
vn -0.7070313 0 -0.7070313
vn -0.7070313 0 -0.7070313
vn -0.7070313 0 -0.7070313
vn -0.7070313 0 -0.7070313
vn -0.7070313 0 -0.7070313
vn -0.7070313 0 -0.7070313
vn -0.7070313 0 -0.7070313
vn -0.7070313 0 -0.7070313
vn -0.7070313 0 -0.7070313
vn -0.7070313 0 -0.7070313
vn -0.7070313 0 -0.7070313
vn -0.7070313 0 -0.7070313
vn -0.7070313 0 -0.7070313
vn -0.7070313 0 -0.7070313
vn -0.7070313 0 -0.7070313
vn -0.7070313 0 -0.7070313
vn -0.7070313 0 -0.7070313
vn -0.7070313 0 -0.7070313
vn -0.7070313 0 -0.7070313
vn -0.7070313 0 -0.7070313
vn -0.7070313 0 -0.7070313
vn -0.7070313 0 -0.7070313
vn -0.7070313 0 -0.7070313
vn -0.7070313 0 -0.7070313
vn -0.7070313 0 -0.7070313
vn -0.7070313 0 -0.7070313
vn -0.7070313 0 -0.7070313
vn -0.7070313 0 0.7070313
vn -0.7070313 0 0.7070313
vn -0.7070313 0 0.7070313
vn -0.7070313 0 0.7070313
vn -0.7070313 0 0.7070313
vn -0.7070313 0 0.7070313
vn -0.7070313 0 0.7070313
vn -0.7070313 0 0.7070313
vn -0.7070313 0 0.7070313
vn -0.7070313 0 0.7070313
vn -0.7070313 0 0.7070313
vn -0.7070313 0 0.7070313
vn -0.7070313 0 0.7070313
vn -0.7070313 0 0.7070313
vn -0.7070313 0 0.7070313
vn -0.7070313 0 0.7070313
vn -0.7070313 0 0.7070313
vn -0.7070313 0 0.7070313
vn -0.7070313 0 0.7070313
vn -0.7070313 0 0.7070313
vn -0.7070313 0 0.7070313
vn -0.7070313 0 0.7070313
vn -0.7070313 0 0.7070313
vn -0.7070313 0 0.7070313
vn -0.7070313 0 0.7070313
vn -0.7070313 0 0.7070313
vn -0.7070313 0 0.7070313
vn -0.7070313 0 0.7070313
vn -0.7070313 0 0.7070313
vn -0.7070313 0 0.7070313
vn -0.7070313 0 0.7070313
vn -0.7070313 0 0.7070313
vn -0.7070313 0 -0.7070313
vn -0.7070313 0 -0.7070313
vn -0.7070313 0 -0.7070313
vn -0.7070313 0 -0.7070313
vn -0.7070313 0 -0.7070313
vn -0.7070313 0 -0.7070313
vn -0.7070313 0 -0.7070313
vn -0.7070313 0 -0.7070313
vn -0.7070313 0 -0.7070313
vn -0.7070313 0 -0.7070313
vn -0.7070313 0 -0.7070313
vn -0.7070313 0 -0.7070313
vn -0.7070313 0 -0.7070313
vn -0.7070313 0 -0.7070313
vn -0.7070313 0 -0.7070313
vn -0.7070313 0 -0.7070313
vn -0.7070313 0 0.7070313
vn -0.7070313 0 0.7070313
vn -0.7070313 0 0.7070313
vn -0.7070313 0 0.7070313
vn -0.7070313 0 0.7070313
vn -0.7070313 0 0.7070313
vn -0.7070313 0 0.7070313
vn -0.7070313 0 0.7070313
vn -0.7070313 0 0.7070313
vn -0.7070313 0 0.7070313
vn -0.7070313 0 0.7070313
vn -0.7070313 0 0.7070313
vn 0.7070313 0 0.7070313
vn 0.7070313 0 0.7070313
vn 0.7070313 0 0.7070313
vn 0.7070313 0 0.7070313
vn 0.7070313 0 0.7070313
vn 0.7070313 0 0.7070313
vn 0.7070313 0 0.7070313
vn 0.7070313 0 0.7070313
vn 0.7070313 0 -0.7070313
vn 0.7070313 0 -0.7070313
vn 0.7070313 0 -0.7070313
vn 0.7070313 0 -0.7070313
vn 0.7070313 0 -0.7070313
vn 0.7070313 0 -0.7070313
vn 0.7070313 0 -0.7070313
vn 0.7070313 0 -0.7070313
vn 0.7070313 0 -0.7070313
vn 0.7070313 0 -0.7070313
vn 0.7070313 0 -0.7070313
vn 0.7070313 0 -0.7070313
vn 0.7070313 0 0.7070313
vn 0.7070313 0 0.7070313
vn 0.7070313 0 0.7070313
vn 0.7070313 0 0.7070313
vn 0.7070313 0 0.7070313
vn 0.7070313 0 0.7070313
vn 0.7070313 0 0.7070313
vn 0.7070313 0 0.7070313
vn 0.7070313 0 -0.7070313
vn 0.7070313 0 -0.7070313
vn 0.7070313 0 -0.7070313
vn 0.7070313 0 -0.7070313
vn -0.7070313 0 -0.7070313
vn -0.7070313 0 -0.7070313
vn -0.7070313 0 -0.7070313
vn -0.7070313 0 -0.7070313
vn -0.7070313 0 -0.7070313
vn -0.7070313 0 -0.7070313
vn -0.7070313 0 -0.7070313
vn -0.7070313 0 -0.7070313
vn -0.7070313 0 -0.7070313
vn -0.7070313 0 -0.7070313
vn -0.7070313 0 -0.7070313
vn -0.7070313 0 -0.7070313
vn -0.7070313 0 -0.7070313
vn -0.7070313 0 -0.7070313
vn -0.7070313 0 -0.7070313
vn -0.7070313 0 -0.7070313
vn 0.7070313 0 0.7070313
vn 0.7070313 0 0.7070313
vn 0.7070313 0 0.7070313
vn 0.7070313 0 0.7070313
vn 0.7070313 0 0.7070313
vn 0.7070313 0 0.7070313
vn 0.7070313 0 0.7070313
vn 0.7070313 0 0.7070313

vt 0.675293 0.6870117
vt 0.675293 0.7597656
vt 0.7451172 0.7597656
vt 0.7451172 0.6870117
vt 0.006687164 0.7578125
vt 0.006687164 0.8305664
vt 0.07659912 0.8305664
vt 0.07659912 0.7578125
vt 0.3000488 0.7612305
vt 0.3000488 0.8320313
vt 0.3681641 0.8320313
vt 0.3681641 0.7612305
vt 0.8574219 0.8466797
vt 0.8574219 0.9931641
vt 0.9287109 0.9931641
vt 0.9287109 0.8466797
vt 0.2127686 0.8461914
vt 0.004505157 0.8461914
vt 0.004505157 0.9921875
vt 0.2127686 0.9921875
vt 0.0769043 0.8461914
vt 0.0769043 0.9921875
vt 0.213501 0.9921875
vt 0.213501 0.8461914
vt 0.7802734 0.6850586
vt 0.7802734 0.8305664
vt 0.8417969 0.8305664
vt 0.8417969 0.6850586
vt 0.7802734 0.6850586
vt 0.7802734 0.8305664
vt 0.8417969 0.8305664
vt 0.8417969 0.6850586
vt 0.7802734 0.6850586
vt 0.7802734 0.8305664
vt 0.8417969 0.8305664
vt 0.8417969 0.6850586
vt 0.675293 0.6870117
vt 0.675293 0.8325195
vt 0.7373047 0.8325195
vt 0.7373047 0.6870117
vt 0.8569336 0.6875
vt 0.8569336 0.831543
vt 0.9960938 0.831543
vt 0.9960938 0.6875
vt 0.8569336 0.8466797
vt 0.8569336 0.9931641
vt 0.996582 0.9931641
vt 0.996582 0.8466797
vt 0.8569336 0.6870117
vt 0.8569336 0.8320313
vt 0.9960938 0.8320313
vt 0.9960938 0.6870117
vt 0.2282715 0.6850586
vt 0.2282715 0.831543
vt 0.3679199 0.831543
vt 0.3679199 0.6850586
vt 0.8569336 0.8466797
vt 0.8569336 0.9931641
vt 0.996582 0.9931641
vt 0.996582 0.8466797
vt 0.8569336 0.6875
vt 0.8569336 0.831543
vt 0.996582 0.831543
vt 0.996582 0.6875
vt 0.534668 0.6865234
vt 0.534668 0.8325195
vt 0.6743164 0.8325195
vt 0.6743164 0.6865234
vt 0.2282715 0.6850586
vt 0.2282715 0.831543
vt 0.3679199 0.831543
vt 0.3679199 0.6850586
vt 0.07800293 0.6865234
vt 0.07800293 0.8325195
vt 0.2144775 0.8325195
vt 0.2144775 0.6865234
vt 0.8569336 0.8466797
vt 0.8569336 0.9931641
vt 0.996582 0.9931641
vt 0.996582 0.8466797
vt 0.8569336 0.8466797
vt 0.8569336 0.9931641
vt 0.996582 0.9931641
vt 0.996582 0.8466797
vt 0.6044922 0.6865234
vt 0.6044922 0.8325195
vt 0.7441406 0.8325195
vt 0.7441406 0.6865234
vt 0.8569336 0.6875
vt 0.8569336 0.831543
vt 0.9960938 0.831543
vt 0.9960938 0.6875
vt 0.2282715 0.6855469
vt 0.2282715 0.8320313
vt 0.3676758 0.8320313
vt 0.3676758 0.6855469
vt 0.8569336 0.8466797
vt 0.8569336 0.9931641
vt 0.996582 0.9931641
vt 0.996582 0.8466797
vt 0.8569336 0.6875
vt 0.8569336 0.8320313
vt 0.9228516 0.8320313
vt 0.9228516 0.6875
vt 0.8574219 0.8466797
vt 0.8574219 0.9931641
vt 0.9287109 0.9931641
vt 0.9287109 0.8466797
vt 0.004146576 0.8466797
vt 0.004146576 0.9921875
vt 0.07537842 0.9921875
vt 0.07537842 0.8466797
vt 0.7802734 0.8452148
vt 0.7802734 0.9907227
vt 0.8417969 0.9907227
vt 0.8417969 0.8452148
vt 0.8569336 0.6870117
vt 0.8569336 0.8320313
vt 0.9956055 0.8320313
vt 0.9956055 0.6870117
vt 0.2282715 0.6850586
vt 0.2282715 0.831543
vt 0.3684082 0.831543
vt 0.3684082 0.6850586
vt 0.8569336 0.6875
vt 0.8569336 0.831543
vt 0.9956055 0.831543
vt 0.9956055 0.6875
vt 0.8569336 0.8466797
vt 0.8569336 0.9931641
vt 0.996582 0.9931641
vt 0.996582 0.8466797
vt 0.07409668 0.9194336
vt 0.07409668 0.9921875
vt 0.144043 0.9921875
vt 0.144043 0.9194336
vt 0.07409668 0.9194336
vt 0.07409668 0.9921875
vt 0.144043 0.9921875
vt 0.144043 0.9194336
vt 0.07409668 0.9194336
vt 0.07409668 0.9921875
vt 0.144043 0.9921875
vt 0.144043 0.9194336
vt 0.7802734 0.8452148
vt 0.7802734 0.9907227
vt 0.8417969 0.9907227
vt 0.8417969 0.8452148
vt 0.2144775 0.6865234
vt 0.002748489 0.6865234
vt 0.002748489 0.8325195
vt 0.2144775 0.8325195
vt 0.2144775 0.6865234
vt 0.002748489 0.6865234
vt 0.002748489 0.8325195
vt 0.2144775 0.8325195
vt 0.2282715 0.6855469
vt 0.2282715 0.8320313
vt 0.3684082 0.8320313
vt 0.3684082 0.6855469
vt 0.8569336 0.6870117
vt 0.8569336 0.8320313
vt 0.9960938 0.8320313
vt 0.9960938 0.6870117
vt 0.7802734 0.8452148
vt 0.7802734 0.9907227
vt 0.8417969 0.9907227
vt 0.8417969 0.8452148
vt 0.7802734 0.8452148
vt 0.7802734 0.9907227
vt 0.8417969 0.9907227
vt 0.8417969 0.8452148
vt 0.7802734 0.8452148
vt 0.7802734 0.9907227
vt 0.8417969 0.9907227
vt 0.8417969 0.8452148
vt 0.7802734 0.8452148
vt 0.7802734 0.9907227
vt 0.8417969 0.9907227
vt 0.8417969 0.8452148
vt 0.8569336 0.8466797
vt 0.8569336 0.9931641
vt 0.996582 0.9931641
vt 0.996582 0.8466797
vt 0.2281494 0.6850586
vt 0.2281494 0.831543
vt 0.3686523 0.831543
vt 0.3686523 0.6850586
vt 0.8569336 0.6870117
vt 0.8569336 0.8320313
vt 0.9960938 0.8320313
vt 0.9960938 0.6870117
vt 0.3803711 0.6865234
vt 0.3803711 0.8325195
vt 0.5205078 0.8325195
vt 0.5205078 0.6865234
vt 0.3803711 0.6865234
vt 0.3803711 0.8325195
vt 0.5205078 0.8325195
vt 0.5205078 0.6865234
vt 0.3803711 0.6865234
vt 0.3803711 0.8325195
vt 0.5205078 0.8325195
vt 0.5205078 0.6865234
vt 0.3803711 0.6865234
vt 0.3803711 0.8325195
vt 0.5205078 0.8325195
vt 0.5205078 0.6865234
vt 0.3803711 0.6865234
vt 0.3803711 0.8325195
vt 0.5205078 0.8325195
vt 0.5205078 0.6865234
vt 0.3803711 0.6865234
vt 0.3803711 0.8325195
vt 0.5205078 0.8325195
vt 0.5205078 0.6865234
vt 0.3803711 0.6865234
vt 0.3803711 0.8325195
vt 0.5205078 0.8325195
vt 0.5205078 0.6865234
vt 0.3803711 0.6865234
vt 0.3803711 0.8325195
vt 0.5205078 0.8325195
vt 0.5205078 0.6865234
vt 0.3803711 0.6865234
vt 0.3803711 0.8325195
vt 0.5205078 0.8325195
vt 0.5205078 0.6865234
vt 0.3803711 0.6865234
vt 0.3803711 0.8325195
vt 0.5205078 0.8325195
vt 0.5205078 0.6865234
vt 0.3803711 0.6865234
vt 0.3803711 0.8325195
vt 0.5205078 0.8325195
vt 0.5205078 0.6865234
vt 0.3803711 0.6865234
vt 0.3803711 0.8325195
vt 0.5205078 0.8325195
vt 0.5205078 0.6865234
vt 0.3803711 0.6865234
vt 0.3803711 0.8325195
vt 0.5205078 0.8325195
vt 0.5205078 0.6865234
vt 0.3803711 0.6865234
vt 0.3803711 0.8325195
vt 0.5205078 0.8325195
vt 0.5205078 0.6865234

g TS_MB_13_A_208497_12
usemtl TS_MB_13_A_208497_12
usemap TS_MB_13_A_208497_12
f 1/1/1 3/3/3 2/2/2
f 1/1/1 4/4/4 3/3/3
f 5/5/5 7/7/7 6/6/6
f 5/5/5 8/8/8 7/7/7
f 9/9/9 11/11/11 10/10/10
f 9/9/9 12/12/12 11/11/11
f 13/13/13 15/15/15 14/14/14
f 13/13/13 16/16/16 15/15/15
f 17/17/17 19/19/19 18/18/18
f 17/17/17 20/20/20 19/19/19
f 21/21/21 23/23/23 22/22/22
f 21/21/21 24/24/24 23/23/23
f 25/25/25 27/27/27 26/26/26
f 25/25/25 28/28/28 27/27/27
f 29/29/29 31/31/31 30/30/30
f 29/29/29 32/32/32 31/31/31
f 33/33/33 35/35/35 34/34/34
f 33/33/33 36/36/36 35/35/35
f 37/37/37 39/39/39 38/38/38
f 37/37/37 40/40/40 39/39/39
f 41/41/41 43/43/43 42/42/42
f 41/41/41 44/44/44 43/43/43
f 45/45/45 47/47/47 46/46/46
f 45/45/45 48/48/48 47/47/47
f 49/49/49 51/51/51 50/50/50
f 49/49/49 52/52/52 51/51/51
f 53/53/53 55/55/55 54/54/54
f 53/53/53 56/56/56 55/55/55
f 57/57/57 59/59/59 58/58/58
f 57/57/57 60/60/60 59/59/59
f 61/61/61 63/63/63 62/62/62
f 61/61/61 64/64/64 63/63/63
f 65/65/65 67/67/67 66/66/66
f 65/65/65 68/68/68 67/67/67
f 69/69/69 71/71/71 70/70/70
f 69/69/69 72/72/72 71/71/71
f 73/73/73 75/75/75 74/74/74
f 73/73/73 76/76/76 75/75/75
f 77/77/77 79/79/79 78/78/78
f 77/77/77 80/80/80 79/79/79
f 81/81/81 83/83/83 82/82/82
f 81/81/81 84/84/84 83/83/83
f 85/85/85 87/87/87 86/86/86
f 85/85/85 88/88/88 87/87/87
f 89/89/89 91/91/91 90/90/90
f 89/89/89 92/92/92 91/91/91
f 93/93/93 95/95/95 94/94/94
f 93/93/93 96/96/96 95/95/95
f 97/97/97 99/99/99 98/98/98
f 97/97/97 100/100/100 99/99/99
f 101/101/101 103/103/103 102/102/102
f 101/101/101 104/104/104 103/103/103
f 105/105/105 107/107/107 106/106/106
f 105/105/105 108/108/108 107/107/107
f 109/109/109 111/111/111 110/110/110
f 109/109/109 112/112/112 111/111/111
f 113/113/113 115/115/115 114/114/114
f 113/113/113 116/116/116 115/115/115
f 117/117/117 119/119/119 118/118/118
f 117/117/117 120/120/120 119/119/119
f 121/121/121 123/123/123 122/122/122
f 121/121/121 124/124/124 123/123/123
f 125/125/125 127/127/127 126/126/126
f 125/125/125 128/128/128 127/127/127
f 129/129/129 131/131/131 130/130/130
f 129/129/129 132/132/132 131/131/131
f 133/133/133 135/135/135 134/134/134
f 133/133/133 136/136/136 135/135/135
f 137/137/137 139/139/139 138/138/138
f 137/137/137 140/140/140 139/139/139
f 141/141/141 143/143/143 142/142/142
f 141/141/141 144/144/144 143/143/143
f 145/145/145 147/147/147 146/146/146
f 145/145/145 148/148/148 147/147/147
f 149/149/149 151/151/151 150/150/150
f 149/149/149 152/152/152 151/151/151
f 153/153/153 155/155/155 154/154/154
f 153/153/153 156/156/156 155/155/155
f 157/157/157 159/159/159 158/158/158
f 157/157/157 160/160/160 159/159/159
f 161/161/161 163/163/163 162/162/162
f 161/161/161 164/164/164 163/163/163
f 165/165/165 167/167/167 166/166/166
f 165/165/165 168/168/168 167/167/167
f 169/169/169 171/171/171 170/170/170
f 169/169/169 172/172/172 171/171/171
f 173/173/173 175/175/175 174/174/174
f 173/173/173 176/176/176 175/175/175
f 177/177/177 179/179/179 178/178/178
f 177/177/177 180/180/180 179/179/179
f 181/181/181 183/183/183 182/182/182
f 181/181/181 184/184/184 183/183/183
f 185/185/185 187/187/187 186/186/186
f 185/185/185 188/188/188 187/187/187
f 189/189/189 191/191/191 190/190/190
f 189/189/189 192/192/192 191/191/191
f 193/193/193 195/195/195 194/194/194
f 193/193/193 196/196/196 195/195/195
f 197/197/197 199/199/199 198/198/198
f 197/197/197 200/200/200 199/199/199
f 201/201/201 203/203/203 202/202/202
f 201/201/201 204/204/204 203/203/203
f 205/205/205 207/207/207 206/206/206
f 205/205/205 208/208/208 207/207/207
f 209/209/209 211/211/211 210/210/210
f 209/209/209 212/212/212 211/211/211
f 213/213/213 215/215/215 214/214/214
f 213/213/213 216/216/216 215/215/215
f 217/217/217 219/219/219 218/218/218
f 217/217/217 220/220/220 219/219/219
f 221/221/221 223/223/223 222/222/222
f 221/221/221 224/224/224 223/223/223
f 225/225/225 227/227/227 226/226/226
f 225/225/225 228/228/228 227/227/227
f 229/229/229 231/231/231 230/230/230
f 229/229/229 232/232/232 231/231/231
f 233/233/233 235/235/235 234/234/234
f 233/233/233 236/236/236 235/235/235
f 237/237/237 239/239/239 238/238/238
f 237/237/237 240/240/240 239/239/239
f 241/241/241 243/243/243 242/242/242
f 241/241/241 244/244/244 243/243/243
f 245/245/245 247/247/247 246/246/246
f 245/245/245 248/248/248 247/247/247
