#TS_MB_02_214352_13.obj

v -11.08852 1.128749 3.078238
v -11.08852 1.128749 2.308422
v -11.08852 2.259389 2.308422
v -11.08852 2.259389 3.078238
v -11.08852 1.128749 2.220422
v -11.0885 1.128749 1.450628
v -11.0885 2.259389 1.450628
v -11.08852 2.259389 2.220422
v -11.0885 1.125712 5.211793
v -11.0885 1.125712 4.441978
v -11.0885 2.256351 4.441978
v -11.0885 2.256351 5.211793
v -11.0885 1.125712 4.353978
v -11.0885 1.125712 3.584162
v -11.0885 2.256351 3.584162
v -11.0885 2.256351 4.353978
v -2.526275 1.433658 -2.484541
v -1.756481 1.433658 -2.484563
v -1.756481 2.260804 -2.484563
v -2.526275 2.260804 -2.484541
v -1.668481 1.433658 -2.484563
v -0.8986651 1.433658 -2.484563
v -0.8986651 2.260804 -2.484563
v -1.668481 2.260804 -2.484563
v 0.3346933 1.426731 -2.477895
v 1.104509 1.426731 -2.477895
v 1.104509 2.253877 -2.477895
v 0.3346933 2.253877 -2.477895
v 1.192509 1.426731 -2.477895
v 1.962325 1.426731 -2.477895
v 1.962325 2.253877 -2.477895
v 1.192509 2.253877 -2.477895
v 10.66956 1.133564 -4.823973
v 10.66956 1.133564 -4.054157
v 10.66956 2.264203 -4.054157
v 10.66956 2.264203 -4.823973
v 10.66956 1.133564 -3.966157
v 10.66956 1.133564 -3.196341
v 10.66956 2.264203 -3.196341
v 10.66956 2.264203 -3.966157
v 10.66957 1.133564 -0.9077062
v 10.66957 1.133564 -0.1378903
v 10.66957 2.264203 -0.1378903
v 10.66957 2.264203 -0.9077062
v 10.66957 1.133564 -0.04989037
v 10.66957 1.133564 0.7199255
v 10.66957 2.264203 0.7199255
v 10.66957 2.264203 -0.04989037
v 10.87774 1.133564 4.23429
v 10.87774 1.133564 5.004106
v 10.87774 2.264203 5.004106
v 10.87774 2.264203 4.23429
v 10.87774 1.133564 5.092106
v 10.87774 1.133564 5.861922
v 10.87774 2.264203 5.861922
v 10.87774 2.264203 5.092106
v 9.62272 1.124507 6.060213
v 8.852904 1.124507 6.060213
v 8.852904 2.255146 6.060213
v 9.62272 2.255146 6.060213
v 8.764904 1.124507 6.060213
v 7.995088 1.124507 6.060213
v 7.995088 2.255146 6.060213
v 8.764904 2.255146 6.060213
v 6.483305 1.428 6.045787
v 5.713489 1.428 6.045787
v 5.713489 2.255146 6.045787
v 6.483305 2.255146 6.045787
v 5.625488 1.428 6.045787
v 4.855683 1.428 6.045776
v 4.855683 2.255146 6.045776
v 5.625488 2.255146 6.045787
v 1.953628 1.428 6.045776
v 1.183834 1.428 6.045797
v 1.183834 2.255146 6.045797
v 1.953628 2.255146 6.045776
v 1.095834 1.428 6.045797
v 0.3260179 1.428 6.045797
v 0.3260179 2.255146 6.045797
v 1.095834 2.255146 6.045797
v -0.890595 1.428 6.045776
v -1.660411 1.428 6.045776
v -1.660411 2.255146 6.045776
v -0.890595 2.255146 6.045776
v -1.748389 1.428 6.045797
v -2.518205 1.428 6.045797
v -2.518205 2.255146 6.045797
v -1.748389 2.255146 6.045797

vn -0.7070313 0 -0.7070313
vn -0.7070313 0 -0.7070313
vn -0.7070313 0 -0.7070313
vn -0.7070313 0 -0.7070313
vn -0.7070313 0 -0.7070313
vn -0.7070313 0 -0.7070313
vn -0.7070313 0 -0.7070313
vn -0.7070313 0 -0.7070313
vn -0.7070313 0 -0.7070313
vn -0.7070313 0 -0.7070313
vn -0.7070313 0 -0.7070313
vn -0.7070313 0 -0.7070313
vn -0.7070313 0 -0.7070313
vn -0.7070313 0 -0.7070313
vn -0.7070313 0 -0.7070313
vn -0.7070313 0 -0.7070313
vn 0.7070313 0 -0.7070313
vn 0.7070313 0 -0.7070313
vn 0.7070313 0 -0.7070313
vn 0.7070313 0 -0.7070313
vn 0.7070313 0 -0.7070313
vn 0.7070313 0 -0.7070313
vn 0.7070313 0 -0.7070313
vn 0.7070313 0 -0.7070313
vn 0.7070313 0 -0.7070313
vn 0.7070313 0 -0.7070313
vn 0.7070313 0 -0.7070313
vn 0.7070313 0 -0.7070313
vn 0.7070313 0 -0.7070313
vn 0.7070313 0 -0.7070313
vn 0.7070313 0 -0.7070313
vn 0.7070313 0 -0.7070313
vn 0.7070313 0 0.7070313
vn 0.7070313 0 0.7070313
vn 0.7070313 0 0.7070313
vn 0.7070313 0 0.7070313
vn 0.7070313 0 0.7070313
vn 0.7070313 0 0.7070313
vn 0.7070313 0 0.7070313
vn 0.7070313 0 0.7070313
vn 0.7070313 0 0.7070313
vn 0.7070313 0 0.7070313
vn 0.7070313 0 0.7070313
vn 0.7070313 0 0.7070313
vn 0.7070313 0 0.7070313
vn 0.7070313 0 0.7070313
vn 0.7070313 0 0.7070313
vn 0.7070313 0 0.7070313
vn 0.7070313 0 0.7070313
vn 0.7070313 0 0.7070313
vn 0.7070313 0 0.7070313
vn 0.7070313 0 0.7070313
vn 0.7070313 0 0.7070313
vn 0.7070313 0 0.7070313
vn 0.7070313 0 0.7070313
vn 0.7070313 0 0.7070313
vn -0.7070313 0 0.7070313
vn -0.7070313 0 0.7070313
vn -0.7070313 0 0.7070313
vn -0.7070313 0 0.7070313
vn -0.7070313 0 0.7070313
vn -0.7070313 0 0.7070313
vn -0.7070313 0 0.7070313
vn -0.7070313 0 0.7070313
vn -0.7070313 0 0.7070313
vn -0.7070313 0 0.7070313
vn -0.7070313 0 0.7070313
vn -0.7070313 0 0.7070313
vn -0.7070313 0 0.7070313
vn -0.7070313 0 0.7070313
vn -0.7070313 0 0.7070313
vn -0.7070313 0 0.7070313
vn -0.7070313 0 0.7070313
vn -0.7070313 0 0.7070313
vn -0.7070313 0 0.7070313
vn -0.7070313 0 0.7070313
vn -0.7070313 0 0.7070313
vn -0.7070313 0 0.7070313
vn -0.7070313 0 0.7070313
vn -0.7070313 0 0.7070313
vn -0.7070313 0 0.7070313
vn -0.7070313 0 0.7070313
vn -0.7070313 0 0.7070313
vn -0.7070313 0 0.7070313
vn -0.7070313 0 0.7070313
vn -0.7070313 0 0.7070313
vn -0.7070313 0 0.7070313
vn -0.7070313 0 0.7070313

vt 0.3046875 0.9780273
vt 0.4025879 0.9780273
vt 0.4025879 0.8291016
vt 0.3046875 0.8291016
vt 0.6918945 0.8295898
vt 0.59375 0.8295898
vt 0.59375 0.9790039
vt 0.6918945 0.9790039
vt 0.9765625 0.8295898
vt 0.8779297 0.8295898
vt 0.8779297 0.9790039
vt 0.9765625 0.9790039
vt 0.7392578 0.9780273
vt 0.8374023 0.9780273
vt 0.8374023 0.8291016
vt 0.7392578 0.8291016
vt 0.1635742 0.9550781
vt 0.2614746 0.9550781
vt 0.2614746 0.8520508
vt 0.1635742 0.8520508
vt 0.02148438 0.9550781
vt 0.1195068 0.9550781
vt 0.1195068 0.8520508
vt 0.02148438 0.8520508
vt 0.02148438 0.9550781
vt 0.1195068 0.9550781
vt 0.1195068 0.8520508
vt 0.02148438 0.8520508
vt 0.02148438 0.9550781
vt 0.1195068 0.9550781
vt 0.1195068 0.8520508
vt 0.02148438 0.8520508
vt 0.3046875 0.9780273
vt 0.4025879 0.9780273
vt 0.4025879 0.8291016
vt 0.3046875 0.8291016
vt 0.8803711 0.9780273
vt 0.9780273 0.9780273
vt 0.9780273 0.8291016
vt 0.8803711 0.8291016
vt 0.4482422 0.9780273
vt 0.5463867 0.9780273
vt 0.5463867 0.8291016
vt 0.4482422 0.8291016
vt 0.3046875 0.9780273
vt 0.4025879 0.9780273
vt 0.4025879 0.8291016
vt 0.3046875 0.8291016
vt 0.5947266 0.9780273
vt 0.6928711 0.9780273
vt 0.6928711 0.8291016
vt 0.5947266 0.8291016
vt 0.3046875 0.9780273
vt 0.4025879 0.9780273
vt 0.4025879 0.8291016
vt 0.3046875 0.8291016
vt 0.3046875 0.9780273
vt 0.4025879 0.9780273
vt 0.4025879 0.8291016
vt 0.3046875 0.8291016
vt 0.02062988 0.9780273
vt 0.1185913 0.9780273
vt 0.1185913 0.8291016
vt 0.02062988 0.8291016
vt 0.02148438 0.9550781
vt 0.1195068 0.9550781
vt 0.1195068 0.8520508
vt 0.02148438 0.8520508
vt 0.3046875 0.9550781
vt 0.4025879 0.9550781
vt 0.4025879 0.8520508
vt 0.3046875 0.8520508
vt 0.1635742 0.9550781
vt 0.2614746 0.9550781
vt 0.2614746 0.8520508
vt 0.1635742 0.8520508
vt 0.02148438 0.9550781
vt 0.1195068 0.9550781
vt 0.1195068 0.8520508
vt 0.02148438 0.8520508
vt 0.02148438 0.9550781
vt 0.1195068 0.9550781
vt 0.1195068 0.8520508
vt 0.02148438 0.8520508
vt 0.5952148 0.9550781
vt 0.6933594 0.9550781
vt 0.6933594 0.8520508
vt 0.5952148 0.8520508

g TS_MB_02_214352_13
usemtl TS_MB_02_214352_13
usemap TS_MB_02_214352_13
f 1/1/1 3/3/3 2/2/2
f 1/1/1 4/4/4 3/3/3
f 5/5/5 7/7/7 6/6/6
f 5/5/5 8/8/8 7/7/7
f 9/9/9 11/11/11 10/10/10
f 9/9/9 12/12/12 11/11/11
f 13/13/13 15/15/15 14/14/14
f 13/13/13 16/16/16 15/15/15
f 17/17/17 19/19/19 18/18/18
f 17/17/17 20/20/20 19/19/19
f 21/21/21 23/23/23 22/22/22
f 21/21/21 24/24/24 23/23/23
f 25/25/25 27/27/27 26/26/26
f 25/25/25 28/28/28 27/27/27
f 29/29/29 31/31/31 30/30/30
f 29/29/29 32/32/32 31/31/31
f 33/33/33 35/35/35 34/34/34
f 33/33/33 36/36/36 35/35/35
f 37/37/37 39/39/39 38/38/38
f 37/37/37 40/40/40 39/39/39
f 41/41/41 43/43/43 42/42/42
f 41/41/41 44/44/44 43/43/43
f 45/45/45 47/47/47 46/46/46
f 45/45/45 48/48/48 47/47/47
f 49/49/49 51/51/51 50/50/50
f 49/49/49 52/52/52 51/51/51
f 53/53/53 55/55/55 54/54/54
f 53/53/53 56/56/56 55/55/55
f 57/57/57 59/59/59 58/58/58
f 57/57/57 60/60/60 59/59/59
f 61/61/61 63/63/63 62/62/62
f 61/61/61 64/64/64 63/63/63
f 65/65/65 67/67/67 66/66/66
f 65/65/65 68/68/68 67/67/67
f 69/69/69 71/71/71 70/70/70
f 69/69/69 72/72/72 71/71/71
f 73/73/73 75/75/75 74/74/74
f 73/73/73 76/76/76 75/75/75
f 77/77/77 79/79/79 78/78/78
f 77/77/77 80/80/80 79/79/79
f 81/81/81 83/83/83 82/82/82
f 81/81/81 84/84/84 83/83/83
f 85/85/85 87/87/87 86/86/86
f 85/85/85 88/88/88 87/87/87
