#TS_MB_13_A_208496_13.obj

v 10.61379 6.397894 0.4533996
v 10.25909 6.397894 0.4533996
v 10.25909 7.141511 0.4533996
v 10.61379 7.141511 0.4533996
v 3.036246 6.397894 13.72921
v 3.036257 6.397894 14.08389
v 3.036257 7.141511 14.08389
v 3.036246 7.141511 13.72921
v -11.8 7.629394E-08 -2.532338
v -11.8 7.629394E-08 -4.532341
v -11.8 2.107326 -4.532341
v -11.8 2.107326 -2.532338
v 9.762208 1.9834 0.4530975
v 11.16221 1.9834 0.4530866
v 11.16221 7.629394E-08 0.4530866
v 9.762208 7.629394E-08 0.4530975
v 10.61379 3.897895 0.4533996
v 10.25909 3.897895 0.4533996
v 10.25909 4.641511 0.4533996
v 10.61379 4.641511 0.4533996
v 3.035933 1.9834 14.5808
v 3.035944 1.9834 13.18079
v 3.035944 7.629394E-08 13.18079
v 3.035933 7.629394E-08 14.5808
v 3.036246 3.897895 13.72921
v 3.036257 3.897895 14.08389
v 3.036257 4.641511 14.08389
v 3.036246 4.641511 13.72921

vn -0.7070313 0 0.7070313
vn -0.7070313 0 0.7070313
vn -0.7070313 0 0.7070313
vn -0.7070313 0 0.7070313
vn 0.7070313 0 0.7070313
vn 0.7070313 0 0.7070313
vn 0.7070313 0 0.7070313
vn 0.7070313 0 0.7070313
vn -0.7070313 0 -0.7070313
vn -0.7070313 0 -0.7070313
vn -0.7070313 0 -0.7070313
vn -0.7070313 0 -0.7070313
vn -0.7070313 0 0.7070313
vn -0.7070313 0 0.7070313
vn -0.7070313 0 0.7070313
vn -0.7070313 0 0.7070313
vn -0.7070313 0 0.7070313
vn -0.7070313 0 0.7070313
vn -0.7070313 0 0.7070313
vn -0.7070313 0 0.7070313
vn 0.7070313 0 0.7070313
vn 0.7070313 0 0.7070313
vn 0.7070313 0 0.7070313
vn 0.7070313 0 0.7070313
vn 0.7070313 0 0.7070313
vn 0.7070313 0 0.7070313
vn 0.7070313 0 0.7070313
vn 0.7070313 0 0.7070313

vt 0.4179688 0.815918
vt 0.2910156 0.815918
vt 0.2910156 0.9936523
vt 0.4179688 0.9936523
vt 0.4179688 0.815918
vt 0.2910156 0.815918
vt 0.2910156 0.9936523
vt 0.4179688 0.9936523
vt 0.918457 0.0003314018
vt 0.7817383 0.0003314018
vt 0.7817383 0.1723633
vt 0.918457 0.1723633
vt 0.3735352 0.2070313
vt 0.2453613 0.2070313
vt 0.2453613 0.4116211
vt 0.3735352 0.4116211
vt 0.4179688 0.815918
vt 0.2910156 0.815918
vt 0.2910156 0.9936523
vt 0.4179688 0.9936523
vt 0.7817383 0.1723633
vt 0.918457 0.1723633
vt 0.918457 0.0003314018
vt 0.7817383 0.0003314018
vt 0.4179688 0.815918
vt 0.2910156 0.815918
vt 0.2910156 0.9936523
vt 0.4179688 0.9936523

g TS_MB_13_A_208496_13
usemtl TS_MB_13_A_208496_13
usemap TS_MB_13_A_208496_13
f 1/1/1 3/3/3 2/2/2
f 1/1/1 4/4/4 3/3/3
f 5/5/5 7/7/7 6/6/6
f 5/5/5 8/8/8 7/7/7
f 9/9/9 11/11/11 10/10/10
f 9/9/9 12/12/12 11/11/11
f 13/13/13 15/15/15 14/14/14
f 13/13/13 16/16/16 15/15/15
f 17/17/17 19/19/19 18/18/18
f 17/17/17 20/20/20 19/19/19
f 21/21/21 23/23/23 22/22/22
f 21/21/21 24/24/24 23/23/23
f 25/25/25 27/27/27 26/26/26
f 25/25/25 28/28/28 27/27/27
