#TS_MB_12_A_216669_85.obj

v -1.945547 -0.0005358839 -6.80751
v -1.945547 0.09946411 -6.80751
v -1.945547 0.09946411 -4.967108
v -1.945547 -0.0005358839 -4.967108
v -1.945547 0.09946411 -6.80751
v 3.837017 0.09946411 -6.807521
v 3.836995 0.09946411 -4.967097
v -1.945547 0.09946411 -4.967108
v 3.837017 0.09946411 -6.807521
v 3.837017 -0.0005358839 -6.807521
v 3.836995 -0.0005358839 -4.967097
v 3.836995 0.09946411 -4.967097
v 3.837017 -0.0005358839 -6.807521
v 3.837017 0.09946411 -6.807521
v -1.945547 0.09946411 -6.80751
v -1.945547 -0.0005358839 -6.80751
v 8.509397 -0.0005358839 -2.009378
v 8.509397 0.09946411 -2.009378
v 4.709388 0.09946411 -2.009378
v 4.709388 -0.0005358839 -2.009378
v 8.509397 0.09946411 -2.009378
v 8.509375 0.09946411 -0.2789212
v 4.709377 0.09946411 -0.2789107
v 4.709388 0.09946411 -2.009378
v 8.509375 0.09946411 -0.2789212
v 8.509375 -0.0005358839 -0.2789212
v 4.709377 -0.0005358839 -0.2789107
v 4.709377 0.09946411 -0.2789107
v 8.509375 -0.0005358839 -0.2789212
v 8.509375 0.09946411 -0.2789212
v 8.509397 0.09946411 -2.009378
v 8.509397 -0.0005358839 -2.009378
v 8.509385 -0.0005358839 2.989171
v 8.509385 0.09946411 2.989171
v 4.709387 0.09946411 2.989182
v 4.709387 -0.0005358839 2.989182
v 8.509385 0.09946411 2.989171
v 8.509396 0.09946411 4.296449
v 4.709387 0.09946411 4.296449
v 4.709387 0.09946411 2.989182
v 8.509396 0.09946411 4.296449
v 8.509396 -0.0005358839 4.296449
v 4.709387 -0.0005358839 4.296449
v 4.709387 0.09946411 4.296449
v 8.509396 -0.0005358839 4.296449
v 8.509396 0.09946411 4.296449
v 8.509385 0.09946411 2.989171
v 8.509385 -0.0005358839 2.989171
v -8.896483 -0.0005358839 -0.2789224
v -8.896483 0.09946411 -0.2789224
v -5.096475 0.09946411 -0.2789221
v -5.096475 -0.0005358839 -0.2789221
v -8.896483 0.09946411 -0.2789224
v -8.896483 0.09946411 -2.778914
v -5.096486 0.09946411 -2.778925
v -5.096475 0.09946411 -0.2789221
v -8.896483 0.09946411 -2.778914
v -8.896483 -0.0005358839 -2.778914
v -5.096486 -0.0005358839 -2.778925
v -5.096486 0.09946411 -2.778925
v -8.896483 -0.0005358839 -2.778914
v -8.896483 0.09946411 -2.778914
v -8.896483 0.09946411 -0.2789224
v -8.896483 -0.0005358839 -0.2789224
v -8.896483 -0.0005358839 2.46677
v -8.896483 0.09946411 2.46677
v -5.096475 0.09946411 2.46677
v -5.096475 -0.0005358839 2.46677
v -8.896483 0.09946411 2.46677
v -8.896483 0.09946411 1.159503
v -5.096486 0.09946411 1.159492
v -5.096475 0.09946411 2.46677
v -8.896483 0.09946411 1.159503
v -8.896483 -0.0005358839 1.159503
v -5.096486 -0.0005358839 1.159492
v -5.096486 0.09946411 1.159492
v -8.896483 -0.0005358839 1.159503
v -8.896483 0.09946411 1.159503
v -8.896483 0.09946411 2.46677
v -8.896483 -0.0005358839 2.46677

vn -0.7070313 0 -0.7070313
vn -0.7070313 0 -0.7070313
vn -0.7070313 0 -0.7070313
vn -0.7070313 0 -0.7070313
vn 0 1 0
vn 0 1 0
vn 0 1 0
vn 0 1 0
vn 0.7070313 0 0.7070313
vn 0.7070313 0 0.7070313
vn 0.7070313 0 0.7070313
vn 0.7070313 0 0.7070313
vn 0.7070313 0 -0.7070313
vn 0.7070313 0 -0.7070313
vn 0.7070313 0 -0.7070313
vn 0.7070313 0 -0.7070313
vn 0.7070313 0 -0.7070313
vn 0.7070313 0 -0.7070313
vn 0.7070313 0 -0.7070313
vn 0.7070313 0 -0.7070313
vn 0 1 0
vn 0 1 0
vn 0 1 0
vn 0 1 0
vn -0.7070313 0 0.7070313
vn -0.7070313 0 0.7070313
vn -0.7070313 0 0.7070313
vn -0.7070313 0 0.7070313
vn 0.7070313 0 0.7070313
vn 0.7070313 0 0.7070313
vn 0.7070313 0 0.7070313
vn 0.7070313 0 0.7070313
vn 0.7070313 0 -0.7070313
vn 0.7070313 0 -0.7070313
vn 0.7070313 0 -0.7070313
vn 0.7070313 0 -0.7070313
vn 0 1 0
vn 0 1 0
vn 0 1 0
vn 0 1 0
vn -0.7070313 0 0.7070313
vn -0.7070313 0 0.7070313
vn -0.7070313 0 0.7070313
vn -0.7070313 0 0.7070313
vn 0.7070313 0 0.7070313
vn 0.7070313 0 0.7070313
vn 0.7070313 0 0.7070313
vn 0.7070313 0 0.7070313
vn -0.7070313 0 0.7070313
vn -0.7070313 0 0.7070313
vn -0.7070313 0 0.7070313
vn -0.7070313 0 0.7070313
vn 0 1 0
vn 0 1 0
vn 0 1 0
vn 0 1 0
vn 0.7070313 0 -0.7070313
vn 0.7070313 0 -0.7070313
vn 0.7070313 0 -0.7070313
vn 0.7070313 0 -0.7070313
vn -0.7070313 0 -0.7070313
vn -0.7070313 0 -0.7070313
vn -0.7070313 0 -0.7070313
vn -0.7070313 0 -0.7070313
vn -0.7070313 0 0.7070313
vn -0.7070313 0 0.7070313
vn -0.7070313 0 0.7070313
vn -0.7070313 0 0.7070313
vn 0 1 0
vn 0 1 0
vn 0 1 0
vn 0 1 0
vn 0.7070313 0 -0.7070313
vn 0.7070313 0 -0.7070313
vn 0.7070313 0 -0.7070313
vn 0.7070313 0 -0.7070313
vn -0.7070313 0 -0.7070313
vn -0.7070313 0 -0.7070313
vn -0.7070313 0 -0.7070313
vn -0.7070313 0 -0.7070313

vt 0.5219727 0.6972656
vt 0.5200195 0.6972656
vt 0.5200195 0.7275391
vt 0.5219727 0.7275391
vt 0.5200195 0.6972656
vt 0.4255371 0.6972656
vt 0.4255371 0.7275391
vt 0.5200195 0.7275391
vt 0.4255371 0.6972656
vt 0.4238281 0.6972656
vt 0.4238281 0.7275391
vt 0.4255371 0.7275391
vt 0.4255371 0.6958008
vt 0.4255371 0.6972656
vt 0.5200195 0.6972656
vt 0.5200195 0.6958008
vt 0.4362793 0.6953125
vt 0.4362793 0.6977539
vt 0.5205078 0.6977539
vt 0.5205078 0.6953125
vt 0.4362793 0.6977539
vt 0.4362793 0.7358398
vt 0.5205078 0.7358398
vt 0.5205078 0.6977539
vt 0.4362793 0.7358398
vt 0.4362793 0.7382813
vt 0.5205078 0.7382813
vt 0.5205078 0.7358398
vt 0.434082 0.7358398
vt 0.4362793 0.7358398
vt 0.4362793 0.6977539
vt 0.434082 0.6977539
vt 0.3061523 0.6967773
vt 0.3061523 0.6987305
vt 0.3903809 0.6987305
vt 0.3903809 0.6967773
vt 0.3061523 0.6987305
vt 0.3061523 0.7280273
vt 0.3903809 0.7280273
vt 0.3903809 0.6987305
vt 0.3061523 0.7280273
vt 0.3061523 0.7299805
vt 0.3903809 0.7299805
vt 0.3903809 0.7280273
vt 0.3039551 0.7280273
vt 0.3061523 0.7280273
vt 0.3061523 0.6987305
vt 0.3039551 0.6987305
vt 0.7290039 0.6875
vt 0.7290039 0.6855469
vt 0.6445313 0.6855469
vt 0.6445313 0.6875
vt 0.7290039 0.6855469
vt 0.7290039 0.6298828
vt 0.6445313 0.6298828
vt 0.6445313 0.6855469
vt 0.7290039 0.6298828
vt 0.7290039 0.6279297
vt 0.6445313 0.6279297
vt 0.6445313 0.6298828
vt 0.730957 0.6298828
vt 0.7290039 0.6298828
vt 0.7290039 0.6855469
vt 0.730957 0.6855469
vt 0.105957 0.7275391
vt 0.105957 0.7250977
vt 0.02185059 0.7250977
vt 0.02185059 0.7275391
vt 0.105957 0.7250977
vt 0.105957 0.6962891
vt 0.02185059 0.6962891
vt 0.02185059 0.7250977
vt 0.105957 0.6962891
vt 0.105957 0.6943359
vt 0.02185059 0.6943359
vt 0.02185059 0.6962891
vt 0.1082153 0.6962891
vt 0.105957 0.6962891
vt 0.105957 0.7250977
vt 0.1082153 0.7250977

g TS_MB_12_A_216669_85
usemtl TS_MB_12_A_216669_85
usemap TS_MB_12_A_216669_85
f 1/1/1 3/3/3 2/2/2
f 1/1/1 4/4/4 3/3/3
f 5/5/5 7/7/7 6/6/6
f 5/5/5 8/8/8 7/7/7
f 9/9/9 11/11/11 10/10/10
f 9/9/9 12/12/12 11/11/11
f 13/13/13 15/15/15 14/14/14
f 13/13/13 16/16/16 15/15/15
f 17/17/17 19/19/19 18/18/18
f 17/17/17 20/20/20 19/19/19
f 21/21/21 23/23/23 22/22/22
f 21/21/21 24/24/24 23/23/23
f 25/25/25 27/27/27 26/26/26
f 25/25/25 28/28/28 27/27/27
f 29/29/29 31/31/31 30/30/30
f 29/29/29 32/32/32 31/31/31
f 33/33/33 35/35/35 34/34/34
f 33/33/33 36/36/36 35/35/35
f 37/37/37 39/39/39 38/38/38
f 37/37/37 40/40/40 39/39/39
f 41/41/41 43/43/43 42/42/42
f 41/41/41 44/44/44 43/43/43
f 45/45/45 47/47/47 46/46/46
f 45/45/45 48/48/48 47/47/47
f 49/49/49 51/51/51 50/50/50
f 49/49/49 52/52/52 51/51/51
f 53/53/53 55/55/55 54/54/54
f 53/53/53 56/56/56 55/55/55
f 57/57/57 59/59/59 58/58/58
f 57/57/57 60/60/60 59/59/59
f 61/61/61 63/63/63 62/62/62
f 61/61/61 64/64/64 63/63/63
f 65/65/65 67/67/67 66/66/66
f 65/65/65 68/68/68 67/67/67
f 69/69/69 71/71/71 70/70/70
f 69/69/69 72/72/72 71/71/71
f 73/73/73 75/75/75 74/74/74
f 73/73/73 76/76/76 75/75/75
f 77/77/77 79/79/79 78/78/78
f 77/77/77 80/80/80 79/79/79
