#TS_MB_12_A_216665_38.obj

v -0.2163857 4.855217 -6.005995
v -0.2163857 4.252785 -6.005995
v 0.6451849 4.252785 -6.005995
v 0.6451849 4.855217 -6.005995
v -2.383033 4.182957 -6.006005
v -2.383033 3.580525 -6.006005
v -1.521463 3.580525 -6.006005
v -1.521463 4.182957 -6.006005
v 5.812515 4.386944 -5.117774
v 5.812515 3.887801 -5.117774
v 5.812515 3.887801 -4.158062
v 5.812515 4.386944 -4.158062
v 4.897979 1.637994 -3.630159
v 4.897979 1.217994 -3.630159
v 4.897979 1.217994 -2.910148
v 4.897979 1.637994 -2.910148
v 4.89799 1.465717 0.9762313
v 4.89799 0.9700397 0.9762313
v 4.897979 0.9700397 1.56421
v 4.897979 1.465717 1.56421
v 5.149215 4.405525 0.7265169
v 5.149215 4.01647 0.7265169
v 5.149226 4.01647 1.329191
v 5.149226 4.405525 1.329191
v 5.153973 4.322474 4.182564
v 5.153973 4.322474 2.710863
v 5.153973 3.79096 2.710863
v 5.153973 3.79096 4.182564
v 2.5646 4.447853 5.74999
v 1.604888 4.447853 5.74999
v 1.604888 4.940408 5.74999
v 2.5646 4.940408 5.74999
v -1.106882 3.580525 6.006006
v -1.106882 4.175805 6.006006
v -0.2452794 4.175805 6.005995
v -0.2452794 3.580525 6.005995
v 0.2943405 0.9700397 5.74999
v -0.2936384 0.9700397 5.750001
v -0.2936384 1.468617 5.750001
v 0.2943405 1.468617 5.74999
v -1.848904 1.462169 5.74999
v -1.848904 0.9300398 5.74999
v -2.492169 0.9300398 5.750001
v -2.492169 1.462169 5.750001
v -4.897979 3.876151 5.367283
v -4.897979 3.876151 4.407571
v -4.897979 4.377509 4.407571
v -4.897979 4.377509 5.367283
v -4.897979 1.217994 4.446111
v -4.897968 1.217994 3.726111
v -4.897968 1.637994 3.726111
v -4.897979 1.637994 4.446111
v -5.622155 4.542058 -0.6392183
v -5.622155 4.172058 -0.6392183
v -5.622144 4.172058 -1.259221
v -5.622144 4.542058 -1.259221
v -5.622144 3.887801 -3.263193
v -5.622144 3.887801 -4.222906
v -5.622144 4.396442 -4.222906
v -5.622144 4.396442 -3.263193
v -4.89799 1.637994 -3.578724
v -4.89799 1.217994 -3.578724
v -4.897979 1.217994 -4.298725
v -4.897979 1.637994 -4.298725
v 3.684312 4.447853 5.75
v 2.724599 4.447853 5.75
v 2.724599 4.940408 5.75
v 3.684312 4.940408 5.75
v 2.5646 3.876152 5.74999
v 1.604888 3.876152 5.74999
v 1.604888 4.368707 5.74999
v 2.5646 4.368707 5.74999
v 3.684312 3.876152 5.75
v 2.724599 3.876152 5.75
v 2.724599 4.368707 5.75
v 3.684312 4.368707 5.75
v -0.4536373 0.9700397 5.74999
v -1.041616 0.9700397 5.750001
v -1.041616 1.468617 5.750001
v -0.4536373 1.468617 5.74999
v 0.2943405 1.53572 5.74999
v -0.2936384 1.53572 5.750001
v -0.2936384 2.034297 5.750001
v 0.2943405 2.034297 5.74999
v -1.041616 1.53572 5.750001
v -1.041616 2.034297 5.750001
v -0.4536373 2.034297 5.74999
v -0.4536373 1.53572 5.74999
v -1.106882 4.259937 6.006006
v -1.106882 4.855217 6.006006
v -0.2452794 4.855217 6.005995
v -0.2452794 4.259937 6.005995
v -1.848904 2.074297 5.74999
v -1.848904 1.542168 5.74999
v -2.492169 1.542168 5.750001
v -2.492169 2.074297 5.750001
v -4.897979 1.717994 4.446111
v -4.897968 1.717994 3.726111
v -4.897968 2.137994 3.726111
v -4.897979 2.137994 4.446111
v -4.89799 2.137994 -3.578724
v -4.89799 1.717994 -3.578724
v -4.897979 1.717994 -4.298725
v -4.897979 2.137994 -4.298725
v -4.897989 3.876151 4.247572
v -4.89799 3.876151 3.287859
v -4.89799 4.377509 3.287859
v -4.897989 4.377509 4.247572
v -4.897979 4.439052 5.367283
v -4.897979 4.439052 4.407571
v -4.897979 4.940409 4.407571
v -4.897979 4.940409 5.367283
v -4.89799 4.439052 3.287859
v -4.89799 4.940409 3.287859
v -4.897989 4.940409 4.247572
v -4.897989 4.439052 4.247572
v -5.622155 4.992057 -0.6392183
v -5.622155 4.622057 -0.6392183
v -5.622144 4.622057 -1.259221
v -5.622144 4.992057 -1.259221
v -5.622144 4.443416 -3.263193
v -5.622144 4.443416 -4.222906
v -5.622144 4.952057 -4.222906
v -5.622144 4.952057 -3.263193
v -5.622144 4.443416 -4.382894
v -5.622145 4.443416 -5.342607
v -5.622145 4.952057 -5.342607
v -5.622144 4.952057 -4.382894
v -5.622144 3.887801 -4.382894
v -5.622145 3.887801 -5.342607
v -5.622145 4.396442 -5.342607
v -5.622144 4.396442 -4.382894
v -2.383033 4.855217 -6.006005
v -2.383033 4.252785 -6.006005
v -1.521463 4.252785 -6.006005
v -1.521463 4.855217 -6.006005
v -0.2163857 4.182957 -6.005995
v -0.2163857 3.580525 -6.005995
v 0.6451849 3.580525 -6.005995
v 0.6451849 4.182957 -6.005995
v 4.89799 2.034297 0.9762313
v 4.89799 1.53862 0.9762313
v 4.897979 1.53862 1.56421
v 4.897979 2.034297 1.56421
v 4.89799 2.034297 1.724209
v 4.89799 1.53862 1.724209
v 4.897979 1.53862 2.312188
v 4.897979 2.034297 2.312188
v 4.89799 0.9700397 1.724209
v 4.897979 0.9700397 2.312188
v 4.897979 1.465717 2.312188
v 4.89799 1.465717 1.724209
v 5.153973 4.855217 4.182564
v 5.153973 4.855217 2.710863
v 5.153973 4.373743 2.710863
v 5.153973 4.373743 4.182564
v 5.149215 4.895216 0.7265169
v 5.149215 4.455045 0.7265169
v 5.149226 4.455045 1.329191
v 5.149226 4.895216 1.329191
v 5.812515 4.386944 -3.998073
v 5.812515 3.887801 -3.998073
v 5.812516 3.887801 -3.038361
v 5.812516 4.386944 -3.038361
v 5.812515 4.952057 -5.117774
v 5.812515 4.452914 -5.117774
v 5.812515 4.452914 -4.158062
v 5.812515 4.952057 -4.158062
v 5.812515 4.952057 -3.998073
v 5.812515 4.452914 -3.998073
v 5.812516 4.452914 -3.038361
v 5.812516 4.952057 -3.038361
v 4.897979 2.137994 -3.630159
v 4.897979 1.717994 -3.630159
v 4.897979 1.717994 -2.910148
v 4.897979 2.137994 -2.910148

vn -0.7070313 0 -0.7070313
vn -0.7070313 0 -0.7070313
vn -0.7070313 0 -0.7070313
vn -0.7070313 0 -0.7070313
vn -0.7070313 0 -0.7070313
vn -0.7070313 0 -0.7070313
vn -0.7070313 0 -0.7070313
vn -0.7070313 0 -0.7070313
vn 0.7070313 0 -0.7070313
vn 0.7070313 0 -0.7070313
vn 0.7070313 0 -0.7070313
vn 0.7070313 0 -0.7070313
vn 0.7070313 0 -0.7070313
vn 0.7070313 0 -0.7070313
vn 0.7070313 0 -0.7070313
vn 0.7070313 0 -0.7070313
vn 0.7070313 0 -0.7070313
vn 0.7070313 0 -0.7070313
vn 0.7070313 0 -0.7070313
vn 0.7070313 0 -0.7070313
vn 0.7070313 0 -0.7070313
vn 0.7070313 0 -0.7070313
vn 0.7070313 0 -0.7070313
vn 0.7070313 0 -0.7070313
vn 0.7070313 0 -0.7070313
vn 0.7070313 0 -0.7070313
vn 0.7070313 0 -0.7070313
vn 0.7070313 0 -0.7070313
vn 0.7070313 0 0.7070313
vn 0.7070313 0 0.7070313
vn 0.7070313 0 0.7070313
vn 0.7070313 0 0.7070313
vn 0.7070313 0 0.7070313
vn 0.7070313 0 0.7070313
vn 0.7070313 0 0.7070313
vn 0.7070313 0 0.7070313
vn 0.7070313 0 0.7070313
vn 0.7070313 0 0.7070313
vn 0.7070313 0 0.7070313
vn 0.7070313 0 0.7070313
vn 0.7070313 0 0.7070313
vn 0.7070313 0 0.7070313
vn 0.7070313 0 0.7070313
vn 0.7070313 0 0.7070313
vn -0.7070313 0 0.7070313
vn -0.7070313 0 0.7070313
vn -0.7070313 0 0.7070313
vn -0.7070313 0 0.7070313
vn -0.7070313 0 0.7070313
vn -0.7070313 0 0.7070313
vn -0.7070313 0 0.7070313
vn -0.7070313 0 0.7070313
vn -0.7070313 0 0.7070313
vn -0.7070313 0 0.7070313
vn -0.7070313 0 0.7070313
vn -0.7070313 0 0.7070313
vn -0.7070313 0 0.7070313
vn -0.7070313 0 0.7070313
vn -0.7070313 0 0.7070313
vn -0.7070313 0 0.7070313
vn -0.7070313 0 0.7070313
vn -0.7070313 0 0.7070313
vn -0.7070313 0 0.7070313
vn -0.7070313 0 0.7070313
vn 0.7070313 0 0.7070313
vn 0.7070313 0 0.7070313
vn 0.7070313 0 0.7070313
vn 0.7070313 0 0.7070313
vn 0.7070313 0 0.7070313
vn 0.7070313 0 0.7070313
vn 0.7070313 0 0.7070313
vn 0.7070313 0 0.7070313
vn 0.7070313 0 0.7070313
vn 0.7070313 0 0.7070313
vn 0.7070313 0 0.7070313
vn 0.7070313 0 0.7070313
vn 0.7070313 0 0.7070313
vn 0.7070313 0 0.7070313
vn 0.7070313 0 0.7070313
vn 0.7070313 0 0.7070313
vn 0.7070313 0 0.7070313
vn 0.7070313 0 0.7070313
vn 0.7070313 0 0.7070313
vn 0.7070313 0 0.7070313
vn 0.7070313 0 0.7070313
vn 0.7070313 0 0.7070313
vn 0.7070313 0 0.7070313
vn 0.7070313 0 0.7070313
vn 0.7070313 0 0.7070313
vn 0.7070313 0 0.7070313
vn 0.7070313 0 0.7070313
vn 0.7070313 0 0.7070313
vn 0.7070313 0 0.7070313
vn 0.7070313 0 0.7070313
vn 0.7070313 0 0.7070313
vn 0.7070313 0 0.7070313
vn -0.7070313 0 0.7070313
vn -0.7070313 0 0.7070313
vn -0.7070313 0 0.7070313
vn -0.7070313 0 0.7070313
vn -0.7070313 0 0.7070313
vn -0.7070313 0 0.7070313
vn -0.7070313 0 0.7070313
vn -0.7070313 0 0.7070313
vn -0.7070313 0 0.7070313
vn -0.7070313 0 0.7070313
vn -0.7070313 0 0.7070313
vn -0.7070313 0 0.7070313
vn -0.7070313 0 0.7070313
vn -0.7070313 0 0.7070313
vn -0.7070313 0 0.7070313
vn -0.7070313 0 0.7070313
vn -0.7070313 0 0.7070313
vn -0.7070313 0 0.7070313
vn -0.7070313 0 0.7070313
vn -0.7070313 0 0.7070313
vn -0.7070313 0 0.7070313
vn -0.7070313 0 0.7070313
vn -0.7070313 0 0.7070313
vn -0.7070313 0 0.7070313
vn -0.7070313 0 0.7070313
vn -0.7070313 0 0.7070313
vn -0.7070313 0 0.7070313
vn -0.7070313 0 0.7070313
vn -0.7070313 0 0.7070313
vn -0.7070313 0 0.7070313
vn -0.7070313 0 0.7070313
vn -0.7070313 0 0.7070313
vn -0.7070313 0 0.7070313
vn -0.7070313 0 0.7070313
vn -0.7070313 0 0.7070313
vn -0.7070313 0 0.7070313
vn -0.7070313 0 -0.7070313
vn -0.7070313 0 -0.7070313
vn -0.7070313 0 -0.7070313
vn -0.7070313 0 -0.7070313
vn -0.7070313 0 -0.7070313
vn -0.7070313 0 -0.7070313
vn -0.7070313 0 -0.7070313
vn -0.7070313 0 -0.7070313
vn 0.7070313 0 -0.7070313
vn 0.7070313 0 -0.7070313
vn 0.7070313 0 -0.7070313
vn 0.7070313 0 -0.7070313
vn 0.7070313 0 -0.7070313
vn 0.7070313 0 -0.7070313
vn 0.7070313 0 -0.7070313
vn 0.7070313 0 -0.7070313
vn 0.7070313 0 -0.7070313
vn 0.7070313 0 -0.7070313
vn 0.7070313 0 -0.7070313
vn 0.7070313 0 -0.7070313
vn 0.7070313 0 -0.7070313
vn 0.7070313 0 -0.7070313
vn 0.7070313 0 -0.7070313
vn 0.7070313 0 -0.7070313
vn 0.7070313 0 -0.7070313
vn 0.7070313 0 -0.7070313
vn 0.7070313 0 -0.7070313
vn 0.7070313 0 -0.7070313
vn 0.7070313 0 -0.7070313
vn 0.7070313 0 -0.7070313
vn 0.7070313 0 -0.7070313
vn 0.7070313 0 -0.7070313
vn 0.7070313 0 -0.7070313
vn 0.7070313 0 -0.7070313
vn 0.7070313 0 -0.7070313
vn 0.7070313 0 -0.7070313
vn 0.7070313 0 -0.7070313
vn 0.7070313 0 -0.7070313
vn 0.7070313 0 -0.7070313
vn 0.7070313 0 -0.7070313
vn 0.7070313 0 -0.7070313
vn 0.7070313 0 -0.7070313
vn 0.7070313 0 -0.7070313
vn 0.7070313 0 -0.7070313

vt 0.1679688 0.8544922
vt 0.1679688 0.9555664
vt 0.2558594 0.9555664
vt 0.2558594 0.8544922
vt 0.3024902 0.8544922
vt 0.3024902 0.9555664
vt 0.4035645 0.9555664
vt 0.4035645 0.8544922
vt 0.1871338 0.4943848
vt 0.1871338 0.5478516
vt 0.2407227 0.5478516
vt 0.2407227 0.4943848
vt 0.3491211 0.4729004
vt 0.3491211 0.5244141
vt 0.4006348 0.5244141
vt 0.4006348 0.4729004
vt 0.09436035 0.4606934
vt 0.09436035 0.5180664
vt 0.1518555 0.5180664
vt 0.1518555 0.4606934
vt 0.7602539 0.5161133
vt 0.7602539 0.5698242
vt 0.8139648 0.5698242
vt 0.8139648 0.5161133
vt 0.217041 0.6376953
vt 0.2883301 0.6376953
vt 0.2883301 0.605957
vt 0.217041 0.605957
vt 0.690918 0.8544922
vt 0.597168 0.8544922
vt 0.597168 0.9555664
vt 0.690918 0.9555664
vt 0.3024902 0.8544922
vt 0.3024902 0.9555664
vt 0.4035645 0.9555664
vt 0.4035645 0.8544922
vt 0.5151367 0.4885254
vt 0.5678711 0.4885254
vt 0.5678711 0.435791
vt 0.5151367 0.435791
vt 0.7329102 0.5043945
vt 0.7329102 0.4543457
vt 0.6826172 0.4543457
vt 0.6826172 0.5043945
vt 0.2561035 0.8540039
vt 0.1669922 0.8540039
vt 0.1669922 0.9550781
vt 0.2561035 0.9550781
vt 0.4729004 0.4765625
vt 0.4267578 0.4765625
vt 0.4267578 0.5229492
vt 0.4729004 0.5229492
vt 0.3024902 0.8544922
vt 0.3024902 0.9555664
vt 0.4035645 0.9555664
vt 0.4035645 0.8544922
vt 0.2580566 0.4609375
vt 0.2580566 0.5195313
vt 0.3166504 0.5195313
vt 0.3166504 0.4609375
vt 0.8510742 0.4790039
vt 0.8510742 0.5341797
vt 0.90625 0.5341797
vt 0.90625 0.4790039
vt 0.690918 0.8544922
vt 0.597168 0.8544922
vt 0.597168 0.9555664
vt 0.690918 0.9555664
vt 0.690918 0.8544922
vt 0.597168 0.8544922
vt 0.597168 0.9555664
vt 0.690918 0.9555664
vt 0.9755859 0.8569336
vt 0.8813477 0.8569336
vt 0.8813477 0.953125
vt 0.9755859 0.953125
vt 0.5151367 0.4885254
vt 0.5678711 0.4885254
vt 0.5678711 0.435791
vt 0.5151367 0.435791
vt 0.5151367 0.4885254
vt 0.5678711 0.4885254
vt 0.5678711 0.435791
vt 0.5151367 0.435791
vt 0.5678711 0.4885254
vt 0.5678711 0.435791
vt 0.5151367 0.435791
vt 0.5151367 0.4885254
vt 0.7299805 0.8544922
vt 0.7299805 0.9555664
vt 0.8310547 0.9555664
vt 0.8310547 0.8544922
vt 0.7329102 0.559082
vt 0.7329102 0.5087891
vt 0.6826172 0.5087891
vt 0.6826172 0.559082
vt 0.4729004 0.5175781
vt 0.4267578 0.5175781
vt 0.4267578 0.5639648
vt 0.4729004 0.5639648
vt 0.8510742 0.4309082
vt 0.8510742 0.486084
vt 0.90625 0.486084
vt 0.90625 0.4309082
vt 0.02149963 0.8544922
vt 0.02149963 0.9555664
vt 0.1130371 0.9555664
vt 0.1130371 0.8544922
vt 0.1143799 0.8554688
vt 0.02038574 0.8554688
vt 0.02038574 0.956543
vt 0.1143799 0.956543
vt 0.1679688 0.8544922
vt 0.1679688 0.9555664
vt 0.2558594 0.9555664
vt 0.2558594 0.8544922
vt 0.7299805 0.8544922
vt 0.7299805 0.9555664
vt 0.8310547 0.9555664
vt 0.8310547 0.8544922
vt 0.2580566 0.4609375
vt 0.2580566 0.5195313
vt 0.3166504 0.5195313
vt 0.3166504 0.4609375
vt 0.2580566 0.4609375
vt 0.2580566 0.5195313
vt 0.3166504 0.5195313
vt 0.3166504 0.4609375
vt 0.2580566 0.4609375
vt 0.2580566 0.5195313
vt 0.3166504 0.5195313
vt 0.3166504 0.4609375
vt 0.4475098 0.8544922
vt 0.4475098 0.9555664
vt 0.5488281 0.9555664
vt 0.5488281 0.8544922
vt 0.7299805 0.8544922
vt 0.7299805 0.9555664
vt 0.8310547 0.9555664
vt 0.8310547 0.8544922
vt 0.09436035 0.4606934
vt 0.09436035 0.5180664
vt 0.1518555 0.5180664
vt 0.1518555 0.4606934
vt 0.09436035 0.4606934
vt 0.09436035 0.5180664
vt 0.1518555 0.5180664
vt 0.1518555 0.4606934
vt 0.1518555 0.4606934
vt 0.09436035 0.4606934
vt 0.09436035 0.5180664
vt 0.1518555 0.5180664
vt 0.217041 0.6767578
vt 0.2883301 0.6767578
vt 0.2883301 0.6054688
vt 0.217041 0.6054688
vt 0.7602539 0.5161133
vt 0.7602539 0.5698242
vt 0.8139648 0.5698242
vt 0.8139648 0.5161133
vt 0.1871338 0.4943848
vt 0.1871338 0.5478516
vt 0.2407227 0.5478516
vt 0.2407227 0.4943848
vt 0.1871338 0.4943848
vt 0.1871338 0.5478516
vt 0.2407227 0.5478516
vt 0.2407227 0.4943848
vt 0.1871338 0.4943848
vt 0.1871338 0.5478516
vt 0.2407227 0.5478516
vt 0.2407227 0.4943848
vt 0.3491211 0.4729004
vt 0.3491211 0.5244141
vt 0.4006348 0.5244141
vt 0.4006348 0.4729004

g TS_MB_12_A_216665_38
usemtl TS_MB_12_A_216665_38
usemap TS_MB_12_A_216665_38
f 1/1/1 3/3/3 2/2/2
f 1/1/1 4/4/4 3/3/3
f 5/5/5 7/7/7 6/6/6
f 5/5/5 8/8/8 7/7/7
f 9/9/9 11/11/11 10/10/10
f 9/9/9 12/12/12 11/11/11
f 13/13/13 15/15/15 14/14/14
f 13/13/13 16/16/16 15/15/15
f 17/17/17 19/19/19 18/18/18
f 17/17/17 20/20/20 19/19/19
f 21/21/21 23/23/23 22/22/22
f 21/21/21 24/24/24 23/23/23
f 25/25/25 27/27/27 26/26/26
f 25/25/25 28/28/28 27/27/27
f 29/29/29 31/31/31 30/30/30
f 29/29/29 32/32/32 31/31/31
f 33/33/33 35/35/35 34/34/34
f 33/33/33 36/36/36 35/35/35
f 37/37/37 39/39/39 38/38/38
f 37/37/37 40/40/40 39/39/39
f 41/41/41 43/43/43 42/42/42
f 41/41/41 44/44/44 43/43/43
f 45/45/45 47/47/47 46/46/46
f 45/45/45 48/48/48 47/47/47
f 49/49/49 51/51/51 50/50/50
f 49/49/49 52/52/52 51/51/51
f 53/53/53 55/55/55 54/54/54
f 53/53/53 56/56/56 55/55/55
f 57/57/57 59/59/59 58/58/58
f 57/57/57 60/60/60 59/59/59
f 61/61/61 63/63/63 62/62/62
f 61/61/61 64/64/64 63/63/63
f 65/65/65 67/67/67 66/66/66
f 65/65/65 68/68/68 67/67/67
f 69/69/69 71/71/71 70/70/70
f 69/69/69 72/72/72 71/71/71
f 73/73/73 75/75/75 74/74/74
f 73/73/73 76/76/76 75/75/75
f 77/77/77 79/79/79 78/78/78
f 77/77/77 80/80/80 79/79/79
f 81/81/81 83/83/83 82/82/82
f 81/81/81 84/84/84 83/83/83
f 85/85/85 87/87/87 86/86/86
f 85/85/85 88/88/88 87/87/87
f 89/89/89 91/91/91 90/90/90
f 89/89/89 92/92/92 91/91/91
f 93/93/93 95/95/95 94/94/94
f 93/93/93 96/96/96 95/95/95
f 97/97/97 99/99/99 98/98/98
f 97/97/97 100/100/100 99/99/99
f 101/101/101 103/103/103 102/102/102
f 101/101/101 104/104/104 103/103/103
f 105/105/105 107/107/107 106/106/106
f 105/105/105 108/108/108 107/107/107
f 109/109/109 111/111/111 110/110/110
f 109/109/109 112/112/112 111/111/111
f 113/113/113 115/115/115 114/114/114
f 113/113/113 116/116/116 115/115/115
f 117/117/117 119/119/119 118/118/118
f 117/117/117 120/120/120 119/119/119
f 121/121/121 123/123/123 122/122/122
f 121/121/121 124/124/124 123/123/123
f 125/125/125 127/127/127 126/126/126
f 125/125/125 128/128/128 127/127/127
f 129/129/129 131/131/131 130/130/130
f 129/129/129 132/132/132 131/131/131
f 133/133/133 135/135/135 134/134/134
f 133/133/133 136/136/136 135/135/135
f 137/137/137 139/139/139 138/138/138
f 137/137/137 140/140/140 139/139/139
f 141/141/141 143/143/143 142/142/142
f 141/141/141 144/144/144 143/143/143
f 145/145/145 147/147/147 146/146/146
f 145/145/145 148/148/148 147/147/147
f 149/149/149 151/151/151 150/150/150
f 149/149/149 152/152/152 151/151/151
f 153/153/153 155/155/155 154/154/154
f 153/153/153 156/156/156 155/155/155
f 157/157/157 159/159/159 158/158/158
f 157/157/157 160/160/160 159/159/159
f 161/161/161 163/163/163 162/162/162
f 161/161/161 164/164/164 163/163/163
f 165/165/165 167/167/167 166/166/166
f 165/165/165 168/168/168 167/167/167
f 169/169/169 171/171/171 170/170/170
f 169/169/169 172/172/172 171/171/171
f 173/173/173 175/175/175 174/174/174
f 173/173/173 176/176/176 175/175/175
