#TS_Rocks_3_205718_20.obj

v 3.797257 -0.5215217 1.727924
v 3.564999 0.3709819 1.286592
v 4.12837 0.3434443 0.1311478
v 3.308123 -0.7060134 2.370311
v 3.310397 -1.573692 2.082079
v 3.266531 -0.03941666 2.774749
v 3.397414 0.8805404 1.940212
v 2.35361 0.8592325 2.993899
v 3.416884 1.332404 0.110714
v 3.126052 1.221974 -1.965845
v 2.729348 1.67219 0.7124701
v 4.12837 0.3434443 0.1311478
v 3.77198 -0.8841303 -0.3785762
v 3.95213 0.804711 -1.526589
v -3.254696 -1.719961 1.749357
v -3.14158 -0.2006776 2.147205
v -2.651316 -0.3007408 2.881871
v -4.128381 -1.181866 -0.2320189
v -3.016557 0.7435889 2.148392
v -3.751699 0.183371 1.510793
v -3.407843 1.476456 1.605957
v -3.375781 1.441342 -1.467419
v -3.751699 0.183371 1.510793
v -3.349973 0.8371242 -2.38717
v -3.848153 0.1951915 -2.629581
v -4.128381 -1.181866 -0.2320189
v -2.959594 -0.04884947 -3.740512
v -3.607514 -0.7764083 -2.847971
v -3.607514 -0.7764083 -2.847971
v 2.172431 2.149551 0.2988505
v 1.965041 1.605302 1.831557
v 0.3481739 1.808777 0.8133859
v -1.497013 1.910611 -0.945421
v -0.3355766 1.47336 2.30987
v -0.4765715 1.949979 1.583842
v -1.687904 1.706769 -0.009705681
v -3.15394 1.626089 0.3610537
v -3.375781 1.441342 -1.467419
v -0.7417572 1.891568 -1.9027
v 1.033185 2.05036 -2.178866
v 2.554888 1.384315 -1.877588
v 2.051495 1.165113 -2.587659
v 0.8344983 1.082908 3.114107
v 2.35361 0.8592325 2.993899
v 3.397414 0.8805404 1.940212
v 2.729348 1.67219 0.7124701
v -1.574525 1.493248 -1.234616
v -0.1641295 1.275678 -2.338378
v -0.2992804 1.071828 -3.615519
v 1.936715 1.149103 -3.200504
v 2.051495 1.165113 -2.587659
v -3.349973 0.8371242 -2.38717
v -2.959594 -0.04884947 -3.740512
v 3.126052 1.221974 -1.965845
v 3.416884 1.332404 0.110714
v -1.008056 -1.855636 1.059699
v 0.2734489 -2.14957 2.763843
v 2.095159 -1.875422 1.52998
v -1.39349 -1.909947 2.885467
v 2.210143 -1.671459 2.363081
v 0.2374663 -1.809955 3.394951
v 2.232417 -1.728884 3.215475
v -2.060519 -2.092879 1.430293
v -2.612828 -1.936974 1.606218
v -1.444938 -1.725382 -0.04549926
v -3.404277 -2.094913 -0.3041846
v -3.254696 -1.719961 1.749357
v 2.542871 -1.62714 0.5184132
v 1.3801 -1.844345 -1.627085
v -0.1635552 -1.434494 -1.420271
v -2.715314 -2.060021 -0.9932778
v 1.495167 -1.498134 -2.096465
v -1.679472 -1.552364 -1.785998
v -2.100005 -1.330711 -3.27992
v 0.6591153 -1.435773 -2.710331
v -3.568366 -1.422229 -1.494316
v -3.607514 -0.7764083 -2.847971
v -4.128381 -1.181866 -0.2320189
v 2.749446 -1.466953 -0.7497206
v 2.5839 -1.545342 -2.584495
v 1.936715 1.149103 -3.200504
v 0.2596437 0.1302084 -3.581748
v 2.298203 -0.524739 -3.013622
v -0.2992804 1.071828 -3.615519
v -0.6095864 -0.9364724 -3.667222
v -2.959594 -0.04884947 -3.740512
v 0.6591153 -1.435773 -2.710331
v 2.5839 -1.545342 -2.584495
v -0.3355766 1.47336 2.30987
v 0.8344983 1.082908 3.114107
v -0.5060318 0.4718049 3.397176
v -0.4347226 -0.4191831 3.740517
v 1.063742 -0.1801519 3.47365
v -1.05289 -0.07942487 3.636522
v -1.494243 -0.9648756 3.214278
v -1.87648 -0.06653912 2.992498
v -2.651316 -0.3007408 2.881871
v -1.39349 -1.909947 2.885467
v -2.612828 -1.936974 1.606218
v -3.254696 -1.719961 1.749357
v -1.956394 0.4562195 2.569807
v -0.9595989 0.7667122 2.857837
v -1.422768 1.542883 2.26638
v -3.016557 0.7435889 2.148392
v -0.4765715 1.949979 1.583842
v -1.300223 0.4977383 3.057462
v -0.728779 -1.030571 3.617243
v -1.39349 -1.909947 2.885467
v 0.1117714 -1.293507 3.655842
v 0.2374663 -1.809955 3.394951
v 2.232417 -1.728884 3.215475
v 2.291605 -0.5324193 3.485537
v 0.2734489 -2.14957 2.763843
v -3.407843 1.476456 1.605957
v 3.266531 -0.03941666 2.774749
v 2.35361 0.8592325 2.993899
v 2.584412 -0.4624693 2.9138
v 3.308123 -0.7060134 2.370311
v 3.310397 -1.573692 2.082079
v 2.210143 -1.671459 2.363081
v 3.77198 -0.8841303 -0.3785762
v 3.95213 0.804711 -1.526589
v 2.819532 -0.9468582 -2.325889
v 2.749446 -1.466953 -0.7497206
v 2.542871 -1.62714 0.5184132
v 3.40556 -1.003157 0.8074052
v 3.310397 -1.573692 2.082079
v 2.210143 -1.671459 2.363081
v 3.797257 -0.5215217 1.727924
v 2.095159 -1.875422 1.52998
v 2.298203 -0.524739 -3.013622
v 3.126052 1.221974 -1.965845
v 2.051495 1.165113 -2.587659
v 3.95213 0.804711 -1.526589
v 2.819532 -0.9468582 -2.325889
v 2.5839 -1.545342 -2.584495
v 2.5839 -1.545342 -2.584495
v 2.749446 -1.466953 -0.7497206
v -3.404277 -2.094913 -0.3041846
v -4.128381 -1.181866 -0.2320189
v -3.254696 -1.719961 1.749357
v 4.12837 0.3434443 0.1311478
v 3.564999 0.3709819 1.286592
v 3.126052 1.221974 -1.965845
v 3.95213 0.804711 -1.526589
v -0.6095864 -0.9364724 -3.667222
v -2.100005 -1.330711 -3.27992
v 0.6591153 -1.435773 -2.710331
v -2.959594 -0.04884947 -3.740512
v -3.607514 -0.7764083 -2.847971
v 2.051495 1.165113 -2.587659
v 1.033185 2.05036 -2.178866
v -0.7417572 1.891568 -1.9027
v -0.1641295 1.275678 -2.338378
v -0.1641295 1.275678 -2.338378
v -0.7417572 1.891568 -1.9027
v -1.574525 1.493248 -1.234616
v -1.497013 1.910611 -0.945421
v 2.210143 -1.671459 2.363081
v 2.232417 -1.728884 3.215475
v 2.584412 -0.4624693 2.9138
v 2.291605 -0.5324193 3.485537
v 2.298203 -0.524739 -3.013622
v 2.051495 1.165113 -2.587659
v 1.936715 1.149103 -3.200504
v -1.422768 1.542883 2.26638
v -3.407843 1.476456 1.605957
v 2.584412 -0.4624693 2.9138
v 2.291605 -0.5324193 3.485537
v 1.063742 -0.1801519 3.47365
v -1.574525 1.493248 -1.234616
v -1.497013 1.910611 -0.945421
v -1.687904 1.706769 -0.009705681

vn 0.6342773 0.1004028 -0.7666016
vn 0.2614746 0.4135742 -0.8720703
vn -0.2303467 0.7563477 -0.6118164
vn 0.8076172 0.3125 -0.5004883
vn 0.9033203 -0.4050293 -0.1408691
vn 0.6870117 0.5605469 -0.4624023
vn 0.1409912 0.6738281 -0.7250977
vn 0.3022461 0.9238281 -0.2358398
vn -0.02760315 0.2998047 -0.9536133
vn 0.3312988 -0.1124268 -0.9370117
vn -0.232666 0.6962891 -0.6787109
vn 0.5297852 -0.2202148 -0.8193359
vn 0.5463867 -0.4995117 -0.6723633
vn 0.1295166 -0.4990234 -0.8569336
vn 0.2978516 0.05142212 0.953125
vn 0.03710938 0.3244629 0.9453125
vn 0.3371582 0.5234375 0.7827148
vn -0.3308105 0.02085876 0.9433594
vn 0.100708 0.855957 0.5068359
vn 0.2198486 0.269043 0.9375
vn -0.5693359 0.6640625 0.4841309
vn -0.8808594 0.3303223 0.3391113
vn -0.5639648 0.1948242 0.8027344
vn -0.949707 0.2421875 0.1976318
vn -0.7021484 0.07476807 0.7080078
vn -0.3308105 0.02085876 0.9433594
vn -0.90625 -0.4191895 -0.05718994
vn -0.2751465 -0.6801758 0.6791992
vn -0.2751465 -0.6801758 0.6791992
vn -0.4992676 0.7392578 -0.4521484
vn -0.2998047 0.9047852 -0.302002
vn -0.543457 0.8193359 -0.1816406
vn -0.6552734 0.7250977 -0.2115479
vn -0.2475586 0.965332 -0.08459473
vn -0.5327148 0.7924805 -0.2963867
vn -0.6972656 0.6757813 -0.2386475
vn -0.7333984 0.6704102 -0.1134644
vn -0.8808594 0.3303223 0.3391113
vn -0.6655273 0.7075195 -0.2374268
vn -0.6591797 0.6323242 -0.4072266
vn -0.5761719 0.4423828 -0.6870117
vn -0.6552734 0.1656494 -0.7373047
vn 0.03086853 0.9985352 -0.04779053
vn 0.3022461 0.9238281 -0.2358398
vn 0.1409912 0.6738281 -0.7250977
vn -0.232666 0.6962891 -0.6787109
vn -0.7524414 0.565918 -0.3371582
vn -0.7368164 0.5839844 -0.3410645
vn -0.8349609 0.4726563 -0.2814941
vn -0.6831055 0.6479492 -0.3369141
vn -0.644043 0.6826172 -0.3452148
vn -0.949707 0.2421875 0.1976318
vn -0.90625 -0.4191895 -0.05718994
vn -0.6040039 0.5566406 -0.5703125
vn -0.02760315 0.2998047 -0.9536133
vn 0.578125 -0.7827148 0.2302246
vn 0.6723633 -0.6894531 0.2695313
vn 0.6132813 -0.7792969 0.128418
vn 0.6650391 -0.2944336 0.6865234
vn 0.7631836 -0.6279297 0.1534424
vn 0.9233398 -0.04653931 0.3806152
vn 0.6098633 -0.7543945 0.2421875
vn 0.5830078 -0.7568359 0.2963867
vn 0.7080078 -0.3894043 0.5888672
vn 0.6801758 -0.7055664 0.1983643
vn 0.4604492 -0.6621094 0.5913086
vn 0.2978516 0.05142212 0.953125
vn 0.6582031 -0.7441406 0.1160278
vn 0.6083984 -0.7553711 0.2436523
vn 0.4699707 -0.8325195 0.293457
vn 0.4589844 -0.8666992 0.1947021
vn 0.5493164 -0.7954102 0.2561035
vn 0.4672852 -0.8681641 0.1663818
vn 0.1340332 -0.9628906 0.2340088
vn 0.3549805 -0.9321289 0.07171631
vn 0.08532715 -0.7939453 0.6020508
vn -0.2751465 -0.6801758 0.6791992
vn -0.3308105 0.02085876 0.9433594
vn 0.6796875 -0.7182617 -0.1484375
vn 0.6513672 -0.684082 0.3286133
vn -0.515625 -0.7060547 -0.4853516
vn -0.5332031 -0.7177734 -0.447998
vn -0.3540039 -0.8632813 -0.3601074
vn -0.6337891 -0.6796875 -0.3693848
vn -0.3259277 -0.9155273 -0.2357178
vn -0.90625 -0.4191895 -0.05718994
vn 0.3549805 -0.9321289 0.07171631
vn -0.3417969 -0.9208984 -0.1871338
vn -0.2475586 0.965332 -0.08459473
vn 0.03086853 0.9985352 -0.04779053
vn 0.1080933 0.9770508 0.1838379
vn 0.574707 0.7827148 0.2384033
vn 0.5629883 0.8188477 0.1110229
vn 0.2526855 0.7949219 0.5517578
vn 0.5263672 0.4445801 0.7246094
vn 0.1999512 0.8251953 0.527832
vn 0.3371582 0.5234375 0.7827148
vn 0.6650391 -0.2944336 0.6865234
vn 0.7080078 -0.3894043 0.5888672
vn 0.2978516 0.05142212 0.953125
vn 0.25 0.9384766 0.2391357
vn -0.2497559 0.9370117 0.2442627
vn -0.07940674 0.9897461 0.1189575
vn 0.100708 0.855957 0.5068359
vn -0.5327148 0.7924805 -0.2963867
vn -0.03182983 0.9082031 0.4169922
vn 0.6669922 0.4150391 0.6191406
vn 0.6650391 -0.2944336 0.6865234
vn 0.7944336 0.5131836 0.3244629
vn 0.9233398 -0.04653931 0.3806152
vn 0.8383789 0.5043945 0.2071533
vn 0.7758789 0.5961914 0.2061768
vn 0.6723633 -0.6894531 0.2695313
vn -0.5693359 0.6640625 0.4841309
vn 0.6870117 0.5605469 -0.4624023
vn 0.3022461 0.9238281 -0.2358398
vn 0.9130859 0.4057617 0.03829956
vn 0.8076172 0.3125 -0.5004883
vn 0.9033203 -0.4050293 -0.1408691
vn 0.9536133 0.2651367 0.1431885
vn 0.5463867 -0.4995117 -0.6723633
vn 0.1295166 -0.4990234 -0.8569336
vn 0.2585449 -0.5620117 -0.7856445
vn 0.6796875 -0.7182617 -0.1484375
vn 0.6582031 -0.7441406 0.1160278
vn 0.7128906 -0.5683594 -0.4108887
vn 0.9033203 -0.4050293 -0.1408691
vn 0.7631836 -0.6279297 0.1534424
vn 0.6342773 0.1004028 -0.7666016
vn 0.6132813 -0.7792969 0.128418
vn -0.2507324 -0.5117188 -0.8217773
vn -0.4763184 -0.4089355 -0.7783203
vn -0.5307617 -0.3962402 -0.7490234
vn 0.1295166 -0.4990234 -0.8569336
vn 0.2585449 -0.5620117 -0.7856445
vn 0.3669434 -0.3730469 -0.8520508
vn 0.3669434 -0.3730469 -0.8520508
vn 0.6796875 -0.7182617 -0.1484375
vn 0.4604492 -0.6621094 0.5913086
vn -0.3308105 0.02085876 0.9433594
vn 0.2978516 0.05142212 0.953125
vn -0.2303467 0.7563477 -0.6118164
vn 0.2614746 0.4135742 -0.8720703
vn -0.2983398 0.7763672 -0.5546875
vn -0.3015137 0.7988281 -0.5200195
vn -0.3259277 -0.9155273 -0.2357178
vn 0.1340332 -0.9628906 0.2340088
vn 0.3549805 -0.9321289 0.07171631
vn -0.90625 -0.4191895 -0.05718994
vn -0.2751465 -0.6801758 0.6791992
vn -0.8779297 -0.4174805 -0.2348633
vn -0.8461914 -0.4987793 -0.1878662
vn -0.8989258 -0.338623 -0.2773438
vn -0.9169922 -0.2183838 -0.3334961
vn -0.746582 -0.5673828 0.347168
vn -0.7832031 -0.5141602 0.3496094
vn -0.8813477 -0.1447754 0.4501953
vn -0.8115234 0.05044556 0.5825195
vn 0.5419922 -0.2342529 -0.8071289
vn 0.5927734 -0.1485596 -0.7915039
vn 0.6723633 0.008224487 -0.7402344
vn 0.7382813 0.2012939 -0.644043
vn 0.1512451 -0.007526398 -0.9882813
vn 0.1512451 -0.007526398 -0.9882813
vn 0.1512451 -0.007526398 -0.9882813
vn -0.07940674 0.9897461 0.1189575
vn -0.5693359 0.6640625 0.4841309
vn -0.3291016 0.8330078 -0.4450684
vn -0.3291016 0.8330078 -0.4450684
vn -0.3291016 0.8330078 -0.4450684
vn -0.8813477 -0.1447754 0.4501953
vn -0.8115234 0.05044556 0.5825195
vn -0.6503906 0.104248 0.7524414

vt 0.2214355 0.3015137
vt 0.2026367 0.2907715
vt 0.184082 0.3063965
vt 0.2384033 0.2893066
vt 0.2437744 0.309082
vt 0.2368164 0.2749023
vt 0.2081299 0.2746582
vt 0.2218018 0.2489014
vt 0.175293 0.2834473
vt 0.1403809 0.296875
vt 0.1795654 0.267334
vt 0.184082 0.3063965
vt 0.18396 0.3356934
vt 0.1540527 0.3083496
vt 0.1617432 0.08093262
vt 0.1651611 0.1223145
vt 0.1894531 0.1297607
vt 0.0904541 0.1054077
vt 0.1618652 0.1442871
vt 0.1407471 0.1296387
vt 0.1450195 0.1550293
vt 0.08526611 0.1804199
vt 0.1407471 0.1296387
vt 0.05990601 0.1838379
vt 0.04119873 0.1705322
vt 0.0904541 0.1054077
vt 0.03207397 0.2105713
vt 0.02482605 0.1472168
vt 0.01010132 0.1876221
vt 0.1677246 0.2592773
vt 0.1936035 0.2470703
vt 0.163208 0.2260742
vt 0.1182251 0.2130127
vt 0.1883545 0.2001953
vt 0.1697998 0.2047119
vt 0.1304932 0.1990967
vt 0.1237793 0.1707764
vt 0.08526611 0.1804199
vt 0.1109619 0.2327881
vt 0.1234741 0.2617188
vt 0.1369629 0.2861328
vt 0.1182251 0.2878418
vt 0.2149658 0.2177734
vt 0.2218018 0.2489014
vt 0.2081299 0.2746582
vt 0.1795654 0.267334
vt 0.1069946 0.2113037
vt 0.1015625 0.2476807
vt 0.07818604 0.2575684
vt 0.1075439 0.2893066
vt 0.1182251 0.2878418
vt 0.05990601 0.1838379
vt 0.03207397 0.2105713
vt 0.1403809 0.296875
vt 0.175293 0.2834473
vt 0.331543 0.1231689
vt 0.2988281 0.1719971
vt 0.347168 0.2111816
vt 0.2717285 0.1278076
vt 0.3249512 0.2224121
vt 0.2807617 0.1760254
vt 0.3015137 0.2312012
vt 0.3112793 0.0994873
vt 0.302002 0.08599854
vt 0.3569336 0.1016846
vt 0.3449707 0.04876709
vt 0.2919922 0.06976318
vt 0.3803711 0.213623
vt 0.4267578 0.1619873
vt 0.4082031 0.1206665
vt 0.3674316 0.05822754
vt 0.4421387 0.1604004
vt 0.4016113 0.07580566
vt 0.4367676 0.04891968
vt 0.4494629 0.1323242
vt 0.3745117 0.02780151
vt 0.4121094 0.00737381
vt 0.3347168 0.02041626
vt 0.4172363 0.2071533
vt 0.4645996 0.1845703
vt 0.1075439 0.2893066
vt 0.07037354 0.2788086
vt 0.1017456 0.3288574
vt 0.07818604 0.2575684
vt 0.03753662 0.2753906
vt 0.03207397 0.2105713
vt 0.04727173 0.3222656
vt 0.1015015 0.3557129
vt 0.1883545 0.2001953
vt 0.2149658 0.2177734
vt 0.2167969 0.1811523
vt 0.2387695 0.1722412
vt 0.2484131 0.2181396
vt 0.2233887 0.1627197
vt 0.2313232 0.1333008
vt 0.203125 0.1459961
vt 0.1894531 0.1297607
vt 0.2354736 0.1009521
vt 0.1807861 0.07263184
vt 0.1617432 0.08093262
vt 0.1871338 0.1544189
vt 0.1993408 0.1772461
vt 0.175293 0.1804199
vt 0.1618652 0.1442871
vt 0.1697998 0.2047119
vt 0.2022705 0.1660156
vt 0.246582 0.1566162
vt 0.2717285 0.1278076
vt 0.2646484 0.1776123
vt 0.2807617 0.1760254
vt 0.3015137 0.2312012
vt 0.2668457 0.2514648
vt 0.2988281 0.1719971
vt 0.1450195 0.1550293
vt 0.2368164 0.2749023
vt 0.2218018 0.2489014
vt 0.2529297 0.2658691
vt 0.2384033 0.2893066
vt 0.2437744 0.309082
vt 0.270752 0.3088379
vt 0.18396 0.3356934
vt 0.1540527 0.3083496
vt 0.1218262 0.3491211
vt 0.1777344 0.3637695
vt 0.2260742 0.3522949
vt 0.213623 0.3266602
vt 0.2437744 0.309082
vt 0.270752 0.3088379
vt 0.2214355 0.3015137
vt 0.2580566 0.333252
vt 0.1017456 0.3288574
vt 0.1403809 0.296875
vt 0.1182251 0.2878418
vt 0.1540527 0.3083496
vt 0.1218262 0.3491211
vt 0.1015015 0.3557129
vt 0.1167603 0.3669434
vt 0.1777344 0.3637695
vt 0.3449707 0.04876709
vt 0.3347168 0.02041626
vt 0.2919922 0.06976318
vt 0.184082 0.3063965
vt 0.2026367 0.2907715
vt 0.1403809 0.296875
vt 0.1540527 0.3083496
vt 0.03753662 0.2753906
vt 0.00390625 0.244873
vt 0.04727173 0.3222656
vt 0.03207397 0.2105713
vt 0.01010132 0.1876221
vt 0.1182251 0.2878418
vt 0.1234741 0.2617188
vt 0.1109619 0.2327881
vt 0.1015625 0.2476807
vt 0.1015625 0.2476807
vt 0.1109619 0.2327881
vt 0.1069946 0.2113037
vt 0.1182251 0.2130127
vt 0.270752 0.3088379
vt 0.2858887 0.2866211
vt 0.2529297 0.2658691
vt 0.2668457 0.2514648
vt 0.1017456 0.3288574
vt 0.1182251 0.2878418
vt 0.1075439 0.2893066
vt 0.175293 0.1804199
vt 0.1450195 0.1550293
vt 0.2529297 0.2658691
vt 0.2668457 0.2514648
vt 0.2484131 0.2181396
vt 0.1069946 0.2113037
vt 0.1182251 0.2130127
vt 0.1304932 0.1990967

g TS_Rocks_3_205718_20
usemtl TS_Rocks_3_205718_20
usemap TS_Rocks_3_205718_20
f 1/1/1 3/3/3 2/2/2
f 1/1/1 2/2/2 4/4/4
f 4/4/4 5/5/5 1/1/1
f 4/4/4 2/2/2 6/6/6
f 2/2/2 7/7/7 6/6/6
f 7/7/7 8/8/8 6/6/6
f 7/7/7 2/2/2 9/9/9
f 2/2/2 10/10/10 9/9/9
f 11/11/11 7/7/7 9/9/9
f 1/1/1 13/13/13 12/12/12
f 13/13/13 14/14/14 12/12/12
f 15/15/15 17/17/17 16/16/16
f 16/16/16 18/18/18 15/15/15
f 17/17/17 19/19/19 16/16/16
f 18/18/18 16/16/16 20/20/20
f 20/20/20 16/16/16 21/21/21
f 19/19/19 21/21/21 16/16/16
f 22/22/22 23/23/23 21/21/21
f 23/23/23 22/22/22 24/24/24
f 25/25/25 23/23/23 24/24/24
f 26/26/26 23/23/23 25/25/25
f 25/25/25 24/24/24 27/27/27
f 25/25/25 28/28/28 26/26/26
f 27/27/27 29/29/29 25/25/25
f 30/30/30 32/32/32 31/31/31
f 33/33/33 32/32/32 30/30/30
f 34/34/34 31/31/31 32/32/32
f 32/32/32 35/35/35 34/34/34
f 32/32/32 36/36/36 35/35/35
f 33/33/33 36/36/36 32/32/32
f 36/36/36 37/37/37 35/35/35
f 38/38/38 37/37/37 36/36/36
f 30/30/30 39/39/39 33/33/33
f 39/39/39 30/30/30 40/40/40
f 40/40/40 30/30/30 41/41/41
f 40/40/40 41/41/41 42/42/42
f 31/31/31 34/34/34 43/43/43
f 31/31/31 43/43/43 44/44/44
f 31/31/31 44/44/44 45/45/45
f 46/46/46 31/31/31 45/45/45
f 47/47/47 38/38/38 36/36/36
f 48/48/48 38/38/38 47/47/47
f 48/48/48 49/49/49 38/38/38
f 50/50/50 49/49/49 48/48/48
f 50/50/50 48/48/48 51/51/51
f 49/49/49 52/52/52 38/38/38
f 49/49/49 53/53/53 52/52/52
f 41/41/41 30/30/30 46/46/46
f 31/31/31 46/46/46 30/30/30
f 54/54/54 41/41/41 46/46/46
f 54/54/54 42/42/42 41/41/41
f 54/54/54 46/46/46 55/55/55
f 56/56/56 58/58/58 57/57/57
f 59/59/59 56/56/56 57/57/57
f 58/58/58 60/60/60 57/57/57
f 57/57/57 60/60/60 61/61/61
f 61/61/61 60/60/60 62/62/62
f 59/59/59 63/63/63 56/56/56
f 59/59/59 64/64/64 63/63/63
f 63/63/63 64/64/64 65/65/65
f 65/65/65 56/56/56 63/63/63
f 65/65/65 58/58/58 56/56/56
f 66/66/66 65/65/65 64/64/64
f 66/66/66 64/64/64 67/67/67
f 68/68/68 58/58/58 65/65/65
f 69/69/69 68/68/68 65/65/65
f 69/69/69 65/65/65 70/70/70
f 71/71/71 70/70/70 65/65/65
f 71/71/71 65/65/65 66/66/66
f 72/72/72 69/69/69 70/70/70
f 71/71/71 73/73/73 70/70/70
f 74/74/74 70/70/70 73/73/73
f 75/75/75 70/70/70 74/74/74
f 75/75/75 72/72/72 70/70/70
f 74/74/74 73/73/73 76/76/76
f 76/76/76 73/73/73 71/71/71
f 76/76/76 71/71/71 66/66/66
f 77/77/77 74/74/74 76/76/76
f 77/77/77 76/76/76 78/78/78
f 78/78/78 76/76/76 66/66/66
f 68/68/68 69/69/69 79/79/79
f 72/72/72 79/79/79 69/69/69
f 72/72/72 80/80/80 79/79/79
f 80/80/80 72/72/72 75/75/75
f 81/81/81 83/83/83 82/82/82
f 84/84/84 81/81/81 82/82/82
f 85/85/85 84/84/84 82/82/82
f 83/83/83 85/85/85 82/82/82
f 85/85/85 86/86/86 84/84/84
f 87/87/87 85/85/85 83/83/83
f 87/87/87 83/83/83 88/88/88
f 89/89/89 91/91/91 90/90/90
f 90/90/90 91/91/91 92/92/92
f 92/92/92 93/93/93 90/90/90
f 94/94/94 92/92/92 91/91/91
f 94/94/94 95/95/95 92/92/92
f 94/94/94 96/96/96 95/95/95
f 96/96/96 94/94/94 91/91/91
f 96/96/96 97/97/97 95/95/95
f 97/97/97 98/98/98 95/95/95
f 97/97/97 99/99/99 98/98/98
f 99/99/99 97/97/97 100/100/100
f 97/97/97 96/96/96 101/101/101
f 102/102/102 89/89/89 101/101/101
f 91/91/91 89/89/89 102/102/102
f 101/101/101 103/103/103 97/97/97
f 103/103/103 101/101/101 89/89/89
f 104/104/104 97/97/97 103/103/103
f 89/89/89 105/105/105 103/103/103
f 96/96/96 106/106/106 101/101/101
f 91/91/91 106/106/106 96/96/96
f 101/101/101 106/106/106 102/102/102
f 91/91/91 102/102/102 106/106/106
f 92/92/92 95/95/95 107/107/107
f 107/107/107 95/95/95 108/108/108
f 107/107/107 108/108/108 109/109/109
f 110/110/110 109/109/109 108/108/108
f 111/111/111 109/109/109 110/110/110
f 112/112/112 109/109/109 111/111/111
f 113/113/113 110/110/110 108/108/108
f 93/93/93 109/109/109 112/112/112
f 92/92/92 109/109/109 93/93/93
f 109/109/109 92/92/92 107/107/107
f 103/103/103 114/114/114 104/104/104
f 115/115/115 116/116/116 93/93/93
f 117/117/117 115/115/115 93/93/93
f 118/118/118 115/115/115 117/117/117
f 119/119/119 118/118/118 117/117/117
f 119/119/119 117/117/117 120/120/120
f 116/116/116 90/90/90 93/93/93
f 121/121/121 123/123/123 122/122/122
f 123/123/123 121/121/121 124/124/124
f 121/121/121 125/125/125 124/124/124
f 121/121/121 126/126/126 125/125/125
f 126/126/126 127/127/127 125/125/125
f 125/125/125 127/127/127 128/128/128
f 129/129/129 127/127/127 126/126/126
f 129/129/129 126/126/126 121/121/121
f 125/125/125 128/128/128 130/130/130
f 131/131/131 133/133/133 132/132/132
f 134/134/134 131/131/131 132/132/132
f 134/134/134 135/135/135 131/131/131
f 136/136/136 131/131/131 135/135/135
f 137/137/137 135/135/135 138/138/138
f 139/139/139 141/141/141 140/140/140
f 142/142/142 144/144/144 143/143/143
f 144/144/144 142/142/142 145/145/145
f 146/146/146 148/148/148 147/147/147
f 149/149/149 146/146/146 147/147/147
f 149/149/149 147/147/147 150/150/150
f 151/151/151 153/153/153 152/152/152
f 151/151/151 154/154/154 153/153/153
f 155/155/155 157/157/157 156/156/156
f 158/158/158 156/156/156 157/157/157
f 159/159/159 161/161/161 160/160/160
f 162/162/162 160/160/160 161/161/161
f 163/163/163 165/165/165 164/164/164
f 35/35/35 167/167/167 166/166/166
f 35/35/35 37/37/37 167/167/167
f 167/167/167 37/37/37 38/38/38
f 168/168/168 170/170/170 169/169/169
f 171/171/171 173/173/173 172/172/172
